<svg width="375" height="172" viewBox="0 0 375 172" fill="none" xmlns="http://www.w3.org/2000/svg">
<g opacity="0.2">
<path d="M235.918 72.3695L236.345 72.1977C238.701 71.2492 239.535 67.3528 238.206 63.4947L229.245 67.1017C226.889 68.0502 226.056 71.9467 227.385 75.8048C228.714 79.6629 231.701 82.0211 234.058 81.0726C236.414 80.124 237.247 76.2277 235.918 72.3695Z" fill="url(#paint0_linear_6302_113556)"/>
<path d="M246.431 76.091C245.102 72.2329 242.115 69.8746 239.758 70.8231L236.345 72.1972L235.918 72.369L231.652 74.0866C230.073 74.7222 228.211 73.8714 226.754 72.0811C226.745 73.2552 226.947 74.5328 227.385 75.8043C228.714 79.6624 231.702 82.0206 234.058 81.0721L246.431 76.091Z" fill="#0B57E0"/>
</g>
<g opacity="0.2">
<path d="M364.473 161.055L364.9 160.883C367.256 159.935 368.089 156.038 366.76 152.18L357.8 155.787C355.444 156.736 354.61 160.632 355.939 164.49C357.268 168.348 360.256 170.707 362.612 169.758C364.969 168.81 365.802 164.913 364.473 161.055Z" fill="url(#paint1_linear_6302_113556)"/>
<path d="M374.986 164.777C373.657 160.918 370.67 158.56 368.313 159.509L364.9 160.883L364.473 161.055L360.206 162.772C358.627 163.408 356.766 162.557 355.309 160.767C355.3 161.941 355.501 163.218 355.939 164.49C357.268 168.348 360.256 170.706 362.612 169.758L374.986 164.777Z" fill="#0B57E0"/>
</g>
<g opacity="0.2">
<path d="M279.43 29.6303L279.857 29.4585C282.213 28.5099 283.046 24.6135 281.717 20.7554L272.757 24.3624C270.401 25.3109 269.567 29.2075 270.896 33.0656C272.225 36.9237 275.213 39.2819 277.569 38.3334C279.926 37.3848 280.759 33.4884 279.43 29.6303Z" fill="url(#paint2_linear_6302_113556)"/>
<path d="M289.943 33.3517C288.614 29.4936 285.627 27.1353 283.27 28.0839L279.857 29.4579L279.43 29.6297L275.163 31.3473C273.584 31.9829 271.723 31.1321 270.266 29.3419C270.257 30.5159 270.458 31.7936 270.896 33.065C272.225 36.9231 275.213 39.2813 277.569 38.3328L289.943 33.3517Z" fill="#0B57E0"/>
</g>
<g opacity="0.2">
<path d="M274.485 110.835L274.911 110.664C277.268 109.715 278.101 105.819 276.772 101.96L267.812 105.567C265.456 106.516 264.622 110.413 265.951 114.271C267.28 118.129 270.268 120.487 272.624 119.538C274.98 118.59 275.814 114.693 274.485 110.835Z" fill="url(#paint3_linear_6302_113556)"/>
<path d="M284.998 114.557C283.669 110.699 280.681 108.34 278.325 109.289L274.912 110.663L274.485 110.835L270.218 112.552C268.639 113.188 266.777 112.337 265.32 110.547C265.311 111.721 265.513 112.999 265.951 114.27C267.28 118.128 270.268 120.486 272.624 119.538L284.998 114.557Z" fill="#0B57E0"/>
</g>
<g opacity="0.2">
<path d="M346.674 16.809L347.101 16.6372C349.457 15.6886 350.29 11.7922 348.962 7.93412L340.001 11.5411C337.645 12.4896 336.812 16.3862 338.141 20.2443C339.469 24.1024 342.457 26.4606 344.814 25.5121C347.17 24.5635 348.003 20.6671 346.674 16.809Z" fill="url(#paint4_linear_6302_113556)"/>
<path d="M357.187 20.5305C355.858 16.6723 352.871 14.314 350.514 15.2626L347.101 16.6366L346.674 16.8084L342.407 18.5261C340.829 19.1616 338.967 18.3109 337.51 16.5206C337.501 17.6946 337.703 18.9723 338.141 20.2437C339.469 24.1018 342.457 26.46 344.814 25.5115L357.187 20.5305Z" fill="#0B57E0"/>
</g>
<g opacity="0.2">
<path d="M323.93 121.521L324.357 121.349C326.713 120.401 327.546 116.504 326.217 112.646L317.257 116.253C314.901 117.202 314.067 121.098 315.396 124.956C316.725 128.814 319.713 131.173 322.069 130.224C324.426 129.275 325.259 125.379 323.93 121.521Z" fill="url(#paint5_linear_6302_113556)"/>
<path d="M334.443 125.242C333.114 121.384 330.127 119.026 327.77 119.975L324.357 121.349L323.93 121.52L319.663 123.238C318.084 123.874 316.223 123.023 314.766 121.232C314.757 122.407 314.958 123.684 315.396 124.956C316.725 128.814 319.713 131.172 322.069 130.223L334.443 125.242Z" fill="#0B57E0"/>
</g>
<g opacity="0.2">
<path d="M59.1126 85.6774L58.6572 85.6791C56.1426 85.6883 54.1134 89.0327 54.125 93.1493L63.6869 93.1143C66.2013 93.1051 68.2308 89.7607 68.2192 85.6441C68.2076 81.5275 66.1592 78.198 63.6448 78.2072C61.1302 78.2164 59.101 81.5608 59.1126 85.6774Z" fill="url(#paint6_linear_6302_113556)"/>
<path d="M50.4411 78.2557C50.4527 82.3724 52.5008 85.7018 55.0154 85.6926L58.6579 85.6793L59.1133 85.6776L63.6666 85.661C65.3514 85.6548 66.8259 87.149 67.6197 89.3733C68.0042 88.2752 68.2238 87.0009 68.2199 85.6443C68.2083 81.5277 66.16 78.1982 63.6455 78.2074L50.4411 78.2557Z" fill="#0B57E0"/>
</g>
<g opacity="0.2">
<path d="M8.6829 7.67742L8.22747 7.67909C5.71287 7.68829 3.68367 11.0327 3.69529 15.1493L13.2572 15.1143C15.7716 15.1051 17.8011 11.7607 17.7895 7.6441C17.7779 3.52745 15.7295 0.197998 13.2151 0.207199C10.7005 0.216401 8.67127 3.56077 8.6829 7.67742Z" fill="url(#paint7_linear_6302_113556)"/>
<path d="M0.0114377 0.255733C0.0230617 4.37238 2.07111 7.70183 4.58571 7.69263L8.22823 7.6793L8.68366 7.67764L13.2369 7.66098C14.9217 7.65481 16.3962 9.14898 17.19 11.3733C17.5745 10.2752 17.7941 9.00093 17.7903 7.64431C17.7786 3.52767 15.7303 0.198213 13.2158 0.207414L0.0114377 0.255733Z" fill="#0B57E0"/>
</g>
<g opacity="0.2">
<path d="M95.6985 148.718L95.2431 148.72C92.7285 148.729 90.6993 152.074 90.7109 156.19L100.273 156.155C102.787 156.146 104.817 152.802 104.805 148.685C104.794 144.568 102.745 141.239 100.231 141.248C97.7161 141.257 95.6869 144.602 95.6985 148.718Z" fill="url(#paint8_linear_6302_113556)"/>
<path d="M87.0271 141.297C87.0387 145.413 89.0867 148.743 91.6013 148.734L95.2439 148.72L95.6993 148.719L100.253 148.702C101.937 148.696 103.412 150.19 104.206 152.414C104.59 151.316 104.81 150.042 104.806 148.685C104.794 144.569 102.746 141.239 100.231 141.248L87.0271 141.297Z" fill="#0B57E0"/>
</g>
<g opacity="0.2">
<path d="M100.642 26.9098L100.186 26.9115C97.6719 26.9207 95.6426 30.2651 95.6543 34.3817L105.216 34.3467C107.731 34.3375 109.76 30.9931 109.748 26.8765C109.737 22.7599 107.689 19.4304 105.174 19.4396C102.659 19.4488 100.63 22.7932 100.642 26.9098Z" fill="url(#paint9_linear_6302_113556)"/>
<path d="M91.9704 19.4882C91.982 23.6048 94.0301 26.9343 96.5447 26.9251L100.187 26.9117L100.643 26.9101L105.196 26.8934C106.881 26.8872 108.355 28.3814 109.149 30.6058C109.533 29.5076 109.753 28.2334 109.749 26.8767C109.738 22.7601 107.689 19.4306 105.175 19.4398L91.9704 19.4882Z" fill="#0B57E0"/>
</g>
<g opacity="0.2">
<path d="M27.4661 148.718L27.0107 148.72C24.4961 148.729 22.4669 152.074 22.4785 156.19L32.0404 156.155C34.5548 156.146 36.5843 152.802 36.5727 148.685C36.5611 144.568 34.5127 141.239 31.9983 141.248C29.4837 141.257 27.4545 144.602 27.4661 148.718Z" fill="url(#paint10_linear_6302_113556)"/>
<path d="M18.7946 141.297C18.8063 145.413 20.8543 148.743 23.3689 148.734L27.0114 148.72L27.4669 148.719L32.0201 148.702C33.7049 148.696 35.1794 150.19 35.9732 152.414C36.3577 151.316 36.5773 150.042 36.5735 148.685C36.5618 144.569 34.5135 141.239 31.999 141.248L18.7946 141.297Z" fill="#0B57E0"/>
</g>
<g opacity="0.2">
<path d="M50.2122 39.7311L49.7568 39.7328C47.2422 39.742 45.213 43.0864 45.2246 47.203L54.7865 47.168C57.3009 47.1588 59.3304 43.8144 59.3188 39.6978C59.3072 35.5812 57.2588 32.2517 54.7444 32.2609C52.2298 32.2701 50.2006 35.6145 50.2122 39.7311Z" fill="url(#paint11_linear_6302_113556)"/>
<path d="M41.5407 32.3094C41.5524 36.4261 43.6004 39.7555 46.115 39.7463L49.7575 39.733L50.213 39.7313L54.7662 39.7147C56.451 39.7085 57.9255 41.2027 58.7193 43.427C59.1038 42.3289 59.3234 41.0546 59.3196 39.698C59.3079 35.5814 57.2596 32.2519 54.7451 32.2611L41.5407 32.3094Z" fill="#0B57E0"/>
</g>
<defs>
<linearGradient id="paint0_linear_6302_113556" x1="231.592" y1="66.1569" x2="237.103" y2="79.8467" gradientUnits="userSpaceOnUse">
<stop stop-color="#0652DD"/>
<stop offset="0.473958" stop-color="#083587"/>
<stop offset="1" stop-color="#0176C3"/>
</linearGradient>
<linearGradient id="paint1_linear_6302_113556" x1="360.147" y1="154.842" x2="365.658" y2="168.532" gradientUnits="userSpaceOnUse">
<stop stop-color="#0652DD"/>
<stop offset="0.473958" stop-color="#083587"/>
<stop offset="1" stop-color="#0176C3"/>
</linearGradient>
<linearGradient id="paint2_linear_6302_113556" x1="275.104" y1="23.4177" x2="280.615" y2="37.1074" gradientUnits="userSpaceOnUse">
<stop stop-color="#0652DD"/>
<stop offset="0.473958" stop-color="#083587"/>
<stop offset="1" stop-color="#0176C3"/>
</linearGradient>
<linearGradient id="paint3_linear_6302_113556" x1="270.159" y1="104.623" x2="275.67" y2="118.312" gradientUnits="userSpaceOnUse">
<stop stop-color="#0652DD"/>
<stop offset="0.473958" stop-color="#083587"/>
<stop offset="1" stop-color="#0176C3"/>
</linearGradient>
<linearGradient id="paint4_linear_6302_113556" x1="342.348" y1="10.5964" x2="347.859" y2="24.2861" gradientUnits="userSpaceOnUse">
<stop stop-color="#0652DD"/>
<stop offset="0.473958" stop-color="#083587"/>
<stop offset="1" stop-color="#0176C3"/>
</linearGradient>
<linearGradient id="paint5_linear_6302_113556" x1="319.604" y1="115.308" x2="325.115" y2="128.998" gradientUnits="userSpaceOnUse">
<stop stop-color="#0652DD"/>
<stop offset="0.473958" stop-color="#083587"/>
<stop offset="1" stop-color="#0176C3"/>
</linearGradient>
<linearGradient id="paint6_linear_6302_113556" x1="61.1825" y1="93.1235" x2="61.1279" y2="78.2164" gradientUnits="userSpaceOnUse">
<stop stop-color="#0652DD"/>
<stop offset="0.473958" stop-color="#083587"/>
<stop offset="1" stop-color="#0176C3"/>
</linearGradient>
<linearGradient id="paint7_linear_6302_113556" x1="10.7528" y1="15.1235" x2="10.6982" y2="0.216408" gradientUnits="userSpaceOnUse">
<stop stop-color="#0652DD"/>
<stop offset="0.473958" stop-color="#083587"/>
<stop offset="1" stop-color="#0176C3"/>
</linearGradient>
<linearGradient id="paint8_linear_6302_113556" x1="97.7684" y1="156.164" x2="97.7138" y2="141.257" gradientUnits="userSpaceOnUse">
<stop stop-color="#0652DD"/>
<stop offset="0.473958" stop-color="#083587"/>
<stop offset="1" stop-color="#0176C3"/>
</linearGradient>
<linearGradient id="paint9_linear_6302_113556" x1="102.712" y1="34.3559" x2="102.657" y2="19.4488" gradientUnits="userSpaceOnUse">
<stop stop-color="#0652DD"/>
<stop offset="0.473958" stop-color="#083587"/>
<stop offset="1" stop-color="#0176C3"/>
</linearGradient>
<linearGradient id="paint10_linear_6302_113556" x1="29.536" y1="156.164" x2="29.4814" y2="141.257" gradientUnits="userSpaceOnUse">
<stop stop-color="#0652DD"/>
<stop offset="0.473958" stop-color="#083587"/>
<stop offset="1" stop-color="#0176C3"/>
</linearGradient>
<linearGradient id="paint11_linear_6302_113556" x1="52.2821" y1="47.1772" x2="52.2275" y2="32.2701" gradientUnits="userSpaceOnUse">
<stop stop-color="#0652DD"/>
<stop offset="0.473958" stop-color="#083587"/>
<stop offset="1" stop-color="#0176C3"/>
</linearGradient>
</defs>
</svg>
