<svg width="1440" height="216" viewBox="0 0 1440 216" fill="none" xmlns="http://www.w3.org/2000/svg">
<g clip-path="url(#clip0_3583_111020)">
<rect width="1440" height="216" fill="#03296F"/>
<path d="M898.426 99.8279L899.29 99.5063C904.055 97.7308 905.74 90.4375 903.053 83.2159L884.931 89.9675C880.165 91.7429 878.479 99.0364 881.167 106.258C883.855 113.48 889.898 117.894 894.663 116.118C899.429 114.343 901.114 107.049 898.426 99.8279Z" fill="url(#paint0_linear_3583_111020)"/>
<path d="M919.689 106.795C917.001 99.5735 910.959 95.1592 906.193 96.9347L899.29 99.5067L898.427 99.8283L889.797 103.043C886.604 104.233 882.839 102.64 879.892 99.2894C879.873 101.487 880.282 103.879 881.168 106.258C883.855 113.48 889.898 117.894 894.664 116.119L919.689 106.795Z" fill="#0B57E0"/>
<path d="M1398.43 182.828L1399.29 182.506C1404.06 180.731 1405.74 173.437 1403.05 166.216L1384.93 172.968C1380.17 174.743 1378.48 182.036 1381.17 189.258C1383.85 196.48 1389.9 200.894 1394.66 199.118C1399.43 197.343 1401.11 190.049 1398.43 182.828Z" fill="url(#paint1_linear_3583_111020)"/>
<path d="M1419.69 189.795C1417 182.574 1410.96 178.159 1406.19 179.935L1399.29 182.507L1398.43 182.828L1389.8 186.043C1386.6 187.233 1382.84 185.64 1379.89 182.289C1379.87 184.487 1380.28 186.879 1381.17 189.258C1383.86 196.48 1389.9 200.894 1394.66 199.119L1419.69 189.795Z" fill="#0B57E0"/>
<path d="M1065.43 59.8279L1066.29 59.5063C1071.06 57.7308 1072.74 50.4375 1070.05 43.2159L1051.93 49.9675C1047.17 51.7429 1045.48 59.0364 1048.17 66.258C1050.85 73.4796 1056.9 77.8937 1061.66 76.1183C1066.43 74.3427 1068.11 67.0495 1065.43 59.8279Z" fill="url(#paint2_linear_3583_111020)"/>
<path d="M1086.69 66.7951C1084 59.5735 1077.96 55.1592 1073.19 56.9347L1066.29 59.5067L1065.43 59.8283L1056.8 63.0433C1053.6 64.2329 1049.84 62.6405 1046.89 59.2894C1046.87 61.487 1047.28 63.8785 1048.17 66.2584C1050.86 73.48 1056.9 77.8941 1061.66 76.1187L1086.69 66.7951Z" fill="#0B57E0"/>
<path d="M1045.43 135.828L1046.29 135.506C1051.06 133.731 1052.74 126.437 1050.05 119.216L1031.93 125.968C1027.17 127.743 1025.48 135.036 1028.17 142.258C1030.85 149.48 1036.9 153.894 1041.66 152.118C1046.43 150.343 1048.11 143.049 1045.43 135.828Z" fill="url(#paint3_linear_3583_111020)"/>
<path d="M1066.69 142.795C1064 135.574 1057.96 131.159 1053.19 132.935L1046.29 135.507L1045.43 135.828L1036.8 139.043C1033.6 140.233 1029.84 138.64 1026.89 135.289C1026.87 137.487 1027.28 139.879 1028.17 142.258C1030.86 149.48 1036.9 153.894 1041.66 152.119L1066.69 142.795Z" fill="#0B57E0"/>
<path d="M1327.43 47.8279L1328.29 47.5063C1333.06 45.7308 1334.74 38.4375 1332.05 31.2159L1313.93 37.9675C1309.17 39.7429 1307.48 47.0364 1310.17 54.258C1312.85 61.4796 1318.9 65.8937 1323.66 64.1183C1328.43 62.3427 1330.11 55.0495 1327.43 47.8279Z" fill="url(#paint4_linear_3583_111020)"/>
<path d="M1348.69 54.7951C1346 47.5735 1339.96 43.1592 1335.19 44.9347L1328.29 47.5067L1327.43 47.8283L1318.8 51.0433C1315.6 52.2329 1311.84 50.6405 1308.89 47.2894C1308.87 49.487 1309.28 51.8785 1310.17 54.2584C1312.86 61.48 1318.9 65.8941 1323.66 64.1187L1348.69 54.7951Z" fill="#0B57E0"/>
<path d="M1236.43 154.828L1237.29 154.506C1242.06 152.731 1243.74 145.437 1241.05 138.216L1222.93 144.968C1218.17 146.743 1216.48 154.036 1219.17 161.258C1221.85 168.48 1227.9 172.894 1232.66 171.118C1237.43 169.343 1239.11 162.049 1236.43 154.828Z" fill="url(#paint5_linear_3583_111020)"/>
<path d="M1257.69 161.795C1255 154.574 1248.96 150.159 1244.19 151.935L1237.29 154.507L1236.43 154.828L1227.8 158.043C1224.6 159.233 1220.84 157.64 1217.89 154.289C1217.87 156.487 1218.28 158.879 1219.17 161.258C1221.86 168.48 1227.9 172.894 1232.66 171.119L1257.69 161.795Z" fill="#0B57E0"/>
<path d="M534.12 127L546.832 86.68H556.716L569.428 127H562.484L550.948 90.824H552.46L541.064 127H534.12ZM541.204 118.264V111.964H562.372V118.264H541.204ZM589.022 127.84C586.073 127.84 583.6 127.14 581.602 125.74C579.605 124.34 578.102 122.436 577.094 120.028C576.086 117.601 575.582 114.885 575.582 111.88C575.582 108.837 576.086 106.112 577.094 103.704C578.102 101.296 579.577 99.4013 581.518 98.02C583.478 96.62 585.896 95.92 588.77 95.92C591.626 95.92 594.1 96.62 596.19 98.02C598.3 99.4013 599.933 101.296 601.09 103.704C602.248 106.093 602.826 108.819 602.826 111.88C602.826 114.904 602.257 117.62 601.118 120.028C599.98 122.436 598.374 124.34 596.302 125.74C594.23 127.14 591.804 127.84 589.022 127.84ZM574.434 127V86.68H581.238V105.776H580.398V127H574.434ZM587.986 121.792C589.741 121.792 591.188 121.353 592.326 120.476C593.465 119.599 594.305 118.413 594.846 116.92C595.406 115.408 595.686 113.728 595.686 111.88C595.686 110.051 595.406 108.389 594.846 106.896C594.286 105.384 593.418 104.189 592.242 103.312C591.066 102.416 589.573 101.968 587.762 101.968C586.045 101.968 584.645 102.388 583.562 103.228C582.48 104.049 581.677 105.207 581.154 106.7C580.65 108.175 580.398 109.901 580.398 111.88C580.398 113.84 580.65 115.567 581.154 117.06C581.677 118.553 582.489 119.72 583.59 120.56C584.71 121.381 586.176 121.792 587.986 121.792ZM622.354 127.84C619.33 127.84 616.689 127.159 614.43 125.796C612.171 124.433 610.417 122.557 609.166 120.168C607.934 117.76 607.318 114.997 607.318 111.88C607.318 108.707 607.953 105.925 609.222 103.536C610.491 101.147 612.255 99.28 614.514 97.936C616.773 96.592 619.386 95.92 622.354 95.92C625.397 95.92 628.047 96.6013 630.306 97.964C632.565 99.3267 634.319 101.212 635.57 103.62C636.821 106.009 637.446 108.763 637.446 111.88C637.446 115.016 636.811 117.788 635.542 120.196C634.291 122.585 632.537 124.461 630.278 125.824C628.019 127.168 625.378 127.84 622.354 127.84ZM622.354 121.512C625.042 121.512 627.039 120.616 628.346 118.824C629.653 117.032 630.306 114.717 630.306 111.88C630.306 108.949 629.643 106.616 628.318 104.88C626.993 103.125 625.005 102.248 622.354 102.248C620.543 102.248 619.05 102.659 617.874 103.48C616.717 104.283 615.858 105.412 615.298 106.868C614.738 108.305 614.458 109.976 614.458 111.88C614.458 114.811 615.121 117.153 616.446 118.908C617.79 120.644 619.759 121.512 622.354 121.512ZM654.955 127.868C652.715 127.868 650.867 127.495 649.411 126.748C647.955 126.001 646.798 125.049 645.939 123.892C645.081 122.735 644.446 121.503 644.035 120.196C643.625 118.889 643.354 117.657 643.223 116.5C643.111 115.324 643.055 114.372 643.055 113.644V96.76H649.887V111.32C649.887 112.253 649.953 113.308 650.083 114.484C650.214 115.641 650.513 116.761 650.979 117.844C651.465 118.908 652.174 119.785 653.107 120.476C654.059 121.167 655.338 121.512 656.943 121.512C657.802 121.512 658.651 121.372 659.491 121.092C660.331 120.812 661.087 120.336 661.759 119.664C662.45 118.973 663.001 118.031 663.411 116.836C663.822 115.641 664.027 114.129 664.027 112.3L668.031 114.008C668.031 116.584 667.527 118.917 666.519 121.008C665.53 123.099 664.065 124.769 662.123 126.02C660.182 127.252 657.793 127.868 654.955 127.868ZM664.839 127V117.62H664.027V96.76H670.803V127H664.839ZM696.394 127C694.397 127.373 692.437 127.532 690.514 127.476C688.61 127.439 686.902 127.093 685.39 126.44C683.878 125.768 682.73 124.713 681.946 123.276C681.255 121.969 680.891 120.635 680.854 119.272C680.817 117.909 680.798 116.369 680.798 114.652V88.36H687.518V114.26C687.518 115.473 687.527 116.537 687.546 117.452C687.583 118.367 687.779 119.113 688.134 119.692C688.806 120.812 689.879 121.437 691.354 121.568C692.829 121.699 694.509 121.624 696.394 121.344V127ZM675.31 102.052V96.76H696.394V102.052H675.31ZM731.16 127.84C727.128 127.84 723.674 126.963 720.8 125.208C717.925 123.435 715.713 120.971 714.164 117.816C712.633 114.661 711.868 111.003 711.868 106.84C711.868 102.677 712.633 99.0187 714.164 95.864C715.713 92.7093 717.925 90.2547 720.8 88.5C723.674 86.7267 727.128 85.84 731.16 85.84C735.808 85.84 739.681 87.0067 742.78 89.34C745.878 91.6547 748.053 94.7813 749.304 98.72L742.5 100.596C741.716 97.964 740.381 95.9107 738.496 94.436C736.61 92.9427 734.165 92.196 731.16 92.196C728.453 92.196 726.194 92.8027 724.384 94.016C722.592 95.2293 721.238 96.9373 720.324 99.14C719.428 101.324 718.97 103.891 718.952 106.84C718.952 109.789 719.4 112.365 720.296 114.568C721.21 116.752 722.573 118.451 724.384 119.664C726.194 120.877 728.453 121.484 731.16 121.484C734.165 121.484 736.61 120.737 738.496 119.244C740.381 117.751 741.716 115.697 742.5 113.084L749.304 114.96C748.053 118.899 745.878 122.035 742.78 124.368C739.681 126.683 735.808 127.84 731.16 127.84ZM768.807 127.84C765.783 127.84 763.142 127.159 760.883 125.796C758.625 124.433 756.87 122.557 755.619 120.168C754.387 117.76 753.771 114.997 753.771 111.88C753.771 108.707 754.406 105.925 755.675 103.536C756.945 101.147 758.709 99.28 760.967 97.936C763.226 96.592 765.839 95.92 768.807 95.92C771.85 95.92 774.501 96.6013 776.759 97.964C779.018 99.3267 780.773 101.212 782.023 103.62C783.274 106.009 783.899 108.763 783.899 111.88C783.899 115.016 783.265 117.788 781.995 120.196C780.745 122.585 778.99 124.461 776.731 125.824C774.473 127.168 771.831 127.84 768.807 127.84ZM768.807 121.512C771.495 121.512 773.493 120.616 774.799 118.824C776.106 117.032 776.759 114.717 776.759 111.88C776.759 108.949 776.097 106.616 774.771 104.88C773.446 103.125 771.458 102.248 768.807 102.248C766.997 102.248 765.503 102.659 764.327 103.48C763.17 104.283 762.311 105.412 761.751 106.868C761.191 108.305 760.911 109.976 760.911 111.88C760.911 114.811 761.574 117.153 762.899 118.908C764.243 120.644 766.213 121.512 768.807 121.512ZM797.151 127L786.175 96.76H792.923L800.539 118.684L808.127 96.76H814.903L803.927 127H797.151ZM832.582 127.84C829.521 127.84 826.833 127.177 824.518 125.852C822.203 124.527 820.393 122.688 819.086 120.336C817.798 117.984 817.154 115.277 817.154 112.216C817.154 108.912 817.789 106.047 819.058 103.62C820.327 101.175 822.091 99.28 824.35 97.936C826.609 96.592 829.222 95.92 832.19 95.92C835.326 95.92 837.986 96.6573 840.17 98.132C842.373 99.588 844.006 101.651 845.07 104.32C846.134 106.989 846.535 110.135 846.274 113.756H839.582V111.292C839.563 108.007 838.985 105.608 837.846 104.096C836.707 102.584 834.915 101.828 832.47 101.828C829.707 101.828 827.654 102.687 826.31 104.404C824.966 106.103 824.294 108.595 824.294 111.88C824.294 114.941 824.966 117.312 826.31 118.992C827.654 120.672 829.614 121.512 832.19 121.512C833.851 121.512 835.279 121.148 836.474 120.42C837.687 119.673 838.621 118.6 839.274 117.2L845.938 119.216C844.781 121.941 842.989 124.06 840.562 125.572C838.154 127.084 835.494 127.84 832.582 127.84ZM822.166 113.756V108.66H842.97V113.756H822.166ZM852.522 127V96.76H858.486V104.124L857.758 103.172C858.131 102.164 858.626 101.249 859.242 100.428C859.876 99.588 860.632 98.8973 861.51 98.356C862.256 97.852 863.078 97.46 863.974 97.18C864.888 96.8813 865.822 96.704 866.774 96.648C867.726 96.5733 868.65 96.6107 869.546 96.76V103.06C868.65 102.799 867.614 102.715 866.438 102.808C865.28 102.901 864.235 103.228 863.302 103.788C862.368 104.292 861.603 104.936 861.006 105.72C860.427 106.504 859.998 107.4 859.718 108.408C859.438 109.397 859.298 110.471 859.298 111.628V127H852.522ZM875.449 127V85.84H882.197V127H875.449ZM894.56 140.44L900.384 124.452L900.496 129.156L887.308 96.76H894.336L903.688 120.728H901.896L910.996 96.76H917.744L900.888 140.44H894.56Z" fill="white"/>
<path d="M514.539 105.014L513.618 105.017C508.533 105.035 504.429 111.295 504.452 119L523.791 118.935C528.876 118.917 532.981 112.657 532.957 104.952C532.934 97.2463 528.791 91.0142 523.706 91.0314C518.62 91.0487 514.516 97.3086 514.539 105.014Z" fill="url(#paint6_linear_3583_111020)"/>
<path d="M497 91.1221C497.023 98.8276 501.165 105.06 506.251 105.042L513.618 105.017L514.539 105.014L523.748 104.983C527.156 104.972 530.138 107.768 531.743 111.932C532.521 109.876 532.965 107.491 532.957 104.952C532.934 97.2465 528.791 91.0144 523.706 91.0316L497 91.1221Z" fill="#0B57E0"/>
<path d="M11.5395 42.0142L10.6184 42.0173C5.53261 42.0345 1.42858 48.2946 1.45209 56L20.7909 55.9345C25.8763 55.9173 29.9809 49.6572 29.9574 41.9518C29.9339 34.2463 25.7912 28.0142 20.7057 28.0314C15.62 28.0487 11.5159 34.3086 11.5395 42.0142Z" fill="url(#paint7_linear_3583_111020)"/>
<path d="M-6.00019 28.1221C-5.97668 35.8276 -1.83454 42.0596 3.25121 42.0424L10.6182 42.0175L11.5393 42.0143L20.7481 41.9832C24.1557 41.9716 27.1377 44.7684 28.7432 48.9319C29.5208 46.8764 29.965 44.4913 29.9572 41.952C29.9337 34.2465 25.791 28.0144 20.7055 28.0316L-6.00019 28.1221Z" fill="#0B57E0"/>
<path d="M348.539 151.014L347.618 151.017C342.533 151.035 338.429 157.295 338.452 165L357.791 164.935C362.876 164.917 366.981 158.657 366.957 150.952C366.934 143.246 362.791 137.014 357.706 137.031C352.62 137.049 348.516 143.309 348.539 151.014Z" fill="url(#paint8_linear_3583_111020)"/>
<path d="M331 137.122C331.023 144.828 335.165 151.06 340.251 151.042L347.618 151.017L348.539 151.014L357.748 150.983C361.156 150.972 364.138 153.768 365.743 157.932C366.521 155.876 366.965 153.491 366.957 150.952C366.934 143.246 362.791 137.014 357.706 137.032L331 137.122Z" fill="#0B57E0"/>
<path d="M365.539 75.0142L364.618 75.0173C359.533 75.0345 355.429 81.2946 355.452 89L374.791 88.9345C379.876 88.9173 383.981 82.6572 383.957 74.9518C383.934 67.2463 379.791 61.0142 374.706 61.0314C369.62 61.0487 365.516 67.3086 365.539 75.0142Z" fill="url(#paint9_linear_3583_111020)"/>
<path d="M348 61.1221C348.023 68.8276 352.165 75.0596 357.251 75.0424L364.618 75.0175L365.539 75.0143L374.748 74.9832C378.156 74.9716 381.138 77.7684 382.743 81.9319C383.521 79.8764 383.965 77.4913 383.957 74.952C383.934 67.2465 379.791 61.0144 374.706 61.0316L348 61.1221Z" fill="#0B57E0"/>
<path d="M87.5395 174.014L86.6184 174.017C81.5326 174.035 77.4286 180.295 77.4521 188L96.7909 187.935C101.876 187.917 105.981 181.657 105.957 173.952C105.934 166.246 101.791 160.014 96.7057 160.031C91.62 160.049 87.5159 166.309 87.5395 174.014Z" fill="url(#paint10_linear_3583_111020)"/>
<path d="M69.9998 160.122C70.0233 167.828 74.1655 174.06 79.2512 174.042L86.6182 174.017L87.5393 174.014L96.7481 173.983C100.156 173.972 103.138 176.768 104.743 180.932C105.521 178.876 105.965 176.491 105.957 173.952C105.934 166.246 101.791 160.014 96.7055 160.032L69.9998 160.122Z" fill="#0B57E0"/>
<path d="M172.539 72.0142L171.618 72.0173C166.533 72.0345 162.429 78.2946 162.452 86L181.791 85.9345C186.876 85.9173 190.981 79.6572 190.957 71.9518C190.934 64.2463 186.791 58.0142 181.706 58.0314C176.62 58.0487 172.516 64.3086 172.539 72.0142Z" fill="url(#paint11_linear_3583_111020)"/>
<path d="M155 58.1221C155.023 65.8276 159.165 72.0596 164.251 72.0424L171.618 72.0175L172.539 72.0143L181.748 71.9832C185.156 71.9716 188.138 74.7684 189.743 78.9319C190.521 76.8764 190.965 74.4913 190.957 71.952C190.934 64.2465 186.791 58.0144 181.706 58.0316L155 58.1221Z" fill="#0B57E0"/>
</g>
<defs>
<linearGradient id="paint0_linear_3583_111020" x1="889.677" y1="88.1992" x2="899.419" y2="114.347" gradientUnits="userSpaceOnUse">
<stop stop-color="#0652DD"/>
<stop offset="0.473958" stop-color="#083587"/>
<stop offset="1" stop-color="#0176C3"/>
</linearGradient>
<linearGradient id="paint1_linear_3583_111020" x1="1389.68" y1="171.199" x2="1399.42" y2="197.347" gradientUnits="userSpaceOnUse">
<stop stop-color="#0652DD"/>
<stop offset="0.473958" stop-color="#083587"/>
<stop offset="1" stop-color="#0176C3"/>
</linearGradient>
<linearGradient id="paint2_linear_3583_111020" x1="1056.68" y1="48.1992" x2="1066.42" y2="74.3466" gradientUnits="userSpaceOnUse">
<stop stop-color="#0652DD"/>
<stop offset="0.473958" stop-color="#083587"/>
<stop offset="1" stop-color="#0176C3"/>
</linearGradient>
<linearGradient id="paint3_linear_3583_111020" x1="1036.68" y1="124.199" x2="1046.42" y2="150.347" gradientUnits="userSpaceOnUse">
<stop stop-color="#0652DD"/>
<stop offset="0.473958" stop-color="#083587"/>
<stop offset="1" stop-color="#0176C3"/>
</linearGradient>
<linearGradient id="paint4_linear_3583_111020" x1="1318.68" y1="36.1992" x2="1328.42" y2="62.3466" gradientUnits="userSpaceOnUse">
<stop stop-color="#0652DD"/>
<stop offset="0.473958" stop-color="#083587"/>
<stop offset="1" stop-color="#0176C3"/>
</linearGradient>
<linearGradient id="paint5_linear_3583_111020" x1="1227.68" y1="143.199" x2="1237.42" y2="169.347" gradientUnits="userSpaceOnUse">
<stop stop-color="#0652DD"/>
<stop offset="0.473958" stop-color="#083587"/>
<stop offset="1" stop-color="#0176C3"/>
</linearGradient>
<linearGradient id="paint6_linear_3583_111020" x1="518.726" y1="118.952" x2="518.631" y2="91.0486" gradientUnits="userSpaceOnUse">
<stop stop-color="#0652DD"/>
<stop offset="0.473958" stop-color="#083587"/>
<stop offset="1" stop-color="#0176C3"/>
</linearGradient>
<linearGradient id="paint7_linear_3583_111020" x1="15.7257" y1="55.9517" x2="15.6312" y2="28.0486" gradientUnits="userSpaceOnUse">
<stop stop-color="#0652DD"/>
<stop offset="0.473958" stop-color="#083587"/>
<stop offset="1" stop-color="#0176C3"/>
</linearGradient>
<linearGradient id="paint8_linear_3583_111020" x1="352.726" y1="164.952" x2="352.631" y2="137.049" gradientUnits="userSpaceOnUse">
<stop stop-color="#0652DD"/>
<stop offset="0.473958" stop-color="#083587"/>
<stop offset="1" stop-color="#0176C3"/>
</linearGradient>
<linearGradient id="paint9_linear_3583_111020" x1="369.726" y1="88.9517" x2="369.631" y2="61.0486" gradientUnits="userSpaceOnUse">
<stop stop-color="#0652DD"/>
<stop offset="0.473958" stop-color="#083587"/>
<stop offset="1" stop-color="#0176C3"/>
</linearGradient>
<linearGradient id="paint10_linear_3583_111020" x1="91.7257" y1="187.952" x2="91.6312" y2="160.049" gradientUnits="userSpaceOnUse">
<stop stop-color="#0652DD"/>
<stop offset="0.473958" stop-color="#083587"/>
<stop offset="1" stop-color="#0176C3"/>
</linearGradient>
<linearGradient id="paint11_linear_3583_111020" x1="176.726" y1="85.9517" x2="176.631" y2="58.0486" gradientUnits="userSpaceOnUse">
<stop stop-color="#0652DD"/>
<stop offset="0.473958" stop-color="#083587"/>
<stop offset="1" stop-color="#0176C3"/>
</linearGradient>
<clipPath id="clip0_3583_111020">
<rect width="1440" height="216" fill="white"/>
</clipPath>
</defs>
</svg>
