<svg width="1440" height="216" viewBox="0 0 1440 216" fill="none" xmlns="http://www.w3.org/2000/svg">
<g clip-path="url(#clip0_4679_111764)">
<rect width="1440" height="216" fill="#03296F"/>
<path d="M889.638 101.118L889.488 89.4208L898.921 94.5012C898.632 94.6698 898.344 94.8416 898.059 95.0146C897.912 95.1038 897.764 95.1945 897.614 95.2866L892.412 92.4845L890.827 91.6314L890.85 93.4309L890.935 100.023C890.493 100.385 890.059 100.751 889.638 101.118ZM891.899 93.3996L897.637 96.4902C897.953 96.291 898.272 96.0942 898.595 95.8987C899.422 95.3973 900.25 94.9207 901.074 94.4693L888.416 87.6527L888.619 103.449C889.648 102.462 890.775 101.474 891.99 100.5L891.899 93.3996Z" fill="#6D6D6D"/>
<path d="M899.495 98.401C899.85 98.0964 900.357 98.0474 900.768 98.2708L901.911 98.8913C902.687 99.3128 902.713 100.417 901.958 100.875L895.866 104.567C894.855 105.18 893.877 104.159 894.637 103.253C895.982 101.648 897.617 100.01 899.495 98.401ZM900.276 116.827C895.811 117.433 892.405 116.687 891.037 114.429C890.681 113.842 890.48 113.18 890.422 112.458C890.391 112.071 890.608 111.714 890.939 111.513L908.787 100.697C909.542 100.239 909.516 99.1345 908.74 98.713L904.631 96.4817C903.891 96.0799 903.825 95.0451 904.522 94.5721C905.397 93.9778 906.304 93.3953 907.239 92.8285C909.107 91.6965 910.977 90.6944 912.814 89.8288C912.857 89.8086 912.835 89.747 912.789 89.7586C912.879 89.7359 912.97 89.7122 913.06 89.6896C913.133 89.6712 913.204 89.6465 913.273 89.6149C913.369 89.5704 913.465 89.5263 913.562 89.4826C913.191 89.5971 912.817 89.7186 912.439 89.8471C912.438 89.8472 912.438 89.8473 912.438 89.8473C912.438 89.8474 912.437 89.8475 912.437 89.8476C909.055 90.9978 905.395 92.7014 901.739 94.9113C901.717 94.924 901.695 94.9373 901.673 94.9504C900.842 95.4544 900.034 95.9708 899.251 96.4966C898.989 96.672 898.731 96.8485 898.476 97.0259C896.026 98.7264 893.839 100.517 891.982 102.31C891.822 102.464 891.664 102.619 891.508 102.774C890.42 103.858 889.454 104.94 888.627 106C885.571 109.912 884.386 113.53 885.81 115.881C887.639 118.898 893.312 119.07 900.276 116.827Z" fill="#0652DD"/>
<path d="M1389.64 184.118L1389.49 172.421L1398.92 177.501C1398.63 177.67 1398.34 177.842 1398.06 178.015C1397.91 178.104 1397.76 178.195 1397.61 178.287L1392.41 175.484L1390.83 174.631L1390.85 176.431L1390.93 183.023C1390.49 183.385 1390.06 183.751 1389.64 184.118ZM1391.9 176.4L1397.64 179.49C1397.95 179.291 1398.27 179.094 1398.59 178.899C1399.42 178.397 1400.25 177.921 1401.07 177.469L1388.42 170.653L1388.62 186.449C1389.65 185.462 1390.77 184.474 1391.99 183.5L1391.9 176.4Z" fill="#6D6D6D"/>
<path d="M1399.49 181.401C1399.85 181.096 1400.36 181.047 1400.77 181.271L1401.91 181.891C1402.69 182.313 1402.71 183.417 1401.96 183.875L1395.87 187.567C1394.85 188.18 1393.88 187.159 1394.64 186.253C1395.98 184.648 1397.62 183.01 1399.49 181.401ZM1400.27 199.827C1395.81 200.433 1392.4 199.687 1391.04 197.429C1390.68 196.842 1390.48 196.18 1390.42 195.458C1390.39 195.071 1390.61 194.714 1390.94 194.513L1408.79 183.697C1409.54 183.239 1409.52 182.135 1408.74 181.713L1404.63 179.482C1403.89 179.08 1403.82 178.045 1404.52 177.572C1405.4 176.978 1406.3 176.395 1407.24 175.828C1409.11 174.697 1410.98 173.694 1412.81 172.829C1412.86 172.809 1412.83 172.747 1412.79 172.759C1412.88 172.736 1412.97 172.712 1413.06 172.69C1413.13 172.671 1413.2 172.646 1413.27 172.615C1413.37 172.57 1413.46 172.526 1413.56 172.483C1413.19 172.597 1412.82 172.719 1412.44 172.847C1412.44 172.847 1412.44 172.847 1412.44 172.847C1412.44 172.847 1412.44 172.848 1412.44 172.848C1409.05 173.998 1405.39 175.701 1401.74 177.911C1401.72 177.924 1401.69 177.937 1401.67 177.95C1400.84 178.454 1400.03 178.971 1399.25 179.497C1398.99 179.672 1398.73 179.849 1398.47 180.026C1396.02 181.726 1393.84 183.517 1391.98 185.31C1391.82 185.464 1391.66 185.619 1391.51 185.774C1390.42 186.858 1389.45 187.94 1388.63 189C1385.57 192.912 1384.38 196.53 1385.81 198.881C1387.64 201.898 1393.31 202.07 1400.27 199.827Z" fill="#0652DD"/>
<path d="M1056.64 61.1179L1056.49 49.4208L1065.92 54.5012C1065.63 54.6698 1065.34 54.8416 1065.06 55.0146C1064.91 55.1038 1064.76 55.1945 1064.61 55.2866L1059.41 52.4845L1057.83 51.6314L1057.85 53.4309L1057.93 60.0234C1057.49 60.3849 1057.06 60.7505 1056.64 61.1179ZM1058.9 53.3996L1064.64 56.4902C1064.95 56.291 1065.27 56.0942 1065.59 55.8987C1066.42 55.3973 1067.25 54.9207 1068.07 54.4693L1055.42 47.6527L1055.62 63.4492C1056.65 62.4616 1057.77 61.4737 1058.99 60.5L1058.9 53.3996Z" fill="#6D6D6D"/>
<path d="M1066.49 58.401C1066.85 58.0964 1067.36 58.0474 1067.77 58.2708L1068.91 58.8913C1069.69 59.3128 1069.71 60.4174 1068.96 60.8752L1062.87 64.5669C1061.85 65.1797 1060.88 64.1587 1061.64 63.2526C1062.98 61.6478 1064.62 60.0101 1066.49 58.401ZM1067.27 76.8269C1062.81 77.433 1059.4 76.6866 1058.04 74.4285C1057.68 73.8416 1057.48 73.1801 1057.42 72.4575C1057.39 72.0706 1057.61 71.7141 1057.94 71.5129L1075.79 60.6969C1076.54 60.2392 1076.52 59.1345 1075.74 58.713L1071.63 56.4817C1070.89 56.0799 1070.82 55.0451 1071.52 54.5721C1072.4 53.9778 1073.3 53.3953 1074.24 52.8285C1076.11 51.6965 1077.98 50.6944 1079.81 49.8288C1079.86 49.8086 1079.83 49.747 1079.79 49.7586C1079.88 49.7359 1079.97 49.7122 1080.06 49.6896C1080.13 49.6712 1080.2 49.6465 1080.27 49.6149C1080.37 49.5704 1080.46 49.5263 1080.56 49.4826C1080.19 49.5971 1079.82 49.7186 1079.44 49.8471C1079.44 49.8472 1079.44 49.8473 1079.44 49.8473C1079.44 49.8474 1079.44 49.8475 1079.44 49.8476C1076.05 50.9978 1072.39 52.7014 1068.74 54.9113C1068.72 54.924 1068.69 54.9373 1068.67 54.9504C1067.84 55.4544 1067.03 55.9708 1066.25 56.4966C1065.99 56.672 1065.73 56.8485 1065.47 57.0259C1063.02 58.7264 1060.84 60.5167 1058.98 62.3096C1058.82 62.4645 1058.66 62.6193 1058.51 62.7742C1057.42 63.8581 1056.45 64.94 1055.63 66.0004C1052.57 69.9115 1051.38 73.5304 1052.81 75.8806C1054.64 78.8979 1060.31 79.0699 1067.27 76.8269Z" fill="#0652DD"/>
<path d="M1036.64 137.118L1036.49 125.421L1045.92 130.501C1045.63 130.67 1045.34 130.842 1045.06 131.015C1044.91 131.104 1044.76 131.195 1044.61 131.287L1039.41 128.484L1037.83 127.631L1037.85 129.431L1037.93 136.023C1037.49 136.385 1037.06 136.751 1036.64 137.118ZM1038.9 129.4L1044.64 132.49C1044.95 132.291 1045.27 132.094 1045.59 131.899C1046.42 131.397 1047.25 130.921 1048.07 130.469L1035.42 123.653L1035.62 139.449C1036.65 138.462 1037.78 137.474 1038.99 136.5L1038.9 129.4Z" fill="#6D6D6D"/>
<path d="M1046.49 134.401C1046.85 134.096 1047.36 134.047 1047.77 134.271L1048.91 134.891C1049.69 135.313 1049.71 136.417 1048.96 136.875L1042.87 140.567C1041.86 141.18 1040.88 140.159 1041.64 139.253C1042.98 137.648 1044.62 136.01 1046.49 134.401ZM1047.28 152.827C1042.81 153.433 1039.41 152.687 1038.04 150.429C1037.68 149.842 1037.48 149.18 1037.42 148.458C1037.39 148.071 1037.61 147.714 1037.94 147.513L1055.79 136.697C1056.54 136.239 1056.52 135.135 1055.74 134.713L1051.63 132.482C1050.89 132.08 1050.83 131.045 1051.52 130.572C1052.4 129.978 1053.3 129.395 1054.24 128.828C1056.11 127.697 1057.98 126.694 1059.81 125.829C1059.86 125.809 1059.84 125.747 1059.79 125.759C1059.88 125.736 1059.97 125.712 1060.06 125.69C1060.13 125.671 1060.2 125.646 1060.27 125.615C1060.37 125.57 1060.47 125.526 1060.56 125.483C1060.19 125.597 1059.82 125.719 1059.44 125.847C1059.44 125.847 1059.44 125.847 1059.44 125.847C1059.44 125.847 1059.44 125.848 1059.44 125.848C1056.06 126.998 1052.39 128.701 1048.74 130.911C1048.72 130.924 1048.7 130.937 1048.67 130.95C1047.84 131.454 1047.03 131.971 1046.25 132.497C1045.99 132.672 1045.73 132.849 1045.48 133.026C1043.03 134.726 1040.84 136.517 1038.98 138.31C1038.82 138.464 1038.66 138.619 1038.51 138.774C1037.42 139.858 1036.45 140.94 1035.63 142C1032.57 145.912 1031.39 149.53 1032.81 151.881C1034.64 154.898 1040.31 155.07 1047.28 152.827Z" fill="#0652DD"/>
<path d="M1318.64 49.1179L1318.49 37.4208L1327.92 42.5012C1327.63 42.6698 1327.34 42.8416 1327.06 43.0146C1326.91 43.1038 1326.76 43.1945 1326.61 43.2866L1321.41 40.4845L1319.83 39.6314L1319.85 41.4309L1319.93 48.0234C1319.49 48.3849 1319.06 48.7505 1318.64 49.1179ZM1320.9 41.3996L1326.64 44.4902C1326.95 44.291 1327.27 44.0942 1327.59 43.8987C1328.42 43.3973 1329.25 42.9207 1330.07 42.4693L1317.42 35.6527L1317.62 51.4492C1318.65 50.4616 1319.77 49.4737 1320.99 48.5L1320.9 41.3996Z" fill="#6D6D6D"/>
<path d="M1328.49 46.401C1328.85 46.0964 1329.36 46.0474 1329.77 46.2708L1330.91 46.8913C1331.69 47.3128 1331.71 48.4174 1330.96 48.8752L1324.87 52.5669C1323.85 53.1797 1322.88 52.1587 1323.64 51.2526C1324.98 49.6478 1326.62 48.0101 1328.49 46.401ZM1329.27 64.8269C1324.81 65.433 1321.4 64.6866 1320.04 62.4285C1319.68 61.8416 1319.48 61.1801 1319.42 60.4575C1319.39 60.0706 1319.61 59.7141 1319.94 59.5129L1337.79 48.6969C1338.54 48.2392 1338.52 47.1345 1337.74 46.713L1333.63 44.4817C1332.89 44.0799 1332.82 43.0451 1333.52 42.5721C1334.4 41.9778 1335.3 41.3953 1336.24 40.8285C1338.11 39.6965 1339.98 38.6944 1341.81 37.8288C1341.86 37.8086 1341.83 37.747 1341.79 37.7586C1341.88 37.7359 1341.97 37.7122 1342.06 37.6896C1342.13 37.6712 1342.2 37.6465 1342.27 37.6149C1342.37 37.5704 1342.46 37.5263 1342.56 37.4826C1342.19 37.5971 1341.82 37.7186 1341.44 37.8471C1341.44 37.8472 1341.44 37.8473 1341.44 37.8473C1341.44 37.8474 1341.44 37.8475 1341.44 37.8476C1338.05 38.9978 1334.39 40.7014 1330.74 42.9113C1330.72 42.924 1330.69 42.9373 1330.67 42.9504C1329.84 43.4544 1329.03 43.9708 1328.25 44.4966C1327.99 44.672 1327.73 44.8485 1327.47 45.0259C1325.02 46.7264 1322.84 48.5167 1320.98 50.3096C1320.82 50.4645 1320.66 50.6193 1320.51 50.7742C1319.42 51.8581 1318.45 52.94 1317.63 54.0004C1314.57 57.9115 1313.38 61.5304 1314.81 63.8806C1316.64 66.8979 1322.31 67.0699 1329.27 64.8269Z" fill="#0652DD"/>
<path d="M1229.64 147.118L1229.49 135.421L1238.92 140.501C1238.63 140.67 1238.34 140.842 1238.06 141.015C1237.91 141.104 1237.76 141.195 1237.61 141.287L1232.41 138.484L1230.83 137.631L1230.85 139.431L1230.93 146.023C1230.49 146.385 1230.06 146.751 1229.64 147.118ZM1231.9 139.4L1237.64 142.49C1237.95 142.291 1238.27 142.094 1238.59 141.899C1239.42 141.397 1240.25 140.921 1241.07 140.469L1228.42 133.653L1228.62 149.449C1229.65 148.462 1230.77 147.474 1231.99 146.5L1231.9 139.4Z" fill="#6D6D6D"/>
<path d="M1239.49 144.401C1239.85 144.096 1240.36 144.047 1240.77 144.271L1241.91 144.891C1242.69 145.313 1242.71 146.417 1241.96 146.875L1235.87 150.567C1234.85 151.18 1233.88 150.159 1234.64 149.253C1235.98 147.648 1237.62 146.01 1239.49 144.401ZM1240.27 162.827C1235.81 163.433 1232.4 162.687 1231.04 160.429C1230.68 159.842 1230.48 159.18 1230.42 158.458C1230.39 158.071 1230.61 157.714 1230.94 157.513L1248.79 146.697C1249.54 146.239 1249.52 145.135 1248.74 144.713L1244.63 142.482C1243.89 142.08 1243.82 141.045 1244.52 140.572C1245.4 139.978 1246.3 139.395 1247.24 138.828C1249.11 137.697 1250.98 136.694 1252.81 135.829C1252.86 135.809 1252.83 135.747 1252.79 135.759C1252.88 135.736 1252.97 135.712 1253.06 135.69C1253.13 135.671 1253.2 135.646 1253.27 135.615C1253.37 135.57 1253.46 135.526 1253.56 135.483C1253.19 135.597 1252.82 135.719 1252.44 135.847C1252.44 135.847 1252.44 135.847 1252.44 135.847C1252.44 135.847 1252.44 135.848 1252.44 135.848C1249.05 136.998 1245.39 138.701 1241.74 140.911C1241.72 140.924 1241.69 140.937 1241.67 140.95C1240.84 141.454 1240.03 141.971 1239.25 142.497C1238.99 142.672 1238.73 142.849 1238.47 143.026C1236.02 144.726 1233.84 146.517 1231.98 148.31C1231.82 148.464 1231.66 148.619 1231.51 148.774C1230.42 149.858 1229.45 150.94 1228.63 152C1225.57 155.912 1224.38 159.53 1225.81 161.881C1227.64 164.898 1233.31 165.07 1240.27 162.827Z" fill="#0652DD"/>
<path d="M534.12 127L546.832 86.68H556.716L569.428 127H562.484L550.948 90.824H552.46L541.064 127H534.12ZM541.204 118.264V111.964H562.372V118.264H541.204ZM589.022 127.84C586.073 127.84 583.6 127.14 581.602 125.74C579.605 124.34 578.102 122.436 577.094 120.028C576.086 117.601 575.582 114.885 575.582 111.88C575.582 108.837 576.086 106.112 577.094 103.704C578.102 101.296 579.577 99.4013 581.518 98.02C583.478 96.62 585.896 95.92 588.77 95.92C591.626 95.92 594.1 96.62 596.19 98.02C598.3 99.4013 599.933 101.296 601.09 103.704C602.248 106.093 602.826 108.819 602.826 111.88C602.826 114.904 602.257 117.62 601.118 120.028C599.98 122.436 598.374 124.34 596.302 125.74C594.23 127.14 591.804 127.84 589.022 127.84ZM574.434 127V86.68H581.238V105.776H580.398V127H574.434ZM587.986 121.792C589.741 121.792 591.188 121.353 592.326 120.476C593.465 119.599 594.305 118.413 594.846 116.92C595.406 115.408 595.686 113.728 595.686 111.88C595.686 110.051 595.406 108.389 594.846 106.896C594.286 105.384 593.418 104.189 592.242 103.312C591.066 102.416 589.573 101.968 587.762 101.968C586.045 101.968 584.645 102.388 583.562 103.228C582.48 104.049 581.677 105.207 581.154 106.7C580.65 108.175 580.398 109.901 580.398 111.88C580.398 113.84 580.65 115.567 581.154 117.06C581.677 118.553 582.489 119.72 583.59 120.56C584.71 121.381 586.176 121.792 587.986 121.792ZM622.354 127.84C619.33 127.84 616.689 127.159 614.43 125.796C612.171 124.433 610.417 122.557 609.166 120.168C607.934 117.76 607.318 114.997 607.318 111.88C607.318 108.707 607.953 105.925 609.222 103.536C610.491 101.147 612.255 99.28 614.514 97.936C616.773 96.592 619.386 95.92 622.354 95.92C625.397 95.92 628.047 96.6013 630.306 97.964C632.565 99.3267 634.319 101.212 635.57 103.62C636.821 106.009 637.446 108.763 637.446 111.88C637.446 115.016 636.811 117.788 635.542 120.196C634.291 122.585 632.537 124.461 630.278 125.824C628.019 127.168 625.378 127.84 622.354 127.84ZM622.354 121.512C625.042 121.512 627.039 120.616 628.346 118.824C629.653 117.032 630.306 114.717 630.306 111.88C630.306 108.949 629.643 106.616 628.318 104.88C626.993 103.125 625.005 102.248 622.354 102.248C620.543 102.248 619.05 102.659 617.874 103.48C616.717 104.283 615.858 105.412 615.298 106.868C614.738 108.305 614.458 109.976 614.458 111.88C614.458 114.811 615.121 117.153 616.446 118.908C617.79 120.644 619.759 121.512 622.354 121.512ZM654.955 127.868C652.715 127.868 650.867 127.495 649.411 126.748C647.955 126.001 646.798 125.049 645.939 123.892C645.081 122.735 644.446 121.503 644.035 120.196C643.625 118.889 643.354 117.657 643.223 116.5C643.111 115.324 643.055 114.372 643.055 113.644V96.76H649.887V111.32C649.887 112.253 649.953 113.308 650.083 114.484C650.214 115.641 650.513 116.761 650.979 117.844C651.465 118.908 652.174 119.785 653.107 120.476C654.059 121.167 655.338 121.512 656.943 121.512C657.802 121.512 658.651 121.372 659.491 121.092C660.331 120.812 661.087 120.336 661.759 119.664C662.45 118.973 663.001 118.031 663.411 116.836C663.822 115.641 664.027 114.129 664.027 112.3L668.031 114.008C668.031 116.584 667.527 118.917 666.519 121.008C665.53 123.099 664.065 124.769 662.123 126.02C660.182 127.252 657.793 127.868 654.955 127.868ZM664.839 127V117.62H664.027V96.76H670.803V127H664.839ZM696.394 127C694.397 127.373 692.437 127.532 690.514 127.476C688.61 127.439 686.902 127.093 685.39 126.44C683.878 125.768 682.73 124.713 681.946 123.276C681.255 121.969 680.891 120.635 680.854 119.272C680.817 117.909 680.798 116.369 680.798 114.652V88.36H687.518V114.26C687.518 115.473 687.527 116.537 687.546 117.452C687.583 118.367 687.779 119.113 688.134 119.692C688.806 120.812 689.879 121.437 691.354 121.568C692.829 121.699 694.509 121.624 696.394 121.344V127ZM675.31 102.052V96.76H696.394V102.052H675.31ZM731.16 127.84C727.128 127.84 723.674 126.963 720.8 125.208C717.925 123.435 715.713 120.971 714.164 117.816C712.633 114.661 711.868 111.003 711.868 106.84C711.868 102.677 712.633 99.0187 714.164 95.864C715.713 92.7093 717.925 90.2547 720.8 88.5C723.674 86.7267 727.128 85.84 731.16 85.84C735.808 85.84 739.681 87.0067 742.78 89.34C745.878 91.6547 748.053 94.7813 749.304 98.72L742.5 100.596C741.716 97.964 740.381 95.9107 738.496 94.436C736.61 92.9427 734.165 92.196 731.16 92.196C728.453 92.196 726.194 92.8027 724.384 94.016C722.592 95.2293 721.238 96.9373 720.324 99.14C719.428 101.324 718.97 103.891 718.952 106.84C718.952 109.789 719.4 112.365 720.296 114.568C721.21 116.752 722.573 118.451 724.384 119.664C726.194 120.877 728.453 121.484 731.16 121.484C734.165 121.484 736.61 120.737 738.496 119.244C740.381 117.751 741.716 115.697 742.5 113.084L749.304 114.96C748.053 118.899 745.878 122.035 742.78 124.368C739.681 126.683 735.808 127.84 731.16 127.84ZM768.807 127.84C765.783 127.84 763.142 127.159 760.883 125.796C758.625 124.433 756.87 122.557 755.619 120.168C754.387 117.76 753.771 114.997 753.771 111.88C753.771 108.707 754.406 105.925 755.675 103.536C756.945 101.147 758.709 99.28 760.967 97.936C763.226 96.592 765.839 95.92 768.807 95.92C771.85 95.92 774.501 96.6013 776.759 97.964C779.018 99.3267 780.773 101.212 782.023 103.62C783.274 106.009 783.899 108.763 783.899 111.88C783.899 115.016 783.265 117.788 781.995 120.196C780.745 122.585 778.99 124.461 776.731 125.824C774.473 127.168 771.831 127.84 768.807 127.84ZM768.807 121.512C771.495 121.512 773.493 120.616 774.799 118.824C776.106 117.032 776.759 114.717 776.759 111.88C776.759 108.949 776.097 106.616 774.771 104.88C773.446 103.125 771.458 102.248 768.807 102.248C766.997 102.248 765.503 102.659 764.327 103.48C763.17 104.283 762.311 105.412 761.751 106.868C761.191 108.305 760.911 109.976 760.911 111.88C760.911 114.811 761.574 117.153 762.899 118.908C764.243 120.644 766.213 121.512 768.807 121.512ZM797.151 127L786.175 96.76H792.923L800.539 118.684L808.127 96.76H814.903L803.927 127H797.151ZM832.582 127.84C829.521 127.84 826.833 127.177 824.518 125.852C822.203 124.527 820.393 122.688 819.086 120.336C817.798 117.984 817.154 115.277 817.154 112.216C817.154 108.912 817.789 106.047 819.058 103.62C820.327 101.175 822.091 99.28 824.35 97.936C826.609 96.592 829.222 95.92 832.19 95.92C835.326 95.92 837.986 96.6573 840.17 98.132C842.373 99.588 844.006 101.651 845.07 104.32C846.134 106.989 846.535 110.135 846.274 113.756H839.582V111.292C839.563 108.007 838.985 105.608 837.846 104.096C836.707 102.584 834.915 101.828 832.47 101.828C829.707 101.828 827.654 102.687 826.31 104.404C824.966 106.103 824.294 108.595 824.294 111.88C824.294 114.941 824.966 117.312 826.31 118.992C827.654 120.672 829.614 121.512 832.19 121.512C833.851 121.512 835.279 121.148 836.474 120.42C837.687 119.673 838.621 118.6 839.274 117.2L845.938 119.216C844.781 121.941 842.989 124.06 840.562 125.572C838.154 127.084 835.494 127.84 832.582 127.84ZM822.166 113.756V108.66H842.97V113.756H822.166ZM852.522 127V96.76H858.486V104.124L857.758 103.172C858.131 102.164 858.626 101.249 859.242 100.428C859.876 99.588 860.632 98.8973 861.51 98.356C862.256 97.852 863.078 97.46 863.974 97.18C864.888 96.8813 865.822 96.704 866.774 96.648C867.726 96.5733 868.65 96.6107 869.546 96.76V103.06C868.65 102.799 867.614 102.715 866.438 102.808C865.28 102.901 864.235 103.228 863.302 103.788C862.368 104.292 861.603 104.936 861.006 105.72C860.427 106.504 859.998 107.4 859.718 108.408C859.438 109.397 859.298 110.471 859.298 111.628V127H852.522ZM875.449 127V85.84H882.197V127H875.449ZM894.56 140.44L900.384 124.452L900.496 129.156L887.308 96.76H894.336L903.688 120.728H901.896L910.996 96.76H917.744L900.888 140.44H894.56Z" fill="white"/>
<path d="M522.366 108.245L516.432 118.326L510.998 109.093C511.332 109.098 511.667 109.1 512.001 109.1C512.173 109.1 512.347 109.099 512.522 109.098L515.519 114.191L516.432 115.742L517.345 114.191L520.689 108.509C521.255 108.429 521.815 108.341 522.366 108.245ZM516.432 113.674L513.126 108.057C512.753 108.064 512.378 108.067 512.001 108.067C511.034 108.067 510.079 108.045 509.139 108.004L516.432 120.394L524.445 106.779C523.054 107.091 521.577 107.351 520.034 107.555L516.432 113.674Z" fill="#6D6D6D"/>
<path d="M512.527 105.462C512.065 105.538 511.606 105.317 511.37 104.913L510.714 103.79C510.269 103.027 510.819 102.069 511.702 102.069H518.825C520.008 102.069 520.315 103.449 519.196 103.83C517.214 104.506 514.967 105.059 512.527 105.462ZM521.408 89.2988C525.541 91.0946 528.067 93.498 528.067 96.1383C528.067 96.8247 527.896 97.4948 527.571 98.1426C527.397 98.4895 527.027 98.6822 526.639 98.6822H505.77C504.886 98.6822 504.336 99.6405 504.782 100.403L507.139 104.441C507.564 105.168 507.084 106.087 506.243 106.131C505.186 106.186 504.109 106.214 503.016 106.214C500.832 106.214 498.712 106.101 496.693 105.89C496.646 105.885 496.633 105.949 496.678 105.963C496.589 105.935 496.5 105.909 496.411 105.881C496.339 105.859 496.265 105.843 496.19 105.835C496.084 105.823 495.979 105.811 495.874 105.798C496.251 105.893 496.634 105.983 497.024 106.069C497.024 106.069 497.024 106.069 497.024 106.069C497.025 106.069 497.025 106.069 497.025 106.069C500.513 106.838 504.527 107.278 508.799 107.283C508.824 107.284 508.85 107.284 508.875 107.284C509.847 107.284 510.806 107.261 511.748 107.217C512.063 107.202 512.375 107.185 512.685 107.166C515.662 106.981 518.46 106.583 520.977 106.013C521.195 105.963 521.41 105.913 521.623 105.861C523.116 105.498 524.502 105.073 525.76 104.595C530.4 102.834 533.289 100.353 533.289 97.6052C533.289 94.0771 528.526 90.9896 521.408 89.2988Z" fill="#0652DD"/>
<path d="M19.4907 44.9462L13.5569 55.0276L8.12259 45.7938C8.45714 45.7994 8.79203 45.8015 9.12588 45.8015C9.29803 45.8015 9.47159 45.8006 9.64723 45.7994L12.6442 50.8921L13.5569 52.4427L14.4702 50.8921L17.8144 45.2102C18.3799 45.1301 18.94 45.042 19.4907 44.9462ZM13.5569 50.3753L10.2514 44.7582C9.87834 44.765 9.50316 44.7678 9.12588 44.7678C8.15852 44.7678 7.20373 44.7464 6.26428 44.705L13.5569 57.095L21.5703 43.4805C20.1786 43.7919 18.7024 44.0524 17.159 44.2557L13.5569 50.3753Z" fill="#6D6D6D"/>
<path d="M9.65175 42.163C9.18988 42.2392 8.73088 42.0184 8.49486 41.6141L7.83925 40.4912C7.39395 39.7285 7.94408 38.7703 8.82727 38.7703H15.9504C17.1328 38.7703 17.4401 40.1504 16.3208 40.5316C14.3385 41.2068 12.0917 41.7601 9.65175 42.163ZM18.5334 26C22.6661 27.7958 25.1917 30.1992 25.1917 32.8395C25.1917 33.5258 25.0212 34.196 24.696 34.8438C24.5219 35.1906 24.1519 35.3834 23.7638 35.3834H2.89458C2.01136 35.3834 1.46124 36.3416 1.90658 37.1044L4.26439 41.1424C4.68895 41.8695 4.20892 42.7885 3.36806 42.832C2.31146 42.8867 1.23421 42.9149 0.140593 42.9149C-2.04349 42.9149 -4.16264 42.8025 -6.18201 42.5909C-6.22913 42.5859 -6.24229 42.6499 -6.19701 42.6638C-6.28581 42.6365 -6.37549 42.6099 -6.46405 42.5827C-6.53617 42.5605 -6.61011 42.5446 -6.68508 42.5361C-6.79051 42.5242 -6.89559 42.5121 -7.00068 42.4995C-6.62424 42.5938 -6.24137 42.6838 -5.85134 42.7698C-5.8511 42.7699 -5.85093 42.7699 -5.8507 42.77C-5.85048 42.7701 -5.85017 42.7701 -5.84994 42.7701C-2.36153 43.5392 1.65197 43.9795 5.92375 43.9842C5.94904 43.9847 5.97468 43.9847 5.99997 43.9847C6.97246 43.9847 7.93118 43.9619 8.8735 43.9181C9.18778 43.9034 9.50014 43.8864 9.81041 43.8671C12.7868 43.6824 15.5847 43.2845 18.1022 42.7138C18.3197 42.6645 18.5351 42.614 18.7484 42.5621C20.241 42.1992 21.6274 41.7743 22.8848 41.2964C27.525 39.5353 30.4141 37.0545 30.4141 34.3064C30.4141 30.7783 25.6511 27.6908 18.5334 26Z" fill="#0652DD"/>
<path d="M357.065 154.772L351.131 164.854L345.697 155.62C346.031 155.626 346.366 155.628 346.7 155.628C346.872 155.628 347.046 155.627 347.221 155.626L350.218 160.718L351.131 162.269L352.044 160.718L355.389 155.036C355.954 154.956 356.514 154.868 357.065 154.772ZM351.131 160.201L347.826 154.584C347.453 154.591 347.077 154.594 346.7 154.594C345.733 154.594 344.778 154.573 343.839 154.531L351.131 166.921L359.145 153.307C357.753 153.618 356.277 153.879 354.733 154.082L351.131 160.201Z" fill="#6D6D6D"/>
<path d="M347.226 151.989C346.764 152.065 346.305 151.845 346.069 151.44L345.413 150.317C344.968 149.555 345.518 148.596 346.401 148.596H353.525C354.707 148.596 355.014 149.977 353.895 150.358C351.913 151.033 349.666 151.586 347.226 151.989ZM356.108 135.826C360.24 137.622 362.766 140.025 362.766 142.666C362.766 143.352 362.595 144.022 362.27 144.67C362.096 145.017 361.726 145.21 361.338 145.21H340.469C339.586 145.21 339.035 146.168 339.481 146.931L341.839 150.969C342.263 151.696 341.783 152.615 340.942 152.658C339.886 152.713 338.808 152.741 337.715 152.741C335.531 152.741 333.412 152.629 331.392 152.417C331.345 152.412 331.332 152.476 331.377 152.49C331.288 152.463 331.199 152.436 331.11 152.409C331.038 152.387 330.964 152.371 330.889 152.362C330.784 152.35 330.679 152.338 330.574 152.326C330.95 152.42 331.333 152.51 331.723 152.596C331.723 152.596 331.723 152.596 331.724 152.596C331.724 152.596 331.724 152.596 331.724 152.596C335.213 153.365 339.226 153.806 343.498 153.81C343.523 153.811 343.549 153.811 343.574 153.811C344.547 153.811 345.505 153.788 346.448 153.744C346.762 153.73 347.074 153.713 347.385 153.693C350.361 153.509 353.159 153.111 355.676 152.54C355.894 152.491 356.109 152.44 356.323 152.388C357.815 152.025 359.202 151.6 360.459 151.123C365.099 149.361 367.988 146.881 367.988 144.133C367.988 140.604 363.225 137.517 356.108 135.826Z" fill="#0652DD"/>
<path d="M374.065 78.0458L368.131 88.1272L362.697 78.8934C363.031 78.899 363.366 78.9011 363.7 78.9011C363.872 78.9011 364.046 78.9002 364.221 78.899L367.218 83.9917L368.131 85.5423L369.044 83.9917L372.389 78.3098C372.954 78.2297 373.514 78.1416 374.065 78.0458ZM368.131 83.4749L364.826 77.8578C364.453 77.8646 364.077 77.8674 363.7 77.8674C362.733 77.8674 361.778 77.846 360.839 77.8046L368.131 90.1946L376.145 76.5801C374.753 76.8915 373.277 77.152 371.733 77.3553L368.131 83.4749Z" fill="#6D6D6D"/>
<path d="M364.226 75.2626C363.764 75.3389 363.305 75.118 363.069 74.7137L362.413 73.5908C361.968 72.8281 362.518 71.8699 363.401 71.8699H370.525C371.707 71.8699 372.014 73.25 370.895 73.6312C368.913 74.3064 366.666 74.8597 364.226 75.2626ZM373.108 59.0996C377.24 60.8954 379.766 63.2988 379.766 65.9391C379.766 66.6254 379.595 67.2956 379.27 67.9434C379.096 68.2903 378.726 68.483 378.338 68.483H357.469C356.586 68.483 356.035 69.4413 356.481 70.204L358.839 74.242C359.263 74.9691 358.783 75.8881 357.942 75.9316C356.886 75.9863 355.808 76.0145 354.715 76.0145C352.531 76.0145 350.412 75.9021 348.392 75.6905C348.345 75.6855 348.332 75.7495 348.377 75.7634C348.288 75.7362 348.199 75.7095 348.11 75.6823C348.038 75.6601 347.964 75.6442 347.889 75.6357C347.784 75.6238 347.679 75.6117 347.574 75.5991C347.95 75.6934 348.333 75.7834 348.723 75.8694C348.723 75.8695 348.723 75.8695 348.724 75.8696C348.724 75.8697 348.724 75.8697 348.724 75.8697C352.213 76.6388 356.226 77.0791 360.498 77.0838C360.523 77.0843 360.549 77.0843 360.574 77.0843C361.547 77.0843 362.505 77.0615 363.448 77.0177C363.762 77.0031 364.074 76.986 364.385 76.9667C367.361 76.782 370.159 76.3841 372.676 75.8134C372.894 75.7641 373.109 75.7136 373.323 75.6617C374.815 75.2988 376.202 74.8739 377.459 74.396C382.099 72.6349 384.988 70.1541 384.988 67.406C384.988 63.8779 380.225 60.7904 373.108 59.0996Z" fill="#0652DD"/>
<path d="M95.7387 177.054L89.805 187.135L84.3706 177.901C84.7052 177.907 85.0401 177.909 85.3739 177.909C85.5461 177.909 85.7196 177.908 85.8953 177.907L88.8922 183L89.805 184.55L90.7183 183L94.0625 177.318C94.628 177.238 95.188 177.149 95.7387 177.054ZM89.805 182.483L86.4995 176.866C86.1264 176.872 85.7512 176.875 85.3739 176.875C84.4066 176.875 83.4518 176.854 82.5123 176.812L89.805 189.202L97.8184 175.588C96.4266 175.899 94.9505 176.16 93.407 176.363L89.805 182.483Z" fill="#6D6D6D"/>
<path d="M85.8998 174.27C85.4379 174.347 84.9789 174.126 84.7429 173.722L84.0873 172.599C83.642 171.836 84.1921 170.878 85.0753 170.878H92.1984C93.3809 170.878 93.6881 172.258 92.5689 172.639C90.5866 173.314 88.3397 173.868 85.8998 174.27ZM94.7814 158.107C98.9142 159.903 101.44 162.307 101.44 164.947C101.44 165.633 101.269 166.303 100.944 166.951C100.77 167.298 100.4 167.491 100.012 167.491H79.1426C78.2594 167.491 77.7093 168.449 78.1546 169.212L80.5124 173.25C80.937 173.977 80.457 174.896 79.6161 174.939C78.5595 174.994 77.4823 175.022 76.3886 175.022C74.2046 175.022 72.0854 174.91 70.066 174.698C70.0189 174.693 70.0058 174.757 70.051 174.771C69.9622 174.744 69.8726 174.717 69.784 174.69C69.7119 174.668 69.6379 174.652 69.563 174.644C69.4575 174.632 69.3525 174.619 69.2474 174.607C69.6238 174.701 70.0067 174.791 70.3967 174.877C70.3969 174.877 70.3971 174.877 70.3973 174.877C70.3976 174.877 70.3979 174.878 70.3981 174.878C73.8865 175.647 77.9 176.087 82.1718 176.092C82.1971 176.092 82.2227 176.092 82.248 176.092C83.2205 176.092 84.1792 176.069 85.1215 176.026C85.4358 176.011 85.7482 175.994 86.0585 175.974C89.0349 175.79 91.8327 175.392 94.3503 174.821C94.5678 174.772 94.7832 174.721 94.9965 174.669C96.489 174.307 97.8754 173.882 99.1329 173.404C103.773 171.643 106.662 169.162 106.662 166.414C106.662 162.886 101.899 159.798 94.7814 158.107Z" fill="#0652DD"/>
<path d="M180.821 75.6337L174.887 85.7151L169.453 76.4813C169.787 76.4869 170.122 76.489 170.456 76.489C170.628 76.489 170.802 76.4881 170.977 76.4869L173.974 81.5796L174.887 83.1302L175.8 81.5796L179.145 75.8977C179.71 75.8176 180.27 75.7295 180.821 75.6337ZM174.887 81.0628L171.582 75.4457C171.208 75.4525 170.833 75.4553 170.456 75.4553C169.489 75.4553 168.534 75.4339 167.594 75.3925L174.887 87.7825L182.9 74.168C181.509 74.4794 180.033 74.7399 178.489 74.9432L174.887 81.0628Z" fill="#6D6D6D"/>
<path d="M170.982 72.8505C170.52 72.9267 170.061 72.7059 169.825 72.3016L169.169 71.1787C168.724 70.416 169.274 69.4578 170.157 69.4578H177.28C178.463 69.4578 178.77 70.8379 177.651 71.2191C175.669 71.8943 173.422 72.4476 170.982 72.8505ZM179.863 56.6875C183.996 58.4833 186.522 60.8867 186.522 63.527C186.522 64.2133 186.351 64.8835 186.026 65.5313C185.852 65.8781 185.482 66.0709 185.094 66.0709H164.225C163.341 66.0709 162.791 67.0291 163.237 67.7919L165.594 71.8299C166.019 72.557 165.539 73.476 164.698 73.5195C163.642 73.5742 162.564 73.6024 161.471 73.6024C159.287 73.6024 157.167 73.49 155.148 73.2784C155.101 73.2734 155.088 73.3374 155.133 73.3513C155.044 73.324 154.955 73.2974 154.866 73.2702C154.794 73.248 154.72 73.2321 154.645 73.2236C154.54 73.2117 154.434 73.1996 154.329 73.187C154.706 73.2813 155.089 73.3713 155.479 73.4573C155.479 73.4574 155.479 73.4574 155.479 73.4575C155.48 73.4576 155.48 73.4576 155.48 73.4576C158.969 74.2267 162.982 74.667 167.254 74.6717C167.279 74.6722 167.305 74.6722 167.33 74.6722C168.303 74.6722 169.261 74.6494 170.204 74.6056C170.518 74.5909 170.83 74.5739 171.14 74.5546C174.117 74.3699 176.915 73.972 179.432 73.4013C179.65 73.352 179.865 73.3015 180.078 73.2496C181.571 72.8867 182.957 72.4618 184.215 71.9839C188.855 70.2228 191.744 67.742 191.744 64.9939C191.744 61.4658 186.981 58.3783 179.863 56.6875Z" fill="#0652DD"/>
</g>
<defs>
<clipPath id="clip0_4679_111764">
<rect width="1440" height="216" fill="white"/>
</clipPath>
</defs>
</svg>
