<svg width="1440" height="216" viewBox="0 0 1440 216" fill="none" xmlns="http://www.w3.org/2000/svg">
<g clip-path="url(#clip0_2372_89833)">
<rect width="1440" height="216" fill="#03296F"/>
<path d="M889.639 101.119L889.489 89.4223L898.922 94.5027C898.633 94.6712 898.345 94.843 898.06 95.0161C897.913 95.1053 897.765 95.196 897.615 95.288L892.413 92.4859L890.828 91.6329L890.851 93.4323L890.936 100.025C890.494 100.386 890.06 100.752 889.639 101.119V101.119ZM891.9 93.401L897.638 96.4917C897.954 96.2925 898.273 96.0957 898.596 95.9001C899.423 95.3988 900.251 94.9222 901.075 94.4707L888.417 87.6542L888.62 103.451C889.649 102.463 890.776 101.475 891.991 100.501L891.9 93.401Z" fill="#6D6D6D"/>
<path d="M899.496 98.4006C899.851 98.096 900.358 98.047 900.769 98.2704L901.912 98.891C902.688 99.3125 902.714 100.417 901.959 100.875L895.867 104.567C894.856 105.179 893.878 104.158 894.638 103.252C895.983 101.647 897.618 100.01 899.496 98.4006ZM900.277 116.827C895.812 117.433 892.406 116.686 891.038 114.428C890.682 113.841 890.48 113.18 890.423 112.457C890.392 112.07 890.608 111.714 890.94 111.513L908.788 100.697C909.543 100.239 909.517 99.1341 908.741 98.7127L904.632 96.4813C903.892 96.0795 903.826 95.0448 904.523 94.5718C905.398 93.9774 906.305 93.3949 907.24 92.8281C909.108 91.6962 910.978 90.694 912.815 89.8284C912.858 89.8082 912.836 89.7467 912.79 89.7583V89.7583C912.88 89.7356 912.971 89.7119 913.06 89.6893C913.134 89.6708 913.205 89.6461 913.274 89.6145C913.37 89.5701 913.466 89.526 913.563 89.4823C913.192 89.5967 912.818 89.7182 912.439 89.8468C912.439 89.8468 912.439 89.8469 912.439 89.847V89.847C912.439 89.847 912.438 89.8471 912.438 89.8472C909.056 90.9974 905.396 92.701 901.74 94.911C901.718 94.9236 901.696 94.9369 901.674 94.95C900.843 95.4541 900.035 95.9704 899.251 96.4963C898.99 96.6717 898.732 96.8482 898.477 97.0255C896.027 98.7261 893.84 100.516 891.983 102.309C891.823 102.464 891.665 102.619 891.509 102.774C890.421 103.858 889.455 104.94 888.628 106C885.572 109.911 884.387 113.53 885.811 115.88C887.64 118.898 893.313 119.07 900.277 116.827" fill="#0652DD"/>
<path d="M1389.64 184.119L1389.49 172.422L1398.92 177.503C1398.63 177.671 1398.35 177.843 1398.06 178.016C1397.91 178.105 1397.76 178.196 1397.62 178.288L1392.41 175.486L1390.83 174.633L1390.85 176.432L1390.94 183.025C1390.49 183.386 1390.06 183.752 1389.64 184.119V184.119ZM1391.9 176.401L1397.64 179.492C1397.95 179.292 1398.27 179.096 1398.6 178.9C1399.42 178.399 1400.25 177.922 1401.08 177.471L1388.42 170.654L1388.62 186.451C1389.65 185.463 1390.78 184.475 1391.99 183.501L1391.9 176.401Z" fill="#6D6D6D"/>
<path d="M1399.5 181.401C1399.85 181.096 1400.36 181.047 1400.77 181.27L1401.91 181.891C1402.69 182.312 1402.71 183.417 1401.96 183.875L1395.87 187.567C1394.86 188.179 1393.88 187.158 1394.64 186.252C1395.98 184.647 1397.62 183.01 1399.5 181.401ZM1400.28 199.827C1395.81 200.433 1392.41 199.686 1391.04 197.428C1390.68 196.841 1390.48 196.18 1390.42 195.457C1390.39 195.07 1390.61 194.714 1390.94 194.513L1408.79 183.697C1409.54 183.239 1409.52 182.134 1408.74 181.713L1404.63 179.481C1403.89 179.08 1403.83 178.045 1404.52 177.572C1405.4 176.977 1406.3 176.395 1407.24 175.828C1409.11 174.696 1410.98 173.694 1412.82 172.828C1412.86 172.808 1412.84 172.747 1412.79 172.758V172.758C1412.88 172.736 1412.97 172.712 1413.06 172.689C1413.13 172.671 1413.21 172.646 1413.27 172.615C1413.37 172.57 1413.47 172.526 1413.56 172.482C1413.19 172.597 1412.82 172.718 1412.44 172.847C1412.44 172.847 1412.44 172.847 1412.44 172.847V172.847C1412.44 172.847 1412.44 172.847 1412.44 172.847C1409.06 173.997 1405.4 175.701 1401.74 177.911C1401.72 177.924 1401.7 177.937 1401.67 177.95C1400.84 178.454 1400.03 178.97 1399.25 179.496C1398.99 179.672 1398.73 179.848 1398.48 180.025C1396.03 181.726 1393.84 183.516 1391.98 185.309C1391.82 185.464 1391.66 185.619 1391.51 185.774C1390.42 186.858 1389.46 187.94 1388.63 189C1385.57 192.911 1384.39 196.53 1385.81 198.88C1387.64 201.898 1393.31 202.07 1400.28 199.827" fill="#0652DD"/>
<path d="M1056.64 61.1193L1056.49 49.4223L1065.92 54.5027C1065.63 54.6712 1065.35 54.843 1065.06 55.0161C1064.91 55.1053 1064.76 55.196 1064.62 55.288L1059.41 52.4859L1057.83 51.6329L1057.85 53.4323L1057.94 60.0248C1057.49 60.3864 1057.06 60.752 1056.64 61.1193V61.1193ZM1058.9 53.401L1064.64 56.4917C1064.95 56.2925 1065.27 56.0957 1065.6 55.9001C1066.42 55.3988 1067.25 54.9222 1068.08 54.4707L1055.42 47.6542L1055.62 63.4507C1056.65 62.4631 1057.78 61.4752 1058.99 60.5014L1058.9 53.401Z" fill="#6D6D6D"/>
<path d="M1066.5 58.4006C1066.85 58.096 1067.36 58.047 1067.77 58.2704L1068.91 58.891C1069.69 59.3125 1069.71 60.4171 1068.96 60.8748L1062.87 64.5665C1061.86 65.1794 1060.88 64.1583 1061.64 63.2522C1062.98 61.6474 1064.62 60.0097 1066.5 58.4006ZM1067.28 76.8265C1062.81 77.4327 1059.41 76.6862 1058.04 74.4282C1057.68 73.8412 1057.48 73.1797 1057.42 72.4572C1057.39 72.0703 1057.61 71.7137 1057.94 71.5126L1075.79 60.6965C1076.54 60.2388 1076.52 59.1341 1075.74 58.7127L1071.63 56.4813C1070.89 56.0795 1070.83 55.0448 1071.52 54.5718C1072.4 53.9774 1073.3 53.3949 1074.24 52.8281C1076.11 51.6962 1077.98 50.694 1079.82 49.8284C1079.86 49.8082 1079.84 49.7467 1079.79 49.7583V49.7583C1079.88 49.7356 1079.97 49.7119 1080.06 49.6893C1080.13 49.6708 1080.21 49.6461 1080.27 49.6145C1080.37 49.5701 1080.47 49.526 1080.56 49.4823C1080.19 49.5967 1079.82 49.7182 1079.44 49.8468C1079.44 49.8468 1079.44 49.8469 1079.44 49.847V49.847C1079.44 49.847 1079.44 49.8471 1079.44 49.8472C1076.06 50.9974 1072.4 52.701 1068.74 54.911C1068.72 54.9236 1068.7 54.9369 1068.67 54.95C1067.84 55.4541 1067.03 55.9704 1066.25 56.4963C1065.99 56.6717 1065.73 56.8482 1065.48 57.0255C1063.03 58.7261 1060.84 60.5164 1058.98 62.3092C1058.82 62.4641 1058.66 62.6189 1058.51 62.7739C1057.42 63.8578 1056.46 64.9397 1055.63 66.0001C1052.57 69.9111 1051.39 73.5301 1052.81 75.8803C1054.64 78.8976 1060.31 79.0695 1067.28 76.8265" fill="#0652DD"/>
<path d="M1036.64 137.119L1036.49 125.422L1045.92 130.503C1045.63 130.671 1045.35 130.843 1045.06 131.016C1044.91 131.105 1044.76 131.196 1044.62 131.288L1039.41 128.486L1037.83 127.633L1037.85 129.432L1037.94 136.025C1037.49 136.386 1037.06 136.752 1036.64 137.119V137.119ZM1038.9 129.401L1044.64 132.492C1044.95 132.292 1045.27 132.096 1045.6 131.9C1046.42 131.399 1047.25 130.922 1048.08 130.471L1035.42 123.654L1035.62 139.451C1036.65 138.463 1037.78 137.475 1038.99 136.501L1038.9 129.401Z" fill="#6D6D6D"/>
<path d="M1046.5 134.401C1046.85 134.096 1047.36 134.047 1047.77 134.27L1048.91 134.891C1049.69 135.312 1049.71 136.417 1048.96 136.875L1042.87 140.567C1041.86 141.179 1040.88 140.158 1041.64 139.252C1042.98 137.647 1044.62 136.01 1046.5 134.401ZM1047.28 152.827C1042.81 153.433 1039.41 152.686 1038.04 150.428C1037.68 149.841 1037.48 149.18 1037.42 148.457C1037.39 148.07 1037.61 147.714 1037.94 147.513L1055.79 136.697C1056.54 136.239 1056.52 135.134 1055.74 134.713L1051.63 132.481C1050.89 132.08 1050.83 131.045 1051.52 130.572C1052.4 129.977 1053.3 129.395 1054.24 128.828C1056.11 127.696 1057.98 126.694 1059.82 125.828C1059.86 125.808 1059.84 125.747 1059.79 125.758V125.758C1059.88 125.736 1059.97 125.712 1060.06 125.689C1060.13 125.671 1060.21 125.646 1060.27 125.615C1060.37 125.57 1060.47 125.526 1060.56 125.482C1060.19 125.597 1059.82 125.718 1059.44 125.847C1059.44 125.847 1059.44 125.847 1059.44 125.847V125.847C1059.44 125.847 1059.44 125.847 1059.44 125.847C1056.06 126.997 1052.4 128.701 1048.74 130.911C1048.72 130.924 1048.7 130.937 1048.67 130.95C1047.84 131.454 1047.03 131.97 1046.25 132.496C1045.99 132.672 1045.73 132.848 1045.48 133.025C1043.03 134.726 1040.84 136.516 1038.98 138.309C1038.82 138.464 1038.66 138.619 1038.51 138.774C1037.42 139.858 1036.46 140.94 1035.63 142C1032.57 145.911 1031.39 149.53 1032.81 151.88C1034.64 154.898 1040.31 155.07 1047.28 152.827" fill="#0652DD"/>
<path d="M1318.64 49.1194L1318.49 37.4224L1327.92 42.5027C1327.63 42.6713 1327.35 42.8431 1327.06 43.0161C1326.91 43.1053 1326.76 43.196 1326.62 43.2881L1321.41 40.486L1319.83 39.633L1319.85 41.4324L1319.94 48.0249C1319.49 48.3864 1319.06 48.7521 1318.64 49.1194V49.1194ZM1320.9 41.4011L1326.64 44.4917C1326.95 44.2925 1327.27 44.0957 1327.6 43.9002C1328.42 43.3988 1329.25 42.9223 1330.08 42.4708L1317.42 35.6542L1317.62 51.4507C1318.65 50.4631 1319.78 49.4753 1320.99 48.5015L1320.9 41.4011Z" fill="#6D6D6D"/>
<path d="M1328.5 46.4007C1328.85 46.0961 1329.36 46.0471 1329.77 46.2705L1330.91 46.891C1331.69 47.3125 1331.71 48.4171 1330.96 48.8749L1324.87 52.5666C1323.86 53.1794 1322.88 52.1584 1323.64 51.2522C1324.98 49.6475 1326.62 48.0098 1328.5 46.4007ZM1329.28 64.8266C1324.81 65.4327 1321.41 64.6863 1320.04 62.4282C1319.68 61.8413 1319.48 61.1798 1319.42 60.4572C1319.39 60.0703 1319.61 59.7138 1319.94 59.5126L1337.79 48.6966C1338.54 48.2388 1338.52 47.1342 1337.74 46.7127L1333.63 44.4814C1332.89 44.0796 1332.83 43.0448 1333.52 42.5718C1334.4 41.9775 1335.3 41.395 1336.24 40.8282C1338.11 39.6962 1339.98 38.6941 1341.82 37.8285C1341.86 37.8083 1341.84 37.7467 1341.79 37.7583V37.7583C1341.88 37.7356 1341.97 37.7119 1342.06 37.6893C1342.13 37.6709 1342.21 37.6462 1342.27 37.6146C1342.37 37.5701 1342.47 37.526 1342.56 37.4823C1342.19 37.5968 1341.82 37.7183 1341.44 37.8468C1341.44 37.8469 1341.44 37.847 1341.44 37.847V37.847C1341.44 37.8471 1341.44 37.8472 1341.44 37.8473C1338.06 38.9975 1334.4 40.7011 1330.74 42.911C1330.72 42.9237 1330.7 42.937 1330.67 42.9501C1329.84 43.4541 1329.03 43.9705 1328.25 44.4963C1327.99 44.6717 1327.73 44.8482 1327.48 45.0255C1325.03 46.7261 1322.84 48.5164 1320.98 50.3093C1320.82 50.4642 1320.66 50.619 1320.51 50.7739C1319.42 51.8578 1318.46 52.9397 1317.63 54.0001C1314.57 57.9112 1313.39 61.5301 1314.81 63.8803C1316.64 66.8976 1322.31 67.0696 1329.28 64.8266" fill="#0652DD"/>
<path d="M1229.64 147.119L1229.49 135.422L1238.92 140.503C1238.63 140.671 1238.35 140.843 1238.06 141.016C1237.91 141.105 1237.76 141.196 1237.62 141.288L1232.41 138.486L1230.83 137.633L1230.85 139.432L1230.94 146.025C1230.49 146.386 1230.06 146.752 1229.64 147.119V147.119ZM1231.9 139.401L1237.64 142.492C1237.95 142.292 1238.27 142.096 1238.6 141.9C1239.42 141.399 1240.25 140.922 1241.08 140.471L1228.42 133.654L1228.62 149.451C1229.65 148.463 1230.78 147.475 1231.99 146.501L1231.9 139.401Z" fill="#6D6D6D"/>
<path d="M1239.5 144.401C1239.85 144.096 1240.36 144.047 1240.77 144.27L1241.91 144.891C1242.69 145.312 1242.71 146.417 1241.96 146.875L1235.87 150.567C1234.86 151.179 1233.88 150.158 1234.64 149.252C1235.98 147.647 1237.62 146.01 1239.5 144.401ZM1240.28 162.827C1235.81 163.433 1232.41 162.686 1231.04 160.428C1230.68 159.841 1230.48 159.18 1230.42 158.457C1230.39 158.07 1230.61 157.714 1230.94 157.513L1248.79 146.697C1249.54 146.239 1249.52 145.134 1248.74 144.713L1244.63 142.481C1243.89 142.08 1243.83 141.045 1244.52 140.572C1245.4 139.977 1246.3 139.395 1247.24 138.828C1249.11 137.696 1250.98 136.694 1252.82 135.828C1252.86 135.808 1252.84 135.747 1252.79 135.758V135.758C1252.88 135.736 1252.97 135.712 1253.06 135.689C1253.13 135.671 1253.21 135.646 1253.27 135.615C1253.37 135.57 1253.47 135.526 1253.56 135.482C1253.19 135.597 1252.82 135.718 1252.44 135.847C1252.44 135.847 1252.44 135.847 1252.44 135.847V135.847C1252.44 135.847 1252.44 135.847 1252.44 135.847C1249.06 136.997 1245.4 138.701 1241.74 140.911C1241.72 140.924 1241.7 140.937 1241.67 140.95C1240.84 141.454 1240.03 141.97 1239.25 142.496C1238.99 142.672 1238.73 142.848 1238.48 143.025C1236.03 144.726 1233.84 146.516 1231.98 148.309C1231.82 148.464 1231.66 148.619 1231.51 148.774C1230.42 149.858 1229.46 150.94 1228.63 152C1225.57 155.911 1224.39 159.53 1225.81 161.88C1227.64 164.898 1233.31 165.07 1240.28 162.827" fill="#0652DD"/>
<path d="M534.12 127L546.832 86.68H556.716L569.428 127H562.484L550.948 90.824H552.46L541.064 127H534.12ZM541.204 118.264V111.964H562.372V118.264H541.204ZM589.022 127.84C586.073 127.84 583.6 127.14 581.602 125.74C579.605 124.34 578.102 122.436 577.094 120.028C576.086 117.601 575.582 114.885 575.582 111.88C575.582 108.837 576.086 106.112 577.094 103.704C578.102 101.296 579.577 99.4013 581.518 98.02C583.478 96.62 585.896 95.92 588.77 95.92C591.626 95.92 594.1 96.62 596.19 98.02C598.3 99.4013 599.933 101.296 601.09 103.704C602.248 106.093 602.826 108.819 602.826 111.88C602.826 114.904 602.257 117.62 601.118 120.028C599.98 122.436 598.374 124.34 596.302 125.74C594.23 127.14 591.804 127.84 589.022 127.84ZM574.434 127V86.68H581.238V105.776H580.398V127H574.434ZM587.986 121.792C589.741 121.792 591.188 121.353 592.326 120.476C593.465 119.599 594.305 118.413 594.846 116.92C595.406 115.408 595.686 113.728 595.686 111.88C595.686 110.051 595.406 108.389 594.846 106.896C594.286 105.384 593.418 104.189 592.242 103.312C591.066 102.416 589.573 101.968 587.762 101.968C586.045 101.968 584.645 102.388 583.562 103.228C582.48 104.049 581.677 105.207 581.154 106.7C580.65 108.175 580.398 109.901 580.398 111.88C580.398 113.84 580.65 115.567 581.154 117.06C581.677 118.553 582.489 119.72 583.59 120.56C584.71 121.381 586.176 121.792 587.986 121.792ZM622.354 127.84C619.33 127.84 616.689 127.159 614.43 125.796C612.171 124.433 610.417 122.557 609.166 120.168C607.934 117.76 607.318 114.997 607.318 111.88C607.318 108.707 607.953 105.925 609.222 103.536C610.491 101.147 612.255 99.28 614.514 97.936C616.773 96.592 619.386 95.92 622.354 95.92C625.397 95.92 628.047 96.6013 630.306 97.964C632.565 99.3267 634.319 101.212 635.57 103.62C636.821 106.009 637.446 108.763 637.446 111.88C637.446 115.016 636.811 117.788 635.542 120.196C634.291 122.585 632.537 124.461 630.278 125.824C628.019 127.168 625.378 127.84 622.354 127.84ZM622.354 121.512C625.042 121.512 627.039 120.616 628.346 118.824C629.653 117.032 630.306 114.717 630.306 111.88C630.306 108.949 629.643 106.616 628.318 104.88C626.993 103.125 625.005 102.248 622.354 102.248C620.543 102.248 619.05 102.659 617.874 103.48C616.717 104.283 615.858 105.412 615.298 106.868C614.738 108.305 614.458 109.976 614.458 111.88C614.458 114.811 615.121 117.153 616.446 118.908C617.79 120.644 619.759 121.512 622.354 121.512ZM654.955 127.868C652.715 127.868 650.867 127.495 649.411 126.748C647.955 126.001 646.798 125.049 645.939 123.892C645.081 122.735 644.446 121.503 644.035 120.196C643.625 118.889 643.354 117.657 643.223 116.5C643.111 115.324 643.055 114.372 643.055 113.644V96.76H649.887V111.32C649.887 112.253 649.953 113.308 650.083 114.484C650.214 115.641 650.513 116.761 650.979 117.844C651.465 118.908 652.174 119.785 653.107 120.476C654.059 121.167 655.338 121.512 656.943 121.512C657.802 121.512 658.651 121.372 659.491 121.092C660.331 120.812 661.087 120.336 661.759 119.664C662.45 118.973 663.001 118.031 663.411 116.836C663.822 115.641 664.027 114.129 664.027 112.3L668.031 114.008C668.031 116.584 667.527 118.917 666.519 121.008C665.53 123.099 664.065 124.769 662.123 126.02C660.182 127.252 657.793 127.868 654.955 127.868ZM664.839 127V117.62H664.027V96.76H670.803V127H664.839ZM696.394 127C694.397 127.373 692.437 127.532 690.514 127.476C688.61 127.439 686.902 127.093 685.39 126.44C683.878 125.768 682.73 124.713 681.946 123.276C681.255 121.969 680.891 120.635 680.854 119.272C680.817 117.909 680.798 116.369 680.798 114.652V88.36H687.518V114.26C687.518 115.473 687.527 116.537 687.546 117.452C687.583 118.367 687.779 119.113 688.134 119.692C688.806 120.812 689.879 121.437 691.354 121.568C692.829 121.699 694.509 121.624 696.394 121.344V127ZM675.31 102.052V96.76H696.394V102.052H675.31ZM711.308 127L724.02 86.68H733.904L746.616 127H739.672L728.136 90.824H729.648L718.252 127H711.308ZM718.392 118.264V111.964H739.56V118.264H718.392ZM766.21 127.84C763.26 127.84 760.787 127.14 758.79 125.74C756.792 124.34 755.29 122.436 754.282 120.028C753.274 117.601 752.77 114.885 752.77 111.88C752.77 108.837 753.274 106.112 754.282 103.704C755.29 101.296 756.764 99.4013 758.706 98.02C760.666 96.62 763.083 95.92 765.958 95.92C768.814 95.92 771.287 96.62 773.378 98.02C775.487 99.4013 777.12 101.296 778.278 103.704C779.435 106.093 780.014 108.819 780.014 111.88C780.014 114.904 779.444 117.62 778.306 120.028C777.167 122.436 775.562 124.34 773.49 125.74C771.418 127.14 768.991 127.84 766.21 127.84ZM751.622 140.44V96.76H757.586V117.984H758.426V140.44H751.622ZM765.174 121.792C766.928 121.792 768.375 121.353 769.514 120.476C770.652 119.599 771.492 118.413 772.034 116.92C772.594 115.408 772.874 113.728 772.874 111.88C772.874 110.051 772.594 108.389 772.034 106.896C771.474 105.384 770.606 104.189 769.43 103.312C768.254 102.416 766.76 101.968 764.95 101.968C763.232 101.968 761.832 102.388 760.75 103.228C759.667 104.049 758.864 105.207 758.342 106.7C757.838 108.175 757.586 109.901 757.586 111.88C757.586 113.84 757.838 115.567 758.342 117.06C758.864 118.553 759.676 119.72 760.778 120.56C761.898 121.381 763.363 121.792 765.174 121.792ZM786.746 127V85.84H793.494V127H786.746ZM802.441 92.168V85.98H809.189V92.168H802.441ZM802.441 127V96.76H809.189V127H802.441ZM830.708 127.84C827.591 127.84 824.931 127.149 822.728 125.768C820.526 124.368 818.836 122.464 817.66 120.056C816.503 117.648 815.915 114.923 815.896 111.88C815.915 108.781 816.522 106.037 817.716 103.648C818.93 101.24 820.647 99.3547 822.868 97.992C825.09 96.6107 827.731 95.92 830.792 95.92C834.227 95.92 837.13 96.788 839.5 98.524C841.89 100.241 843.448 102.593 844.176 105.58L837.456 107.4C836.934 105.776 836.066 104.516 834.852 103.62C833.639 102.705 832.258 102.248 830.708 102.248C828.954 102.248 827.507 102.668 826.368 103.508C825.23 104.329 824.39 105.468 823.848 106.924C823.307 108.38 823.036 110.032 823.036 111.88C823.036 114.755 823.68 117.079 824.968 118.852C826.256 120.625 828.17 121.512 830.708 121.512C832.5 121.512 833.91 121.101 834.936 120.28C835.982 119.459 836.766 118.273 837.288 116.724L844.176 118.264C843.243 121.344 841.61 123.715 839.276 125.376C836.943 127.019 834.087 127.84 830.708 127.84ZM857.751 127.84C855.567 127.84 853.719 127.429 852.207 126.608C850.695 125.768 849.547 124.657 848.763 123.276C847.998 121.895 847.615 120.373 847.615 118.712C847.615 117.256 847.858 115.949 848.343 114.792C848.828 113.616 849.575 112.608 850.583 111.768C851.591 110.909 852.898 110.209 854.503 109.668C855.716 109.276 857.135 108.921 858.759 108.604C860.402 108.287 862.175 107.997 864.079 107.736C866.002 107.456 868.008 107.157 870.099 106.84L867.691 108.212C867.71 106.121 867.243 104.581 866.291 103.592C865.339 102.603 863.734 102.108 861.475 102.108C860.112 102.108 858.796 102.425 857.527 103.06C856.258 103.695 855.371 104.787 854.867 106.336L848.707 104.404C849.454 101.847 850.872 99.7933 852.963 98.244C855.072 96.6947 857.91 95.92 861.475 95.92C864.163 95.92 866.524 96.3587 868.559 97.236C870.612 98.1133 872.134 99.5507 873.123 101.548C873.664 102.612 873.991 103.704 874.103 104.824C874.215 105.925 874.271 107.129 874.271 108.436V127H868.363V120.448L869.343 121.512C867.98 123.696 866.384 125.301 864.555 126.328C862.744 127.336 860.476 127.84 857.751 127.84ZM859.095 122.464C860.626 122.464 861.932 122.193 863.015 121.652C864.098 121.111 864.956 120.448 865.591 119.664C866.244 118.88 866.683 118.143 866.907 117.452C867.262 116.593 867.458 115.613 867.495 114.512C867.551 113.392 867.579 112.487 867.579 111.796L869.651 112.412C867.616 112.729 865.871 113.009 864.415 113.252C862.959 113.495 861.708 113.728 860.663 113.952C859.618 114.157 858.694 114.391 857.891 114.652C857.107 114.932 856.444 115.259 855.903 115.632C855.362 116.005 854.942 116.435 854.643 116.92C854.363 117.405 854.223 117.975 854.223 118.628C854.223 119.375 854.41 120.037 854.783 120.616C855.156 121.176 855.698 121.624 856.407 121.96C857.135 122.296 858.031 122.464 859.095 122.464ZM881.561 127V96.76H887.525V104.124L886.797 103.172C887.17 102.164 887.665 101.249 888.281 100.428C888.915 99.588 889.671 98.8973 890.549 98.356C891.295 97.852 892.117 97.46 893.013 97.18C893.927 96.8813 894.861 96.704 895.813 96.648C896.765 96.5733 897.689 96.6107 898.585 96.76V103.06C897.689 102.799 896.653 102.715 895.477 102.808C894.319 102.901 893.274 103.228 892.341 103.788C891.407 104.292 890.642 104.936 890.045 105.72C889.466 106.504 889.037 107.4 888.757 108.408C888.477 109.397 888.337 110.471 888.337 111.628V127H881.561Z" fill="white"/>
<path d="M522.365 108.245L516.431 118.326L510.997 109.092C511.331 109.098 511.666 109.1 512 109.1C512.172 109.1 512.346 109.099 512.521 109.098L515.518 114.191L516.431 115.741L517.344 114.191L520.688 108.509C521.254 108.429 521.814 108.341 522.365 108.245V108.245ZM516.431 113.674L513.125 108.057C512.752 108.064 512.377 108.066 512 108.066C511.033 108.066 510.078 108.045 509.138 108.004L516.431 120.394L524.444 106.779C523.053 107.09 521.576 107.351 520.033 107.554L516.431 113.674Z" fill="#6D6D6D"/>
<path d="M512.527 105.462C512.065 105.538 511.606 105.317 511.37 104.913L510.714 103.79C510.269 103.027 510.819 102.069 511.702 102.069H518.825C520.008 102.069 520.315 103.449 519.196 103.83C517.214 104.505 514.967 105.059 512.527 105.462ZM521.408 89.2986C525.541 91.0944 528.067 93.4978 528.067 96.1381C528.067 96.8245 527.896 97.4946 527.571 98.1424C527.397 98.4893 527.027 98.682 526.639 98.682H505.77C504.886 98.682 504.336 99.6403 504.782 100.403L507.139 104.441C507.564 105.168 507.084 106.087 506.243 106.131C505.186 106.185 504.109 106.214 503.016 106.214C500.832 106.214 498.712 106.101 496.693 105.89C496.646 105.885 496.633 105.949 496.678 105.962V105.962C496.589 105.935 496.5 105.909 496.411 105.881C496.339 105.859 496.265 105.843 496.19 105.835C496.084 105.823 495.979 105.811 495.874 105.798C496.251 105.892 496.634 105.982 497.024 106.068C497.024 106.069 497.024 106.069 497.024 106.069V106.069C497.025 106.069 497.025 106.069 497.025 106.069C500.513 106.838 504.527 107.278 508.799 107.283C508.824 107.283 508.85 107.283 508.875 107.283C509.847 107.283 510.806 107.261 511.748 107.217C512.063 107.202 512.375 107.185 512.685 107.166C515.662 106.981 518.46 106.583 520.977 106.012C521.195 105.963 521.41 105.913 521.623 105.861C523.116 105.498 524.502 105.073 525.76 104.595C530.4 102.834 533.289 100.353 533.289 97.605C533.289 94.0769 528.526 90.9894 521.408 89.2986" fill="#0652DD"/>
<path d="M19.4907 44.9462L13.5569 55.0276L8.12259 45.7938C8.45714 45.7994 8.79203 45.8015 9.12588 45.8015C9.29803 45.8015 9.47159 45.8006 9.64723 45.7994L12.6442 50.8921L13.5569 52.4427L14.4702 50.8921L17.8144 45.2102C18.3799 45.1301 18.94 45.042 19.4907 44.9462V44.9462ZM13.5569 50.3753L10.2514 44.7582C9.87834 44.765 9.50316 44.7678 9.12588 44.7678C8.15852 44.7678 7.20373 44.7464 6.26428 44.705L13.5569 57.095L21.5703 43.4805C20.1786 43.7919 18.7024 44.0524 17.159 44.2557L13.5569 50.3753Z" fill="#6D6D6D"/>
<path d="M9.65273 42.163C9.19086 42.2392 8.73186 42.0184 8.49583 41.6141L7.84023 40.4912C7.39493 39.7285 7.94506 38.7703 8.82825 38.7703H15.9514C17.1338 38.7703 17.4411 40.1504 16.3218 40.5316C14.3395 41.2068 12.0927 41.7601 9.65273 42.163ZM18.5344 26C22.6671 27.7958 25.1927 30.1992 25.1927 32.8395C25.1927 33.5258 25.0222 34.196 24.697 34.8438C24.5229 35.1906 24.1529 35.3834 23.7648 35.3834H2.89555C2.01234 35.3834 1.46221 36.3416 1.90756 37.1044L4.26537 41.1424C4.68993 41.8695 4.2099 42.7885 3.36904 42.832C2.31243 42.8867 1.23519 42.9149 0.141569 42.9149C-2.04252 42.9149 -4.16166 42.8025 -6.18104 42.5909C-6.22815 42.5859 -6.24132 42.6499 -6.19603 42.6638V42.6638C-6.28483 42.6365 -6.37451 42.6099 -6.46308 42.5827C-6.5352 42.5605 -6.60913 42.5446 -6.6841 42.5361C-6.78954 42.5242 -6.89462 42.5121 -6.9997 42.4995C-6.62327 42.5938 -6.24039 42.6838 -5.85036 42.7698C-5.85013 42.7699 -5.84995 42.7699 -5.84973 42.77V42.77C-5.8495 42.7701 -5.84919 42.7701 -5.84896 42.7701C-2.36055 43.5392 1.65295 43.9795 5.92473 43.9842C5.95002 43.9847 5.97566 43.9847 6.00094 43.9847C6.97344 43.9847 7.93215 43.9619 8.87447 43.9181C9.18875 43.9034 9.50112 43.8864 9.81139 43.8671C12.7878 43.6824 15.5857 43.2845 18.1032 42.7138C18.3207 42.6645 18.5361 42.614 18.7494 42.5621C20.242 42.1992 21.6283 41.7743 22.8858 41.2964C27.526 39.5353 30.415 37.0545 30.415 34.3064C30.415 30.7783 25.6521 27.6908 18.5344 26" fill="#0652DD"/>
<path d="M357.064 154.773L351.13 164.854L345.696 155.62C346.03 155.626 346.365 155.628 346.699 155.628C346.871 155.628 347.045 155.627 347.22 155.626L350.217 160.719L351.13 162.269L352.043 160.719L355.388 155.037C355.953 154.957 356.513 154.869 357.064 154.773V154.773ZM351.13 160.202L347.825 154.585C347.452 154.592 347.076 154.594 346.699 154.594C345.732 154.594 344.777 154.573 343.838 154.532L351.13 166.922L359.144 153.307C357.752 153.619 356.276 153.879 354.732 154.082L351.13 160.202Z" fill="#6D6D6D"/>
<path d="M347.226 151.99C346.764 152.066 346.305 151.845 346.069 151.441L345.413 150.318C344.968 149.555 345.518 148.597 346.401 148.597H353.525C354.707 148.597 355.014 149.977 353.895 150.358C351.913 151.033 349.666 151.587 347.226 151.99ZM356.108 135.827C360.24 137.622 362.766 140.026 362.766 142.666C362.766 143.352 362.595 144.023 362.27 144.67C362.096 145.017 361.726 145.21 361.338 145.21H340.469C339.586 145.21 339.035 146.168 339.481 146.931L341.839 150.969C342.263 151.696 341.783 152.615 340.942 152.659C339.886 152.713 338.808 152.742 337.715 152.742C335.531 152.742 333.412 152.629 331.392 152.418C331.345 152.413 331.332 152.477 331.377 152.49V152.49C331.288 152.463 331.199 152.437 331.11 152.409C331.038 152.387 330.964 152.371 330.889 152.363C330.784 152.351 330.679 152.339 330.574 152.326C330.95 152.42 331.333 152.51 331.723 152.596C331.723 152.597 331.723 152.597 331.724 152.597V152.597C331.724 152.597 331.724 152.597 331.724 152.597C335.213 153.366 339.226 153.806 343.498 153.811C343.523 153.811 343.549 153.811 343.574 153.811C344.547 153.811 345.505 153.789 346.448 153.745C346.762 153.73 347.074 153.713 347.385 153.694C350.361 153.509 353.159 153.111 355.676 152.54C355.894 152.491 356.109 152.441 356.323 152.389C357.815 152.026 359.202 151.601 360.459 151.123C365.099 149.362 367.988 146.881 367.988 144.133C367.988 140.605 363.225 137.517 356.108 135.827" fill="#0652DD"/>
<path d="M374.064 78.046L368.13 88.1274L362.696 78.8936C363.03 78.8992 363.365 78.9013 363.699 78.9013C363.871 78.9013 364.045 78.9004 364.22 78.8992L367.217 83.9919L368.13 85.5425L369.043 83.9919L372.388 78.31C372.953 78.2299 373.513 78.1418 374.064 78.046V78.046ZM368.13 83.4751L364.825 77.858C364.452 77.8648 364.076 77.8676 363.699 77.8676C362.732 77.8676 361.777 77.8462 360.838 77.8048L368.13 90.1948L376.144 76.5803C374.752 76.8916 373.276 77.1522 371.732 77.3555L368.13 83.4751Z" fill="#6D6D6D"/>
<path d="M364.226 75.2628C363.764 75.339 363.305 75.1182 363.069 74.7139L362.413 73.591C361.968 72.8283 362.518 71.8701 363.401 71.8701H370.525C371.707 71.8701 372.014 73.2502 370.895 73.6314C368.913 74.3066 366.666 74.8599 364.226 75.2628ZM373.108 59.0998C377.24 60.8956 379.766 63.299 379.766 65.9393C379.766 66.6256 379.595 67.2958 379.27 67.9436C379.096 68.2904 378.726 68.4832 378.338 68.4832H357.469C356.586 68.4832 356.035 69.4414 356.481 70.2042L358.839 74.2422C359.263 74.9693 358.783 75.8883 357.942 75.9318C356.886 75.9865 355.808 76.0147 354.715 76.0147C352.531 76.0147 350.412 75.9023 348.392 75.6907C348.345 75.6857 348.332 75.7497 348.377 75.7636V75.7636C348.288 75.7363 348.199 75.7097 348.11 75.6824C348.038 75.6603 347.964 75.6444 347.889 75.6359C347.784 75.624 347.679 75.6119 347.574 75.5993C347.95 75.6936 348.333 75.7836 348.723 75.8696C348.723 75.8697 348.723 75.8697 348.724 75.8698V75.8698C348.724 75.8698 348.724 75.8699 348.724 75.8699C352.213 76.639 356.226 77.0793 360.498 77.0839C360.523 77.0845 360.549 77.0845 360.574 77.0845C361.547 77.0845 362.505 77.0617 363.448 77.0179C363.762 77.0032 364.074 76.9862 364.385 76.9668C367.361 76.7821 370.159 76.3843 372.676 75.8136C372.894 75.7643 373.109 75.7138 373.323 75.6619C374.815 75.299 376.202 74.8741 377.459 74.3962C382.099 72.6351 384.988 70.1543 384.988 67.4062C384.988 63.8781 380.225 60.7906 373.108 59.0998" fill="#0652DD"/>
<path d="M95.7377 177.054L89.804 187.135L84.3697 177.901C84.7042 177.907 85.0391 177.909 85.3729 177.909C85.5451 177.909 85.7187 177.908 85.8943 177.907L88.8912 182.999L89.804 184.55L90.7173 182.999L94.0615 177.318C94.627 177.237 95.1871 177.149 95.7377 177.054V177.054ZM89.804 182.483L86.4985 176.866C86.1254 176.872 85.7502 176.875 85.3729 176.875C84.4056 176.875 83.4508 176.854 82.5114 176.812L89.804 189.202L97.8174 175.588C96.4257 175.899 94.9495 176.16 93.406 176.363L89.804 182.483Z" fill="#6D6D6D"/>
<path d="M85.8998 174.27C85.4379 174.347 84.9789 174.126 84.7429 173.721L84.0873 172.599C83.642 171.836 84.1921 170.878 85.0753 170.878H92.1984C93.3809 170.878 93.6881 172.258 92.5689 172.639C90.5866 173.314 88.3397 173.867 85.8998 174.27ZM94.7814 158.107C98.9142 159.903 101.44 162.307 101.44 164.947C101.44 165.633 101.269 166.303 100.944 166.951C100.77 167.298 100.4 167.491 100.012 167.491H79.1426C78.2594 167.491 77.7093 168.449 78.1546 169.212L80.5124 173.25C80.937 173.977 80.457 174.896 79.6161 174.939C78.5595 174.994 77.4823 175.022 76.3886 175.022C74.2046 175.022 72.0854 174.91 70.066 174.698C70.0189 174.693 70.0058 174.757 70.051 174.771V174.771C69.9622 174.744 69.8726 174.717 69.784 174.69C69.7119 174.668 69.6379 174.652 69.563 174.643C69.4575 174.632 69.3525 174.619 69.2474 174.607C69.6238 174.701 70.0067 174.791 70.3967 174.877C70.3969 174.877 70.3971 174.877 70.3973 174.877V174.877C70.3976 174.877 70.3979 174.877 70.3981 174.877C73.8865 175.647 77.9 176.087 82.1718 176.092C82.1971 176.092 82.2227 176.092 82.248 176.092C83.2205 176.092 84.1792 176.069 85.1215 176.025C85.4358 176.011 85.7482 175.994 86.0585 175.974C89.0349 175.79 91.8327 175.392 94.3503 174.821C94.5678 174.772 94.7832 174.721 94.9965 174.669C96.489 174.307 97.8754 173.882 99.1329 173.404C103.773 171.643 106.662 169.162 106.662 166.414C106.662 162.886 101.899 159.798 94.7814 158.107" fill="#0652DD"/>
<path d="M180.82 75.6337L174.886 85.7151L169.452 76.4813C169.786 76.4869 170.121 76.489 170.455 76.489C170.627 76.489 170.801 76.4881 170.976 76.4869L173.973 81.5796L174.886 83.1302L175.799 81.5796L179.144 75.8977C179.709 75.8176 180.269 75.7295 180.82 75.6337V75.6337ZM174.886 81.0628L171.581 75.4457C171.207 75.4525 170.832 75.4553 170.455 75.4553C169.488 75.4553 168.533 75.4339 167.593 75.3925L174.886 87.7825L182.899 74.168C181.508 74.4794 180.032 74.7399 178.488 74.9432L174.886 81.0628Z" fill="#6D6D6D"/>
<path d="M170.982 72.8505C170.52 72.9267 170.061 72.7059 169.825 72.3016L169.169 71.1787C168.724 70.416 169.274 69.4578 170.157 69.4578H177.28C178.463 69.4578 178.77 70.8379 177.651 71.2191C175.669 71.8943 173.422 72.4476 170.982 72.8505ZM179.863 56.6875C183.996 58.4833 186.522 60.8867 186.522 63.527C186.522 64.2133 186.351 64.8835 186.026 65.5313C185.852 65.8781 185.482 66.0709 185.094 66.0709H164.225C163.341 66.0709 162.791 67.0291 163.237 67.7919L165.594 71.8299C166.019 72.557 165.539 73.476 164.698 73.5195C163.642 73.5742 162.564 73.6024 161.471 73.6024C159.287 73.6024 157.167 73.49 155.148 73.2784C155.101 73.2734 155.088 73.3374 155.133 73.3513V73.3513C155.044 73.324 154.955 73.2974 154.866 73.2702C154.794 73.248 154.72 73.2321 154.645 73.2236C154.54 73.2117 154.434 73.1996 154.329 73.187C154.706 73.2813 155.089 73.3713 155.479 73.4573C155.479 73.4574 155.479 73.4574 155.479 73.4575V73.4575C155.48 73.4576 155.48 73.4576 155.48 73.4576C158.969 74.2267 162.982 74.667 167.254 74.6717C167.279 74.6722 167.305 74.6722 167.33 74.6722C168.303 74.6722 169.261 74.6494 170.204 74.6056C170.518 74.5909 170.83 74.5739 171.14 74.5546C174.117 74.3699 176.915 73.972 179.432 73.4013C179.65 73.352 179.865 73.3015 180.078 73.2496C181.571 72.8867 182.957 72.4618 184.215 71.9839C188.855 70.2228 191.744 67.742 191.744 64.9939C191.744 61.4658 186.981 58.3783 179.863 56.6875" fill="#0652DD"/>
</g>
<defs>
<clipPath id="clip0_2372_89833">
<rect width="1440" height="216" fill="white"/>
</clipPath>
</defs>
</svg>
