<svg width="375" height="216" viewBox="0 0 375 216" fill="none" xmlns="http://www.w3.org/2000/svg">
<g clip-path="url(#clip0_4587_116878)">
<rect width="375" height="216" fill="#03296F"/>
<path d="M233.08 102.594L233.512 102.433C235.895 101.546 236.737 97.8989 235.393 94.2881L226.332 97.6639C223.95 98.5516 223.107 102.198 224.451 105.809C225.795 109.42 228.816 111.627 231.199 110.739C233.582 109.852 234.424 106.205 233.08 102.594Z" fill="url(#paint0_linear_4587_116878)"/>
<path d="M243.71 106.078C242.366 102.467 239.345 100.26 236.962 101.148L233.51 102.434L233.079 102.595L228.764 104.202C227.167 104.797 225.285 104.001 223.811 102.325C223.802 103.424 224.006 104.62 224.449 105.81C225.793 109.421 228.814 111.628 231.197 110.74L243.71 106.078Z" fill="#0B57E0"/>
<path d="M363.08 185.594L363.512 185.433C365.895 184.546 366.737 180.899 365.393 177.288L356.332 180.664C353.95 181.552 353.107 185.198 354.451 188.809C355.795 192.42 358.816 194.627 361.199 193.739C363.582 192.852 364.424 189.205 363.08 185.594Z" fill="url(#paint1_linear_4587_116878)"/>
<path d="M373.71 189.078C372.366 185.467 369.345 183.26 366.962 184.148L363.51 185.434L363.079 185.595L358.764 187.202C357.167 187.797 355.285 187.001 353.811 185.325C353.802 186.424 354.006 187.62 354.449 188.81C355.793 192.421 358.814 194.628 361.197 193.74L373.71 189.078Z" fill="#0B57E0"/>
<path d="M277.08 62.5941L277.512 62.4333C279.895 61.5456 280.737 57.8989 279.393 54.2881L270.332 57.6639C267.95 58.5516 267.107 62.1984 268.451 65.8092C269.795 69.42 272.816 71.627 275.199 70.7393C277.582 69.8515 278.424 66.2049 277.08 62.5941Z" fill="url(#paint2_linear_4587_116878)"/>
<path d="M287.71 66.0782C286.366 62.4674 283.345 60.2603 280.962 61.148L277.51 62.434L277.079 62.5948L272.764 64.2023C271.167 64.7971 269.285 64.0009 267.811 62.3254C267.802 63.4242 268.006 64.6199 268.449 65.8099C269.793 69.4207 272.814 71.6277 275.197 70.74L287.71 66.0782Z" fill="#0B57E0"/>
<path d="M272.08 138.594L272.512 138.433C274.895 137.546 275.737 133.899 274.393 130.288L265.332 133.664C262.95 134.552 262.107 138.198 263.451 141.809C264.795 145.42 267.816 147.627 270.199 146.739C272.582 145.852 273.424 142.205 272.08 138.594Z" fill="url(#paint3_linear_4587_116878)"/>
<path d="M282.71 142.078C281.366 138.467 278.345 136.26 275.962 137.148L272.51 138.434L272.079 138.595L267.764 140.202C266.167 140.797 264.285 140.001 262.811 138.325C262.802 139.424 263.006 140.62 263.449 141.81C264.793 145.421 267.814 147.628 270.197 146.74L282.71 142.078Z" fill="#0B57E0"/>
<path d="M345.08 50.5941L345.512 50.4333C347.895 49.5456 348.737 45.8989 347.393 42.2881L338.332 45.6639C335.95 46.5516 335.107 50.1984 336.451 53.8092C337.795 57.42 340.816 59.627 343.199 58.7393C345.582 57.8515 346.424 54.2049 345.08 50.5941Z" fill="url(#paint4_linear_4587_116878)"/>
<path d="M355.71 54.0782C354.366 50.4674 351.345 48.2603 348.962 49.148L345.51 50.434L345.079 50.5948L340.764 52.2023C339.167 52.7971 337.285 52.0009 335.811 50.3254C335.802 51.4242 336.006 52.6199 336.449 53.8099C337.793 57.4207 340.814 59.6277 343.197 58.74L355.71 54.0782Z" fill="#0B57E0"/>
<path d="M322.08 148.594L322.512 148.433C324.895 147.546 325.737 143.899 324.393 140.288L315.332 143.664C312.95 144.552 312.107 148.198 313.451 151.809C314.795 155.42 317.816 157.627 320.199 156.739C322.582 155.852 323.424 152.205 322.08 148.594Z" fill="url(#paint5_linear_4587_116878)"/>
<path d="M332.71 152.078C331.366 148.467 328.345 146.26 325.962 147.148L322.51 148.434L322.079 148.595L317.764 150.202C316.167 150.797 314.285 150.001 312.811 148.325C312.802 149.424 313.006 150.62 313.449 151.81C314.793 155.421 317.814 157.628 320.197 156.74L332.71 152.078Z" fill="#0B57E0"/>
<path d="M83.64 141L90.904 117.96H96.552L103.816 141H99.848L93.256 120.328H94.12L87.608 141H83.64ZM87.688 136.008V132.408H99.784V136.008H87.688ZM115.013 141.48C113.327 141.48 111.914 141.08 110.773 140.28C109.631 139.48 108.773 138.392 108.197 137.016C107.621 135.629 107.333 134.077 107.333 132.36C107.333 130.621 107.621 129.064 108.197 127.688C108.773 126.312 109.615 125.229 110.725 124.44C111.845 123.64 113.226 123.24 114.869 123.24C116.501 123.24 117.914 123.64 119.109 124.44C120.314 125.229 121.247 126.312 121.909 127.688C122.57 129.053 122.901 130.611 122.901 132.36C122.901 134.088 122.575 135.64 121.925 137.016C121.274 138.392 120.357 139.48 119.173 140.28C117.989 141.08 116.602 141.48 115.013 141.48ZM106.677 141V117.96H110.565V128.872H110.085V141H106.677ZM114.421 138.024C115.423 138.024 116.25 137.773 116.901 137.272C117.551 136.771 118.031 136.093 118.341 135.24C118.661 134.376 118.821 133.416 118.821 132.36C118.821 131.315 118.661 130.365 118.341 129.512C118.021 128.648 117.525 127.965 116.853 127.464C116.181 126.952 115.327 126.696 114.293 126.696C113.311 126.696 112.511 126.936 111.893 127.416C111.274 127.885 110.815 128.547 110.517 129.4C110.229 130.243 110.085 131.229 110.085 132.36C110.085 133.48 110.229 134.467 110.517 135.32C110.815 136.173 111.279 136.84 111.909 137.32C112.549 137.789 113.386 138.024 114.421 138.024ZM134.06 141.48C132.332 141.48 130.822 141.091 129.532 140.312C128.241 139.533 127.238 138.461 126.524 137.096C125.82 135.72 125.468 134.141 125.468 132.36C125.468 130.547 125.83 128.957 126.556 127.592C127.281 126.227 128.289 125.16 129.58 124.392C130.87 123.624 132.364 123.24 134.06 123.24C135.798 123.24 137.313 123.629 138.604 124.408C139.894 125.187 140.897 126.264 141.612 127.64C142.326 129.005 142.684 130.579 142.684 132.36C142.684 134.152 142.321 135.736 141.596 137.112C140.881 138.477 139.878 139.549 138.588 140.328C137.297 141.096 135.788 141.48 134.06 141.48ZM134.06 137.864C135.596 137.864 136.737 137.352 137.484 136.328C138.23 135.304 138.604 133.981 138.604 132.36C138.604 130.685 138.225 129.352 137.468 128.36C136.71 127.357 135.574 126.856 134.06 126.856C133.025 126.856 132.172 127.091 131.5 127.56C130.838 128.019 130.348 128.664 130.028 129.496C129.708 130.317 129.548 131.272 129.548 132.36C129.548 134.035 129.926 135.373 130.684 136.376C131.452 137.368 132.577 137.864 134.06 137.864ZM152.689 141.496C151.409 141.496 150.353 141.283 149.521 140.856C148.689 140.429 148.027 139.885 147.537 139.224C147.046 138.563 146.683 137.859 146.449 137.112C146.214 136.365 146.059 135.661 145.985 135C145.921 134.328 145.889 133.784 145.889 133.368V123.72H149.793V132.04C149.793 132.573 149.83 133.176 149.905 133.848C149.979 134.509 150.15 135.149 150.417 135.768C150.694 136.376 151.099 136.877 151.633 137.272C152.177 137.667 152.907 137.864 153.825 137.864C154.315 137.864 154.801 137.784 155.281 137.624C155.761 137.464 156.193 137.192 156.577 136.808C156.971 136.413 157.286 135.875 157.521 135.192C157.755 134.509 157.873 133.645 157.873 132.6L160.161 133.576C160.161 135.048 159.873 136.381 159.297 137.576C158.731 138.771 157.894 139.725 156.785 140.44C155.675 141.144 154.31 141.496 152.689 141.496ZM158.337 141V135.64H157.873V123.72H161.745V141H158.337ZM176.368 141C175.227 141.213 174.107 141.304 173.008 141.272C171.92 141.251 170.944 141.053 170.08 140.68C169.216 140.296 168.56 139.693 168.112 138.872C167.717 138.125 167.509 137.363 167.488 136.584C167.467 135.805 167.456 134.925 167.456 133.944V118.92H171.296V133.72C171.296 134.413 171.301 135.021 171.312 135.544C171.333 136.067 171.445 136.493 171.648 136.824C172.032 137.464 172.645 137.821 173.488 137.896C174.331 137.971 175.291 137.928 176.368 137.768V141ZM164.32 126.744V123.72H176.368V126.744H164.32ZM196.234 141.48C193.93 141.48 191.957 140.979 190.314 139.976C188.671 138.963 187.407 137.555 186.522 135.752C185.647 133.949 185.21 131.859 185.21 129.48C185.21 127.101 185.647 125.011 186.522 123.208C187.407 121.405 188.671 120.003 190.314 119C191.957 117.987 193.93 117.48 196.234 117.48C198.89 117.48 201.103 118.147 202.874 119.48C204.645 120.803 205.887 122.589 206.602 124.84L202.714 125.912C202.266 124.408 201.503 123.235 200.426 122.392C199.349 121.539 197.951 121.112 196.234 121.112C194.687 121.112 193.397 121.459 192.362 122.152C191.338 122.845 190.565 123.821 190.042 125.08C189.53 126.328 189.269 127.795 189.258 129.48C189.258 131.165 189.514 132.637 190.026 133.896C190.549 135.144 191.327 136.115 192.362 136.808C193.397 137.501 194.687 137.848 196.234 137.848C197.951 137.848 199.349 137.421 200.426 136.568C201.503 135.715 202.266 134.541 202.714 133.048L206.602 134.12C205.887 136.371 204.645 138.163 202.874 139.496C201.103 140.819 198.89 141.48 196.234 141.48ZM217.747 141.48C216.019 141.48 214.51 141.091 213.219 140.312C211.928 139.533 210.926 138.461 210.211 137.096C209.507 135.72 209.155 134.141 209.155 132.36C209.155 130.547 209.518 128.957 210.243 127.592C210.968 126.227 211.976 125.16 213.267 124.392C214.558 123.624 216.051 123.24 217.747 123.24C219.486 123.24 221 123.629 222.291 124.408C223.582 125.187 224.584 126.264 225.299 127.64C226.014 129.005 226.371 130.579 226.371 132.36C226.371 134.152 226.008 135.736 225.283 137.112C224.568 138.477 223.566 139.549 222.275 140.328C220.984 141.096 219.475 141.48 217.747 141.48ZM217.747 137.864C219.283 137.864 220.424 137.352 221.171 136.328C221.918 135.304 222.291 133.981 222.291 132.36C222.291 130.685 221.912 129.352 221.155 128.36C220.398 127.357 219.262 126.856 217.747 126.856C216.712 126.856 215.859 127.091 215.187 127.56C214.526 128.019 214.035 128.664 213.715 129.496C213.395 130.317 213.235 131.272 213.235 132.36C213.235 134.035 213.614 135.373 214.371 136.376C215.139 137.368 216.264 137.864 217.747 137.864ZM233.943 141L227.671 123.72H231.527L235.879 136.248L240.215 123.72H244.087L237.815 141H233.943ZM254.19 141.48C252.44 141.48 250.904 141.101 249.582 140.344C248.259 139.587 247.224 138.536 246.478 137.192C245.742 135.848 245.374 134.301 245.374 132.552C245.374 130.664 245.736 129.027 246.462 127.64C247.187 126.243 248.195 125.16 249.486 124.392C250.776 123.624 252.27 123.24 253.966 123.24C255.758 123.24 257.278 123.661 258.526 124.504C259.784 125.336 260.718 126.515 261.326 128.04C261.934 129.565 262.163 131.363 262.014 133.432H258.19V132.024C258.179 130.147 257.848 128.776 257.198 127.912C256.547 127.048 255.523 126.616 254.126 126.616C252.547 126.616 251.374 127.107 250.606 128.088C249.838 129.059 249.454 130.483 249.454 132.36C249.454 134.109 249.838 135.464 250.606 136.424C251.374 137.384 252.494 137.864 253.966 137.864C254.915 137.864 255.731 137.656 256.414 137.24C257.107 136.813 257.64 136.2 258.014 135.4L261.822 136.552C261.16 138.109 260.136 139.32 258.75 140.184C257.374 141.048 255.854 141.48 254.19 141.48ZM248.238 133.432V130.52H260.126V133.432H248.238ZM265.584 141V123.72H268.992V127.928L268.576 127.384C268.789 126.808 269.072 126.285 269.424 125.816C269.786 125.336 270.218 124.941 270.72 124.632C271.146 124.344 271.616 124.12 272.128 123.96C272.65 123.789 273.184 123.688 273.728 123.656C274.272 123.613 274.8 123.635 275.312 123.72V127.32C274.8 127.171 274.208 127.123 273.536 127.176C272.874 127.229 272.277 127.416 271.744 127.736C271.21 128.024 270.773 128.392 270.432 128.84C270.101 129.288 269.856 129.8 269.696 130.376C269.536 130.941 269.456 131.555 269.456 132.216V141H265.584ZM278.685 141V117.48H282.541V141H278.685ZM289.606 148.68L292.934 139.544L292.998 142.232L285.462 123.72H289.478L294.822 137.416H293.798L298.998 123.72H302.854L293.222 148.68H289.606Z" fill="white"/>
<path d="M54.2854 115.051L53.8248 115.052C51.2819 115.061 49.2299 118.191 49.2417 122.043L58.9111 122.011C61.4538 122.002 63.5061 118.872 63.4943 115.019C63.4826 111.167 61.4112 108.051 58.8685 108.059C56.3256 108.068 54.2736 111.198 54.2854 115.051Z" fill="url(#paint6_linear_4587_116878)"/>
<path d="M45.5165 108.104C45.5283 111.957 47.5993 115.073 50.1422 115.064L53.8257 115.052L54.2862 115.05L58.8906 115.035C60.5944 115.029 62.0855 116.427 62.8882 118.509C63.277 117.481 63.4991 116.289 63.4952 115.019C63.4835 111.166 61.4121 108.05 58.8694 108.059L45.5165 108.104Z" fill="#0B57E0"/>
<path d="M3.28535 42.0505L2.8248 42.0521C0.281929 42.0607 -1.77009 45.1907 -1.75833 49.0435L7.91105 49.0107C10.4538 49.0021 12.5061 45.8721 12.4943 42.0194C12.4826 38.1666 10.4112 35.0506 7.86849 35.0592C5.32561 35.0678 3.2736 38.1978 3.28535 42.0505Z" fill="url(#paint7_linear_4587_116878)"/>
<path d="M-5.48349 35.104C-5.47174 38.9568 -3.40067 42.0728 -0.857793 42.0642L2.82568 42.0517L3.28623 42.0501L7.89065 42.0345C9.59443 42.0288 11.0855 43.4272 11.8882 45.5089C12.277 44.4812 12.4991 43.2886 12.4952 42.019C12.4835 38.1662 10.4121 35.0502 7.86936 35.0588L-5.48349 35.104Z" fill="#0B57E0"/>
<path d="M91.2854 174.051L90.8248 174.052C88.2819 174.061 86.2299 177.191 86.2417 181.043L95.9111 181.011C98.4538 181.002 100.506 177.872 100.494 174.019C100.483 170.167 98.4112 167.051 95.8685 167.059C93.3256 167.068 91.2736 170.198 91.2854 174.051Z" fill="url(#paint8_linear_4587_116878)"/>
<path d="M82.5165 167.104C82.5283 170.957 84.5993 174.073 87.1422 174.064L90.8257 174.052L91.2862 174.05L95.8906 174.035C97.5944 174.029 99.0855 175.427 99.8882 177.509C100.277 176.481 100.499 175.289 100.495 174.019C100.483 170.166 98.4121 167.05 95.8694 167.059L82.5165 167.104Z" fill="#0B57E0"/>
<path d="M96.2854 60.0505L95.8248 60.0521C93.2819 60.0607 91.2299 63.1907 91.2417 67.0435L100.911 67.0107C103.454 67.0021 105.506 63.8721 105.494 60.0194C105.483 56.1666 103.411 53.0506 100.868 53.0592C98.3256 53.0678 96.2736 56.1978 96.2854 60.0505Z" fill="url(#paint9_linear_4587_116878)"/>
<path d="M87.5165 53.104C87.5283 56.9568 89.5993 60.0728 92.1422 60.0642L95.8257 60.0517L96.2862 60.0501L100.891 60.0345C102.594 60.0288 104.085 61.4272 104.888 63.5089C105.277 62.4812 105.499 61.2886 105.495 60.019C105.483 56.1662 103.412 53.0502 100.869 53.0588L87.5165 53.104Z" fill="#0B57E0"/>
<path d="M22.2854 174.051L21.8248 174.052C19.2819 174.061 17.2299 177.191 17.2417 181.043L26.9111 181.011C29.4538 181.002 31.5061 177.872 31.4943 174.019C31.4826 170.167 29.4112 167.051 26.8685 167.059C24.3256 167.068 22.2736 170.198 22.2854 174.051Z" fill="url(#paint10_linear_4587_116878)"/>
<path d="M13.5165 167.104C13.5283 170.957 15.5993 174.073 18.1422 174.064L21.8257 174.052L22.2862 174.05L26.8906 174.035C28.5944 174.029 30.0855 175.427 30.8882 177.509C31.277 176.481 31.4991 175.289 31.4952 174.019C31.4835 170.166 29.4121 167.05 26.8694 167.059L13.5165 167.104Z" fill="#0B57E0"/>
<path d="M45.2854 72.0505L44.8248 72.0521C42.2819 72.0607 40.2299 75.1907 40.2417 79.0435L49.9111 79.0107C52.4538 79.0021 54.5061 75.8721 54.4943 72.0194C54.4826 68.1666 52.4112 65.0506 49.8685 65.0592C47.3256 65.0678 45.2736 68.1978 45.2854 72.0505Z" fill="url(#paint11_linear_4587_116878)"/>
<path d="M36.5165 65.104C36.5283 68.9568 38.5993 72.0728 41.1422 72.0642L44.8257 72.0517L45.2862 72.0501L49.8906 72.0345C51.5944 72.0288 53.0855 73.4272 53.8882 75.5089C54.277 74.4812 54.4991 73.2886 54.4952 72.019C54.4835 68.1662 52.4121 65.0502 49.8694 65.0588L36.5165 65.104Z" fill="#0B57E0"/>
</g>
<defs>
<linearGradient id="paint0_linear_4587_116878" x1="228.706" y1="96.7798" x2="233.576" y2="109.853" gradientUnits="userSpaceOnUse">
<stop stop-color="#0652DD"/>
<stop offset="0.473958" stop-color="#083587"/>
<stop offset="1" stop-color="#0176C3"/>
</linearGradient>
<linearGradient id="paint1_linear_4587_116878" x1="358.706" y1="179.78" x2="363.576" y2="192.853" gradientUnits="userSpaceOnUse">
<stop stop-color="#0652DD"/>
<stop offset="0.473958" stop-color="#083587"/>
<stop offset="1" stop-color="#0176C3"/>
</linearGradient>
<linearGradient id="paint2_linear_4587_116878" x1="272.706" y1="56.7798" x2="277.576" y2="69.8535" gradientUnits="userSpaceOnUse">
<stop stop-color="#0652DD"/>
<stop offset="0.473958" stop-color="#083587"/>
<stop offset="1" stop-color="#0176C3"/>
</linearGradient>
<linearGradient id="paint3_linear_4587_116878" x1="267.706" y1="132.78" x2="272.576" y2="145.853" gradientUnits="userSpaceOnUse">
<stop stop-color="#0652DD"/>
<stop offset="0.473958" stop-color="#083587"/>
<stop offset="1" stop-color="#0176C3"/>
</linearGradient>
<linearGradient id="paint4_linear_4587_116878" x1="340.706" y1="44.7798" x2="345.576" y2="57.8535" gradientUnits="userSpaceOnUse">
<stop stop-color="#0652DD"/>
<stop offset="0.473958" stop-color="#083587"/>
<stop offset="1" stop-color="#0176C3"/>
</linearGradient>
<linearGradient id="paint5_linear_4587_116878" x1="317.706" y1="142.78" x2="322.576" y2="155.853" gradientUnits="userSpaceOnUse">
<stop stop-color="#0652DD"/>
<stop offset="0.473958" stop-color="#083587"/>
<stop offset="1" stop-color="#0176C3"/>
</linearGradient>
<linearGradient id="paint6_linear_4587_116878" x1="56.3785" y1="122.019" x2="56.3312" y2="108.068" gradientUnits="userSpaceOnUse">
<stop stop-color="#0652DD"/>
<stop offset="0.473958" stop-color="#083587"/>
<stop offset="1" stop-color="#0176C3"/>
</linearGradient>
<linearGradient id="paint7_linear_4587_116878" x1="5.37849" y1="49.0193" x2="5.33124" y2="35.0678" gradientUnits="userSpaceOnUse">
<stop stop-color="#0652DD"/>
<stop offset="0.473958" stop-color="#083587"/>
<stop offset="1" stop-color="#0176C3"/>
</linearGradient>
<linearGradient id="paint8_linear_4587_116878" x1="93.3785" y1="181.019" x2="93.3312" y2="167.068" gradientUnits="userSpaceOnUse">
<stop stop-color="#0652DD"/>
<stop offset="0.473958" stop-color="#083587"/>
<stop offset="1" stop-color="#0176C3"/>
</linearGradient>
<linearGradient id="paint9_linear_4587_116878" x1="98.3785" y1="67.0193" x2="98.3312" y2="53.0678" gradientUnits="userSpaceOnUse">
<stop stop-color="#0652DD"/>
<stop offset="0.473958" stop-color="#083587"/>
<stop offset="1" stop-color="#0176C3"/>
</linearGradient>
<linearGradient id="paint10_linear_4587_116878" x1="24.3785" y1="181.019" x2="24.3312" y2="167.068" gradientUnits="userSpaceOnUse">
<stop stop-color="#0652DD"/>
<stop offset="0.473958" stop-color="#083587"/>
<stop offset="1" stop-color="#0176C3"/>
</linearGradient>
<linearGradient id="paint11_linear_4587_116878" x1="47.3785" y1="79.0193" x2="47.3312" y2="65.0678" gradientUnits="userSpaceOnUse">
<stop stop-color="#0652DD"/>
<stop offset="0.473958" stop-color="#083587"/>
<stop offset="1" stop-color="#0176C3"/>
</linearGradient>
<clipPath id="clip0_4587_116878">
<rect width="375" height="216" fill="white"/>
</clipPath>
</defs>
</svg>
