<svg width="834" height="216" viewBox="0 0 834 216" fill="none" xmlns="http://www.w3.org/2000/svg">
<g clip-path="url(#clip0_3583_112204)">
<rect width="833" height="216" transform="translate(0.5)" fill="#03296F"/>
<path d="M520.08 101.594L520.512 101.433C522.895 100.546 523.737 96.8989 522.393 93.2881L513.332 96.6639C510.95 97.5516 510.107 101.198 511.451 104.809C512.795 108.42 515.816 110.627 518.199 109.739C520.582 108.852 521.424 105.205 520.08 101.594Z" fill="url(#paint0_linear_3583_112204)"/>
<path d="M530.71 105.078C529.366 101.467 526.345 99.2603 523.962 100.148L520.51 101.434L520.079 101.595L515.764 103.202C514.167 103.797 512.285 103.001 510.811 101.325C510.802 102.424 511.006 103.62 511.449 104.81C512.793 108.421 515.814 110.628 518.197 109.74L530.71 105.078Z" fill="#0B57E0"/>
<path d="M809.08 184.594L809.512 184.433C811.895 183.546 812.737 179.899 811.393 176.288L802.332 179.664C799.95 180.552 799.107 184.198 800.451 187.809C801.795 191.42 804.816 193.627 807.199 192.739C809.582 191.852 810.424 188.205 809.08 184.594Z" fill="url(#paint1_linear_3583_112204)"/>
<path d="M819.71 188.078C818.366 184.467 815.345 182.26 812.962 183.148L809.51 184.434L809.079 184.595L804.764 186.202C803.167 186.797 801.285 186.001 799.811 184.325C799.802 185.424 800.006 186.62 800.449 187.81C801.793 191.421 804.814 193.628 807.197 192.74L819.71 188.078Z" fill="#0B57E0"/>
<path d="M616.285 62.0505L615.825 62.0521C613.282 62.0607 611.23 65.1907 611.242 69.0435L620.911 69.0107C623.454 69.0021 625.506 65.8721 625.494 62.0194C625.483 58.1666 623.411 55.0506 620.868 55.0592C618.326 55.0678 616.274 58.1978 616.285 62.0505Z" fill="url(#paint2_linear_3583_112204)"/>
<path d="M607.517 55.104C607.528 58.9568 609.599 62.0728 612.142 62.0642L615.826 62.0517L616.286 62.0501L620.891 62.0345C622.594 62.0288 624.085 63.4272 624.888 65.5089C625.277 64.4812 625.499 63.2886 625.495 62.019C625.483 58.1662 623.412 55.0502 620.869 55.0588L607.517 55.104Z" fill="#0B57E0"/>
<path d="M605.08 137.594L605.512 137.433C607.895 136.546 608.737 132.899 607.393 129.288L598.332 132.664C595.95 133.552 595.107 137.198 596.451 140.809C597.795 144.42 600.816 146.627 603.199 145.739C605.582 144.852 606.424 141.205 605.08 137.594Z" fill="url(#paint3_linear_3583_112204)"/>
<path d="M615.71 141.078C614.366 137.467 611.345 135.26 608.962 136.148L605.51 137.434L605.079 137.595L600.764 139.202C599.167 139.797 597.285 139.001 595.811 137.325C595.802 138.424 596.006 139.62 596.449 140.81C597.793 144.421 600.814 146.628 603.197 145.74L615.71 141.078Z" fill="#0B57E0"/>
<path d="M768.08 49.5941L768.512 49.4333C770.895 48.5456 771.737 44.8989 770.393 41.2881L761.332 44.6639C758.95 45.5516 758.107 49.1984 759.451 52.8092C760.795 56.42 763.816 58.627 766.199 57.7393C768.582 56.8515 769.424 53.2049 768.08 49.5941Z" fill="url(#paint4_linear_3583_112204)"/>
<path d="M778.71 53.0782C777.366 49.4674 774.345 47.2603 771.962 48.148L768.51 49.434L768.079 49.5948L763.764 51.2023C762.167 51.7971 760.285 51.0009 758.811 49.3254C758.802 50.4242 759.006 51.6199 759.449 52.8099C760.793 56.4207 763.814 58.6277 766.197 57.74L778.71 53.0782Z" fill="#0B57E0"/>
<path d="M716.08 147.594L716.512 147.433C718.895 146.546 719.737 142.899 718.393 139.288L709.332 142.664C706.95 143.552 706.107 147.198 707.451 150.809C708.795 154.42 711.816 156.627 714.199 155.739C716.582 154.852 717.424 151.205 716.08 147.594Z" fill="url(#paint5_linear_3583_112204)"/>
<path d="M726.71 151.078C725.366 147.467 722.345 145.26 719.962 146.148L716.51 147.434L716.079 147.595L711.764 149.202C710.167 149.797 708.285 149.001 706.811 147.325C706.802 148.424 707.006 149.62 707.449 150.81C708.793 154.421 711.814 156.628 714.197 155.74L726.71 151.078Z" fill="#0B57E0"/>
<path d="M232.12 122L244.832 81.68H254.716L267.428 122H260.484L248.948 85.824H250.46L239.064 122H232.12ZM239.204 113.264V106.964H260.372V113.264H239.204ZM287.022 122.84C284.073 122.84 281.6 122.14 279.602 120.74C277.605 119.34 276.102 117.436 275.094 115.028C274.086 112.601 273.582 109.885 273.582 106.88C273.582 103.837 274.086 101.112 275.094 98.704C276.102 96.296 277.577 94.4013 279.518 93.02C281.478 91.62 283.896 90.92 286.77 90.92C289.626 90.92 292.1 91.62 294.19 93.02C296.3 94.4013 297.933 96.296 299.09 98.704C300.248 101.093 300.826 103.819 300.826 106.88C300.826 109.904 300.257 112.62 299.118 115.028C297.98 117.436 296.374 119.34 294.302 120.74C292.23 122.14 289.804 122.84 287.022 122.84ZM272.434 122V81.68H279.238V100.776H278.398V122H272.434ZM285.986 116.792C287.741 116.792 289.188 116.353 290.326 115.476C291.465 114.599 292.305 113.413 292.846 111.92C293.406 110.408 293.686 108.728 293.686 106.88C293.686 105.051 293.406 103.389 292.846 101.896C292.286 100.384 291.418 99.1893 290.242 98.312C289.066 97.416 287.573 96.968 285.762 96.968C284.045 96.968 282.645 97.388 281.562 98.228C280.48 99.0493 279.677 100.207 279.154 101.7C278.65 103.175 278.398 104.901 278.398 106.88C278.398 108.84 278.65 110.567 279.154 112.06C279.677 113.553 280.489 114.72 281.59 115.56C282.71 116.381 284.176 116.792 285.986 116.792ZM320.354 122.84C317.33 122.84 314.689 122.159 312.43 120.796C310.171 119.433 308.417 117.557 307.166 115.168C305.934 112.76 305.318 109.997 305.318 106.88C305.318 103.707 305.953 100.925 307.222 98.536C308.491 96.1467 310.255 94.28 312.514 92.936C314.773 91.592 317.386 90.92 320.354 90.92C323.397 90.92 326.047 91.6013 328.306 92.964C330.565 94.3267 332.319 96.212 333.57 98.62C334.821 101.009 335.446 103.763 335.446 106.88C335.446 110.016 334.811 112.788 333.542 115.196C332.291 117.585 330.537 119.461 328.278 120.824C326.019 122.168 323.378 122.84 320.354 122.84ZM320.354 116.512C323.042 116.512 325.039 115.616 326.346 113.824C327.653 112.032 328.306 109.717 328.306 106.88C328.306 103.949 327.643 101.616 326.318 99.88C324.993 98.1253 323.005 97.248 320.354 97.248C318.543 97.248 317.05 97.6587 315.874 98.48C314.717 99.2827 313.858 100.412 313.298 101.868C312.738 103.305 312.458 104.976 312.458 106.88C312.458 109.811 313.121 112.153 314.446 113.908C315.79 115.644 317.759 116.512 320.354 116.512ZM352.955 122.868C350.715 122.868 348.867 122.495 347.411 121.748C345.955 121.001 344.798 120.049 343.939 118.892C343.081 117.735 342.446 116.503 342.035 115.196C341.625 113.889 341.354 112.657 341.223 111.5C341.111 110.324 341.055 109.372 341.055 108.644V91.76H347.887V106.32C347.887 107.253 347.953 108.308 348.083 109.484C348.214 110.641 348.513 111.761 348.979 112.844C349.465 113.908 350.174 114.785 351.107 115.476C352.059 116.167 353.338 116.512 354.943 116.512C355.802 116.512 356.651 116.372 357.491 116.092C358.331 115.812 359.087 115.336 359.759 114.664C360.45 113.973 361.001 113.031 361.411 111.836C361.822 110.641 362.027 109.129 362.027 107.3L366.031 109.008C366.031 111.584 365.527 113.917 364.519 116.008C363.53 118.099 362.065 119.769 360.123 121.02C358.182 122.252 355.793 122.868 352.955 122.868ZM362.839 122V112.62H362.027V91.76H368.803V122H362.839ZM394.394 122C392.397 122.373 390.437 122.532 388.514 122.476C386.61 122.439 384.902 122.093 383.39 121.44C381.878 120.768 380.73 119.713 379.946 118.276C379.255 116.969 378.891 115.635 378.854 114.272C378.817 112.909 378.798 111.369 378.798 109.652V83.36H385.518V109.26C385.518 110.473 385.527 111.537 385.546 112.452C385.583 113.367 385.779 114.113 386.134 114.692C386.806 115.812 387.879 116.437 389.354 116.568C390.829 116.699 392.509 116.624 394.394 116.344V122ZM373.31 97.052V91.76H394.394V97.052H373.31ZM429.16 122.84C425.128 122.84 421.674 121.963 418.8 120.208C415.925 118.435 413.713 115.971 412.164 112.816C410.633 109.661 409.868 106.003 409.868 101.84C409.868 97.6773 410.633 94.0187 412.164 90.864C413.713 87.7093 415.925 85.2547 418.8 83.5C421.674 81.7267 425.128 80.84 429.16 80.84C433.808 80.84 437.681 82.0067 440.78 84.34C443.878 86.6547 446.053 89.7813 447.304 93.72L440.5 95.596C439.716 92.964 438.381 90.9107 436.496 89.436C434.61 87.9427 432.165 87.196 429.16 87.196C426.453 87.196 424.194 87.8027 422.384 89.016C420.592 90.2293 419.238 91.9373 418.324 94.14C417.428 96.324 416.97 98.8907 416.952 101.84C416.952 104.789 417.4 107.365 418.296 109.568C419.21 111.752 420.573 113.451 422.384 114.664C424.194 115.877 426.453 116.484 429.16 116.484C432.165 116.484 434.61 115.737 436.496 114.244C438.381 112.751 439.716 110.697 440.5 108.084L447.304 109.96C446.053 113.899 443.878 117.035 440.78 119.368C437.681 121.683 433.808 122.84 429.16 122.84ZM466.807 122.84C463.783 122.84 461.142 122.159 458.883 120.796C456.625 119.433 454.87 117.557 453.619 115.168C452.387 112.76 451.771 109.997 451.771 106.88C451.771 103.707 452.406 100.925 453.675 98.536C454.945 96.1467 456.709 94.28 458.967 92.936C461.226 91.592 463.839 90.92 466.807 90.92C469.85 90.92 472.501 91.6013 474.759 92.964C477.018 94.3267 478.773 96.212 480.023 98.62C481.274 101.009 481.899 103.763 481.899 106.88C481.899 110.016 481.265 112.788 479.995 115.196C478.745 117.585 476.99 119.461 474.731 120.824C472.473 122.168 469.831 122.84 466.807 122.84ZM466.807 116.512C469.495 116.512 471.493 115.616 472.799 113.824C474.106 112.032 474.759 109.717 474.759 106.88C474.759 103.949 474.097 101.616 472.771 99.88C471.446 98.1253 469.458 97.248 466.807 97.248C464.997 97.248 463.503 97.6587 462.327 98.48C461.17 99.2827 460.311 100.412 459.751 101.868C459.191 103.305 458.911 104.976 458.911 106.88C458.911 109.811 459.574 112.153 460.899 113.908C462.243 115.644 464.213 116.512 466.807 116.512ZM495.151 122L484.175 91.76H490.923L498.539 113.684L506.127 91.76H512.903L501.927 122H495.151ZM530.582 122.84C527.521 122.84 524.833 122.177 522.518 120.852C520.203 119.527 518.393 117.688 517.086 115.336C515.798 112.984 515.154 110.277 515.154 107.216C515.154 103.912 515.789 101.047 517.058 98.62C518.327 96.1747 520.091 94.28 522.35 92.936C524.609 91.592 527.222 90.92 530.19 90.92C533.326 90.92 535.986 91.6573 538.17 93.132C540.373 94.588 542.006 96.6507 543.07 99.32C544.134 101.989 544.535 105.135 544.274 108.756H537.582V106.292C537.563 103.007 536.985 100.608 535.846 99.096C534.707 97.584 532.915 96.828 530.47 96.828C527.707 96.828 525.654 97.6867 524.31 99.404C522.966 101.103 522.294 103.595 522.294 106.88C522.294 109.941 522.966 112.312 524.31 113.992C525.654 115.672 527.614 116.512 530.19 116.512C531.851 116.512 533.279 116.148 534.474 115.42C535.687 114.673 536.621 113.6 537.274 112.2L543.938 114.216C542.781 116.941 540.989 119.06 538.562 120.572C536.154 122.084 533.494 122.84 530.582 122.84ZM520.166 108.756V103.66H540.97V108.756H520.166ZM550.522 122V91.76H556.486V99.124L555.758 98.172C556.131 97.164 556.626 96.2493 557.242 95.428C557.876 94.588 558.632 93.8973 559.51 93.356C560.256 92.852 561.078 92.46 561.974 92.18C562.888 91.8813 563.822 91.704 564.774 91.648C565.726 91.5733 566.65 91.6107 567.546 91.76V98.06C566.65 97.7987 565.614 97.7147 564.438 97.808C563.28 97.9013 562.235 98.228 561.302 98.788C560.368 99.292 559.603 99.936 559.006 100.72C558.427 101.504 557.998 102.4 557.718 103.408C557.438 104.397 557.298 105.471 557.298 106.628V122H550.522ZM573.449 122V80.84H580.197V122H573.449ZM592.56 135.44L598.384 119.452L598.496 124.156L585.308 91.76H592.336L601.688 115.728H599.896L608.996 91.76H615.744L598.888 135.44H592.56Z" fill="white"/>
<path d="M7.28535 42.0505L6.8248 42.0521C4.28193 42.0607 2.22991 45.1907 2.24167 49.0435L11.9111 49.0107C14.4538 49.0021 16.5061 45.8721 16.4943 42.0194C16.4826 38.1666 14.4112 35.0506 11.8685 35.0592C9.32561 35.0678 7.2736 38.1978 7.28535 42.0505Z" fill="url(#paint6_linear_3583_112204)"/>
<path d="M-1.48349 35.104C-1.47174 38.9568 0.599334 42.0728 3.14221 42.0642L6.82568 42.0517L7.28623 42.0501L11.8906 42.0345C13.5944 42.0288 15.0855 43.4272 15.8882 45.5089C16.277 44.4812 16.4991 43.2886 16.4952 42.019C16.4835 38.1662 14.4121 35.0502 11.8694 35.0588L-1.48349 35.104Z" fill="#0B57E0"/>
<path d="M202.285 151.051L201.825 151.052C199.282 151.061 197.23 154.191 197.242 158.043L206.911 158.011C209.454 158.002 211.506 154.872 211.494 151.019C211.483 147.167 209.411 144.051 206.868 144.059C204.326 144.068 202.274 147.198 202.285 151.051Z" fill="url(#paint7_linear_3583_112204)"/>
<path d="M193.517 144.104C193.528 147.957 195.599 151.073 198.142 151.064L201.826 151.052L202.286 151.05L206.891 151.035C208.594 151.029 210.085 152.427 210.888 154.509C211.277 153.481 211.499 152.289 211.495 151.019C211.483 147.166 209.412 144.05 206.869 144.059L193.517 144.104Z" fill="#0B57E0"/>
<path d="M212.285 75.0505L211.825 75.0521C209.282 75.0607 207.23 78.1907 207.242 82.0435L216.911 82.0107C219.454 82.0021 221.506 78.8721 221.494 75.0194C221.483 71.1666 219.411 68.0506 216.868 68.0592C214.326 68.0678 212.274 71.1978 212.285 75.0505Z" fill="url(#paint8_linear_3583_112204)"/>
<path d="M203.517 68.104C203.528 71.9568 205.599 75.0728 208.142 75.0642L211.826 75.0517L212.286 75.0501L216.891 75.0345C218.594 75.0288 220.085 76.4272 220.888 78.5089C221.277 77.4812 221.499 76.2886 221.495 75.019C221.483 71.1662 219.412 68.0502 216.869 68.0588L203.517 68.104Z" fill="#0B57E0"/>
<path d="M51.2854 174.051L50.8248 174.052C48.2819 174.061 46.2299 177.191 46.2417 181.043L55.9111 181.011C58.4538 181.002 60.5061 177.872 60.4943 174.019C60.4826 170.167 58.4112 167.051 55.8685 167.059C53.3256 167.068 51.2736 170.198 51.2854 174.051Z" fill="url(#paint9_linear_3583_112204)"/>
<path d="M42.5165 167.104C42.5283 170.957 44.5993 174.073 47.1422 174.064L50.8257 174.052L51.2862 174.05L55.8906 174.035C57.5944 174.029 59.0855 175.427 59.8882 177.509C60.277 176.481 60.4991 175.289 60.4952 174.019C60.4835 170.166 58.4121 167.05 55.8694 167.059L42.5165 167.104Z" fill="#0B57E0"/>
<path d="M100.285 72.0505L99.8248 72.0521C97.2819 72.0607 95.2299 75.1907 95.2417 79.0435L104.911 79.0107C107.454 79.0021 109.506 75.8721 109.494 72.0194C109.483 68.1666 107.411 65.0506 104.868 65.0592C102.326 65.0678 100.274 68.1978 100.285 72.0505Z" fill="url(#paint10_linear_3583_112204)"/>
<path d="M91.5165 65.104C91.5283 68.9568 93.5993 72.0728 96.1422 72.0642L99.8257 72.0517L100.286 72.0501L104.891 72.0345C106.594 72.0288 108.085 73.4272 108.888 75.5089C109.277 74.4812 109.499 73.2886 109.495 72.019C109.483 68.1662 107.412 65.0502 104.869 65.0588L91.5165 65.104Z" fill="#0B57E0"/>
</g>
<defs>
<linearGradient id="paint0_linear_3583_112204" x1="515.706" y1="95.7798" x2="520.576" y2="108.853" gradientUnits="userSpaceOnUse">
<stop stop-color="#0652DD"/>
<stop offset="0.473958" stop-color="#083587"/>
<stop offset="1" stop-color="#0176C3"/>
</linearGradient>
<linearGradient id="paint1_linear_3583_112204" x1="804.706" y1="178.78" x2="809.576" y2="191.853" gradientUnits="userSpaceOnUse">
<stop stop-color="#0652DD"/>
<stop offset="0.473958" stop-color="#083587"/>
<stop offset="1" stop-color="#0176C3"/>
</linearGradient>
<linearGradient id="paint2_linear_3583_112204" x1="618.378" y1="69.0193" x2="618.331" y2="55.0678" gradientUnits="userSpaceOnUse">
<stop stop-color="#0652DD"/>
<stop offset="0.473958" stop-color="#083587"/>
<stop offset="1" stop-color="#0176C3"/>
</linearGradient>
<linearGradient id="paint3_linear_3583_112204" x1="600.706" y1="131.78" x2="605.576" y2="144.853" gradientUnits="userSpaceOnUse">
<stop stop-color="#0652DD"/>
<stop offset="0.473958" stop-color="#083587"/>
<stop offset="1" stop-color="#0176C3"/>
</linearGradient>
<linearGradient id="paint4_linear_3583_112204" x1="763.706" y1="43.7798" x2="768.576" y2="56.8535" gradientUnits="userSpaceOnUse">
<stop stop-color="#0652DD"/>
<stop offset="0.473958" stop-color="#083587"/>
<stop offset="1" stop-color="#0176C3"/>
</linearGradient>
<linearGradient id="paint5_linear_3583_112204" x1="711.706" y1="141.78" x2="716.576" y2="154.853" gradientUnits="userSpaceOnUse">
<stop stop-color="#0652DD"/>
<stop offset="0.473958" stop-color="#083587"/>
<stop offset="1" stop-color="#0176C3"/>
</linearGradient>
<linearGradient id="paint6_linear_3583_112204" x1="9.37849" y1="49.0193" x2="9.33124" y2="35.0678" gradientUnits="userSpaceOnUse">
<stop stop-color="#0652DD"/>
<stop offset="0.473958" stop-color="#083587"/>
<stop offset="1" stop-color="#0176C3"/>
</linearGradient>
<linearGradient id="paint7_linear_3583_112204" x1="204.378" y1="158.019" x2="204.331" y2="144.068" gradientUnits="userSpaceOnUse">
<stop stop-color="#0652DD"/>
<stop offset="0.473958" stop-color="#083587"/>
<stop offset="1" stop-color="#0176C3"/>
</linearGradient>
<linearGradient id="paint8_linear_3583_112204" x1="214.378" y1="82.0193" x2="214.331" y2="68.0678" gradientUnits="userSpaceOnUse">
<stop stop-color="#0652DD"/>
<stop offset="0.473958" stop-color="#083587"/>
<stop offset="1" stop-color="#0176C3"/>
</linearGradient>
<linearGradient id="paint9_linear_3583_112204" x1="53.3785" y1="181.019" x2="53.3312" y2="167.068" gradientUnits="userSpaceOnUse">
<stop stop-color="#0652DD"/>
<stop offset="0.473958" stop-color="#083587"/>
<stop offset="1" stop-color="#0176C3"/>
</linearGradient>
<linearGradient id="paint10_linear_3583_112204" x1="102.378" y1="79.0193" x2="102.331" y2="65.0678" gradientUnits="userSpaceOnUse">
<stop stop-color="#0652DD"/>
<stop offset="0.473958" stop-color="#083587"/>
<stop offset="1" stop-color="#0176C3"/>
</linearGradient>
<clipPath id="clip0_3583_112204">
<rect width="833" height="216" fill="white" transform="translate(0.5)"/>
</clipPath>
</defs>
</svg>
