<svg width="48" height="48" viewBox="0 0 48 48" fill="none" xmlns="http://www.w3.org/2000/svg">
<rect width="48" height="48" rx="24" fill="#CDDCF8"/>
<path d="M20.12 30V18.48H24.648C25.3787 18.48 25.992 18.6293 26.488 18.928C26.984 19.2267 27.3573 19.6133 27.608 20.088C27.8587 20.5573 27.984 21.0533 27.984 21.576C27.984 22.2107 27.8267 22.7547 27.512 23.208C27.2027 23.6613 26.784 23.9707 26.256 24.136L26.24 23.744C26.976 23.9253 27.5413 24.28 27.936 24.808C28.3307 25.3307 28.528 25.9413 28.528 26.64C28.528 27.3173 28.392 27.9067 28.12 28.408C27.8533 28.9093 27.4613 29.3013 26.944 29.584C26.432 29.8613 25.8107 30 25.08 30H20.12ZM21.816 28.408H24.824C25.2027 28.408 25.5413 28.336 25.84 28.192C26.144 28.048 26.3813 27.8427 26.552 27.576C26.728 27.304 26.816 26.9813 26.816 26.608C26.816 26.2613 26.7387 25.9493 26.584 25.672C26.4347 25.3893 26.216 25.168 25.928 25.008C25.6453 24.8427 25.312 24.76 24.928 24.76H21.816V28.408ZM21.816 23.184H24.624C24.9333 23.184 25.2107 23.1227 25.456 23C25.7067 22.872 25.904 22.6907 26.048 22.456C26.1973 22.216 26.272 21.928 26.272 21.592C26.272 21.144 26.1227 20.776 25.824 20.488C25.5253 20.2 25.1253 20.056 24.624 20.056H21.816V23.184Z" fill="#0652DD"/>
</svg>
