<svg width="80" height="80" viewBox="0 0 80 80" fill="none" xmlns="http://www.w3.org/2000/svg">
<path d="M60.0001 23.8666C59.8001 23.8333 59.5668 23.8333 59.3668 23.8666C54.7668 23.7 51.1001 19.9333 51.1001 15.2666C51.1001 10.5 54.9334 6.66663 59.7001 6.66663C64.4668 6.66663 68.3001 10.5333 68.3001 15.2666C68.2668 19.9333 64.6001 23.7 60.0001 23.8666Z" stroke="#FF2635" stroke-width="1.5" stroke-linecap="round" stroke-linejoin="round"/>
<path d="M56.5668 48.1333C61.1335 48.9 66.1668 48.1 69.7001 45.7333C74.4001 42.6 74.4001 37.4667 69.7001 34.3333C66.1335 31.9667 61.0335 31.1667 56.4668 31.9667" stroke="#FF2635" stroke-width="1.5" stroke-linecap="round" stroke-linejoin="round"/>
<path d="M19.9001 23.8666C20.1001 23.8333 20.3334 23.8333 20.5334 23.8666C25.1334 23.7 28.8001 19.9333 28.8001 15.2666C28.8001 10.5 24.9668 6.66663 20.2001 6.66663C15.4334 6.66663 11.6001 10.5333 11.6001 15.2666C11.6334 19.9333 15.3001 23.7 19.9001 23.8666Z" stroke="#FF2635" stroke-width="1.5" stroke-linecap="round" stroke-linejoin="round"/>
<path d="M23.3334 48.1333C18.7667 48.9 13.7334 48.1 10.2 45.7333C5.50005 42.6 5.50005 37.4667 10.2 34.3333C13.7667 31.9667 18.8667 31.1667 23.4334 31.9667" stroke="#292D32" stroke-width="1.5" stroke-linecap="round" stroke-linejoin="round"/>
<path d="M39.9998 48.7667C39.7998 48.7333 39.5665 48.7333 39.3665 48.7667C34.7665 48.6 31.0999 44.8333 31.0999 40.1667C31.0999 35.4 34.9332 31.5667 39.6998 31.5667C44.4665 31.5667 48.2999 35.4333 48.2999 40.1667C48.2665 44.8333 44.5998 48.6333 39.9998 48.7667Z" stroke="#292D32" stroke-width="1.5" stroke-linecap="round" stroke-linejoin="round"/>
<path d="M30.2999 59.2667C25.5999 62.4 25.5999 67.5334 30.2999 70.6667C35.6332 74.2334 44.3666 74.2334 49.6999 70.6667C54.3999 67.5334 54.3999 62.4 49.6999 59.2667C44.3999 55.7334 35.6332 55.7334 30.2999 59.2667Z" stroke="#292D32" stroke-width="1.5" stroke-linecap="round" stroke-linejoin="round"/>
</svg>
