<svg width="80" height="80" viewBox="0 0 80 80" fill="none" xmlns="http://www.w3.org/2000/svg">
<path d="M10 73.3333H70" stroke="#E5FCF6" stroke-width="1.5" stroke-linecap="round" stroke-linejoin="round"/>
<path d="M18.6666 27.9333H13.3333C11.5 27.9333 10 29.4333 10 31.2667V60C10 61.8333 11.5 63.3333 13.3333 63.3333H18.6666C20.4999 63.3333 21.9999 61.8333 21.9999 60V31.2667C21.9999 29.4333 20.4999 27.9333 18.6666 27.9333Z" fill="#E5FCF6"/>
<path d="M42.6666 17.3H37.3333C35.5 17.3 34 18.8 34 20.6334V60C34 61.8334 35.5 63.3334 37.3333 63.3334H42.6666C44.4999 63.3334 45.9999 61.8334 45.9999 60V20.6334C45.9999 18.8 44.4999 17.3 42.6666 17.3Z" fill="#E5FCF6" stroke="#292D32" stroke-width="1.5" stroke-linecap="round" stroke-linejoin="round"/>
<path d="M66.6666 6.66675H61.3333C59.5 6.66675 58 8.16675 58 10.0001V60.0001C58 61.8334 59.5 63.3334 61.3333 63.3334H66.6666C68.4999 63.3334 69.9999 61.8334 69.9999 60.0001V10.0001C69.9999 8.16675 68.4999 6.66675 66.6666 6.66675Z" fill="#E5FCF6" stroke="#292D32" stroke-width="1.5" stroke-linecap="round" stroke-linejoin="round"/>
</svg>
