<svg width="80" height="80" viewBox="0 0 80 80" fill="none" xmlns="http://www.w3.org/2000/svg">
<path d="M40.0001 56.6667V64.6C40.0001 70.8333 37.5001 73.3333 31.2334 73.3333H15.4001C9.16675 73.3333 6.66675 70.8333 6.66675 64.6V48.7667C6.66675 42.5 9.16675 40 15.4001 40H23.3334V47.9C23.3334 54.1667 25.8334 56.6667 32.0667 56.6667H40.0001Z" stroke="#0652DD" stroke-width="1.5" stroke-linecap="round" stroke-linejoin="round"/>
<path d="M56.6666 39.9999V47.8999C56.6666 54.1666 54.1666 56.6666 47.8999 56.6666H32.0666C25.8333 56.6666 23.3333 54.1666 23.3333 47.8999V32.0666C23.3333 25.8333 25.8333 23.3333 32.0666 23.3333H39.9999V31.2333C39.9999 37.4999 42.4999 39.9999 48.7333 39.9999H56.6666Z" stroke="#0652DD" stroke-width="1.5" stroke-linecap="round" stroke-linejoin="round"/>
<path d="M73.3333 15.4001V31.2334C73.3333 37.5001 70.8333 40.0001 64.5667 40.0001H48.7333C42.5 40.0001 40 37.5001 40 31.2334V15.4001C40 9.16675 42.5 6.66675 48.7333 6.66675H64.5667C70.8333 6.66675 73.3333 9.16675 73.3333 15.4001Z" stroke="#292D32" stroke-width="1.5" stroke-linecap="round" stroke-linejoin="round"/>
</svg>
