<svg width="1440" height="286" viewBox="0 0 1440 286" fill="none" xmlns="http://www.w3.org/2000/svg">
<path d="M49.9234 127.286L55.8571 117.272L61.2915 126.444C60.9569 126.438 60.622 126.436 60.2882 126.436C60.116 126.436 59.9425 126.437 59.7668 126.438L56.7699 121.38L55.8571 119.84L54.9438 121.38L51.5996 127.024C51.0341 127.103 50.4741 127.191 49.9234 127.286V127.286ZM55.8571 121.893L59.1626 127.473C59.5357 127.466 59.9109 127.463 60.2882 127.463C61.2555 127.463 62.2103 127.484 63.1498 127.526L55.8571 115.219L47.8438 128.742C49.2355 128.433 50.7116 128.174 52.2551 127.972L55.8571 121.893Z" fill="#6D6D6D"/>
<path d="M59.7654 130.05C60.2258 129.974 60.6831 130.194 60.9195 130.596L61.5663 131.696C62.0146 132.459 61.4647 133.42 60.58 133.42H53.4901C52.3059 133.42 52.0006 132.039 53.1226 131.661C55.0986 130.994 57.3363 130.448 59.7654 130.05ZM50.8807 146.104C46.7479 144.321 44.2224 141.934 44.2224 139.311C44.2224 138.63 44.3927 137.964 44.7177 137.321C44.8921 136.976 45.2611 136.784 45.6479 136.784H66.5127C67.3974 136.784 67.9473 135.823 67.499 135.06L65.1579 131.078C64.7303 130.351 65.2105 129.429 66.0531 129.385C67.1074 129.331 68.1823 129.303 69.2735 129.303C71.4576 129.303 73.5768 129.415 75.5963 129.625C75.6431 129.63 75.6561 129.567 75.6111 129.553V129.553C75.7001 129.58 75.79 129.607 75.8787 129.634C75.9504 129.656 76.0239 129.671 76.0985 129.68C76.2041 129.692 76.3094 129.704 76.4147 129.716C76.0383 129.622 75.6554 129.533 75.2654 129.448C75.2652 129.448 75.265 129.448 75.2648 129.447V129.447C75.2645 129.447 75.2642 129.447 75.264 129.447C71.7756 128.683 67.7621 128.246 63.4903 128.241C63.465 128.241 63.4394 128.241 63.4141 128.241C62.4416 128.241 61.4829 128.264 60.5406 128.307C60.2263 128.322 59.9139 128.339 59.6037 128.358C56.6272 128.541 53.8294 128.936 51.3118 129.503C51.0943 129.552 50.8789 129.602 50.6656 129.654C49.1731 130.014 47.7867 130.436 46.5292 130.911C41.889 132.66 39 135.124 39 137.854C39 141.358 43.763 144.425 50.8807 146.104" fill="#0652DD"/>
<path d="M-8.0766 266.343L-2.14288 256.33L3.29147 265.501C2.95692 265.496 2.62203 265.494 2.28819 265.494C2.11603 265.494 1.94248 265.495 1.76683 265.496L-1.23012 260.437L-2.14288 258.897L-3.05616 260.437L-6.40038 266.081C-6.96587 266.161 -7.52594 266.248 -8.0766 266.343V266.343ZM-2.14288 260.951L1.16263 266.53C1.53572 266.523 1.91091 266.52 2.28819 266.52C3.25554 266.52 4.21033 266.542 5.14978 266.583L-2.14288 254.276L-10.1562 267.799C-8.76452 267.49 -7.28838 267.231 -5.7449 267.029L-2.14288 260.951Z" fill="#6D6D6D"/>
<path d="M1.76542 269.107C2.22575 269.032 2.68313 269.251 2.91951 269.653L3.56629 270.754C4.01459 271.516 3.46466 272.477 2.57997 272.477H-4.50995C-5.69411 272.477 -5.99943 271.096 -4.87736 270.718C-2.90141 270.052 -0.663673 269.505 1.76542 269.107ZM-7.11931 285.162C-11.2521 283.378 -13.7776 280.991 -13.7776 278.368C-13.7776 277.687 -13.6073 277.021 -13.2823 276.378C-13.1079 276.033 -12.7389 275.842 -12.3521 275.842H8.51267C9.39738 275.842 9.94731 274.88 9.49896 274.118L7.15786 270.135C6.73028 269.408 7.21049 268.486 8.05311 268.443C9.10744 268.389 10.1823 268.361 11.2735 268.361C13.4576 268.361 15.5768 268.472 17.5963 268.683C17.6431 268.687 17.6561 268.624 17.6111 268.61V268.61C17.7001 268.637 17.79 268.664 17.8787 268.691C17.9504 268.713 18.0239 268.729 18.0985 268.737C18.2041 268.749 18.3094 268.761 18.4147 268.773C18.0383 268.68 17.6554 268.59 17.2654 268.505C17.2652 268.505 17.265 268.505 17.2648 268.505V268.505C17.2645 268.505 17.2642 268.505 17.264 268.505C13.7756 267.741 9.76209 267.303 5.49031 267.299C5.46502 267.298 5.43938 267.298 5.4141 267.298C4.4416 267.298 3.48289 267.321 2.54057 267.364C2.22628 267.379 1.91392 267.396 1.60365 267.415C-1.37278 267.598 -4.17061 267.994 -6.68818 268.56C-6.90566 268.609 -7.12106 268.66 -7.33435 268.711C-8.82693 269.072 -10.2133 269.494 -11.4708 269.968C-16.111 271.718 -19 274.182 -19 276.911C-19 280.416 -14.237 283.482 -7.11931 285.162" fill="#0652DD"/>
<path d="M279.923 50.8045L285.857 40.791L291.291 49.9626C290.957 49.957 290.622 49.955 290.288 49.955C290.116 49.955 289.942 49.9558 289.767 49.957L286.77 44.8986L285.857 43.3585L284.944 44.8986L281.6 50.5423C281.034 50.6218 280.474 50.7093 279.923 50.8045V50.8045ZM285.857 45.412L289.163 50.9913C289.536 50.9845 289.911 50.9818 290.288 50.9818C291.256 50.9818 292.21 51.003 293.15 51.0441L285.857 38.7375L277.844 52.2604C279.235 51.9511 280.712 51.6923 282.255 51.4904L285.857 45.412Z" fill="#6D6D6D"/>
<path d="M289.765 53.5684C290.226 53.4929 290.683 53.7125 290.92 54.1146L291.566 55.2149C292.015 55.9776 291.465 56.9388 290.58 56.9388H283.49C282.306 56.9388 282.001 55.5578 283.123 55.1794C285.099 54.513 287.336 53.9666 289.765 53.5684ZM280.881 69.623C276.748 67.8393 274.222 65.4522 274.222 62.8296C274.222 62.1482 274.393 61.4828 274.718 60.8396C274.892 60.4943 275.261 60.3029 275.648 60.3029H296.513C297.397 60.3029 297.947 59.3417 297.499 58.579L295.158 54.5966C294.73 53.8692 295.21 52.9472 296.053 52.904C297.107 52.85 298.182 52.822 299.273 52.822C301.458 52.822 303.577 52.9337 305.596 53.1439C305.643 53.1488 305.656 53.0852 305.611 53.0714V53.0714C305.7 53.0986 305.79 53.1251 305.879 53.1522C305.95 53.1741 306.024 53.1898 306.098 53.1982C306.204 53.2101 306.309 53.2221 306.415 53.2347C306.038 53.141 305.655 53.0516 305.265 52.9662C305.265 52.9661 305.265 52.9661 305.265 52.966V52.966C305.265 52.9659 305.264 52.9659 305.264 52.9658C301.776 52.2019 297.762 51.7646 293.49 51.76C293.465 51.7595 293.439 51.7595 293.414 51.7595C292.442 51.7595 291.483 51.7821 290.541 51.8256C290.226 51.8402 289.914 51.8571 289.604 51.8763C286.627 52.0598 283.829 52.4549 281.312 53.0218C281.094 53.0708 280.879 53.1209 280.666 53.1725C279.173 53.5329 277.787 53.955 276.529 54.4296C271.889 56.1789 269 58.643 269 61.3726C269 64.877 273.763 67.9437 280.881 69.623" fill="#0652DD"/>
<path d="M242.923 194.828L248.857 184.815L254.291 193.986C253.957 193.981 253.622 193.979 253.288 193.979C253.116 193.979 252.942 193.979 252.767 193.981L249.77 188.922L248.857 187.382L247.944 188.922L244.6 194.566C244.034 194.645 243.474 194.733 242.923 194.828V194.828ZM248.857 189.436L252.163 195.015C252.536 195.008 252.911 195.005 253.288 195.005C254.256 195.005 255.21 195.027 256.15 195.068L248.857 182.761L240.844 196.284C242.235 195.975 243.712 195.716 245.255 195.514L248.857 189.436Z" fill="#6D6D6D"/>
<path d="M252.765 197.592C253.226 197.516 253.683 197.736 253.92 198.138L254.566 199.238C255.015 200.001 254.465 200.962 253.58 200.962H246.49C245.306 200.962 245.001 199.581 246.123 199.203C248.099 198.537 250.336 197.99 252.765 197.592ZM243.881 213.647C239.748 211.863 237.222 209.476 237.222 206.853C237.222 206.172 237.393 205.506 237.718 204.863C237.892 204.518 238.261 204.326 238.648 204.326H259.513C260.397 204.326 260.947 203.365 260.499 202.603L258.158 198.62C257.73 197.893 258.21 196.971 259.053 196.928C260.107 196.874 261.182 196.846 262.273 196.846C264.458 196.846 266.577 196.957 268.596 197.167C268.643 197.172 268.656 197.109 268.611 197.095V197.095C268.7 197.122 268.79 197.149 268.879 197.176C268.95 197.198 269.024 197.213 269.098 197.222C269.204 197.234 269.309 197.246 269.415 197.258C269.038 197.165 268.655 197.075 268.265 196.99C268.265 196.99 268.265 196.99 268.265 196.99V196.99C268.265 196.989 268.264 196.989 268.264 196.989C264.776 196.225 260.762 195.788 256.49 195.784C256.465 195.783 256.439 195.783 256.414 195.783C255.442 195.783 254.483 195.806 253.541 195.849C253.226 195.864 252.914 195.881 252.604 195.9C249.627 196.083 246.829 196.479 244.312 197.045C244.094 197.094 243.879 197.145 243.666 197.196C242.173 197.556 240.787 197.979 239.529 198.453C234.889 200.202 232 202.667 232 205.396C232 208.901 236.763 211.967 243.881 213.647" fill="#0652DD"/>
<path d="M680.923 257.404L686.857 247.39L692.291 256.562C691.957 256.556 691.622 256.554 691.288 256.554C691.116 256.554 690.942 256.555 690.767 256.556L687.77 251.498L686.857 249.958L685.944 251.498L682.6 257.142C682.034 257.221 681.474 257.309 680.923 257.404V257.404ZM686.857 252.011L690.163 257.591C690.536 257.584 690.911 257.581 691.288 257.581C692.256 257.581 693.21 257.602 694.15 257.643L686.857 245.337L678.844 258.86C680.235 258.55 681.712 258.292 683.255 258.09L686.857 252.011Z" fill="#6D6D6D"/>
<path d="M690.765 260.168C691.226 260.092 691.683 260.312 691.92 260.714L692.566 261.814C693.015 262.577 692.465 263.538 691.58 263.538H684.49C683.306 263.538 683.001 262.157 684.123 261.779C686.099 261.112 688.336 260.566 690.765 260.168ZM681.881 276.222C677.748 274.439 675.222 272.051 675.222 269.429C675.222 268.747 675.393 268.082 675.718 267.439C675.892 267.094 676.261 266.902 676.648 266.902H697.513C698.397 266.902 698.947 265.941 698.499 265.178L696.158 261.196C695.73 260.468 696.21 259.546 697.053 259.503C698.107 259.449 699.182 259.421 700.273 259.421C702.458 259.421 704.577 259.533 706.596 259.743C706.643 259.748 706.656 259.684 706.611 259.671V259.671C706.7 259.698 706.79 259.724 706.879 259.751C706.95 259.773 707.024 259.789 707.098 259.797C707.204 259.809 707.309 259.821 707.415 259.834C707.038 259.74 706.655 259.651 706.265 259.565C706.265 259.565 706.265 259.565 706.265 259.565V259.565C706.265 259.565 706.264 259.565 706.264 259.565C702.776 258.801 698.762 258.364 694.49 258.359C694.465 258.359 694.439 258.359 694.414 258.359C693.442 258.359 692.483 258.381 691.541 258.425C691.226 258.439 690.914 258.456 690.604 258.476C687.627 258.659 684.829 259.054 682.312 259.621C682.094 259.67 681.879 259.72 681.666 259.772C680.173 260.132 678.787 260.554 677.529 261.029C672.889 262.778 670 265.242 670 267.972C670 271.476 674.763 274.543 681.881 276.222" fill="#0652DD"/>
<path d="M584.923 50.8045L590.857 40.791L596.291 49.9626C595.957 49.957 595.622 49.955 595.288 49.955C595.116 49.955 594.942 49.9558 594.767 49.957L591.77 44.8986L590.857 43.3585L589.944 44.8986L586.6 50.5423C586.034 50.6218 585.474 50.7093 584.923 50.8045V50.8045ZM590.857 45.412L594.163 50.9913C594.536 50.9845 594.911 50.9818 595.288 50.9818C596.256 50.9818 597.21 51.003 598.15 51.0441L590.857 38.7375L582.844 52.2604C584.235 51.9511 585.712 51.6923 587.255 51.4904L590.857 45.412Z" fill="#6D6D6D"/>
<path d="M594.765 53.5684C595.226 53.4929 595.683 53.7125 595.92 54.1146L596.566 55.2149C597.015 55.9776 596.465 56.9388 595.58 56.9388H588.49C587.306 56.9388 587.001 55.5578 588.123 55.1794C590.099 54.513 592.336 53.9666 594.765 53.5684ZM585.881 69.623C581.748 67.8393 579.222 65.4522 579.222 62.8296C579.222 62.1482 579.393 61.4828 579.718 60.8396C579.892 60.4943 580.261 60.3029 580.648 60.3029H601.513C602.397 60.3029 602.947 59.3417 602.499 58.579L600.158 54.5966C599.73 53.8692 600.21 52.9472 601.053 52.904C602.107 52.85 603.182 52.822 604.273 52.822C606.458 52.822 608.577 52.9337 610.596 53.1439C610.643 53.1488 610.656 53.0852 610.611 53.0714V53.0714C610.7 53.0986 610.79 53.1251 610.879 53.1522C610.95 53.1741 611.024 53.1898 611.098 53.1982C611.204 53.2101 611.309 53.2221 611.415 53.2347C611.038 53.141 610.655 53.0516 610.265 52.9662C610.265 52.9661 610.265 52.9661 610.265 52.966V52.966C610.265 52.9659 610.264 52.9659 610.264 52.9658C606.776 52.2019 602.762 51.7646 598.49 51.76C598.465 51.7595 598.439 51.7595 598.414 51.7595C597.442 51.7595 596.483 51.7821 595.541 51.8256C595.226 51.8402 594.914 51.8571 594.604 51.8763C591.627 52.0598 588.829 52.4549 586.312 53.0218C586.094 53.0708 585.879 53.1209 585.666 53.1725C584.173 53.5329 582.787 53.955 581.529 54.4296C576.889 56.1789 574 58.643 574 61.3726C574 64.877 578.763 67.9437 585.881 69.623" fill="#0652DD"/>
<path d="M1330.92 213.7L1336.86 203.687L1342.29 212.858C1341.96 212.853 1341.62 212.851 1341.29 212.851C1341.12 212.851 1340.94 212.851 1340.77 212.853L1337.77 207.794L1336.86 206.254L1335.94 207.794L1332.6 213.438C1332.03 213.517 1331.47 213.605 1330.92 213.7V213.7ZM1336.86 208.308L1340.16 213.887C1340.54 213.88 1340.91 213.877 1341.29 213.877C1342.26 213.877 1343.21 213.899 1344.15 213.94L1336.86 201.633L1328.84 215.156C1330.24 214.847 1331.71 214.588 1333.26 214.386L1336.86 208.308Z" fill="#6D6D6D"/>
<path d="M1340.77 216.464C1341.23 216.389 1341.68 216.608 1341.92 217.01L1342.57 218.111C1343.01 218.873 1342.46 219.834 1341.58 219.834H1334.49C1333.31 219.834 1333 218.453 1334.12 218.075C1336.1 217.409 1338.34 216.862 1340.77 216.464ZM1331.88 232.519C1327.75 230.735 1325.22 228.348 1325.22 225.725C1325.22 225.044 1325.39 224.378 1325.72 223.735C1325.89 223.39 1326.26 223.198 1326.65 223.198H1347.51C1348.4 223.198 1348.95 222.237 1348.5 221.475L1346.16 217.492C1345.73 216.765 1346.21 215.843 1347.05 215.8C1348.11 215.746 1349.18 215.718 1350.27 215.718C1352.46 215.718 1354.58 215.829 1356.6 216.04C1356.64 216.044 1356.66 215.981 1356.61 215.967V215.967C1356.7 215.994 1356.79 216.021 1356.88 216.048C1356.95 216.07 1357.02 216.085 1357.1 216.094C1357.2 216.106 1357.31 216.118 1357.41 216.13C1357.04 216.037 1356.66 215.947 1356.27 215.862C1356.27 215.862 1356.26 215.862 1356.26 215.862V215.862C1356.26 215.862 1356.26 215.862 1356.26 215.861C1352.78 215.098 1348.76 214.66 1344.49 214.656C1344.47 214.655 1344.44 214.655 1344.41 214.655C1343.44 214.655 1342.48 214.678 1341.54 214.721C1341.23 214.736 1340.91 214.753 1340.6 214.772C1337.63 214.955 1334.83 215.351 1332.31 215.917C1332.09 215.966 1331.88 216.017 1331.67 216.068C1330.17 216.429 1328.79 216.851 1327.53 217.325C1322.89 219.075 1320 221.539 1320 224.268C1320 227.773 1324.76 230.839 1331.88 232.519" fill="#0652DD"/>
<path d="M1144.92 72.6563L1150.86 62.6428L1156.29 71.8144C1155.96 71.8088 1155.62 71.8068 1155.29 71.8068C1155.12 71.8068 1154.94 71.8076 1154.77 71.8088L1151.77 66.7504L1150.86 65.2103L1149.94 66.7504L1146.6 72.3941C1146.03 72.4736 1145.47 72.5612 1144.92 72.6563V72.6563ZM1150.86 67.2638L1154.16 72.8431C1154.54 72.8363 1154.91 72.8336 1155.29 72.8336C1156.26 72.8336 1157.21 72.8548 1158.15 72.8959L1150.86 60.5893L1142.84 74.1122C1144.24 73.8029 1145.71 73.5441 1147.26 73.3422L1150.86 67.2638Z" fill="#6D6D6D"/>
<path d="M1154.77 75.4202C1155.23 75.3447 1155.68 75.5643 1155.92 75.9664L1156.57 77.0667C1157.01 77.8294 1156.46 78.7906 1155.58 78.7906H1148.49C1147.31 78.7906 1147 77.4096 1148.12 77.0312C1150.1 76.3648 1152.34 75.8184 1154.77 75.4202ZM1145.88 91.4749C1141.75 89.6912 1139.22 87.304 1139.22 84.6814C1139.22 84 1139.39 83.3346 1139.72 82.6914C1139.89 82.3461 1140.26 82.1547 1140.65 82.1547H1161.51C1162.4 82.1547 1162.95 81.1935 1162.5 80.4308L1160.16 76.4484C1159.73 75.721 1160.21 74.7991 1161.05 74.7558C1162.11 74.7018 1163.18 74.6738 1164.27 74.6738C1166.46 74.6738 1168.58 74.7855 1170.6 74.9957C1170.64 75.0006 1170.66 74.937 1170.61 74.9233V74.9233C1170.7 74.9504 1170.79 74.9769 1170.88 75.0041C1170.95 75.026 1171.02 75.0416 1171.1 75.05C1171.2 75.0619 1171.31 75.074 1171.41 75.0865C1171.04 74.9928 1170.66 74.9034 1170.27 74.818C1170.27 74.8179 1170.26 74.8179 1170.26 74.8178V74.8178C1170.26 74.8177 1170.26 74.8177 1170.26 74.8177C1166.78 74.0537 1162.76 73.6164 1158.49 73.6118C1158.47 73.6113 1158.44 73.6113 1158.41 73.6113C1157.44 73.6113 1156.48 73.6339 1155.54 73.6774C1155.23 73.692 1154.91 73.7089 1154.6 73.7281C1151.63 73.9116 1148.83 74.3068 1146.31 74.8736C1146.09 74.9226 1145.88 74.9727 1145.67 75.0243C1144.17 75.3847 1142.79 75.8068 1141.53 76.2814C1136.89 78.0307 1134 80.4948 1134 83.2244C1134 86.7288 1138.76 89.7955 1145.88 91.4749" fill="#0652DD"/>
<path d="M891.923 9.08723L897.857 -0.92626L903.291 8.24535C902.957 8.23974 902.622 8.2377 902.288 8.2377C902.116 8.2377 901.942 8.23855 901.767 8.23974L898.77 3.18133L897.857 1.64118L896.944 3.18133L893.6 8.82501C893.034 8.90455 892.474 8.99206 891.923 9.08723V9.08723ZM897.857 3.69472L901.163 9.27399C901.536 9.26719 901.911 9.26447 902.288 9.26447C903.256 9.26447 904.21 9.28571 905.15 9.32683L897.857 -2.9798L889.844 10.5431C891.235 10.2338 892.712 9.97499 894.255 9.7731L897.857 3.69472Z" fill="#6D6D6D"/>
<path d="M901.765 11.8511C902.226 11.7756 902.683 11.9952 902.92 12.3973L903.566 13.4976C904.015 14.2603 903.465 15.2215 902.58 15.2215H895.49C894.306 15.2215 894.001 13.8405 895.123 13.4621C897.099 12.7957 899.336 12.2493 901.765 11.8511ZM892.881 27.9058C888.748 26.1221 886.222 23.7349 886.222 21.1123C886.222 20.4309 886.393 19.7655 886.718 19.1223C886.892 18.777 887.261 18.5856 887.648 18.5856H908.513C909.397 18.5856 909.947 17.6244 909.499 16.8617L907.158 12.8793C906.73 12.1519 907.21 11.23 908.053 11.1867C909.107 11.1327 910.182 11.1047 911.273 11.1047C913.458 11.1047 915.577 11.2164 917.596 11.4266C917.643 11.4315 917.656 11.3679 917.611 11.3542V11.3542C917.7 11.3813 917.79 11.4079 917.879 11.435C917.95 11.4569 918.024 11.4726 918.098 11.4809C918.204 11.4928 918.309 11.5049 918.415 11.5174C918.038 11.4237 917.655 11.3343 917.265 11.2489C917.265 11.2488 917.265 11.2488 917.265 11.2487V11.2487C917.265 11.2486 917.264 11.2486 917.264 11.2486C913.776 10.4846 909.762 10.0473 905.49 10.0427C905.465 10.0422 905.439 10.0422 905.414 10.0422C904.442 10.0422 903.483 10.0648 902.541 10.1083C902.226 10.1229 901.914 10.1398 901.604 10.159C898.627 10.3425 895.829 10.7377 893.312 11.3045C893.094 11.3535 892.879 11.4037 892.666 11.4552C891.173 11.8156 889.787 12.2377 888.529 12.7123C883.889 14.4616 881 16.9257 881 19.6553C881 23.1597 885.763 26.2264 892.881 27.9058" fill="#0652DD"/>
<path d="M1093.92 191.848L1099.86 181.835L1105.29 191.006C1104.96 191.001 1104.62 190.999 1104.29 190.999C1104.12 190.999 1103.94 191 1103.77 191.001L1100.77 185.942L1099.86 184.402L1098.94 185.942L1095.6 191.586C1095.03 191.666 1094.47 191.753 1093.92 191.848V191.848ZM1099.86 186.456L1103.16 192.035C1103.54 192.028 1103.91 192.025 1104.29 192.025C1105.26 192.025 1106.21 192.047 1107.15 192.088L1099.86 179.781L1091.84 193.304C1093.24 192.995 1094.71 192.736 1096.26 192.534L1099.86 186.456Z" fill="#6D6D6D"/>
<path d="M1103.77 194.612C1104.23 194.537 1104.68 194.756 1104.92 195.158L1105.57 196.259C1106.01 197.021 1105.46 197.982 1104.58 197.982H1097.49C1096.31 197.982 1096 196.601 1097.12 196.223C1099.1 195.557 1101.34 195.01 1103.77 194.612ZM1094.88 210.667C1090.75 208.883 1088.22 206.496 1088.22 203.873C1088.22 203.192 1088.39 202.526 1088.72 201.883C1088.89 201.538 1089.26 201.347 1089.65 201.347H1110.51C1111.4 201.347 1111.95 200.385 1111.5 199.623L1109.16 195.64C1108.73 194.913 1109.21 193.991 1110.05 193.948C1111.11 193.894 1112.18 193.866 1113.27 193.866C1115.46 193.866 1117.58 193.977 1119.6 194.188C1119.64 194.192 1119.66 194.129 1119.61 194.115V194.115C1119.7 194.142 1119.79 194.169 1119.88 194.196C1119.95 194.218 1120.02 194.234 1120.1 194.242C1120.2 194.254 1120.31 194.266 1120.41 194.278C1120.04 194.185 1119.66 194.095 1119.27 194.01C1119.27 194.01 1119.26 194.01 1119.26 194.01V194.01C1119.26 194.01 1119.26 194.01 1119.26 194.01C1115.78 193.246 1111.76 192.808 1107.49 192.804C1107.47 192.803 1107.44 192.803 1107.41 192.803C1106.44 192.803 1105.48 192.826 1104.54 192.869C1104.23 192.884 1103.91 192.901 1103.6 192.92C1100.63 193.103 1097.83 193.499 1095.31 194.065C1095.09 194.114 1094.88 194.165 1094.67 194.216C1093.17 194.577 1091.79 194.999 1090.53 195.473C1085.89 197.223 1083 199.687 1083 202.416C1083 205.921 1087.76 208.987 1094.88 210.667" fill="#0652DD"/>
<path d="M1431.92 20.0133L1437.86 9.99977L1443.29 19.1714C1442.96 19.1658 1442.62 19.1637 1442.29 19.1637C1442.12 19.1637 1441.94 19.1646 1441.77 19.1658L1438.77 14.1074L1437.86 12.5672L1436.94 14.1074L1433.6 19.751C1433.03 19.8306 1432.47 19.9181 1431.92 20.0133V20.0133ZM1437.86 14.6207L1441.16 20.2C1441.54 20.1932 1441.91 20.1905 1442.29 20.1905C1443.26 20.1905 1444.21 20.2117 1445.15 20.2529L1437.86 7.94623L1429.84 21.4691C1431.24 21.1598 1432.71 20.901 1434.26 20.6991L1437.86 14.6207Z" fill="#6D6D6D"/>
<path d="M1441.77 22.7771C1442.23 22.7017 1442.68 22.9212 1442.92 23.3233L1443.57 24.4237C1444.01 25.1864 1443.46 26.1475 1442.58 26.1475H1435.49C1434.31 26.1475 1434 24.7665 1435.12 24.3881C1437.1 23.7217 1439.34 23.1754 1441.77 22.7771ZM1432.88 38.8318C1428.75 37.0481 1426.22 34.6609 1426.22 32.0384C1426.22 31.3569 1426.39 30.6915 1426.72 30.0483C1426.89 29.703 1427.26 29.5116 1427.65 29.5116H1448.51C1449.4 29.5116 1449.95 28.5504 1449.5 27.7877L1447.16 23.8053C1446.73 23.078 1447.21 22.156 1448.05 22.1128C1449.11 22.0587 1450.18 22.0308 1451.27 22.0308C1453.46 22.0308 1455.58 22.1425 1457.6 22.3527C1457.64 22.3575 1457.66 22.2939 1457.61 22.2802V22.2802C1457.7 22.3073 1457.79 22.3339 1457.88 22.361C1457.95 22.3829 1458.02 22.3986 1458.1 22.407C1458.2 22.4188 1458.31 22.4309 1458.41 22.4434C1458.04 22.3497 1457.66 22.2604 1457.27 22.1749C1457.27 22.1749 1457.26 22.1748 1457.26 22.1747V22.1747C1457.26 22.1747 1457.26 22.1746 1457.26 22.1746C1453.78 21.4107 1449.76 20.9734 1445.49 20.9687C1445.47 20.9682 1445.44 20.9682 1445.41 20.9682C1444.44 20.9682 1443.48 20.9908 1442.54 21.0343C1442.23 21.0489 1441.91 21.0659 1441.6 21.085C1438.63 21.2685 1435.83 21.6637 1433.31 22.2305C1433.09 22.2795 1432.88 22.3297 1432.67 22.3812C1431.17 22.7416 1429.79 23.1637 1428.53 23.6384C1423.89 25.3876 1421 27.8517 1421 30.5813C1421 34.0857 1425.76 37.1524 1432.88 38.8318" fill="#0652DD"/>
</svg>
