<svg width="287" height="1197" viewBox="0 0 287 1197" fill="none" xmlns="http://www.w3.org/2000/svg">
<path d="M269 43.6185H271.347V45.9656H269V43.6185ZM31 43.6185H28.6528V41.2713H31V43.6185ZM31 287.265V289.612H28.6528V287.265H31ZM269 287.265V284.918H271.347V287.265H269ZM269 337.492H271.347V339.839H269V337.492ZM31 337.492H28.6528V335.145H31V337.492ZM31 570.124V572.471H28.6528V570.124H31ZM269 570.124V567.777H271.347V570.124H269ZM269 626.52H271.347V628.867H269V626.52ZM31 626.52H28.6528V624.172H31L31 626.52ZM31 859.151V861.499H28.6528V859.151H31ZM269 859.151V856.804H271.347V859.151H269ZM269 915.987H271.347V918.335H269V915.987ZM31 915.987H28.6528V913.64H31V915.987ZM31 1145.54V1147.88H28.6528V1145.54H31ZM269 1145.54V1143.19H271.347V1145.54H269ZM270.66 1195.66C269.743 1196.58 268.257 1196.58 267.34 1195.66L252.403 1180.72C251.486 1179.81 251.486 1178.32 252.403 1177.4C253.32 1176.49 254.806 1176.49 255.722 1177.4L269 1190.68L282.278 1177.4C283.194 1176.49 284.68 1176.49 285.597 1177.4C286.514 1178.32 286.514 1179.81 285.597 1180.72L270.66 1195.66ZM271.347 0V43.6185H266.653V0L271.347 0ZM269 45.9656L31 45.9656V41.2713L269 41.2713V45.9656ZM33.3472 43.6185L33.3472 287.265H28.6528L28.6528 43.6185H33.3472ZM31 284.918L269 284.918V289.612L31 289.612V284.918ZM271.347 287.265L271.347 337.492H266.653L266.653 287.265H271.347ZM269 339.839L31 339.839V335.145L269 335.145V339.839ZM33.3472 337.492L33.3472 570.124H28.6528L28.6528 337.492H33.3472ZM31 567.777H269V572.471H31V567.777ZM271.347 570.124V626.52H266.653V570.124H271.347ZM269 628.867H31L31 624.172H269V628.867ZM33.3472 626.52L33.3472 859.151H28.6528L28.6528 626.52H33.3472ZM31 856.804H269V861.499H31V856.804ZM271.347 859.151V915.987H266.653V859.151H271.347ZM269 918.335H31V913.64H269V918.335ZM33.3472 915.987L33.3472 1145.54H28.6528L28.6528 915.987H33.3472ZM31 1143.19H269V1147.88H31V1143.19ZM271.347 1145.54V1194H266.653V1145.54H271.347Z" fill="#ACC5F4"/>
<rect x="1" y="429" width="58" height="58" rx="29" fill="#0544B8"/>
<path d="M23.6 469.984L23.616 467.84L34.032 458.432C34.928 457.621 35.52 456.853 35.808 456.128C36.1067 455.392 36.256 454.624 36.256 453.824C36.256 452.875 36.032 452.016 35.584 451.248C35.136 450.48 34.5333 449.872 33.776 449.424C33.0187 448.965 32.1707 448.736 31.232 448.736C30.2507 448.736 29.376 448.971 28.608 449.44C27.84 449.909 27.232 450.528 26.784 451.296C26.3467 452.064 26.1333 452.901 26.144 453.808H23.744C23.744 452.411 24.0747 451.157 24.736 450.048C25.3973 448.939 26.2933 448.069 27.424 447.44C28.5547 446.8 29.8347 446.48 31.264 446.48C32.6613 446.48 33.9147 446.811 35.024 447.472C36.144 448.123 37.024 449.008 37.664 450.128C38.3147 451.237 38.64 452.475 38.64 453.84C38.64 454.8 38.5227 455.648 38.288 456.384C38.064 457.109 37.7067 457.787 37.216 458.416C36.736 459.035 36.1227 459.675 35.376 460.336L26.128 468.688L25.76 467.728H38.64V469.984H23.6Z" fill="#FCFCFC"/>
<rect x="1" y="429" width="58" height="58" rx="29" stroke="#ACC5F4" stroke-width="2"/>
<rect x="1" y="133" width="61" height="58" rx="29" fill="#0544B8"/>
<path d="M31.256 174L31.256 153.584L26.92 156.192V153.552L31.256 150.96H33.64V174H31.256Z" fill="#FCFCFC"/>
<rect x="1" y="133" width="61" height="58" rx="29" stroke="#ACC5F4" stroke-width="2"/>
<rect x="1" y="709" width="61" height="58" rx="29" fill="#0544B8"/>
<path d="M30.932 750.464C29.7907 750.464 28.74 750.261 27.78 749.856C26.82 749.451 25.9933 748.875 25.3 748.128C24.6067 747.371 24.1 746.469 23.78 745.424L26.02 744.752C26.404 745.893 27.0333 746.757 27.908 747.344C28.7933 747.931 29.7907 748.213 30.9 748.192C31.924 748.171 32.804 747.941 33.54 747.504C34.2867 747.067 34.8573 746.459 35.252 745.68C35.6467 744.901 35.844 744 35.844 742.976C35.844 741.408 35.3853 740.149 34.468 739.2C33.5613 738.24 32.3613 737.76 30.868 737.76C30.452 737.76 30.0147 737.819 29.556 737.936C29.0973 738.043 28.6707 738.197 28.276 738.4L27.092 736.528L36.052 728.256L36.436 729.216H24.692V726.96H38.004V729.248L30.196 736.704L30.164 735.776C31.764 735.573 33.172 735.755 34.388 736.32C35.604 736.885 36.5533 737.749 37.236 738.912C37.9293 740.064 38.276 741.419 38.276 742.976C38.276 744.448 37.956 745.749 37.316 746.88C36.6867 748 35.8173 748.88 34.708 749.52C33.5987 750.149 32.34 750.464 30.932 750.464Z" fill="#FCFCFC"/>
<rect x="1" y="709" width="61" height="58" rx="29" stroke="#ACC5F4" stroke-width="2"/>
<rect x="1" y="1007" width="61" height="58" rx="29" fill="#0544B8"/>
<path d="M34.384 1048V1043.54H23.6V1041.3L31.312 1024.96H33.952L26.24 1041.3H34.384V1034.58H36.752V1041.3H39.264V1043.54H36.752V1048H34.384Z" fill="#FCFCFC"/>
<rect x="1" y="1007" width="61" height="58" rx="29" stroke="#ACC5F4" stroke-width="2"/>
<path d="M94.4682 190L100.312 173.035H102.609L108.453 190H106.65L101.101 174.001H101.784L96.2708 190H94.4682ZM97.0719 185.888V184.262H105.837V185.888H97.0719ZM116.294 190.353C115.124 190.353 114.134 190.059 113.325 189.47C112.516 188.873 111.904 188.068 111.487 187.055C111.071 186.034 110.863 184.891 110.863 183.626C110.863 182.338 111.071 181.191 111.487 180.186C111.911 179.173 112.532 178.376 113.349 177.795C114.166 177.213 115.171 176.923 116.365 176.923C117.527 176.923 118.525 177.217 119.357 177.806C120.19 178.395 120.826 179.197 121.266 180.21C121.713 181.223 121.937 182.362 121.937 183.626C121.937 184.899 121.713 186.041 121.266 187.055C120.818 188.068 120.174 188.873 119.334 189.47C118.493 190.059 117.48 190.353 116.294 190.353ZM110.568 195.655V177.276H112.123V186.854H112.312V195.655H110.568ZM116.117 188.739C117.005 188.739 117.743 188.516 118.332 188.068C118.921 187.62 119.361 187.011 119.652 186.242C119.95 185.464 120.099 184.592 120.099 183.626C120.099 182.668 119.954 181.804 119.663 181.034C119.373 180.265 118.929 179.656 118.332 179.208C117.743 178.761 116.993 178.537 116.082 178.537C115.194 178.537 114.456 178.753 113.867 179.185C113.286 179.617 112.85 180.218 112.559 180.987C112.269 181.749 112.123 182.629 112.123 183.626C112.123 184.608 112.269 185.488 112.559 186.265C112.85 187.035 113.29 187.64 113.879 188.08C114.468 188.519 115.214 188.739 116.117 188.739ZM130.238 190.353C129.068 190.353 128.078 190.059 127.269 189.47C126.46 188.873 125.848 188.068 125.432 187.055C125.015 186.034 124.807 184.891 124.807 183.626C124.807 182.338 125.015 181.191 125.432 180.186C125.856 179.173 126.476 178.376 127.293 177.795C128.11 177.213 129.115 176.923 130.309 176.923C131.471 176.923 132.469 177.217 133.301 177.806C134.134 178.395 134.77 179.197 135.21 180.21C135.658 181.223 135.882 182.362 135.882 183.626C135.882 184.899 135.658 186.041 135.21 187.055C134.762 188.068 134.118 188.873 133.278 189.47C132.438 190.059 131.424 190.353 130.238 190.353ZM124.513 195.655V177.276H126.068V186.854H126.256V195.655H124.513ZM130.062 188.739C130.949 188.739 131.687 188.516 132.276 188.068C132.866 187.62 133.305 187.011 133.596 186.242C133.894 185.464 134.044 184.592 134.044 183.626C134.044 182.668 133.898 181.804 133.608 181.034C133.317 180.265 132.873 179.656 132.276 179.208C131.687 178.761 130.937 178.537 130.026 178.537C129.139 178.537 128.4 178.753 127.811 179.185C127.23 179.617 126.794 180.218 126.504 180.987C126.213 181.749 126.068 182.629 126.068 183.626C126.068 184.608 126.213 185.488 126.504 186.265C126.794 187.035 127.234 187.64 127.823 188.08C128.412 188.519 129.158 188.739 130.062 188.739ZM138.704 190V172.681H140.436V190H138.704ZM144.204 174.861V172.917H145.936V174.861H144.204ZM144.204 190V177.276H145.936V190H144.204ZM154.746 190.353C153.465 190.353 152.382 190.067 151.494 189.493C150.607 188.92 149.931 188.131 149.468 187.125C149.012 186.112 148.776 184.95 148.761 183.638C148.776 182.303 149.02 181.133 149.491 180.127C149.962 179.114 150.642 178.329 151.529 177.771C152.417 177.205 153.493 176.923 154.757 176.923C156.046 176.923 157.165 177.237 158.115 177.865C159.073 178.494 159.729 179.354 160.083 180.445L158.386 180.987C158.088 180.225 157.612 179.636 156.961 179.22C156.317 178.796 155.578 178.584 154.746 178.584C153.811 178.584 153.037 178.8 152.425 179.232C151.812 179.656 151.357 180.249 151.058 181.011C150.76 181.773 150.607 182.648 150.599 183.638C150.614 185.162 150.968 186.387 151.659 187.314C152.35 188.233 153.379 188.692 154.746 188.692C155.61 188.692 156.344 188.496 156.949 188.103C157.561 187.703 158.025 187.121 158.339 186.36L160.083 186.878C159.611 188.009 158.92 188.873 158.009 189.47C157.098 190.059 156.01 190.353 154.746 190.353ZM166.086 190.353C165.128 190.353 164.323 190.181 163.671 189.835C163.027 189.489 162.544 189.03 162.222 188.457C161.9 187.883 161.739 187.259 161.739 186.583C161.739 185.892 161.876 185.303 162.151 184.816C162.434 184.321 162.815 183.917 163.294 183.603C163.781 183.289 164.342 183.049 164.978 182.884C165.623 182.727 166.333 182.59 167.111 182.472C167.896 182.346 168.662 182.24 169.408 182.154C170.162 182.059 170.822 181.969 171.388 181.883L170.775 182.26C170.798 181.003 170.555 180.072 170.044 179.467C169.534 178.863 168.646 178.56 167.382 178.56C166.51 178.56 165.772 178.757 165.167 179.149C164.57 179.542 164.15 180.163 163.906 181.011L162.222 180.516C162.512 179.377 163.097 178.494 163.977 177.865C164.857 177.237 166 176.923 167.405 176.923C168.568 176.923 169.554 177.143 170.363 177.582C171.179 178.014 171.757 178.643 172.094 179.467C172.251 179.837 172.354 180.249 172.401 180.705C172.448 181.16 172.471 181.623 172.471 182.095V190H170.928V186.807L171.376 186.996C170.944 188.087 170.272 188.92 169.361 189.493C168.45 190.067 167.358 190.353 166.086 190.353ZM166.286 188.857C167.095 188.857 167.802 188.712 168.407 188.421C169.012 188.131 169.499 187.734 169.868 187.231C170.237 186.721 170.476 186.148 170.586 185.511C170.681 185.103 170.732 184.655 170.74 184.168C170.747 183.673 170.751 183.304 170.751 183.061L171.411 183.402C170.822 183.481 170.182 183.56 169.491 183.638C168.807 183.717 168.132 183.807 167.464 183.909C166.805 184.011 166.208 184.133 165.674 184.274C165.312 184.376 164.963 184.522 164.625 184.71C164.287 184.891 164.009 185.134 163.789 185.441C163.577 185.747 163.47 186.128 163.47 186.583C163.47 186.953 163.561 187.31 163.741 187.656C163.93 188.001 164.228 188.288 164.637 188.516C165.053 188.743 165.603 188.857 166.286 188.857ZM182.466 190C181.751 190.149 181.044 190.208 180.345 190.177C179.654 190.145 179.034 189.996 178.484 189.729C177.942 189.462 177.529 189.046 177.247 188.48C177.019 188.009 176.893 187.534 176.87 187.055C176.854 186.568 176.846 186.014 176.846 185.394V173.742H178.566V185.323C178.566 185.857 178.57 186.305 178.578 186.666C178.594 187.019 178.676 187.333 178.825 187.608C179.108 188.135 179.556 188.449 180.168 188.551C180.789 188.653 181.555 188.629 182.466 188.48V190ZM174.125 178.761V177.276H182.466V178.761H174.125ZM185.208 174.861V172.917H186.94V174.861H185.208ZM185.208 190V177.276H186.94V190H185.208ZM195.786 190.353C194.521 190.353 193.441 190.067 192.546 189.493C191.65 188.92 190.963 188.127 190.484 187.114C190.005 186.1 189.765 184.938 189.765 183.626C189.765 182.291 190.009 181.121 190.496 180.115C190.983 179.11 191.674 178.329 192.569 177.771C193.472 177.205 194.545 176.923 195.786 176.923C197.058 176.923 198.142 177.209 199.037 177.783C199.94 178.348 200.628 179.138 201.099 180.151C201.578 181.156 201.818 182.315 201.818 183.626C201.818 184.962 201.578 186.136 201.099 187.149C200.62 188.154 199.929 188.94 199.025 189.505C198.122 190.071 197.042 190.353 195.786 190.353ZM195.786 188.692C197.199 188.692 198.252 188.225 198.943 187.29C199.634 186.348 199.98 185.126 199.98 183.626C199.98 182.087 199.63 180.862 198.931 179.951C198.24 179.039 197.191 178.584 195.786 178.584C194.835 178.584 194.05 178.8 193.429 179.232C192.817 179.656 192.357 180.249 192.051 181.011C191.752 181.765 191.603 182.637 191.603 183.626C191.603 185.158 191.957 186.387 192.664 187.314C193.37 188.233 194.411 188.692 195.786 188.692ZM213.606 190V183.508C213.606 182.802 213.539 182.154 213.406 181.565C213.272 180.968 213.056 180.449 212.758 180.009C212.467 179.562 212.086 179.216 211.615 178.973C211.151 178.729 210.586 178.607 209.918 178.607C209.306 178.607 208.764 178.713 208.293 178.926C207.829 179.138 207.436 179.444 207.114 179.845C206.8 180.237 206.561 180.716 206.396 181.282C206.231 181.847 206.148 182.491 206.148 183.214L204.923 182.943C204.923 181.639 205.151 180.544 205.606 179.656C206.062 178.768 206.69 178.097 207.491 177.641C208.293 177.186 209.211 176.958 210.248 176.958C211.01 176.958 211.674 177.076 212.239 177.312C212.813 177.547 213.296 177.865 213.688 178.266C214.089 178.666 214.411 179.126 214.654 179.644C214.898 180.155 215.075 180.701 215.185 181.282C215.295 181.855 215.35 182.429 215.35 183.002V190H213.606ZM204.405 190V177.276H205.972V180.41H206.148V190H204.405ZM121.798 225V212.276H123.353V215.339L123.046 214.939C123.188 214.562 123.372 214.216 123.6 213.902C123.828 213.58 124.075 213.317 124.342 213.113C124.672 212.822 125.057 212.602 125.497 212.453C125.937 212.296 126.381 212.205 126.828 212.182C127.276 212.151 127.684 212.182 128.054 212.276V213.902C127.59 213.784 127.084 213.757 126.534 213.82C125.984 213.882 125.477 214.102 125.014 214.479C124.59 214.809 124.272 215.206 124.06 215.669C123.848 216.125 123.706 216.612 123.636 217.13C123.565 217.641 123.53 218.147 123.53 218.65V225H121.798ZM135.442 225.353C134.201 225.353 133.125 225.079 132.214 224.529C131.311 223.979 130.608 223.205 130.106 222.208C129.603 221.21 129.352 220.04 129.352 218.697C129.352 217.307 129.599 216.105 130.094 215.092C130.589 214.079 131.284 213.297 132.179 212.747C133.082 212.198 134.147 211.923 135.372 211.923C136.628 211.923 137.701 212.213 138.588 212.795C139.476 213.368 140.147 214.193 140.603 215.269C141.058 216.345 141.266 217.629 141.227 219.121H139.46V218.508C139.428 216.859 139.071 215.614 138.388 214.774C137.712 213.933 136.723 213.513 135.419 213.513C134.052 213.513 133.004 213.957 132.273 214.845C131.551 215.732 131.189 216.997 131.189 218.638C131.189 220.24 131.551 221.485 132.273 222.373C133.004 223.252 134.037 223.692 135.372 223.692C136.283 223.692 137.076 223.484 137.752 223.068C138.435 222.644 138.973 222.035 139.366 221.242L140.98 221.866C140.477 222.974 139.735 223.834 138.753 224.446C137.779 225.051 136.676 225.353 135.442 225.353ZM130.577 219.121V217.672H140.296V219.121H130.577ZM146.822 225L142.203 212.276H143.959L147.717 222.738L151.452 212.276H153.231L148.612 225H146.822ZM155.582 209.861V207.917H157.314V209.861H155.582ZM155.582 225V212.276H157.314V225H155.582ZM166.23 225.353C164.989 225.353 163.913 225.079 163.002 224.529C162.099 223.979 161.396 223.205 160.893 222.208C160.391 221.21 160.139 220.04 160.139 218.697C160.139 217.307 160.387 216.105 160.882 215.092C161.376 214.079 162.072 213.297 162.967 212.747C163.87 212.198 164.934 211.923 166.16 211.923C167.416 211.923 168.488 212.213 169.376 212.795C170.263 213.368 170.935 214.193 171.391 215.269C171.846 216.345 172.054 217.629 172.015 219.121H170.248V218.508C170.216 216.859 169.859 215.614 169.176 214.774C168.5 213.933 167.511 213.513 166.207 213.513C164.84 213.513 163.792 213.957 163.061 214.845C162.339 215.732 161.977 216.997 161.977 218.638C161.977 220.24 162.339 221.485 163.061 222.373C163.792 223.252 164.824 223.692 166.16 223.692C167.071 223.692 167.864 223.484 168.539 223.068C169.223 222.644 169.761 222.035 170.154 221.242L171.768 221.866C171.265 222.974 170.523 223.834 169.541 224.446C168.567 225.051 167.463 225.353 166.23 225.353ZM161.365 219.121V217.672H171.084V219.121H161.365ZM176.879 225L172.991 212.264L174.723 212.276L177.739 222.161L180.767 212.276H182.346L185.373 222.161L188.413 212.276H190.133L186.245 225H184.737L181.556 214.868L178.387 225H176.879Z" fill="#FCFCFC"/>
<path d="M174.676 106.065V131.873C174.676 139.615 171.414 144.777 163.801 144.777H146.401C138.788 144.777 135.525 139.615 135.525 131.873V106.065C135.525 98.3232 138.788 93.1616 146.401 93.1616H163.801C171.414 93.1616 174.676 98.3232 174.676 106.065Z" stroke="#ACC5F4" stroke-width="3.25214" stroke-miterlimit="10" stroke-linecap="round" stroke-linejoin="round"/>
<path d="M160.538 99.6133V104.775C160.538 107.614 162.495 109.936 164.888 109.936H169.238" stroke="#ACC5F4" stroke-width="3.25214" stroke-miterlimit="10" stroke-linecap="round" stroke-linejoin="round"/>
<path d="M146.401 121.55H155.101" stroke="#ACC5F4" stroke-width="3.25214" stroke-miterlimit="10" stroke-linecap="round" stroke-linejoin="round"/>
<path d="M146.401 131.873H163.801" stroke="#ACC5F4" stroke-width="3.25214" stroke-miterlimit="10" stroke-linecap="round" stroke-linejoin="round"/>
<path d="M107.313 760.959C105.624 760.959 104.198 760.586 103.036 759.84C101.873 759.086 100.994 758.045 100.397 756.718C99.8 755.39 99.5015 753.859 99.5015 752.123C99.5015 750.387 99.8 748.856 100.397 747.528C100.994 746.201 101.873 745.164 103.036 744.418C104.198 743.664 105.624 743.287 107.313 743.287C109.284 743.287 110.894 743.794 112.143 744.807C113.392 745.812 114.248 747.163 114.711 748.859L112.944 749.319C112.583 747.976 111.935 746.912 111 746.126C110.065 745.341 108.836 744.948 107.313 744.948C105.985 744.948 104.882 745.25 104.002 745.855C103.122 746.46 102.459 747.304 102.011 748.388C101.571 749.464 101.343 750.709 101.328 752.123C101.32 753.537 101.536 754.782 101.976 755.858C102.423 756.934 103.091 757.778 103.978 758.391C104.874 758.995 105.985 759.298 107.313 759.298C108.836 759.298 110.065 758.905 111 758.12C111.935 757.326 112.583 756.262 112.944 754.927L114.711 755.386C114.248 757.083 113.392 758.438 112.143 759.451C110.894 760.456 109.284 760.959 107.313 760.959ZM120.951 760.959C119.993 760.959 119.188 760.786 118.536 760.441C117.892 760.095 117.409 759.635 117.087 759.062C116.765 758.489 116.604 757.864 116.604 757.189C116.604 756.498 116.741 755.909 117.016 755.422C117.299 754.927 117.68 754.522 118.159 754.208C118.646 753.894 119.207 753.654 119.844 753.49C120.488 753.332 121.198 753.195 121.976 753.077C122.761 752.952 123.527 752.846 124.273 752.759C125.027 752.665 125.687 752.575 126.253 752.488L125.64 752.865C125.664 751.608 125.42 750.678 124.91 750.073C124.399 749.468 123.512 749.166 122.247 749.166C121.375 749.166 120.637 749.362 120.032 749.755C119.435 750.148 119.015 750.768 118.772 751.616L117.087 751.122C117.377 749.983 117.963 749.099 118.842 748.471C119.722 747.842 120.865 747.528 122.271 747.528C123.433 747.528 124.419 747.748 125.228 748.188C126.045 748.62 126.622 749.248 126.96 750.073C127.117 750.442 127.219 750.854 127.266 751.31C127.313 751.766 127.337 752.229 127.337 752.7V760.605H125.793V757.413L126.241 757.601C125.809 758.693 125.137 759.526 124.226 760.099C123.315 760.672 122.223 760.959 120.951 760.959ZM121.151 759.463C121.96 759.463 122.667 759.317 123.272 759.027C123.877 758.736 124.364 758.34 124.733 757.837C125.102 757.326 125.342 756.753 125.452 756.117C125.546 755.708 125.597 755.261 125.605 754.774C125.613 754.279 125.616 753.91 125.616 753.666L126.276 754.008C125.687 754.086 125.047 754.165 124.356 754.244C123.673 754.322 122.997 754.412 122.329 754.515C121.67 754.617 121.073 754.738 120.539 754.88C120.177 754.982 119.828 755.127 119.49 755.316C119.152 755.496 118.874 755.74 118.654 756.046C118.442 756.352 118.336 756.733 118.336 757.189C118.336 757.558 118.426 757.915 118.607 758.261C118.795 758.607 119.094 758.893 119.502 759.121C119.918 759.349 120.468 759.463 121.151 759.463ZM139.593 760.605V754.114C139.593 753.407 139.526 752.759 139.393 752.17C139.259 751.573 139.043 751.055 138.745 750.615C138.454 750.167 138.073 749.822 137.602 749.578C137.139 749.335 136.573 749.213 135.905 749.213C135.293 749.213 134.751 749.319 134.28 749.531C133.816 749.743 133.423 750.049 133.101 750.45C132.787 750.843 132.548 751.322 132.383 751.887C132.218 752.453 132.135 753.097 132.135 753.819L130.91 753.548C130.91 752.245 131.138 751.149 131.593 750.261C132.049 749.374 132.677 748.702 133.478 748.247C134.28 747.791 135.199 747.564 136.235 747.564C136.997 747.564 137.661 747.681 138.226 747.917C138.8 748.153 139.283 748.471 139.675 748.871C140.076 749.272 140.398 749.731 140.642 750.25C140.885 750.76 141.062 751.306 141.172 751.887C141.282 752.461 141.337 753.034 141.337 753.607V760.605H139.593ZM130.392 760.605V747.882H131.959V751.015H132.135V760.605H130.392ZM149.261 760.959C148.075 760.959 147.062 760.664 146.222 760.075C145.381 759.478 144.737 758.673 144.289 757.66C143.842 756.647 143.618 755.504 143.618 754.232C143.618 752.967 143.838 751.828 144.278 750.815C144.725 749.802 145.366 749.001 146.198 748.412C147.031 747.823 148.028 747.528 149.191 747.528C150.384 747.528 151.39 747.819 152.207 748.4C153.023 748.981 153.64 749.778 154.056 750.792C154.48 751.797 154.692 752.944 154.692 754.232C154.692 755.496 154.484 756.639 154.068 757.66C153.652 758.673 153.039 759.478 152.23 760.075C151.421 760.664 150.431 760.959 149.261 760.959ZM149.438 759.345C150.341 759.345 151.087 759.125 151.676 758.685C152.265 758.245 152.705 757.641 152.996 756.871C153.286 756.093 153.432 755.214 153.432 754.232C153.432 753.234 153.286 752.355 152.996 751.593C152.705 750.823 152.265 750.222 151.676 749.79C151.095 749.358 150.361 749.142 149.473 749.142C148.562 749.142 147.808 749.366 147.211 749.814C146.614 750.261 146.171 750.87 145.88 751.64C145.597 752.41 145.456 753.274 145.456 754.232C145.456 755.198 145.601 756.07 145.892 756.847C146.19 757.617 146.634 758.226 147.223 758.673C147.812 759.121 148.55 759.345 149.438 759.345ZM153.432 760.605V751.027H153.243V743.64H154.987V760.605H153.432ZM158.528 745.466V743.523H160.26V745.466H158.528ZM158.528 760.605V747.882H160.26V760.605H158.528ZM168.728 760.959C167.542 760.959 166.529 760.664 165.688 760.075C164.848 759.478 164.204 758.673 163.756 757.66C163.309 756.647 163.085 755.504 163.085 754.232C163.085 752.967 163.305 751.828 163.745 750.815C164.192 749.802 164.832 749.001 165.665 748.412C166.497 747.823 167.495 747.528 168.657 747.528C169.851 747.528 170.856 747.819 171.673 748.4C172.49 748.981 173.107 749.778 173.523 750.792C173.947 751.797 174.159 752.944 174.159 754.232C174.159 755.496 173.951 756.639 173.535 757.66C173.119 758.673 172.506 759.478 171.697 760.075C170.888 760.664 169.898 760.959 168.728 760.959ZM168.905 759.345C169.808 759.345 170.554 759.125 171.143 758.685C171.732 758.245 172.172 757.641 172.463 756.871C172.753 756.093 172.899 755.214 172.899 754.232C172.899 753.234 172.753 752.355 172.463 751.593C172.172 750.823 171.732 750.222 171.143 749.79C170.562 749.358 169.828 749.142 168.94 749.142C168.029 749.142 167.275 749.366 166.678 749.814C166.081 750.261 165.637 750.87 165.347 751.64C165.064 752.41 164.923 753.274 164.923 754.232C164.923 755.198 165.068 756.07 165.359 756.847C165.657 757.617 166.101 758.226 166.69 758.673C167.279 759.121 168.017 759.345 168.905 759.345ZM172.899 760.605V751.027H172.71V743.64H174.454V760.605H172.899ZM181.399 760.959C180.441 760.959 179.636 760.786 178.984 760.441C178.34 760.095 177.857 759.635 177.535 759.062C177.213 758.489 177.052 757.864 177.052 757.189C177.052 756.498 177.19 755.909 177.464 755.422C177.747 754.927 178.128 754.522 178.607 754.208C179.094 753.894 179.656 753.654 180.292 753.49C180.936 753.332 181.647 753.195 182.424 753.077C183.21 752.952 183.976 752.846 184.722 752.759C185.476 752.665 186.135 752.575 186.701 752.488L186.088 752.865C186.112 751.608 185.868 750.678 185.358 750.073C184.847 749.468 183.96 749.166 182.695 749.166C181.823 749.166 181.085 749.362 180.48 749.755C179.884 750.148 179.463 750.768 179.22 751.616L177.535 751.122C177.826 749.983 178.411 749.099 179.291 748.471C180.17 747.842 181.313 747.528 182.719 747.528C183.881 747.528 184.867 747.748 185.676 748.188C186.493 748.62 187.07 749.248 187.408 750.073C187.565 750.442 187.667 750.854 187.714 751.31C187.761 751.766 187.785 752.229 187.785 752.7V760.605H186.241V757.413L186.689 757.601C186.257 758.693 185.586 759.526 184.675 760.099C183.763 760.672 182.672 760.959 181.399 760.959ZM181.6 759.463C182.409 759.463 183.116 759.317 183.72 759.027C184.325 758.736 184.812 758.34 185.181 757.837C185.55 757.326 185.79 756.753 185.9 756.117C185.994 755.708 186.045 755.261 186.053 754.774C186.061 754.279 186.065 753.91 186.065 753.666L186.725 754.008C186.135 754.086 185.495 754.165 184.804 754.244C184.121 754.322 183.445 754.412 182.778 754.515C182.118 754.617 181.521 754.738 180.987 754.88C180.626 754.982 180.276 755.127 179.938 755.316C179.601 755.496 179.322 755.74 179.102 756.046C178.89 756.352 178.784 756.733 178.784 757.189C178.784 757.558 178.874 757.915 179.055 758.261C179.243 758.607 179.542 758.893 179.95 759.121C180.367 759.349 180.916 759.463 181.6 759.463ZM197.779 760.605C197.065 760.755 196.358 760.814 195.659 760.782C194.967 760.751 194.347 760.602 193.797 760.334C193.255 760.067 192.843 759.651 192.56 759.086C192.332 758.614 192.207 758.139 192.183 757.66C192.167 757.173 192.16 756.619 192.16 755.999V744.347H193.88V755.928C193.88 756.462 193.884 756.91 193.891 757.271C193.907 757.625 193.99 757.939 194.139 758.214C194.422 758.74 194.869 759.054 195.482 759.156C196.102 759.258 196.868 759.235 197.779 759.086V760.605ZM189.438 749.366V747.882H197.779V749.366H189.438ZM205.21 760.959C203.969 760.959 202.893 760.684 201.982 760.134C201.079 759.584 200.376 758.811 199.873 757.813C199.37 756.816 199.119 755.646 199.119 754.302C199.119 752.912 199.366 751.711 199.861 750.697C200.356 749.684 201.051 748.903 201.947 748.353C202.85 747.803 203.914 747.528 205.139 747.528C206.396 747.528 207.468 747.819 208.356 748.4C209.243 748.973 209.915 749.798 210.37 750.874C210.826 751.95 211.034 753.234 210.995 754.727H209.227V754.114C209.196 752.465 208.839 751.22 208.155 750.379C207.48 749.539 206.49 749.119 205.186 749.119C203.82 749.119 202.771 749.562 202.041 750.45C201.318 751.337 200.957 752.602 200.957 754.244C200.957 755.846 201.318 757.091 202.041 757.978C202.771 758.858 203.804 759.298 205.139 759.298C206.05 759.298 206.844 759.09 207.519 758.673C208.202 758.249 208.74 757.641 209.133 756.847L210.747 757.472C210.245 758.579 209.502 759.439 208.521 760.052C207.547 760.657 206.443 760.959 205.21 760.959ZM200.344 754.727V753.277H210.064V754.727H200.344ZM111.094 795.947C109.602 795.947 108.373 795.625 107.406 794.981C106.448 794.337 105.859 793.442 105.639 792.295L107.406 792C107.595 792.723 108.023 793.3 108.691 793.732C109.366 794.156 110.199 794.368 111.188 794.368C112.154 794.368 112.916 794.168 113.474 793.768C114.032 793.359 114.31 792.805 114.31 792.106C114.31 791.714 114.22 791.396 114.039 791.152C113.867 790.901 113.509 790.669 112.967 790.457C112.425 790.245 111.616 789.994 110.54 789.703C109.386 789.389 108.483 789.075 107.831 788.761C107.179 788.446 106.715 788.085 106.44 787.677C106.166 787.26 106.028 786.754 106.028 786.157C106.028 785.434 106.232 784.802 106.641 784.26C107.049 783.71 107.615 783.286 108.337 782.988C109.06 782.681 109.9 782.528 110.858 782.528C111.817 782.528 112.673 782.685 113.427 782.999C114.189 783.306 114.801 783.738 115.265 784.295C115.728 784.853 116.003 785.501 116.089 786.239L114.322 786.557C114.204 785.811 113.831 785.222 113.203 784.79C112.582 784.35 111.793 784.123 110.835 784.107C109.932 784.083 109.197 784.256 108.632 784.625C108.066 784.987 107.783 785.47 107.783 786.074C107.783 786.412 107.886 786.703 108.09 786.946C108.294 787.182 108.663 787.406 109.197 787.618C109.739 787.83 110.509 788.061 111.506 788.313C112.677 788.611 113.596 788.925 114.263 789.255C114.931 789.585 115.406 789.974 115.689 790.422C115.972 790.869 116.113 791.423 116.113 792.083C116.113 793.285 115.665 794.231 114.77 794.922C113.882 795.605 112.657 795.947 111.094 795.947ZM124.11 795.959C122.869 795.959 121.793 795.684 120.882 795.134C119.979 794.584 119.276 793.811 118.773 792.813C118.27 791.816 118.019 790.646 118.019 789.302C118.019 787.912 118.266 786.711 118.761 785.697C119.256 784.684 119.951 783.903 120.846 783.353C121.75 782.803 122.814 782.528 124.039 782.528C125.296 782.528 126.368 782.819 127.255 783.4C128.143 783.973 128.815 784.798 129.27 785.874C129.726 786.95 129.934 788.234 129.894 789.727H128.127V789.114C128.096 787.465 127.738 786.22 127.055 785.379C126.38 784.539 125.39 784.119 124.086 784.119C122.72 784.119 121.671 784.562 120.941 785.45C120.218 786.337 119.857 787.602 119.857 789.244C119.857 790.846 120.218 792.091 120.941 792.978C121.671 793.858 122.704 794.298 124.039 794.298C124.95 794.298 125.744 794.09 126.419 793.673C127.102 793.249 127.64 792.641 128.033 791.847L129.647 792.472C129.144 793.579 128.402 794.439 127.42 795.052C126.446 795.657 125.343 795.959 124.11 795.959ZM119.244 789.727V788.277H128.964V789.727L119.244 789.727ZM132.745 795.605V778.287H134.476V795.605H132.745ZM143.393 795.959C142.152 795.959 141.076 795.684 140.164 795.134C139.261 794.584 138.558 793.811 138.056 792.813C137.553 791.816 137.302 790.646 137.302 789.302C137.302 787.912 137.549 786.711 138.044 785.697C138.539 784.684 139.234 783.903 140.129 783.353C141.032 782.803 142.097 782.528 143.322 782.528C144.579 782.528 145.651 782.819 146.538 783.4C147.426 783.973 148.097 784.798 148.553 785.874C149.008 786.95 149.216 788.234 149.177 789.727H147.41V789.114C147.379 787.465 147.021 786.22 146.338 785.379C145.662 784.539 144.673 784.119 143.369 784.119C142.002 784.119 140.954 784.562 140.223 785.45C139.501 786.337 139.139 787.602 139.139 789.244C139.139 790.846 139.501 792.091 140.223 792.978C140.954 793.858 141.987 794.298 143.322 794.298C144.233 794.298 145.026 794.09 145.702 793.673C146.385 793.249 146.923 792.641 147.316 791.847L148.93 792.472C148.427 793.579 147.685 794.439 146.703 795.052C145.729 795.657 144.626 795.959 143.393 795.959ZM138.527 789.727V788.277H148.246V789.727H138.527ZM157.07 795.959C155.789 795.959 154.706 795.672 153.818 795.099C152.931 794.526 152.255 793.736 151.792 792.731C151.336 791.718 151.101 790.555 151.085 789.244C151.101 787.908 151.344 786.738 151.815 785.733C152.287 784.72 152.966 783.934 153.853 783.376C154.741 782.811 155.817 782.528 157.082 782.528C158.37 782.528 159.489 782.842 160.439 783.471C161.397 784.099 162.053 784.959 162.407 786.051L160.71 786.593C160.412 785.831 159.937 785.242 159.285 784.826C158.641 784.401 157.902 784.189 157.07 784.189C156.135 784.189 155.361 784.405 154.749 784.837C154.136 785.261 153.681 785.854 153.382 786.616C153.084 787.378 152.931 788.254 152.923 789.244C152.938 790.767 153.292 791.993 153.983 792.919C154.674 793.838 155.703 794.298 157.07 794.298C157.934 794.298 158.668 794.101 159.273 793.709C159.885 793.308 160.349 792.727 160.663 791.965L162.407 792.483C161.935 793.614 161.244 794.478 160.333 795.075C159.422 795.664 158.334 795.959 157.07 795.959ZM171.766 795.605C171.051 795.755 170.344 795.814 169.645 795.782C168.954 795.751 168.334 795.602 167.784 795.334C167.242 795.067 166.83 794.651 166.547 794.086C166.319 793.614 166.193 793.139 166.17 792.66C166.154 792.173 166.146 791.619 166.146 790.999V779.347H167.866V790.928C167.866 791.462 167.87 791.91 167.878 792.271C167.894 792.625 167.976 792.939 168.126 793.214C168.408 793.74 168.856 794.054 169.469 794.156C170.089 794.258 170.855 794.235 171.766 794.086V795.605ZM163.425 784.366V782.882H171.766V784.366H163.425ZM174.508 780.466V778.523H176.24V780.466H174.508ZM174.508 795.605V782.882H176.24V795.605H174.508ZM185.086 795.959C183.821 795.959 182.741 795.672 181.846 795.099C180.95 794.526 180.263 793.732 179.784 792.719C179.305 791.706 179.065 790.543 179.065 789.232C179.065 787.897 179.309 786.726 179.796 785.721C180.283 784.716 180.974 783.934 181.869 783.376C182.773 782.811 183.845 782.528 185.086 782.528C186.358 782.528 187.442 782.815 188.337 783.388C189.241 783.954 189.928 784.743 190.399 785.756C190.878 786.762 191.118 787.92 191.118 789.232C191.118 790.567 190.878 791.741 190.399 792.754C189.92 793.76 189.229 794.545 188.326 795.111C187.422 795.676 186.342 795.959 185.086 795.959ZM185.086 794.298C186.499 794.298 187.552 793.83 188.243 792.896C188.934 791.953 189.28 790.732 189.28 789.232C189.28 787.692 188.93 786.467 188.231 785.556C187.54 784.645 186.492 784.189 185.086 784.189C184.135 784.189 183.35 784.405 182.729 784.837C182.117 785.261 181.657 785.854 181.351 786.616C181.053 787.37 180.903 788.242 180.903 789.232C180.903 790.763 181.257 791.993 181.964 792.919C182.671 793.838 183.711 794.298 185.086 794.298ZM202.906 795.605V789.114C202.906 788.407 202.839 787.759 202.706 787.17C202.572 786.573 202.356 786.055 202.058 785.615C201.767 785.167 201.386 784.822 200.915 784.578C200.452 784.335 199.886 784.213 199.219 784.213C198.606 784.213 198.064 784.319 197.593 784.531C197.129 784.743 196.737 785.049 196.415 785.45C196.1 785.843 195.861 786.322 195.696 786.887C195.531 787.453 195.449 788.097 195.449 788.819L194.223 788.548C194.223 787.245 194.451 786.149 194.907 785.261C195.362 784.374 195.99 783.702 196.792 783.247C197.593 782.791 198.512 782.564 199.548 782.564C200.31 782.564 200.974 782.681 201.539 782.917C202.113 783.153 202.596 783.471 202.989 783.871C203.389 784.272 203.711 784.731 203.955 785.25C204.198 785.76 204.375 786.306 204.485 786.887C204.595 787.461 204.65 788.034 204.65 788.607V795.605H202.906ZM193.705 795.605V782.882H195.272V786.015H195.449V795.605H193.705Z" fill="#FCFCFC"/>
<path d="M136.75 704.5C136.75 714.812 145.188 723.25 155.5 723.25C165.812 723.25 174.25 714.812 174.25 704.5C174.25 694.188 165.812 685.75 155.5 685.75C145.188 685.75 136.75 694.188 136.75 704.5Z" stroke="#ACC5F4" stroke-width="3.55894" stroke-linecap="round" stroke-linejoin="round"/>
<path d="M155.5 696.531L150.194 701.838L160.807 712.469" fill="#ACC5F4"/>
<path d="M155.5 696.531L150.194 701.838L160.807 712.469" stroke="#ACC5F4" stroke-width="3.55894" stroke-linecap="round" stroke-linejoin="round"/>
<path d="M99.0527 1053.35C97.3641 1053.35 95.9385 1052.98 94.7761 1052.23C93.6137 1051.48 92.734 1050.44 92.1371 1049.11C91.5402 1047.78 91.2417 1046.25 91.2417 1044.52C91.2417 1042.78 91.5402 1041.25 92.1371 1039.92C92.734 1038.6 93.6137 1037.56 94.7761 1036.81C95.9385 1036.06 97.3641 1035.68 99.0527 1035.68C100.749 1035.68 102.175 1036.06 103.329 1036.81C104.492 1037.56 105.371 1038.6 105.968 1039.92C106.573 1041.25 106.876 1042.78 106.876 1044.52C106.876 1046.25 106.573 1047.78 105.968 1049.11C105.371 1050.44 104.492 1051.48 103.329 1052.23C102.175 1052.98 100.749 1053.35 99.0527 1053.35ZM99.0527 1051.69C100.38 1051.69 101.488 1051.39 102.375 1050.79C103.263 1050.18 103.926 1049.34 104.366 1048.26C104.814 1047.18 105.038 1045.93 105.038 1044.52C105.038 1043.1 104.814 1041.86 104.366 1040.78C103.926 1039.71 103.263 1038.87 102.375 1038.26C101.488 1037.66 100.38 1037.35 99.0527 1037.34C97.7254 1037.34 96.6219 1037.65 95.7422 1038.25C94.8625 1038.85 94.1988 1039.7 93.7511 1040.78C93.3113 1041.86 93.0875 1043.1 93.0796 1044.52C93.0718 1045.93 93.2877 1047.18 93.7276 1048.25C94.1753 1049.32 94.8429 1050.16 95.7304 1050.77C96.6179 1051.38 97.7254 1051.68 99.0527 1051.69ZM118.424 1053V1046.51C118.424 1045.8 118.358 1045.15 118.224 1044.56C118.091 1043.97 117.875 1043.45 117.576 1043.01C117.285 1042.56 116.905 1042.22 116.433 1041.97C115.97 1041.73 115.404 1041.61 114.737 1041.61C114.124 1041.61 113.582 1041.71 113.111 1041.93C112.648 1042.14 112.255 1042.44 111.933 1042.84C111.619 1043.24 111.379 1043.72 111.214 1044.28C111.049 1044.85 110.967 1045.49 110.967 1046.21L109.742 1045.94C109.742 1044.64 109.969 1043.54 110.425 1042.66C110.88 1041.77 111.509 1041.1 112.31 1040.64C113.111 1040.19 114.03 1039.96 115.067 1039.96C115.829 1039.96 116.492 1040.08 117.058 1040.31C117.631 1040.55 118.114 1040.87 118.507 1041.27C118.907 1041.67 119.229 1042.13 119.473 1042.64C119.716 1043.15 119.893 1043.7 120.003 1044.28C120.113 1044.86 120.168 1045.43 120.168 1046V1053H118.424ZM109.223 1053V1040.28H110.79V1043.41H110.967V1053H109.223ZM128.939 1053.35C127.769 1053.35 126.779 1053.06 125.97 1052.47C125.161 1051.87 124.549 1051.07 124.132 1050.05C123.716 1049.03 123.508 1047.89 123.508 1046.63C123.508 1045.34 123.716 1044.19 124.132 1043.19C124.557 1042.17 125.177 1041.38 125.994 1040.79C126.811 1040.21 127.816 1039.92 129.01 1039.92C130.172 1039.92 131.17 1040.22 132.002 1040.81C132.835 1041.4 133.471 1042.2 133.911 1043.21C134.359 1044.22 134.582 1045.36 134.582 1046.63C134.582 1047.9 134.359 1049.04 133.911 1050.05C133.463 1051.07 132.819 1051.87 131.979 1052.47C131.138 1053.06 130.125 1053.35 128.939 1053.35ZM123.213 1053V1036.03H124.957V1043.42H124.769V1053H123.213ZM128.762 1051.74C129.65 1051.74 130.388 1051.52 130.977 1051.07C131.566 1050.62 132.006 1050.01 132.297 1049.24C132.595 1048.46 132.745 1047.59 132.745 1046.63C132.745 1045.67 132.599 1044.8 132.309 1044.03C132.018 1043.26 131.574 1042.66 130.977 1042.21C130.388 1041.76 129.638 1041.54 128.727 1041.54C127.84 1041.54 127.101 1041.75 126.512 1042.18C125.931 1042.62 125.495 1043.22 125.205 1043.99C124.914 1044.75 124.769 1045.63 124.769 1046.63C124.769 1047.61 124.914 1048.49 125.205 1049.27C125.495 1050.04 125.935 1050.64 126.524 1051.08C127.113 1051.52 127.859 1051.74 128.762 1051.74ZM142.483 1053.35C141.218 1053.35 140.138 1053.07 139.243 1052.49C138.348 1051.92 137.66 1051.13 137.181 1050.11C136.702 1049.1 136.463 1047.94 136.463 1046.63C136.463 1045.29 136.706 1044.12 137.193 1043.12C137.68 1042.11 138.371 1041.33 139.267 1040.77C140.17 1040.21 141.242 1039.92 142.483 1039.92C143.755 1039.92 144.839 1040.21 145.735 1040.78C146.638 1041.35 147.325 1042.14 147.796 1043.15C148.275 1044.16 148.515 1045.31 148.515 1046.63C148.515 1047.96 148.275 1049.14 147.796 1050.15C147.317 1051.15 146.626 1051.94 145.723 1052.51C144.82 1053.07 143.74 1053.35 142.483 1053.35ZM142.483 1051.69C143.897 1051.69 144.949 1051.22 145.64 1050.29C146.331 1049.35 146.677 1048.13 146.677 1046.63C146.677 1045.09 146.328 1043.86 145.629 1042.95C144.937 1042.04 143.889 1041.58 142.483 1041.58C141.533 1041.58 140.747 1041.8 140.127 1042.23C139.514 1042.66 139.055 1043.25 138.748 1044.01C138.45 1044.76 138.301 1045.64 138.301 1046.63C138.301 1048.16 138.654 1049.39 139.361 1050.31C140.068 1051.23 141.108 1051.69 142.483 1051.69ZM154.754 1053.35C153.796 1053.35 152.991 1053.18 152.339 1052.84C151.695 1052.49 151.212 1052.03 150.89 1051.46C150.568 1050.88 150.407 1050.26 150.407 1049.58C150.407 1048.89 150.544 1048.3 150.819 1047.82C151.102 1047.32 151.483 1046.92 151.962 1046.6C152.449 1046.29 153.011 1046.05 153.647 1045.88C154.291 1045.73 155.002 1045.59 155.779 1045.47C156.565 1045.35 157.33 1045.24 158.077 1045.15C158.831 1045.06 159.49 1044.97 160.056 1044.88L159.443 1045.26C159.467 1044 159.223 1043.07 158.713 1042.47C158.202 1041.86 157.315 1041.56 156.05 1041.56C155.178 1041.56 154.44 1041.76 153.835 1042.15C153.238 1042.54 152.818 1043.16 152.575 1044.01L150.89 1043.52C151.181 1042.38 151.766 1041.49 152.645 1040.87C153.525 1040.24 154.668 1039.92 156.074 1039.92C157.236 1039.92 158.222 1040.14 159.031 1040.58C159.848 1041.01 160.425 1041.64 160.763 1042.47C160.92 1042.84 161.022 1043.25 161.069 1043.7C161.116 1044.16 161.14 1044.62 161.14 1045.09V1053H159.596V1049.81L160.044 1050C159.612 1051.09 158.941 1051.92 158.029 1052.49C157.118 1053.07 156.027 1053.35 154.754 1053.35ZM154.955 1051.86C155.764 1051.86 156.47 1051.71 157.075 1051.42C157.68 1051.13 158.167 1050.73 158.536 1050.23C158.905 1049.72 159.145 1049.15 159.255 1048.51C159.349 1048.1 159.4 1047.66 159.408 1047.17C159.416 1046.67 159.42 1046.3 159.42 1046.06L160.079 1046.4C159.49 1046.48 158.85 1046.56 158.159 1046.64C157.476 1046.72 156.8 1046.81 156.133 1046.91C155.473 1047.01 154.876 1047.13 154.342 1047.27C153.981 1047.38 153.631 1047.52 153.293 1047.71C152.956 1047.89 152.677 1048.13 152.457 1048.44C152.245 1048.75 152.139 1049.13 152.139 1049.58C152.139 1049.95 152.229 1050.31 152.41 1050.66C152.598 1051 152.897 1051.29 153.305 1051.52C153.721 1051.74 154.271 1051.86 154.955 1051.86ZM164.207 1053V1040.28H165.762V1043.34L165.456 1042.94C165.597 1042.56 165.782 1042.22 166.009 1041.9C166.237 1041.58 166.484 1041.32 166.752 1041.11C167.081 1040.82 167.466 1040.6 167.906 1040.45C168.346 1040.3 168.79 1040.21 169.237 1040.18C169.685 1040.15 170.093 1040.18 170.463 1040.28V1041.9C169.999 1041.78 169.493 1041.76 168.943 1041.82C168.393 1041.88 167.886 1042.1 167.423 1042.48C166.999 1042.81 166.681 1043.21 166.469 1043.67C166.257 1044.12 166.115 1044.61 166.045 1045.13C165.974 1045.64 165.939 1046.15 165.939 1046.65V1053H164.207ZM177.404 1053.35C176.218 1053.35 175.205 1053.06 174.364 1052.47C173.524 1051.87 172.88 1051.07 172.432 1050.05C171.984 1049.04 171.761 1047.9 171.761 1046.63C171.761 1045.36 171.981 1044.22 172.42 1043.21C172.868 1042.2 173.508 1041.4 174.341 1040.81C175.173 1040.22 176.171 1039.92 177.333 1039.92C178.527 1039.92 179.532 1040.21 180.349 1040.79C181.166 1041.38 181.783 1042.17 182.199 1043.19C182.623 1044.19 182.835 1045.34 182.835 1046.63C182.835 1047.89 182.627 1049.03 182.211 1050.05C181.794 1051.07 181.182 1051.87 180.373 1052.47C179.564 1053.06 178.574 1053.35 177.404 1053.35ZM177.581 1051.74C178.484 1051.74 179.23 1051.52 179.819 1051.08C180.408 1050.64 180.848 1050.04 181.139 1049.27C181.429 1048.49 181.574 1047.61 181.574 1046.63C181.574 1045.63 181.429 1044.75 181.139 1043.99C180.848 1043.22 180.408 1042.62 179.819 1042.18C179.238 1041.75 178.503 1041.54 177.616 1041.54C176.705 1041.54 175.951 1041.76 175.354 1042.21C174.757 1042.66 174.313 1043.26 174.023 1044.03C173.74 1044.8 173.598 1045.67 173.598 1046.63C173.598 1047.59 173.744 1048.46 174.034 1049.24C174.333 1050.01 174.777 1050.62 175.366 1051.07C175.955 1051.52 176.693 1051.74 177.581 1051.74ZM181.574 1053V1043.42H181.386V1036.03H183.13V1053H181.574ZM186.67 1037.86V1035.92H188.402V1037.86H186.67ZM186.67 1053V1040.28H188.402V1053H186.67ZM201.124 1053V1046.51C201.124 1045.8 201.057 1045.15 200.923 1044.56C200.79 1043.97 200.574 1043.45 200.275 1043.01C199.985 1042.56 199.604 1042.22 199.133 1041.97C198.669 1041.73 198.104 1041.61 197.436 1041.61C196.824 1041.61 196.282 1041.71 195.81 1041.93C195.347 1042.14 194.954 1042.44 194.632 1042.84C194.318 1043.24 194.078 1043.72 193.914 1044.28C193.749 1044.85 193.666 1045.49 193.666 1046.21L192.441 1045.94C192.441 1044.64 192.669 1043.54 193.124 1042.66C193.58 1041.77 194.208 1041.1 195.009 1040.64C195.81 1040.19 196.729 1039.96 197.766 1039.96C198.528 1039.96 199.192 1040.08 199.757 1040.31C200.33 1040.55 200.813 1040.87 201.206 1041.27C201.607 1041.67 201.929 1042.13 202.172 1042.64C202.416 1043.15 202.592 1043.7 202.702 1044.28C202.812 1044.86 202.867 1045.43 202.867 1046V1053H201.124ZM191.923 1053V1040.28H193.489V1043.41H193.666V1053H191.923ZM210.979 1059.01C210.327 1059.01 209.683 1058.91 209.047 1058.71C208.418 1058.53 207.837 1058.22 207.303 1057.81C206.769 1057.4 206.321 1056.86 205.96 1056.2L207.527 1055.33C207.88 1056.04 208.375 1056.55 209.011 1056.85C209.655 1057.17 210.311 1057.32 210.979 1057.32C211.898 1057.32 212.64 1057.15 213.205 1056.81C213.779 1056.47 214.195 1055.96 214.454 1055.3C214.713 1054.63 214.839 1053.8 214.831 1052.8V1049.41H215.032V1040.28H216.575V1052.82C216.575 1053.18 216.563 1053.53 216.54 1053.86C216.524 1054.2 216.489 1054.53 216.434 1054.85C216.284 1055.8 215.974 1056.58 215.503 1057.19C215.039 1057.81 214.427 1058.26 213.665 1058.56C212.911 1058.86 212.016 1059.01 210.979 1059.01ZM210.861 1053.35C209.675 1053.35 208.662 1053.06 207.821 1052.47C206.981 1051.87 206.337 1051.07 205.889 1050.05C205.442 1049.04 205.218 1047.9 205.218 1046.63C205.218 1045.36 205.438 1044.22 205.877 1043.21C206.325 1042.2 206.965 1041.4 207.798 1040.81C208.63 1040.22 209.628 1039.92 210.79 1039.92C211.984 1039.92 212.989 1040.21 213.806 1040.79C214.623 1041.38 215.24 1042.17 215.656 1043.19C216.08 1044.19 216.292 1045.34 216.292 1046.63C216.292 1047.89 216.084 1049.03 215.668 1050.05C215.251 1051.07 214.639 1051.87 213.83 1052.47C213.021 1053.06 212.031 1053.35 210.861 1053.35ZM211.038 1051.74C211.941 1051.74 212.687 1051.52 213.276 1051.08C213.865 1050.64 214.305 1050.04 214.596 1049.27C214.886 1048.49 215.032 1047.61 215.032 1046.63C215.032 1045.63 214.886 1044.75 214.596 1043.99C214.305 1043.22 213.865 1042.62 213.276 1042.18C212.695 1041.75 211.961 1041.54 211.073 1041.54C210.162 1041.54 209.408 1041.76 208.811 1042.21C208.214 1042.66 207.77 1043.26 207.48 1044.03C207.197 1044.8 207.056 1045.67 207.056 1046.63C207.056 1047.59 207.201 1048.46 207.492 1049.24C207.79 1050.01 208.234 1050.62 208.823 1051.07C209.412 1051.52 210.15 1051.74 211.038 1051.74ZM118.044 1088.35C116.873 1088.35 115.884 1088.06 115.075 1087.47C114.266 1086.87 113.653 1086.07 113.237 1085.05C112.821 1084.03 112.613 1082.89 112.613 1081.63C112.613 1080.34 112.821 1079.19 113.237 1078.19C113.661 1077.17 114.282 1076.38 115.098 1075.79C115.915 1075.21 116.921 1074.92 118.114 1074.92C119.277 1074.92 120.274 1075.22 121.107 1075.81C121.939 1076.4 122.576 1077.2 123.015 1078.21C123.463 1079.22 123.687 1080.36 123.687 1081.63C123.687 1082.9 123.463 1084.04 123.015 1085.05C122.568 1086.07 121.924 1086.87 121.083 1087.47C120.243 1088.06 119.23 1088.35 118.044 1088.35ZM112.318 1093.66L112.318 1075.28H113.873V1084.85H114.062V1093.66H112.318ZM117.867 1086.74C118.755 1086.74 119.493 1086.52 120.082 1086.07C120.671 1085.62 121.111 1085.01 121.401 1084.24C121.7 1083.46 121.849 1082.59 121.849 1081.63C121.849 1080.67 121.704 1079.8 121.413 1079.03C121.123 1078.26 120.679 1077.66 120.082 1077.21C119.493 1076.76 118.743 1076.54 117.832 1076.54C116.944 1076.54 116.206 1076.75 115.617 1077.18C115.036 1077.62 114.6 1078.22 114.309 1078.99C114.018 1079.75 113.873 1080.63 113.873 1081.63C113.873 1082.61 114.018 1083.49 114.309 1084.27C114.6 1085.04 115.04 1085.64 115.629 1086.08C116.218 1086.52 116.964 1086.74 117.867 1086.74ZM126.274 1088V1075.28H127.829V1078.34L127.523 1077.94C127.664 1077.56 127.849 1077.22 128.077 1076.9C128.304 1076.58 128.552 1076.32 128.819 1076.11C129.149 1075.82 129.534 1075.6 129.973 1075.45C130.413 1075.3 130.857 1075.21 131.305 1075.18C131.752 1075.15 132.161 1075.18 132.53 1075.28V1076.9C132.067 1076.78 131.56 1076.76 131.01 1076.82C130.46 1076.88 129.954 1077.1 129.49 1077.48C129.066 1077.81 128.748 1078.21 128.536 1078.67C128.324 1079.12 128.183 1079.61 128.112 1080.13C128.041 1080.64 128.006 1081.15 128.006 1081.65V1088H126.274ZM139.848 1088.35C138.584 1088.35 137.504 1088.07 136.608 1087.49C135.713 1086.92 135.026 1086.13 134.547 1085.11C134.068 1084.1 133.828 1082.94 133.828 1081.63C133.828 1080.29 134.071 1079.12 134.558 1078.12C135.045 1077.11 135.737 1076.33 136.632 1075.77C137.535 1075.21 138.607 1074.92 139.848 1074.92C141.121 1074.92 142.205 1075.21 143.1 1075.78C144.003 1076.35 144.69 1077.14 145.162 1078.15C145.641 1079.16 145.88 1080.31 145.88 1081.63C145.88 1082.96 145.641 1084.14 145.162 1085.15C144.683 1086.15 143.991 1086.94 143.088 1087.51C142.185 1088.07 141.105 1088.35 139.848 1088.35ZM139.848 1086.69C141.262 1086.69 142.314 1086.22 143.006 1085.29C143.697 1084.35 144.042 1083.13 144.042 1081.63C144.042 1080.09 143.693 1078.86 142.994 1077.95C142.303 1077.04 141.254 1076.58 139.848 1076.58C138.898 1076.58 138.112 1076.8 137.492 1077.23C136.879 1077.66 136.42 1078.25 136.114 1079.01C135.815 1079.76 135.666 1080.64 135.666 1081.63C135.666 1083.16 136.019 1084.39 136.726 1085.31C137.433 1086.23 138.474 1086.69 139.848 1086.69ZM153.757 1088.35C152.477 1088.35 151.393 1088.07 150.506 1087.49C149.618 1086.92 148.943 1086.13 148.479 1085.13C148.024 1084.11 147.788 1082.95 147.772 1081.64C147.788 1080.3 148.031 1079.13 148.503 1078.13C148.974 1077.11 149.653 1076.33 150.541 1075.77C151.428 1075.21 152.504 1074.92 153.769 1074.92C155.057 1074.92 156.176 1075.24 157.127 1075.87C158.085 1076.49 158.741 1077.35 159.094 1078.45L157.398 1078.99C157.099 1078.23 156.624 1077.64 155.972 1077.22C155.328 1076.8 154.59 1076.58 153.757 1076.58C152.823 1076.58 152.049 1076.8 151.436 1077.23C150.824 1077.66 150.368 1078.25 150.07 1079.01C149.771 1079.77 149.618 1080.65 149.61 1081.64C149.626 1083.16 149.979 1084.39 150.67 1085.31C151.362 1086.23 152.391 1086.69 153.757 1086.69C154.621 1086.69 155.356 1086.5 155.96 1086.1C156.573 1085.7 157.036 1085.12 157.35 1084.36L159.094 1084.88C158.623 1086.01 157.932 1086.87 157.021 1087.47C156.11 1088.06 155.022 1088.35 153.757 1088.35ZM166.565 1088.35C165.324 1088.35 164.248 1088.08 163.337 1087.53C162.434 1086.98 161.731 1086.21 161.228 1085.21C160.725 1084.21 160.474 1083.04 160.474 1081.7C160.474 1080.31 160.721 1079.11 161.216 1078.09C161.711 1077.08 162.406 1076.3 163.302 1075.75C164.205 1075.2 165.269 1074.92 166.494 1074.92C167.751 1074.92 168.823 1075.21 169.711 1075.79C170.598 1076.37 171.27 1077.19 171.725 1078.27C172.181 1079.34 172.389 1080.63 172.35 1082.12H170.582V1081.51C170.551 1079.86 170.194 1078.61 169.51 1077.77C168.835 1076.93 167.845 1076.51 166.541 1076.51C165.175 1076.51 164.126 1076.96 163.396 1077.84C162.673 1078.73 162.312 1080 162.312 1081.64C162.312 1083.24 162.673 1084.49 163.396 1085.37C164.126 1086.25 165.159 1086.69 166.494 1086.69C167.405 1086.69 168.199 1086.48 168.874 1086.07C169.557 1085.64 170.095 1085.04 170.488 1084.24L172.102 1084.87C171.6 1085.97 170.857 1086.83 169.876 1087.45C168.902 1088.05 167.798 1088.35 166.565 1088.35ZM161.699 1082.12V1080.67H171.419V1082.12H161.699ZM179.712 1088.34C178.22 1088.34 176.991 1088.02 176.024 1087.38C175.066 1086.73 174.477 1085.84 174.257 1084.69L176.024 1084.39C176.213 1085.12 176.641 1085.69 177.309 1086.13C177.984 1086.55 178.817 1086.76 179.806 1086.76C180.772 1086.76 181.534 1086.56 182.092 1086.16C182.649 1085.75 182.928 1085.2 182.928 1084.5C182.928 1084.11 182.838 1083.79 182.657 1083.55C182.485 1083.3 182.127 1083.06 181.585 1082.85C181.043 1082.64 180.234 1082.39 179.158 1082.1C178.004 1081.78 177.1 1081.47 176.449 1081.16C175.797 1080.84 175.333 1080.48 175.058 1080.07C174.783 1079.65 174.646 1079.15 174.646 1078.55C174.646 1077.83 174.85 1077.2 175.259 1076.65C175.667 1076.1 176.233 1075.68 176.955 1075.38C177.678 1075.08 178.518 1074.92 179.476 1074.92C180.435 1074.92 181.291 1075.08 182.045 1075.39C182.807 1075.7 183.419 1076.13 183.883 1076.69C184.346 1077.25 184.621 1077.9 184.707 1078.63L182.94 1078.95C182.822 1078.21 182.449 1077.62 181.821 1077.18C181.2 1076.74 180.411 1076.52 179.453 1076.5C178.55 1076.48 177.815 1076.65 177.25 1077.02C176.684 1077.38 176.401 1077.86 176.401 1078.47C176.401 1078.81 176.504 1079.1 176.708 1079.34C176.912 1079.58 177.281 1079.8 177.815 1080.01C178.357 1080.22 179.127 1080.46 180.124 1080.71C181.295 1081.01 182.214 1081.32 182.881 1081.65C183.549 1081.98 184.024 1082.37 184.307 1082.82C184.589 1083.26 184.731 1083.82 184.731 1084.48C184.731 1085.68 184.283 1086.63 183.388 1087.32C182.5 1088 181.275 1088.34 179.712 1088.34ZM192.092 1088.34C190.599 1088.34 189.37 1088.02 188.404 1087.38C187.446 1086.73 186.857 1085.84 186.637 1084.69L188.404 1084.39C188.593 1085.12 189.021 1085.69 189.688 1086.13C190.364 1086.55 191.196 1086.76 192.186 1086.76C193.152 1086.76 193.914 1086.56 194.471 1086.16C195.029 1085.75 195.308 1085.2 195.308 1084.5C195.308 1084.11 195.218 1083.79 195.037 1083.55C194.864 1083.3 194.507 1083.06 193.965 1082.85C193.423 1082.64 192.614 1082.39 191.538 1082.1C190.383 1081.78 189.48 1081.47 188.828 1081.16C188.176 1080.84 187.713 1080.48 187.438 1080.07C187.163 1079.65 187.026 1079.15 187.026 1078.55C187.026 1077.83 187.23 1077.2 187.638 1076.65C188.047 1076.1 188.612 1075.68 189.335 1075.38C190.057 1075.08 190.898 1074.92 191.856 1074.92C192.814 1074.92 193.67 1075.08 194.424 1075.39C195.186 1075.7 195.799 1076.13 196.262 1076.69C196.726 1077.25 197 1077.9 197.087 1078.63L195.32 1078.95C195.202 1078.21 194.829 1077.62 194.2 1077.18C193.58 1076.74 192.791 1076.52 191.832 1076.5C190.929 1076.48 190.195 1076.65 189.629 1077.02C189.064 1077.38 188.781 1077.86 188.781 1078.47C188.781 1078.81 188.883 1079.1 189.087 1079.34C189.292 1079.58 189.661 1079.8 190.195 1080.01C190.737 1080.22 191.506 1080.46 192.504 1080.71C193.674 1081.01 194.593 1081.32 195.261 1081.65C195.928 1081.98 196.404 1082.37 196.686 1082.82C196.969 1083.26 197.11 1083.82 197.11 1084.48C197.11 1085.68 196.663 1086.63 195.767 1087.32C194.88 1088 193.655 1088.34 192.092 1088.34Z" fill="#FCFCFC"/>
<path d="M165.75 1005.36H164.325C162.825 1005.36 161.4 1005.94 160.35 1006.99L157.144 1010.16C155.681 1011.61 153.3 1011.61 151.838 1010.16L148.631 1006.99C147.581 1005.94 146.138 1005.36 144.656 1005.36H143.25C140.138 1005.36 137.625 1002.87 137.625 999.794V979.337C137.625 976.262 140.138 973.769 143.25 973.769H165.75C168.863 973.769 171.375 976.262 171.375 979.337V999.794C171.375 1002.85 168.863 1005.36 165.75 1005.36Z" stroke="#ACC5F4" stroke-width="3.55894" stroke-miterlimit="10" stroke-linecap="round" stroke-linejoin="round"/>
<path d="M154.5 988.751C156.913 988.751 158.869 986.795 158.869 984.382C158.869 981.969 156.913 980.013 154.5 980.013C152.087 980.013 150.131 981.969 150.131 984.382C150.131 986.795 152.087 988.751 154.5 988.751Z" fill="#ACC5F4" stroke="#ACC5F4" stroke-width="3.55894" stroke-linecap="round" stroke-linejoin="round"/>
<path d="M162 999.362C162 995.987 158.644 993.25 154.5 993.25C150.356 993.25 147 995.987 147 999.362" fill="#ACC5F4"/>
<path d="M162 999.362C162 995.987 158.644 993.25 154.5 993.25C150.356 993.25 147 995.987 147 999.362" stroke="#ACC5F4" stroke-width="3.55894" stroke-linecap="round" stroke-linejoin="round"/>
<path d="M107.313 478.353C105.624 478.353 104.198 477.98 103.036 477.234C101.873 476.48 100.994 475.44 100.397 474.112C99.8 472.785 99.5015 471.253 99.5015 469.517C99.5015 467.782 99.8 466.25 100.397 464.923C100.994 463.595 101.873 462.559 103.036 461.812C104.198 461.058 105.624 460.681 107.313 460.681C109.284 460.681 110.894 461.188 112.143 462.201C113.392 463.207 114.248 464.558 114.711 466.254L112.944 466.713C112.583 465.37 111.935 464.306 111 463.521C110.065 462.735 108.836 462.343 107.313 462.343C105.985 462.343 104.882 462.645 104.002 463.25C103.122 463.855 102.459 464.699 102.011 465.783C101.571 466.859 101.343 468.104 101.328 469.517C101.32 470.931 101.536 472.176 101.976 473.252C102.423 474.328 103.091 475.172 103.978 475.785C104.874 476.39 105.985 476.692 107.313 476.692C108.836 476.692 110.065 476.3 111 475.514C111.935 474.721 112.583 473.657 112.944 472.321L114.711 472.781C114.248 474.477 113.392 475.832 112.143 476.845C110.894 477.851 109.284 478.353 107.313 478.353ZM120.951 478.353C119.993 478.353 119.188 478.181 118.536 477.835C117.892 477.489 117.409 477.03 117.087 476.457C116.765 475.883 116.604 475.259 116.604 474.583C116.604 473.892 116.741 473.303 117.016 472.816C117.299 472.321 117.68 471.917 118.159 471.603C118.646 471.289 119.207 471.049 119.844 470.884C120.488 470.727 121.198 470.59 121.976 470.472C122.761 470.346 123.527 470.24 124.273 470.154C125.027 470.059 125.687 469.969 126.253 469.883L125.64 470.26C125.664 469.003 125.42 468.072 124.91 467.467C124.399 466.863 123.512 466.56 122.247 466.56C121.375 466.56 120.637 466.757 120.032 467.149C119.435 467.542 119.015 468.163 118.772 469.011L117.087 468.516C117.377 467.377 117.963 466.494 118.842 465.865C119.722 465.237 120.865 464.923 122.271 464.923C123.433 464.923 124.419 465.143 125.228 465.582C126.045 466.014 126.622 466.643 126.96 467.467C127.117 467.837 127.219 468.249 127.266 468.705C127.313 469.16 127.337 469.623 127.337 470.095V478H125.793V474.807L126.241 474.996C125.809 476.087 125.137 476.92 124.226 477.493C123.315 478.067 122.223 478.353 120.951 478.353ZM121.151 476.857C121.96 476.857 122.667 476.712 123.272 476.421C123.877 476.131 124.364 475.734 124.733 475.231C125.102 474.721 125.342 474.148 125.452 473.511C125.546 473.103 125.597 472.655 125.605 472.168C125.613 471.673 125.616 471.304 125.616 471.061L126.276 471.402C125.687 471.481 125.047 471.56 124.356 471.638C123.673 471.717 122.997 471.807 122.329 471.909C121.67 472.011 121.073 472.133 120.539 472.274C120.177 472.376 119.828 472.522 119.49 472.71C119.152 472.891 118.874 473.134 118.654 473.441C118.442 473.747 118.336 474.128 118.336 474.583C118.336 474.953 118.426 475.31 118.607 475.656C118.795 476.001 119.094 476.288 119.502 476.516C119.918 476.743 120.468 476.857 121.151 476.857ZM139.593 478V471.508C139.593 470.802 139.526 470.154 139.393 469.565C139.259 468.968 139.043 468.449 138.745 468.009C138.454 467.562 138.073 467.216 137.602 466.973C137.139 466.729 136.573 466.607 135.905 466.607C135.293 466.607 134.751 466.713 134.28 466.926C133.816 467.138 133.423 467.444 133.101 467.845C132.787 468.237 132.548 468.716 132.383 469.282C132.218 469.847 132.135 470.491 132.135 471.214L130.91 470.943C130.91 469.639 131.138 468.544 131.593 467.656C132.049 466.768 132.677 466.097 133.478 465.641C134.28 465.186 135.199 464.958 136.235 464.958C136.997 464.958 137.661 465.076 138.226 465.312C138.8 465.547 139.283 465.865 139.675 466.266C140.076 466.666 140.398 467.126 140.642 467.644C140.885 468.155 141.062 468.701 141.172 469.282C141.282 469.855 141.337 470.429 141.337 471.002V478H139.593ZM130.392 478V465.276H131.959V468.41H132.135V478H130.392ZM149.261 478.353C148.075 478.353 147.062 478.059 146.222 477.47C145.381 476.873 144.737 476.068 144.289 475.055C143.842 474.041 143.618 472.899 143.618 471.626C143.618 470.362 143.838 469.223 144.278 468.21C144.725 467.197 145.366 466.395 146.198 465.806C147.031 465.217 148.028 464.923 149.191 464.923C150.384 464.923 151.39 465.213 152.207 465.795C153.023 466.376 153.64 467.173 154.056 468.186C154.48 469.191 154.692 470.338 154.692 471.626C154.692 472.891 154.484 474.034 154.068 475.055C153.652 476.068 153.039 476.873 152.23 477.47C151.421 478.059 150.431 478.353 149.261 478.353ZM149.438 476.739C150.341 476.739 151.087 476.519 151.676 476.08C152.265 475.64 152.705 475.035 152.996 474.265C153.286 473.488 153.432 472.608 153.432 471.626C153.432 470.629 153.286 469.749 152.996 468.987C152.705 468.218 152.265 467.617 151.676 467.185C151.095 466.753 150.361 466.537 149.473 466.537C148.562 466.537 147.808 466.761 147.211 467.208C146.614 467.656 146.171 468.265 145.88 469.034C145.597 469.804 145.456 470.668 145.456 471.626C145.456 472.592 145.601 473.464 145.892 474.242C146.19 475.011 146.634 475.62 147.223 476.068C147.812 476.516 148.55 476.739 149.438 476.739ZM153.432 478V468.422H153.243V461.035H154.987V478H153.432ZM158.528 462.861V460.917H160.26V462.861H158.528ZM158.528 478V465.276H160.26V478H158.528ZM168.728 478.353C167.542 478.353 166.529 478.059 165.688 477.47C164.848 476.873 164.204 476.068 163.756 475.055C163.309 474.041 163.085 472.899 163.085 471.626C163.085 470.362 163.305 469.223 163.745 468.21C164.192 467.197 164.832 466.395 165.665 465.806C166.497 465.217 167.495 464.923 168.657 464.923C169.851 464.923 170.856 465.213 171.673 465.795C172.49 466.376 173.107 467.173 173.523 468.186C173.947 469.191 174.159 470.338 174.159 471.626C174.159 472.891 173.951 474.034 173.535 475.055C173.119 476.068 172.506 476.873 171.697 477.47C170.888 478.059 169.898 478.353 168.728 478.353ZM168.905 476.739C169.808 476.739 170.554 476.519 171.143 476.08C171.732 475.64 172.172 475.035 172.463 474.265C172.753 473.488 172.899 472.608 172.899 471.626C172.899 470.629 172.753 469.749 172.463 468.987C172.172 468.218 171.732 467.617 171.143 467.185C170.562 466.753 169.828 466.537 168.94 466.537C168.029 466.537 167.275 466.761 166.678 467.208C166.081 467.656 165.637 468.265 165.347 469.034C165.064 469.804 164.923 470.668 164.923 471.626C164.923 472.592 165.068 473.464 165.359 474.242C165.657 475.011 166.101 475.62 166.69 476.068C167.279 476.516 168.017 476.739 168.905 476.739ZM172.899 478V468.422H172.71V461.035H174.454V478H172.899ZM181.399 478.353C180.441 478.353 179.636 478.181 178.984 477.835C178.34 477.489 177.857 477.03 177.535 476.457C177.213 475.883 177.052 475.259 177.052 474.583C177.052 473.892 177.19 473.303 177.464 472.816C177.747 472.321 178.128 471.917 178.607 471.603C179.094 471.289 179.656 471.049 180.292 470.884C180.936 470.727 181.647 470.59 182.424 470.472C183.21 470.346 183.976 470.24 184.722 470.154C185.476 470.059 186.135 469.969 186.701 469.883L186.088 470.26C186.112 469.003 185.868 468.072 185.358 467.467C184.847 466.863 183.96 466.56 182.695 466.56C181.823 466.56 181.085 466.757 180.48 467.149C179.884 467.542 179.463 468.163 179.22 469.011L177.535 468.516C177.826 467.377 178.411 466.494 179.291 465.865C180.17 465.237 181.313 464.923 182.719 464.923C183.881 464.923 184.867 465.143 185.676 465.582C186.493 466.014 187.07 466.643 187.408 467.467C187.565 467.837 187.667 468.249 187.714 468.705C187.761 469.16 187.785 469.623 187.785 470.095V478H186.241V474.807L186.689 474.996C186.257 476.087 185.586 476.92 184.675 477.493C183.763 478.067 182.672 478.353 181.399 478.353ZM181.6 476.857C182.409 476.857 183.116 476.712 183.72 476.421C184.325 476.131 184.812 475.734 185.181 475.231C185.55 474.721 185.79 474.148 185.9 473.511C185.994 473.103 186.045 472.655 186.053 472.168C186.061 471.673 186.065 471.304 186.065 471.061L186.725 471.402C186.135 471.481 185.495 471.56 184.804 471.638C184.121 471.717 183.445 471.807 182.778 471.909C182.118 472.011 181.521 472.133 180.987 472.274C180.626 472.376 180.276 472.522 179.938 472.71C179.601 472.891 179.322 473.134 179.102 473.441C178.89 473.747 178.784 474.128 178.784 474.583C178.784 474.953 178.874 475.31 179.055 475.656C179.243 476.001 179.542 476.288 179.95 476.516C180.367 476.743 180.916 476.857 181.6 476.857ZM197.779 478C197.065 478.149 196.358 478.208 195.659 478.177C194.967 478.145 194.347 477.996 193.797 477.729C193.255 477.462 192.843 477.046 192.56 476.48C192.332 476.009 192.207 475.534 192.183 475.055C192.167 474.568 192.16 474.014 192.16 473.394V461.742H193.88V473.323C193.88 473.857 193.884 474.305 193.891 474.666C193.907 475.019 193.99 475.333 194.139 475.608C194.422 476.135 194.869 476.449 195.482 476.551C196.102 476.653 196.868 476.629 197.779 476.48V478ZM189.438 466.761V465.276H197.779V466.761H189.438ZM205.21 478.353C203.969 478.353 202.893 478.079 201.982 477.529C201.079 476.979 200.376 476.205 199.873 475.208C199.37 474.21 199.119 473.04 199.119 471.697C199.119 470.307 199.366 469.105 199.861 468.092C200.356 467.079 201.051 466.297 201.947 465.747C202.85 465.198 203.914 464.923 205.139 464.923C206.396 464.923 207.468 465.213 208.356 465.795C209.243 466.368 209.915 467.193 210.37 468.269C210.826 469.345 211.034 470.629 210.995 472.121H209.227V471.508C209.196 469.859 208.839 468.614 208.155 467.774C207.48 466.933 206.49 466.513 205.186 466.513C203.82 466.513 202.771 466.957 202.041 467.845C201.318 468.732 200.957 469.997 200.957 471.638C200.957 473.24 201.318 474.485 202.041 475.373C202.771 476.252 203.804 476.692 205.139 476.692C206.05 476.692 206.844 476.484 207.519 476.068C208.202 475.644 208.74 475.035 209.133 474.242L210.747 474.866C210.245 475.974 209.502 476.834 208.521 477.446C207.547 478.051 206.443 478.353 205.21 478.353ZM200.344 472.121V470.672H210.064V472.121H200.344ZM107.456 497.861V495.917H109.188V497.861H107.456ZM107.456 513L107.456 500.276H109.188V513H107.456ZM121.909 513V506.508C121.909 505.802 121.843 505.154 121.709 504.565C121.576 503.968 121.36 503.449 121.061 503.009C120.771 502.562 120.39 502.216 119.918 501.973C119.455 501.729 118.89 501.607 118.222 501.607C117.609 501.607 117.067 501.713 116.596 501.926C116.133 502.138 115.74 502.444 115.418 502.845C115.104 503.237 114.864 503.716 114.699 504.282C114.534 504.847 114.452 505.491 114.452 506.214L113.227 505.943C113.227 504.639 113.454 503.544 113.91 502.656C114.366 501.768 114.994 501.097 115.795 500.641C116.596 500.186 117.515 499.958 118.552 499.958C119.314 499.958 119.977 500.076 120.543 500.312C121.116 500.547 121.599 500.865 121.992 501.266C122.393 501.666 122.715 502.126 122.958 502.644C123.202 503.155 123.378 503.701 123.488 504.282C123.598 504.855 123.653 505.429 123.653 506.002V513H121.909ZM112.708 513L112.708 500.276H114.275V503.41H114.452V513H112.708ZM133.638 513C132.923 513.149 132.216 513.208 131.517 513.177C130.826 513.145 130.205 512.996 129.656 512.729C129.114 512.462 128.701 512.046 128.419 511.48C128.191 511.009 128.065 510.534 128.042 510.055C128.026 509.568 128.018 509.014 128.018 508.394V496.742H129.738V508.323C129.738 508.857 129.742 509.305 129.75 509.666C129.766 510.019 129.848 510.333 129.997 510.608C130.28 511.135 130.728 511.449 131.34 511.551C131.961 511.653 132.727 511.629 133.638 511.48V513ZM125.297 501.761V500.276H133.638V501.761H125.297ZM141.068 513.353C139.828 513.353 138.751 513.079 137.84 512.529C136.937 511.979 136.234 511.205 135.732 510.208C135.229 509.21 134.978 508.04 134.978 506.697C134.978 505.307 135.225 504.105 135.72 503.092C136.215 502.079 136.91 501.297 137.805 500.747C138.708 500.198 139.773 499.923 140.998 499.923C142.254 499.923 143.327 500.213 144.214 500.795C145.102 501.368 145.773 502.193 146.229 503.269C146.684 504.345 146.892 505.629 146.853 507.121H145.086V506.508C145.055 504.859 144.697 503.614 144.014 502.774C143.338 501.933 142.349 501.513 141.045 501.513C139.678 501.513 138.63 501.957 137.899 502.845C137.177 503.732 136.815 504.997 136.815 506.638C136.815 508.24 137.177 509.485 137.899 510.373C138.63 511.252 139.663 511.692 140.998 511.692C141.909 511.692 142.702 511.484 143.378 511.068C144.061 510.644 144.599 510.035 144.992 509.242L146.606 509.866C146.103 510.974 145.361 511.834 144.379 512.446C143.405 513.051 142.302 513.353 141.068 513.353ZM136.203 507.121V505.672H145.922V507.121H136.203ZM149.468 513V500.276H151.023V503.339L150.716 502.939C150.858 502.562 151.042 502.216 151.27 501.902C151.498 501.58 151.745 501.317 152.012 501.113C152.342 500.822 152.727 500.602 153.167 500.453C153.607 500.296 154.051 500.205 154.498 500.182C154.946 500.151 155.354 500.182 155.724 500.276V501.902C155.26 501.784 154.754 501.757 154.204 501.82C153.654 501.882 153.147 502.102 152.684 502.479C152.26 502.809 151.942 503.206 151.73 503.669C151.518 504.125 151.376 504.612 151.306 505.13C151.235 505.641 151.2 506.147 151.2 506.65V513H149.468ZM161.399 513L156.78 500.276H158.536L162.294 510.738L166.029 500.276H167.808L163.189 513H161.399ZM170.16 497.861V495.917H171.891V497.861H170.16ZM170.16 513V500.276H171.891V513H170.16ZM180.807 513.353C179.566 513.353 178.49 513.079 177.579 512.529C176.676 511.979 175.973 511.205 175.47 510.208C174.968 509.21 174.716 508.04 174.716 506.697C174.716 505.307 174.964 504.105 175.459 503.092C175.954 502.079 176.649 501.297 177.544 500.747C178.447 500.198 179.511 499.923 180.737 499.923C181.993 499.923 183.066 500.213 183.953 500.795C184.841 501.368 185.512 502.193 185.968 503.269C186.423 504.345 186.631 505.629 186.592 507.121H184.825V506.508C184.793 504.859 184.436 503.614 183.753 502.774C183.077 501.933 182.088 501.513 180.784 501.513C179.417 501.513 178.369 501.957 177.638 502.845C176.916 503.732 176.554 504.997 176.554 506.638C176.554 508.24 176.916 509.485 177.638 510.373C178.369 511.252 179.402 511.692 180.737 511.692C181.648 511.692 182.441 511.484 183.117 511.068C183.8 510.644 184.338 510.035 184.731 509.242L186.345 509.866C185.842 510.974 185.1 511.834 184.118 512.446C183.144 513.051 182.041 513.353 180.807 513.353ZM175.942 507.121V505.672H185.661V507.121H175.942ZM191.456 513L187.568 500.264L189.3 500.276L192.316 510.161L195.344 500.276H196.923L199.95 510.161L202.99 500.276H204.71L200.822 513H199.314L196.133 502.868L192.964 513H191.456Z" fill="#FCFCFC"/>
<path d="M148.938 414.5V405.537" stroke="#ACC5F4" stroke-width="3.55894" stroke-miterlimit="10" stroke-linecap="round" stroke-linejoin="round"/>
<path d="M148.938 433.25V427.625" stroke="#ACC5F4" stroke-width="3.55894" stroke-miterlimit="10" stroke-linecap="round" stroke-linejoin="round"/>
<path d="M162.062 433.25V405.537" stroke="#ACC5F4" stroke-width="3.55894" stroke-miterlimit="10" stroke-linecap="round" stroke-linejoin="round"/>
<path d="M151.938 401.937C151.938 402.856 151.563 403.719 150.944 404.319C150.344 404.938 149.5 405.312 148.563 405.312H144.344C144.869 404.619 145.188 403.719 145.188 402.781V401.094C145.188 400.156 144.869 399.256 144.344 398.562H148.563C150.419 398.563 151.938 400.081 151.938 401.937Z" fill="#ACC5F4" stroke="#ACC5F4" stroke-width="3.55894" stroke-miterlimit="10" stroke-linecap="round" stroke-linejoin="round"/>
<path d="M145.188 401.094V402.781C145.188 403.719 144.869 404.619 144.344 405.312C142.919 407.206 139.994 407.844 137.275 405.425C136.975 405.162 136.75 404.6 136.75 404.188V399.8C136.75 399.444 136.938 398.919 137.181 398.656C139.544 396.181 142.394 396.538 143.95 398.094C144.081 398.225 144.212 398.375 144.344 398.544C144.869 399.256 145.188 400.156 145.188 401.094Z" fill="#ACC5F4" stroke="#ACC5F4" stroke-width="3.55894" stroke-miterlimit="10" stroke-linecap="round" stroke-linejoin="round"/>
<path d="M159.063 401.937C159.063 402.856 159.438 403.719 160.057 404.319C160.657 404.938 161.501 405.312 162.438 405.312H166.657C166.132 404.619 165.813 403.719 165.813 402.781V401.094C165.813 400.156 166.132 399.256 166.657 398.562H162.438C160.582 398.563 159.063 400.081 159.063 401.937Z" fill="#ACC5F4" stroke="#ACC5F4" stroke-width="3.55894" stroke-miterlimit="10" stroke-linecap="round" stroke-linejoin="round"/>
<path d="M165.812 401.094V402.781C165.812 403.719 166.131 404.619 166.656 405.312C168.081 407.206 171.006 407.844 173.725 405.425C174.025 405.162 174.25 404.6 174.25 404.188V399.8C174.25 399.444 174.062 398.919 173.819 398.656C171.456 396.181 168.606 396.538 167.05 398.094C166.919 398.225 166.788 398.375 166.656 398.544C166.131 399.256 165.812 400.156 165.812 401.094Z" fill="#ACC5F4" stroke="#ACC5F4" stroke-width="3.55894" stroke-miterlimit="10" stroke-linecap="round" stroke-linejoin="round"/>
<path d="M151.75 417.312V424.812C151.75 426.369 150.494 427.625 148.937 427.625C147.381 427.625 146.125 426.369 146.125 424.812V417.312C146.125 415.756 147.381 414.5 148.937 414.5C150.494 414.5 151.75 415.756 151.75 417.312Z" fill="#ACC5F4" stroke="#ACC5F4" stroke-width="3.55894" stroke-miterlimit="10" stroke-linecap="round" stroke-linejoin="round"/>
</svg>
