<svg width="1253" height="238" viewBox="0 0 1253 238" fill="none" xmlns="http://www.w3.org/2000/svg">
<path d="M45.6642 219.844V222.191H48.0114V219.844H45.6642ZM45.6642 46.6335V44.2864H43.3171V46.6335H45.6642ZM300.738 46.6335H303.085V44.2864H300.738V46.6335ZM300.738 219.844H298.391V222.191H300.738V219.844ZM353.321 219.844V222.191H355.668V219.844H353.321ZM353.321 46.6335V44.2864H350.974V46.6335H353.321ZM596.864 46.6335H599.211V44.2864H596.864V46.6335ZM596.864 219.844H594.516V222.191H596.864V219.844ZM655.904 219.844V222.191H658.251V219.844H655.904ZM655.904 46.6335V44.2864H653.557V46.6335H655.904ZM899.447 46.6335H901.794V44.2864H899.447V46.6335ZM899.447 219.844H897.099V222.191H899.447V219.844ZM958.948 219.844V222.191H961.296V219.844H958.948ZM958.948 46.6335V44.2864H956.601V46.6335H958.948ZM1199.26 46.6335H1201.61V44.2864H1199.26V46.6335ZM1199.26 219.844H1196.91V222.191H1199.26V219.844ZM1251.66 221.504C1252.58 220.587 1252.58 219.101 1251.66 218.184L1236.72 203.247C1235.81 202.331 1234.32 202.331 1233.4 203.247C1232.49 204.164 1232.49 205.65 1233.4 206.567L1246.68 219.844L1233.4 233.122C1232.49 234.038 1232.49 235.524 1233.4 236.441C1234.32 237.358 1235.81 237.358 1236.72 236.441L1251.66 221.504ZM0 222.191H45.6642V217.497H0V222.191ZM48.0114 219.844V46.6335H43.3171V219.844H48.0114ZM45.6642 48.9807H300.738V44.2864H45.6642V48.9807ZM298.391 46.6335V219.844H303.085V46.6335H298.391ZM300.738 222.191H353.321V217.497H300.738V222.191ZM355.668 219.844V46.6335H350.974V219.844H355.668ZM353.321 48.9807H596.864V44.2864H353.321V48.9807ZM594.516 46.6335V219.844H599.211V46.6335H594.516ZM596.864 222.191H655.904V217.497H596.864V222.191ZM658.251 219.844V46.6335H653.557V219.844H658.251ZM655.904 48.9807H899.447V44.2864H655.904V48.9807ZM897.099 46.6335V219.844H901.794V46.6335H897.099ZM899.447 222.191H958.948V217.497H899.447V222.191ZM961.296 219.844V46.6335H956.601V219.844H961.296ZM958.948 48.9807H1199.26V44.2864H958.948V48.9807ZM1196.91 46.6335V219.844H1201.61V46.6335H1196.91ZM1199.26 222.191H1250V217.497H1199.26V222.191Z" fill="#ACC5F4"/>
<rect x="124.395" y="1" width="95.3114" height="90.3156" rx="45.1578" fill="#0544B8"/>
<path d="M170.762 64.6577V35.349L164.039 39.4577V32.834L170.762 28.8H176.888V64.6577H170.762Z" fill="#FCFCFC"/>
<rect x="124.395" y="1" width="95.3114" height="90.3156" rx="45.1578" stroke="#F1F6FF" stroke-width="2"/>
<rect x="420.342" y="1" width="95.3114" height="90.3156" rx="45.1578" fill="#0544B8"/>
<path d="M455.488 64.6079V59.3787L470.827 45.7079C472.022 44.6455 472.852 43.6411 473.317 42.6949C473.782 41.7486 474.014 40.8356 474.014 39.9557C474.014 38.7605 473.757 37.698 473.242 36.7684C472.728 35.8221 472.014 35.0751 471.101 34.5273C470.204 33.9794 469.167 33.7055 467.988 33.7055C466.743 33.7055 465.639 33.996 464.676 34.5771C463.73 35.1415 462.991 35.8968 462.46 36.8431C461.929 37.7893 461.68 38.8103 461.713 39.9059H455.537C455.537 37.5154 456.069 35.432 457.131 33.6557C458.21 31.8794 459.688 30.5016 461.564 29.5221C463.456 28.5427 465.639 28.053 468.113 28.053C470.403 28.053 472.462 28.5676 474.288 29.5968C476.114 30.6095 477.55 32.0205 478.596 33.83C479.642 35.6229 480.165 37.6897 480.165 40.0304C480.165 41.7403 479.932 43.1763 479.468 44.3383C479.003 45.5004 478.305 46.5711 477.376 47.5506C476.463 48.53 475.326 49.6174 473.964 50.8126L463.083 60.4494L462.535 58.9553H480.165V64.6079H455.488Z" fill="#FCFCFC"/>
<rect x="420.342" y="1" width="95.3114" height="90.3156" rx="45.1578" stroke="#F1F6FF" stroke-width="2"/>
<rect x="726.321" y="1" width="95.3114" height="90.3156" rx="45.1578" fill="#0544B8"/>
<path d="M773.222 65.33C771.429 65.33 769.736 64.9814 768.142 64.2842C766.549 63.587 765.163 62.5992 763.984 61.321C762.822 60.0427 761.984 58.532 761.469 56.7889L767.271 55.2202C767.686 56.6478 768.441 57.7518 769.537 58.532C770.649 59.2957 771.869 59.6692 773.197 59.6526C774.376 59.6526 775.43 59.3787 776.36 58.8308C777.289 58.283 778.02 57.5443 778.551 56.6146C779.082 55.6684 779.348 54.6142 779.348 53.4522C779.348 51.6759 778.775 50.1901 777.63 48.9949C776.484 47.7996 775.007 47.202 773.197 47.202C772.65 47.202 772.11 47.2767 771.579 47.4261C771.064 47.5755 770.566 47.783 770.085 48.0486L767.346 43.3174L779.398 33.0083L779.921 34.4526H762.863V28.8H784.851V34.4775L775.165 43.7905L775.115 42.0225C777.289 42.1719 779.14 42.7779 780.668 43.8403C782.212 44.9028 783.39 46.2723 784.204 47.949C785.034 49.6257 785.449 51.4601 785.449 53.4522C785.449 55.7099 784.893 57.7352 783.78 59.5281C782.685 61.321 781.207 62.7403 779.348 63.7862C777.505 64.8154 775.463 65.33 773.222 65.33Z" fill="#FCFCFC"/>
<rect x="726.321" y="1" width="95.3114" height="90.3156" rx="45.1578" stroke="#F1F6FF" stroke-width="2"/>
<rect x="1030.29" y="1" width="95.3114" height="90.3156" rx="45.1578" fill="#0544B8"/>
<path d="M1080.06 61.6577V56.9457H1067.43V52.491L1076.56 33.1479H1082L1072.87 52.491H1080.06V45.0666H1084.89V52.491H1087.56V56.9457H1084.89V61.6577H1080.06Z" fill="#FCFCFC"/>
<rect x="1030.29" y="1" width="95.3114" height="90.3156" rx="45.1578" stroke="#F1F6FF" stroke-width="2"/>
<path d="M111.786 192.597L117.63 175.632H119.927L125.771 192.597H123.968L118.419 176.598H119.102L113.589 192.597H111.786ZM114.39 188.485V186.859H123.155V188.485H114.39ZM133.612 192.95C132.442 192.95 131.452 192.656 130.643 192.067C129.834 191.47 129.221 190.665 128.805 189.652C128.389 188.631 128.181 187.488 128.181 186.223C128.181 184.935 128.389 183.788 128.805 182.783C129.229 181.77 129.85 180.973 130.667 180.391C131.483 179.81 132.489 179.52 133.683 179.52C134.845 179.52 135.842 179.814 136.675 180.403C137.508 180.992 138.144 181.793 138.584 182.807C139.031 183.82 139.255 184.959 139.255 186.223C139.255 187.496 139.031 188.638 138.584 189.652C138.136 190.665 137.492 191.47 136.651 192.067C135.811 192.656 134.798 192.95 133.612 192.95ZM127.886 198.252V179.873H129.441V189.451H129.63V198.252H127.886ZM133.435 191.336C134.323 191.336 135.061 191.112 135.65 190.665C136.239 190.217 136.679 189.608 136.97 188.839C137.268 188.061 137.417 187.189 137.417 186.223C137.417 185.265 137.272 184.401 136.981 183.631C136.691 182.862 136.247 182.253 135.65 181.805C135.061 181.358 134.311 181.134 133.4 181.134C132.512 181.134 131.774 181.35 131.185 181.782C130.604 182.214 130.168 182.814 129.877 183.584C129.587 184.346 129.441 185.226 129.441 186.223C129.441 187.205 129.587 188.085 129.877 188.862C130.168 189.632 130.608 190.237 131.197 190.677C131.786 191.116 132.532 191.336 133.435 191.336ZM147.556 192.95C146.386 192.95 145.396 192.656 144.587 192.067C143.778 191.47 143.166 190.665 142.749 189.652C142.333 188.631 142.125 187.488 142.125 186.223C142.125 184.935 142.333 183.788 142.749 182.783C143.174 181.77 143.794 180.973 144.611 180.391C145.428 179.81 146.433 179.52 147.627 179.52C148.789 179.52 149.787 179.814 150.619 180.403C151.452 180.992 152.088 181.793 152.528 182.807C152.976 183.82 153.199 184.959 153.199 186.223C153.199 187.496 152.976 188.638 152.528 189.652C152.08 190.665 151.436 191.47 150.596 192.067C149.755 192.656 148.742 192.95 147.556 192.95ZM141.83 198.252V179.873H143.386V189.451H143.574V198.252H141.83ZM147.379 191.336C148.267 191.336 149.005 191.112 149.594 190.665C150.183 190.217 150.623 189.608 150.914 188.839C151.212 188.061 151.362 187.189 151.362 186.223C151.362 185.265 151.216 184.401 150.926 183.631C150.635 182.862 150.191 182.253 149.594 181.805C149.005 181.358 148.255 181.134 147.344 181.134C146.457 181.134 145.718 181.35 145.129 181.782C144.548 182.214 144.112 182.814 143.822 183.584C143.531 184.346 143.386 185.226 143.386 186.223C143.386 187.205 143.531 188.085 143.822 188.862C144.112 189.632 144.552 190.237 145.141 190.677C145.73 191.116 146.476 191.336 147.379 191.336ZM156.022 192.597V175.278H157.754V192.597H156.022ZM161.522 177.458V175.514H163.254V177.458H161.522ZM161.522 192.597V179.873H163.254V192.597H161.522ZM172.064 192.95C170.783 192.95 169.699 192.664 168.812 192.09C167.924 191.517 167.249 190.728 166.786 189.722C166.33 188.709 166.094 187.547 166.079 186.235C166.094 184.9 166.338 183.73 166.809 182.724C167.28 181.711 167.96 180.926 168.847 180.368C169.735 179.802 170.811 179.52 172.075 179.52C173.363 179.52 174.483 179.834 175.433 180.462C176.391 181.09 177.047 181.951 177.4 183.042L175.704 183.584C175.406 182.822 174.93 182.233 174.278 181.817C173.634 181.393 172.896 181.181 172.064 181.181C171.129 181.181 170.355 181.397 169.743 181.829C169.13 182.253 168.674 182.846 168.376 183.608C168.078 184.37 167.924 185.245 167.917 186.235C167.932 187.759 168.286 188.984 168.977 189.911C169.668 190.83 170.697 191.289 172.064 191.289C172.928 191.289 173.662 191.093 174.267 190.7C174.879 190.3 175.343 189.718 175.657 188.956L177.4 189.475C176.929 190.606 176.238 191.47 175.327 192.067C174.416 192.656 173.328 192.95 172.064 192.95ZM183.404 192.95C182.446 192.95 181.641 192.778 180.989 192.432C180.345 192.086 179.862 191.627 179.54 191.054C179.218 190.48 179.057 189.856 179.057 189.18C179.057 188.489 179.194 187.9 179.469 187.413C179.752 186.918 180.133 186.514 180.612 186.2C181.099 185.885 181.66 185.646 182.296 185.481C182.94 185.324 183.651 185.186 184.429 185.069C185.214 184.943 185.98 184.837 186.726 184.751C187.48 184.656 188.14 184.566 188.705 184.48L188.093 184.857C188.116 183.6 187.873 182.669 187.362 182.064C186.852 181.46 185.964 181.157 184.7 181.157C183.828 181.157 183.09 181.354 182.485 181.746C181.888 182.139 181.468 182.76 181.224 183.608L179.54 183.113C179.83 181.974 180.415 181.09 181.295 180.462C182.175 179.834 183.317 179.52 184.723 179.52C185.886 179.52 186.871 179.74 187.68 180.179C188.497 180.611 189.075 181.24 189.412 182.064C189.569 182.434 189.671 182.846 189.719 183.301C189.766 183.757 189.789 184.22 189.789 184.692V192.597H188.246V189.404L188.694 189.593C188.262 190.684 187.59 191.517 186.679 192.09C185.768 192.664 184.676 192.95 183.404 192.95ZM183.604 191.454C184.413 191.454 185.12 191.309 185.725 191.018C186.33 190.728 186.816 190.331 187.186 189.828C187.555 189.318 187.794 188.744 187.904 188.108C187.999 187.7 188.05 187.252 188.057 186.765C188.065 186.27 188.069 185.901 188.069 185.658L188.729 185.999C188.14 186.078 187.5 186.156 186.809 186.235C186.125 186.314 185.45 186.404 184.782 186.506C184.122 186.608 183.526 186.73 182.991 186.871C182.63 186.973 182.281 187.119 181.943 187.307C181.605 187.488 181.326 187.731 181.106 188.038C180.894 188.344 180.788 188.725 180.788 189.18C180.788 189.549 180.879 189.907 181.059 190.252C181.248 190.598 181.546 190.885 181.955 191.112C182.371 191.34 182.921 191.454 183.604 191.454ZM199.784 192.597C199.069 192.746 198.362 192.805 197.663 192.774C196.972 192.742 196.351 192.593 195.802 192.326C195.26 192.059 194.847 191.643 194.565 191.077C194.337 190.606 194.211 190.131 194.188 189.652C194.172 189.165 194.164 188.611 194.164 187.99V176.339H195.884V187.92C195.884 188.454 195.888 188.902 195.896 189.263C195.912 189.616 195.994 189.93 196.143 190.205C196.426 190.732 196.874 191.046 197.486 191.148C198.107 191.25 198.873 191.226 199.784 191.077V192.597ZM191.443 181.358V179.873H199.784V181.358H191.443ZM202.526 177.458V175.514H204.258V177.458H202.526ZM202.526 192.597V179.873H204.258V192.597H202.526ZM213.103 192.95C211.839 192.95 210.759 192.664 209.864 192.09C208.968 191.517 208.281 190.724 207.802 189.71C207.323 188.697 207.083 187.535 207.083 186.223C207.083 184.888 207.327 183.718 207.814 182.712C208.301 181.707 208.992 180.926 209.887 180.368C210.79 179.802 211.862 179.52 213.103 179.52C214.376 179.52 215.46 179.806 216.355 180.38C217.258 180.945 217.946 181.735 218.417 182.748C218.896 183.753 219.135 184.912 219.135 186.223C219.135 187.558 218.896 188.733 218.417 189.746C217.938 190.751 217.247 191.537 216.343 192.102C215.44 192.668 214.36 192.95 213.103 192.95ZM213.103 191.289C214.517 191.289 215.57 190.822 216.261 189.887C216.952 188.945 217.298 187.723 217.298 186.223C217.298 184.684 216.948 183.459 216.249 182.547C215.558 181.636 214.509 181.181 213.103 181.181C212.153 181.181 211.368 181.397 210.747 181.829C210.135 182.253 209.675 182.846 209.369 183.608C209.07 184.362 208.921 185.234 208.921 186.223C208.921 187.755 209.274 188.984 209.981 189.911C210.688 190.83 211.729 191.289 213.103 191.289ZM230.924 192.597V186.105C230.924 185.399 230.857 184.751 230.723 184.161C230.59 183.565 230.374 183.046 230.076 182.606C229.785 182.159 229.404 181.813 228.933 181.57C228.469 181.326 227.904 181.204 227.236 181.204C226.624 181.204 226.082 181.31 225.61 181.522C225.147 181.735 224.754 182.041 224.432 182.441C224.118 182.834 223.879 183.313 223.714 183.879C223.549 184.444 223.466 185.088 223.466 185.811L222.241 185.54C222.241 184.236 222.469 183.14 222.924 182.253C223.38 181.365 224.008 180.694 224.809 180.238C225.61 179.783 226.529 179.555 227.566 179.555C228.328 179.555 228.992 179.673 229.557 179.908C230.131 180.144 230.614 180.462 231.006 180.863C231.407 181.263 231.729 181.723 231.972 182.241C232.216 182.752 232.393 183.298 232.502 183.879C232.612 184.452 232.667 185.025 232.667 185.599V192.597H230.924ZM221.723 192.597V179.873H223.289V183.007H223.466V192.597H221.723ZM139.116 227.597V214.873H140.671V217.936L140.364 217.536C140.506 217.159 140.69 216.813 140.918 216.499C141.146 216.177 141.393 215.914 141.66 215.71C141.99 215.419 142.375 215.199 142.815 215.05C143.255 214.893 143.698 214.802 144.146 214.779C144.594 214.747 145.002 214.779 145.371 214.873V216.499C144.908 216.381 144.401 216.354 143.852 216.416C143.302 216.479 142.795 216.699 142.332 217.076C141.908 217.406 141.59 217.803 141.378 218.266C141.165 218.722 141.024 219.209 140.953 219.727C140.883 220.238 140.847 220.744 140.847 221.247V227.597H139.116ZM152.76 227.95C151.519 227.95 150.443 227.675 149.532 227.126C148.629 226.576 147.926 225.802 147.423 224.805C146.921 223.807 146.669 222.637 146.669 221.294C146.669 219.904 146.917 218.702 147.412 217.689C147.906 216.676 148.602 215.894 149.497 215.344C150.4 214.795 151.464 214.52 152.69 214.52C153.946 214.52 155.018 214.81 155.906 215.391C156.793 215.965 157.465 216.79 157.921 217.866C158.376 218.942 158.584 220.226 158.545 221.718H156.778V221.105C156.746 219.456 156.389 218.211 155.706 217.371C155.03 216.53 154.041 216.11 152.737 216.11C151.37 216.11 150.322 216.554 149.591 217.441C148.869 218.329 148.507 219.593 148.507 221.235C148.507 222.837 148.869 224.082 149.591 224.97C150.322 225.849 151.354 226.289 152.69 226.289C153.601 226.289 154.394 226.081 155.069 225.665C155.753 225.241 156.291 224.632 156.684 223.839L158.298 224.463C157.795 225.571 157.053 226.431 156.071 227.043C155.097 227.648 153.993 227.95 152.76 227.95ZM147.895 221.718V220.269H157.614V221.718H147.895ZM164.139 227.597L159.521 214.873H161.277L165.035 225.335L168.769 214.873H170.548L165.93 227.597H164.139ZM172.9 212.458V210.514H174.632V212.458H172.9ZM172.9 227.597V214.873H174.632V227.597H172.9ZM183.548 227.95C182.307 227.95 181.231 227.675 180.32 227.126C179.417 226.576 178.714 225.802 178.211 224.805C177.709 223.807 177.457 222.637 177.457 221.294C177.457 219.904 177.705 218.702 178.2 217.689C178.694 216.676 179.389 215.894 180.285 215.344C181.188 214.795 182.252 214.52 183.478 214.52C184.734 214.52 185.806 214.81 186.694 215.391C187.581 215.965 188.253 216.79 188.708 217.866C189.164 218.942 189.372 220.226 189.333 221.718H187.566V221.105C187.534 219.456 187.177 218.211 186.494 217.371C185.818 216.53 184.828 216.11 183.525 216.11C182.158 216.11 181.109 216.554 180.379 217.441C179.656 218.329 179.295 219.593 179.295 221.235C179.295 222.837 179.656 224.082 180.379 224.97C181.109 225.849 182.142 226.289 183.478 226.289C184.389 226.289 185.182 226.081 185.857 225.665C186.541 225.241 187.079 224.632 187.471 223.839L189.085 224.463C188.583 225.571 187.841 226.431 186.859 227.043C185.885 227.648 184.781 227.95 183.548 227.95ZM178.683 221.718V220.269H188.402V221.718H178.683ZM194.197 227.597L190.309 214.861L192.041 214.873L195.057 224.758L198.085 214.873H199.663L202.691 224.758L205.731 214.873H207.451L203.563 227.597H202.055L198.874 217.465L195.705 227.597H194.197Z" fill="#FCFCFC"/>
<path d="M420.577 194.782C418.889 194.782 417.463 194.409 416.301 193.663C415.138 192.909 414.259 191.868 413.662 190.541C413.065 189.214 412.766 187.682 412.766 185.946C412.766 184.21 413.065 182.679 413.662 181.351C414.259 180.024 415.138 178.987 416.301 178.241C417.463 177.487 418.889 177.11 420.577 177.11C422.549 177.11 424.159 177.617 425.408 178.63C426.657 179.635 427.513 180.986 427.976 182.683L426.209 183.142C425.848 181.799 425.2 180.735 424.265 179.949C423.33 179.164 422.101 178.771 420.577 178.771C419.25 178.771 418.147 179.074 417.267 179.678C416.387 180.283 415.724 181.128 415.276 182.211C414.836 183.288 414.608 184.532 414.593 185.946C414.585 187.36 414.801 188.605 415.24 189.681C415.688 190.757 416.356 191.601 417.243 192.214C418.139 192.819 419.25 193.121 420.577 193.121C422.101 193.121 423.33 192.728 424.265 191.943C425.2 191.15 425.848 190.085 426.209 188.75L427.976 189.21C427.513 190.906 426.657 192.261 425.408 193.274C424.159 194.279 422.549 194.782 420.577 194.782ZM434.216 194.782C433.258 194.782 432.453 194.609 431.801 194.264C431.157 193.918 430.674 193.459 430.352 192.885C430.03 192.312 429.869 191.688 429.869 191.012C429.869 190.321 430.006 189.732 430.281 189.245C430.564 188.75 430.945 188.346 431.424 188.031C431.911 187.717 432.472 187.478 433.109 187.313C433.753 187.156 434.463 187.018 435.241 186.9C436.026 186.775 436.792 186.669 437.538 186.582C438.292 186.488 438.952 186.398 439.518 186.311L438.905 186.688C438.928 185.432 438.685 184.501 438.174 183.896C437.664 183.291 436.776 182.989 435.512 182.989C434.64 182.989 433.902 183.185 433.297 183.578C432.7 183.971 432.28 184.591 432.036 185.44L430.352 184.945C430.642 183.806 431.227 182.922 432.107 182.294C432.987 181.666 434.13 181.351 435.535 181.351C436.698 181.351 437.684 181.571 438.493 182.011C439.309 182.443 439.887 183.072 440.224 183.896C440.382 184.265 440.484 184.678 440.531 185.133C440.578 185.589 440.601 186.052 440.601 186.523V194.429H439.058V191.236L439.506 191.424C439.074 192.516 438.402 193.349 437.491 193.922C436.58 194.495 435.488 194.782 434.216 194.782ZM434.416 193.286C435.225 193.286 435.932 193.141 436.537 192.85C437.142 192.559 437.629 192.163 437.998 191.66C438.367 191.15 438.606 190.576 438.716 189.94C438.811 189.532 438.862 189.084 438.87 188.597C438.877 188.102 438.881 187.733 438.881 187.49L439.541 187.831C438.952 187.91 438.312 187.988 437.621 188.067C436.937 188.145 436.262 188.236 435.594 188.338C434.935 188.44 434.338 188.562 433.804 188.703C433.442 188.805 433.093 188.95 432.755 189.139C432.417 189.32 432.139 189.563 431.919 189.869C431.707 190.176 431.6 190.557 431.6 191.012C431.6 191.381 431.691 191.739 431.871 192.084C432.06 192.43 432.358 192.716 432.767 192.944C433.183 193.172 433.733 193.286 434.416 193.286ZM452.858 194.429V187.937C452.858 187.23 452.791 186.582 452.658 185.993C452.524 185.396 452.308 184.878 452.01 184.438C451.719 183.99 451.338 183.645 450.867 183.401C450.403 183.158 449.838 183.036 449.17 183.036C448.558 183.036 448.016 183.142 447.544 183.354C447.081 183.566 446.688 183.873 446.366 184.273C446.052 184.666 445.813 185.145 445.648 185.711C445.483 186.276 445.4 186.92 445.4 187.643L444.175 187.372C444.175 186.068 444.403 184.972 444.858 184.085C445.314 183.197 445.942 182.526 446.743 182.07C447.544 181.615 448.463 181.387 449.5 181.387C450.262 181.387 450.926 181.505 451.491 181.74C452.065 181.976 452.548 182.294 452.94 182.695C453.341 183.095 453.663 183.555 453.906 184.073C454.15 184.583 454.327 185.129 454.437 185.711C454.547 186.284 454.602 186.857 454.602 187.431V194.429H452.858ZM443.657 194.429V181.705H445.224V184.839H445.4V194.429H443.657ZM462.526 194.782C461.34 194.782 460.327 194.488 459.487 193.899C458.646 193.302 458.002 192.497 457.554 191.483C457.107 190.47 456.883 189.327 456.883 188.055C456.883 186.79 457.103 185.652 457.543 184.638C457.99 183.625 458.63 182.824 459.463 182.235C460.296 181.646 461.293 181.351 462.455 181.351C463.649 181.351 464.655 181.642 465.471 182.223C466.288 182.804 466.905 183.602 467.321 184.615C467.745 185.62 467.957 186.767 467.957 188.055C467.957 189.32 467.749 190.462 467.333 191.483C466.917 192.497 466.304 193.302 465.495 193.899C464.686 194.488 463.696 194.782 462.526 194.782ZM462.703 193.168C463.606 193.168 464.352 192.948 464.941 192.508C465.53 192.069 465.97 191.464 466.261 190.694C466.551 189.916 466.697 189.037 466.697 188.055C466.697 187.058 466.551 186.178 466.261 185.416C465.97 184.646 465.53 184.045 464.941 183.613C464.36 183.181 463.626 182.965 462.738 182.965C461.827 182.965 461.073 183.189 460.476 183.637C459.879 184.085 459.435 184.693 459.145 185.463C458.862 186.233 458.721 187.097 458.721 188.055C458.721 189.021 458.866 189.893 459.157 190.67C459.455 191.44 459.899 192.049 460.488 192.497C461.077 192.944 461.815 193.168 462.703 193.168ZM466.697 194.429V184.85H466.508V177.464H468.252V194.429H466.697ZM471.793 179.29V177.346H473.525V179.29H471.793ZM471.793 194.429V181.705H473.525V194.429H471.793ZM481.993 194.782C480.807 194.782 479.794 194.488 478.953 193.899C478.113 193.302 477.469 192.497 477.021 191.483C476.573 190.47 476.35 189.327 476.35 188.055C476.35 186.79 476.57 185.652 477.009 184.638C477.457 183.625 478.097 182.824 478.93 182.235C479.762 181.646 480.76 181.351 481.922 181.351C483.116 181.351 484.121 181.642 484.938 182.223C485.755 182.804 486.372 183.602 486.788 184.615C487.212 185.62 487.424 186.767 487.424 188.055C487.424 189.32 487.216 190.462 486.8 191.483C486.383 192.497 485.771 193.302 484.962 193.899C484.153 194.488 483.163 194.782 481.993 194.782ZM482.17 193.168C483.073 193.168 483.819 192.948 484.408 192.508C484.997 192.069 485.437 191.464 485.728 190.694C486.018 189.916 486.163 189.037 486.163 188.055C486.163 187.058 486.018 186.178 485.728 185.416C485.437 184.646 484.997 184.045 484.408 183.613C483.827 183.181 483.092 182.965 482.205 182.965C481.294 182.965 480.54 183.189 479.943 183.637C479.346 184.085 478.902 184.693 478.612 185.463C478.329 186.233 478.188 187.097 478.188 188.055C478.188 189.021 478.333 189.893 478.623 190.67C478.922 191.44 479.366 192.049 479.955 192.497C480.544 192.944 481.282 193.168 482.17 193.168ZM486.163 194.429V184.85H485.975V177.464H487.719V194.429H486.163ZM494.664 194.782C493.706 194.782 492.901 194.609 492.249 194.264C491.605 193.918 491.122 193.459 490.8 192.885C490.478 192.312 490.317 191.688 490.317 191.012C490.317 190.321 490.454 189.732 490.729 189.245C491.012 188.75 491.393 188.346 491.872 188.031C492.359 187.717 492.921 187.478 493.557 187.313C494.201 187.156 494.912 187.018 495.689 186.9C496.475 186.775 497.24 186.669 497.987 186.582C498.741 186.488 499.4 186.398 499.966 186.311L499.353 186.688C499.377 185.432 499.133 184.501 498.623 183.896C498.112 183.291 497.225 182.989 495.96 182.989C495.088 182.989 494.35 183.185 493.745 183.578C493.148 183.971 492.728 184.591 492.485 185.44L490.8 184.945C491.091 183.806 491.676 182.922 492.555 182.294C493.435 181.666 494.578 181.351 495.984 181.351C497.146 181.351 498.132 181.571 498.941 182.011C499.758 182.443 500.335 183.072 500.673 183.896C500.83 184.265 500.932 184.678 500.979 185.133C501.026 185.589 501.05 186.052 501.05 186.523V194.429H499.506V191.236L499.954 191.424C499.522 192.516 498.851 193.349 497.939 193.922C497.028 194.495 495.937 194.782 494.664 194.782ZM494.865 193.286C495.674 193.286 496.38 193.141 496.985 192.85C497.59 192.559 498.077 192.163 498.446 191.66C498.815 191.15 499.055 190.576 499.165 189.94C499.259 189.532 499.31 189.084 499.318 188.597C499.326 188.102 499.33 187.733 499.33 187.49L499.989 187.831C499.4 187.91 498.76 187.988 498.069 188.067C497.386 188.145 496.71 188.236 496.043 188.338C495.383 188.44 494.786 188.562 494.252 188.703C493.891 188.805 493.541 188.95 493.203 189.139C492.866 189.32 492.587 189.563 492.367 189.869C492.155 190.176 492.049 190.557 492.049 191.012C492.049 191.381 492.139 191.739 492.32 192.084C492.508 192.43 492.807 192.716 493.215 192.944C493.631 193.172 494.181 193.286 494.865 193.286ZM511.044 194.429C510.329 194.578 509.623 194.637 508.924 194.605C508.232 194.574 507.612 194.425 507.062 194.158C506.52 193.891 506.108 193.474 505.825 192.909C505.597 192.438 505.472 191.962 505.448 191.483C505.432 190.996 505.424 190.443 505.424 189.822V178.17H507.145V189.752C507.145 190.286 507.148 190.733 507.156 191.095C507.172 191.448 507.254 191.762 507.404 192.037C507.686 192.563 508.134 192.878 508.747 192.98C509.367 193.082 510.133 193.058 511.044 192.909V194.429ZM502.703 183.189V181.705H511.044V183.189H502.703ZM518.475 194.782C517.234 194.782 516.158 194.507 515.247 193.957C514.344 193.408 513.641 192.634 513.138 191.637C512.635 190.639 512.384 189.469 512.384 188.126C512.384 186.736 512.631 185.534 513.126 184.521C513.621 183.507 514.316 182.726 515.211 182.176C516.115 181.626 517.179 181.351 518.404 181.351C519.661 181.351 520.733 181.642 521.62 182.223C522.508 182.797 523.18 183.621 523.635 184.697C524.091 185.773 524.299 187.058 524.259 188.55H522.492V187.937C522.461 186.288 522.104 185.043 521.42 184.203C520.745 183.362 519.755 182.942 518.451 182.942C517.085 182.942 516.036 183.386 515.306 184.273C514.583 185.161 514.222 186.425 514.222 188.067C514.222 189.669 514.583 190.914 515.306 191.801C516.036 192.681 517.069 193.121 518.404 193.121C519.315 193.121 520.109 192.913 520.784 192.497C521.467 192.072 522.005 191.464 522.398 190.67L524.012 191.295C523.509 192.402 522.767 193.262 521.785 193.875C520.811 194.48 519.708 194.782 518.475 194.782ZM513.609 188.55V187.101H523.329V188.55H513.609ZM420.721 214.29V212.346H422.453V214.29H420.721ZM420.721 229.429V216.705H422.453V229.429H420.721ZM435.174 229.429V222.937C435.174 222.23 435.108 221.582 434.974 220.993C434.841 220.396 434.625 219.878 434.326 219.438C434.036 218.99 433.655 218.645 433.183 218.401C432.72 218.158 432.154 218.036 431.487 218.036C430.874 218.036 430.332 218.142 429.861 218.354C429.398 218.566 429.005 218.873 428.683 219.273C428.369 219.666 428.129 220.145 427.964 220.711C427.799 221.276 427.717 221.92 427.717 222.643L426.492 222.372C426.492 221.068 426.719 219.972 427.175 219.085C427.63 218.197 428.259 217.526 429.06 217.07C429.861 216.615 430.78 216.387 431.817 216.387C432.579 216.387 433.242 216.505 433.808 216.74C434.381 216.976 434.864 217.294 435.257 217.695C435.657 218.095 435.979 218.555 436.223 219.073C436.466 219.583 436.643 220.129 436.753 220.711C436.863 221.284 436.918 221.857 436.918 222.431V229.429H435.174ZM425.973 229.429V216.705H427.54V219.839H427.717V229.429H425.973ZM446.903 229.429C446.188 229.578 445.481 229.637 444.782 229.605C444.091 229.574 443.47 229.425 442.921 229.158C442.379 228.891 441.966 228.474 441.684 227.909C441.456 227.438 441.33 226.962 441.307 226.483C441.291 225.996 441.283 225.443 441.283 224.822V213.17H443.003V224.752C443.003 225.286 443.007 225.733 443.015 226.095C443.031 226.448 443.113 226.762 443.262 227.037C443.545 227.563 443.993 227.878 444.605 227.98C445.226 228.082 445.992 228.058 446.903 227.909V229.429ZM438.562 218.189V216.705H446.903V218.189H438.562ZM454.333 229.782C453.092 229.782 452.016 229.507 451.105 228.957C450.202 228.408 449.499 227.634 448.996 226.637C448.494 225.639 448.242 224.469 448.242 223.126C448.242 221.736 448.49 220.534 448.985 219.521C449.479 218.507 450.175 217.726 451.07 217.176C451.973 216.626 453.037 216.351 454.263 216.351C455.519 216.351 456.591 216.642 457.479 217.223C458.367 217.797 459.038 218.621 459.494 219.697C459.949 220.773 460.157 222.058 460.118 223.55H458.351V222.937C458.319 221.288 457.962 220.043 457.279 219.203C456.603 218.362 455.614 217.942 454.31 217.942C452.943 217.942 451.895 218.386 451.164 219.273C450.442 220.161 450.08 221.425 450.08 223.067C450.08 224.669 450.442 225.914 451.164 226.801C451.895 227.681 452.927 228.121 454.263 228.121C455.174 228.121 455.967 227.913 456.643 227.497C457.326 227.072 457.864 226.464 458.257 225.67L459.871 226.295C459.368 227.402 458.626 228.262 457.644 228.875C456.67 229.48 455.566 229.782 454.333 229.782ZM449.468 223.55V222.101H459.187V223.55H449.468ZM462.733 229.429V216.705H464.288V219.768L463.981 219.367C464.123 218.99 464.307 218.645 464.535 218.331C464.763 218.009 465.01 217.746 465.277 217.541C465.607 217.251 465.992 217.031 466.432 216.882C466.872 216.725 467.315 216.634 467.763 216.611C468.211 216.579 468.619 216.611 468.988 216.705V218.331C468.525 218.213 468.018 218.185 467.469 218.248C466.919 218.311 466.412 218.531 465.949 218.908C465.525 219.238 465.207 219.635 464.995 220.098C464.782 220.553 464.641 221.04 464.57 221.559C464.5 222.069 464.464 222.576 464.464 223.079V229.429H462.733ZM474.664 229.429L470.045 216.705H471.801L475.559 227.167L479.294 216.705H481.073L476.454 229.429H474.664ZM483.424 214.29V212.346H485.156V214.29H483.424ZM483.424 229.429V216.705H485.156V229.429H483.424ZM494.072 229.782C492.831 229.782 491.755 229.507 490.844 228.957C489.941 228.408 489.238 227.634 488.735 226.637C488.233 225.639 487.981 224.469 487.981 223.126C487.981 221.736 488.229 220.534 488.724 219.521C489.218 218.507 489.914 217.726 490.809 217.176C491.712 216.626 492.776 216.351 494.002 216.351C495.258 216.351 496.33 216.642 497.218 217.223C498.105 217.797 498.777 218.621 499.233 219.697C499.688 220.773 499.896 222.058 499.857 223.55H498.09V222.937C498.058 221.288 497.701 220.043 497.018 219.203C496.342 218.362 495.353 217.942 494.049 217.942C492.682 217.942 491.634 218.386 490.903 219.273C490.181 220.161 489.819 221.425 489.819 223.067C489.819 224.669 490.181 225.914 490.903 226.801C491.634 227.681 492.666 228.121 494.002 228.121C494.913 228.121 495.706 227.913 496.381 227.497C497.065 227.072 497.603 226.464 497.996 225.67L499.61 226.295C499.107 227.402 498.365 228.262 497.383 228.875C496.409 229.48 495.305 229.782 494.072 229.782ZM489.207 223.55V222.101H498.926V223.55H489.207ZM504.721 229.429L500.833 216.693L502.565 216.705L505.581 226.589L508.609 216.705H510.188L513.215 226.589L516.255 216.705H517.975L514.087 229.429H512.579L509.398 219.297L506.229 229.429H504.721Z" fill="#FCFCFC"/>
<path d="M726.556 190.976C724.868 190.976 723.442 190.602 722.28 189.856C721.117 189.102 720.238 188.062 719.641 186.734C719.044 185.407 718.745 183.875 718.745 182.14C718.745 180.404 719.044 178.872 719.641 177.545C720.238 176.217 721.117 175.181 722.28 174.435C723.442 173.681 724.868 173.304 726.556 173.304C728.528 173.304 730.138 173.81 731.387 174.823C732.636 175.829 733.492 177.18 733.955 178.876L732.188 179.336C731.827 177.992 731.179 176.928 730.244 176.143C729.309 175.357 728.08 174.965 726.556 174.965C725.229 174.965 724.126 175.267 723.246 175.872C722.366 176.477 721.703 177.321 721.255 178.405C720.815 179.481 720.587 180.726 720.572 182.14C720.564 183.553 720.78 184.798 721.219 185.874C721.667 186.95 722.335 187.795 723.222 188.407C724.118 189.012 725.229 189.314 726.556 189.314C728.08 189.314 729.309 188.922 730.244 188.136C731.179 187.343 731.827 186.279 732.188 184.943L733.955 185.403C733.492 187.099 732.636 188.454 731.387 189.468C730.138 190.473 728.528 190.976 726.556 190.976ZM740.195 190.976C739.237 190.976 738.432 190.803 737.78 190.457C737.136 190.112 736.653 189.652 736.331 189.079C736.009 188.505 735.848 187.881 735.848 187.205C735.848 186.514 735.985 185.925 736.26 185.438C736.543 184.943 736.924 184.539 737.403 184.225C737.89 183.911 738.451 183.671 739.088 183.506C739.732 183.349 740.442 183.212 741.22 183.094C742.005 182.968 742.771 182.862 743.517 182.776C744.271 182.681 744.931 182.591 745.497 182.505L744.884 182.882C744.907 181.625 744.664 180.694 744.153 180.09C743.643 179.485 742.755 179.182 741.491 179.182C740.619 179.182 739.881 179.379 739.276 179.771C738.679 180.164 738.259 180.785 738.015 181.633L736.331 181.138C736.621 179.999 737.206 179.116 738.086 178.487C738.966 177.859 740.109 177.545 741.514 177.545C742.677 177.545 743.663 177.765 744.472 178.205C745.288 178.637 745.866 179.265 746.203 180.09C746.361 180.459 746.463 180.871 746.51 181.327C746.557 181.782 746.58 182.246 746.58 182.717V190.622H745.037V187.429L745.485 187.618C745.053 188.71 744.381 189.542 743.47 190.115C742.559 190.689 741.467 190.976 740.195 190.976ZM740.395 189.479C741.204 189.479 741.911 189.334 742.516 189.043C743.121 188.753 743.608 188.356 743.977 187.853C744.346 187.343 744.585 186.77 744.695 186.133C744.79 185.725 744.841 185.277 744.849 184.79C744.856 184.296 744.86 183.926 744.86 183.683L745.52 184.025C744.931 184.103 744.291 184.182 743.6 184.26C742.916 184.339 742.241 184.429 741.573 184.531C740.914 184.633 740.317 184.755 739.783 184.896C739.421 184.998 739.072 185.144 738.734 185.332C738.396 185.513 738.118 185.756 737.898 186.063C737.686 186.369 737.58 186.75 737.58 187.205C737.58 187.575 737.67 187.932 737.85 188.278C738.039 188.623 738.337 188.91 738.746 189.138C739.162 189.365 739.712 189.479 740.395 189.479ZM758.837 190.622V184.131C758.837 183.424 758.77 182.776 758.637 182.187C758.503 181.59 758.287 181.071 757.989 180.632C757.698 180.184 757.317 179.838 756.846 179.595C756.382 179.351 755.817 179.23 755.149 179.23C754.537 179.23 753.995 179.336 753.523 179.548C753.06 179.76 752.667 180.066 752.345 180.467C752.031 180.859 751.792 181.338 751.627 181.904C751.462 182.469 751.379 183.113 751.379 183.836L750.154 183.565C750.154 182.261 750.382 181.166 750.837 180.278C751.293 179.391 751.921 178.719 752.722 178.263C753.523 177.808 754.442 177.58 755.479 177.58C756.241 177.58 756.905 177.698 757.47 177.934C758.044 178.169 758.527 178.487 758.919 178.888C759.32 179.288 759.642 179.748 759.885 180.266C760.129 180.777 760.306 181.323 760.416 181.904C760.526 182.477 760.581 183.051 760.581 183.624V190.622H758.837ZM749.636 190.622V177.898H751.203V181.032H751.379V190.622H749.636ZM768.505 190.976C767.319 190.976 766.306 190.681 765.466 190.092C764.625 189.495 763.981 188.69 763.533 187.677C763.086 186.664 762.862 185.521 762.862 184.248C762.862 182.984 763.082 181.845 763.522 180.832C763.969 179.819 764.609 179.017 765.442 178.428C766.275 177.839 767.272 177.545 768.434 177.545C769.628 177.545 770.634 177.835 771.45 178.417C772.267 178.998 772.884 179.795 773.3 180.808C773.724 181.814 773.936 182.96 773.936 184.248C773.936 185.513 773.728 186.656 773.312 187.677C772.896 188.69 772.283 189.495 771.474 190.092C770.665 190.681 769.675 190.976 768.505 190.976ZM768.682 189.361C769.585 189.361 770.331 189.142 770.92 188.702C771.509 188.262 771.949 187.657 772.24 186.887C772.53 186.11 772.676 185.23 772.676 184.248C772.676 183.251 772.53 182.371 772.24 181.609C771.949 180.84 771.509 180.239 770.92 179.807C770.339 179.375 769.605 179.159 768.717 179.159C767.806 179.159 767.052 179.383 766.455 179.83C765.858 180.278 765.414 180.887 765.124 181.656C764.841 182.426 764.7 183.29 764.7 184.248C764.7 185.214 764.845 186.086 765.136 186.864C765.434 187.634 765.878 188.242 766.467 188.69C767.056 189.138 767.794 189.361 768.682 189.361ZM772.676 190.622V181.044H772.487V173.657H774.231V190.622H772.676ZM777.772 175.483V173.539H779.504V175.483H777.772ZM777.772 190.622V177.898H779.504V190.622H777.772ZM787.972 190.976C786.786 190.976 785.773 190.681 784.932 190.092C784.092 189.495 783.448 188.69 783 187.677C782.552 186.664 782.329 185.521 782.329 184.248C782.329 182.984 782.549 181.845 782.988 180.832C783.436 179.819 784.076 179.017 784.909 178.428C785.741 177.839 786.739 177.545 787.901 177.545C789.095 177.545 790.1 177.835 790.917 178.417C791.734 178.998 792.351 179.795 792.767 180.808C793.191 181.814 793.403 182.96 793.403 184.248C793.403 185.513 793.195 186.656 792.779 187.677C792.362 188.69 791.75 189.495 790.941 190.092C790.132 190.681 789.142 190.976 787.972 190.976ZM788.149 189.361C789.052 189.361 789.798 189.142 790.387 188.702C790.976 188.262 791.416 187.657 791.707 186.887C791.997 186.11 792.142 185.23 792.142 184.248C792.142 183.251 791.997 182.371 791.707 181.609C791.416 180.84 790.976 180.239 790.387 179.807C789.806 179.375 789.071 179.159 788.184 179.159C787.273 179.159 786.519 179.383 785.922 179.83C785.325 180.278 784.881 180.887 784.591 181.656C784.308 182.426 784.167 183.29 784.167 184.248C784.167 185.214 784.312 186.086 784.602 186.864C784.901 187.634 785.345 188.242 785.934 188.69C786.523 189.138 787.261 189.361 788.149 189.361ZM792.142 190.622V181.044H791.954V173.657H793.698V190.622H792.142ZM800.643 190.976C799.685 190.976 798.88 190.803 798.228 190.457C797.584 190.112 797.101 189.652 796.779 189.079C796.457 188.505 796.296 187.881 796.296 187.205C796.296 186.514 796.433 185.925 796.708 185.438C796.991 184.943 797.372 184.539 797.851 184.225C798.338 183.911 798.9 183.671 799.536 183.506C800.18 183.349 800.891 183.212 801.668 183.094C802.454 182.968 803.219 182.862 803.966 182.776C804.72 182.681 805.379 182.591 805.945 182.505L805.332 182.882C805.356 181.625 805.112 180.694 804.602 180.09C804.091 179.485 803.204 179.182 801.939 179.182C801.067 179.182 800.329 179.379 799.724 179.771C799.127 180.164 798.707 180.785 798.464 181.633L796.779 181.138C797.07 179.999 797.655 179.116 798.534 178.487C799.414 177.859 800.557 177.545 801.963 177.545C803.125 177.545 804.111 177.765 804.92 178.205C805.737 178.637 806.314 179.265 806.652 180.09C806.809 180.459 806.911 180.871 806.958 181.327C807.005 181.782 807.029 182.246 807.029 182.717V190.622H805.485V187.429L805.933 187.618C805.501 188.71 804.83 189.542 803.918 190.115C803.007 190.689 801.916 190.976 800.643 190.976ZM800.844 189.479C801.653 189.479 802.359 189.334 802.964 189.043C803.569 188.753 804.056 188.356 804.425 187.853C804.794 187.343 805.034 186.77 805.144 186.133C805.238 185.725 805.289 185.277 805.297 184.79C805.305 184.296 805.309 183.926 805.309 183.683L805.968 184.025C805.379 184.103 804.739 184.182 804.048 184.26C803.365 184.339 802.689 184.429 802.022 184.531C801.362 184.633 800.765 184.755 800.231 184.896C799.87 184.998 799.52 185.144 799.182 185.332C798.845 185.513 798.566 185.756 798.346 186.063C798.134 186.369 798.028 186.75 798.028 187.205C798.028 187.575 798.118 187.932 798.299 188.278C798.487 188.623 798.786 188.91 799.194 189.138C799.61 189.365 800.16 189.479 800.844 189.479ZM817.023 190.622C816.308 190.771 815.602 190.83 814.903 190.799C814.211 190.767 813.591 190.618 813.041 190.351C812.499 190.084 812.087 189.668 811.804 189.102C811.576 188.631 811.451 188.156 811.427 187.677C811.411 187.19 811.403 186.636 811.403 186.016V174.364H813.124V185.945C813.124 186.479 813.127 186.927 813.135 187.288C813.151 187.641 813.234 187.956 813.383 188.23C813.665 188.757 814.113 189.071 814.726 189.173C815.346 189.275 816.112 189.252 817.023 189.102V190.622ZM808.682 179.383V177.898H817.023V179.383H808.682ZM824.454 190.976C823.213 190.976 822.137 190.701 821.226 190.151C820.323 189.601 819.62 188.827 819.117 187.83C818.614 186.832 818.363 185.662 818.363 184.319C818.363 182.929 818.61 181.727 819.105 180.714C819.6 179.701 820.295 178.919 821.19 178.369C822.094 177.82 823.158 177.545 824.383 177.545C825.64 177.545 826.712 177.835 827.599 178.417C828.487 178.99 829.159 179.815 829.614 180.891C830.07 181.967 830.278 183.251 830.238 184.743H828.471V184.131C828.44 182.481 828.083 181.236 827.399 180.396C826.724 179.555 825.734 179.135 824.43 179.135C823.064 179.135 822.015 179.579 821.285 180.467C820.562 181.354 820.201 182.619 820.201 184.26C820.201 185.862 820.562 187.107 821.285 187.995C822.015 188.875 823.048 189.314 824.383 189.314C825.294 189.314 826.088 189.106 826.763 188.69C827.446 188.266 827.984 187.657 828.377 186.864L829.991 187.488C829.488 188.596 828.746 189.456 827.764 190.068C826.79 190.673 825.687 190.976 824.454 190.976ZM819.588 184.743V183.294H829.308V184.743H819.588ZM730.338 225.964C728.846 225.964 727.616 225.642 726.65 224.998C725.692 224.354 725.103 223.458 724.883 222.312L726.65 222.017C726.839 222.74 727.267 223.317 727.935 223.749C728.61 224.173 729.443 224.385 730.432 224.385C731.398 224.385 732.16 224.185 732.718 223.784C733.275 223.376 733.554 222.822 733.554 222.123C733.554 221.73 733.464 221.412 733.283 221.169C733.11 220.917 732.753 220.686 732.211 220.474C731.669 220.262 730.86 220.01 729.784 219.72C728.63 219.405 727.726 219.091 727.075 218.777C726.423 218.463 725.959 218.102 725.684 217.693C725.409 217.277 725.272 216.77 725.272 216.173C725.272 215.451 725.476 214.819 725.885 214.277C726.293 213.727 726.859 213.303 727.581 213.004C728.304 212.698 729.144 212.545 730.102 212.545C731.061 212.545 731.917 212.702 732.671 213.016C733.433 213.322 734.045 213.754 734.509 214.312C734.972 214.87 735.247 215.518 735.333 216.256L733.566 216.574C733.448 215.828 733.075 215.239 732.447 214.807C731.826 214.367 731.037 214.139 730.079 214.123C729.176 214.1 728.441 214.273 727.876 214.642C727.31 215.003 727.027 215.486 727.027 216.091C727.027 216.429 727.129 216.719 727.334 216.963C727.538 217.198 727.907 217.422 728.441 217.634C728.983 217.846 729.753 218.078 730.75 218.329C731.921 218.628 732.84 218.942 733.507 219.272C734.175 219.602 734.65 219.991 734.933 220.438C735.215 220.886 735.357 221.44 735.357 222.099C735.357 223.301 734.909 224.248 734.014 224.939C733.126 225.622 731.901 225.964 730.338 225.964ZM743.354 225.976C742.113 225.976 741.037 225.701 740.126 225.151C739.222 224.601 738.519 223.827 738.017 222.83C737.514 221.832 737.263 220.662 737.263 219.319C737.263 217.929 737.51 216.727 738.005 215.714C738.5 214.701 739.195 213.919 740.09 213.369C740.994 212.82 742.058 212.545 743.283 212.545C744.54 212.545 745.612 212.835 746.499 213.417C747.387 213.99 748.058 214.815 748.514 215.891C748.969 216.967 749.178 218.251 749.138 219.743H747.371V219.131C747.34 217.481 746.982 216.236 746.299 215.396C745.624 214.555 744.634 214.135 743.33 214.135C741.964 214.135 740.915 214.579 740.185 215.467C739.462 216.354 739.101 217.619 739.101 219.26C739.101 220.862 739.462 222.107 740.185 222.995C740.915 223.875 741.948 224.314 743.283 224.314C744.194 224.314 744.987 224.106 745.663 223.69C746.346 223.266 746.884 222.657 747.277 221.864L748.891 222.488C748.388 223.596 747.646 224.456 746.664 225.068C745.69 225.673 744.587 225.976 743.354 225.976ZM738.488 219.743V218.294H748.208V219.743H738.488ZM751.989 225.622V208.304H753.72V225.622H751.989ZM762.636 225.976C761.395 225.976 760.319 225.701 759.408 225.151C758.505 224.601 757.802 223.827 757.299 222.83C756.797 221.832 756.545 220.662 756.545 219.319C756.545 217.929 756.793 216.727 757.288 215.714C757.783 214.701 758.478 213.919 759.373 213.369C760.276 212.82 761.34 212.545 762.566 212.545C763.822 212.545 764.895 212.835 765.782 213.417C766.67 213.99 767.341 214.815 767.797 215.891C768.252 216.967 768.46 218.251 768.421 219.743H766.654V219.131C766.622 217.481 766.265 216.236 765.582 215.396C764.906 214.555 763.917 214.135 762.613 214.135C761.246 214.135 760.198 214.579 759.467 215.467C758.745 216.354 758.383 217.619 758.383 219.26C758.383 220.862 758.745 222.107 759.467 222.995C760.198 223.875 761.231 224.314 762.566 224.314C763.477 224.314 764.27 224.106 764.946 223.69C765.629 223.266 766.167 222.657 766.56 221.864L768.174 222.488C767.671 223.596 766.929 224.456 765.947 225.068C764.973 225.673 763.87 225.976 762.636 225.976ZM757.771 219.743V218.294H767.49V219.743H757.771ZM776.314 225.976C775.033 225.976 773.95 225.689 773.062 225.115C772.174 224.542 771.499 223.753 771.036 222.747C770.58 221.734 770.344 220.572 770.329 219.26C770.344 217.925 770.588 216.755 771.059 215.749C771.53 214.736 772.21 213.951 773.097 213.393C773.985 212.828 775.061 212.545 776.325 212.545C777.614 212.545 778.733 212.859 779.683 213.487C780.641 214.116 781.297 214.976 781.651 216.067L779.954 216.609C779.656 215.847 779.18 215.258 778.529 214.842C777.884 214.418 777.146 214.206 776.314 214.206C775.379 214.206 774.605 214.422 773.993 214.854C773.38 215.278 772.925 215.871 772.626 216.633C772.328 217.395 772.174 218.271 772.167 219.26C772.182 220.784 772.536 222.009 773.227 222.936C773.918 223.855 774.947 224.314 776.314 224.314C777.178 224.314 777.912 224.118 778.517 223.725C779.129 223.325 779.593 222.744 779.907 221.982L781.651 222.5C781.179 223.631 780.488 224.495 779.577 225.092C778.666 225.681 777.578 225.976 776.314 225.976ZM791.01 225.622C790.295 225.771 789.588 225.83 788.889 225.799C788.198 225.767 787.578 225.618 787.028 225.351C786.486 225.084 786.074 224.668 785.791 224.102C785.563 223.631 785.437 223.156 785.414 222.677C785.398 222.19 785.39 221.636 785.39 221.016V209.364H787.11V220.945C787.11 221.479 787.114 221.927 787.122 222.288C787.138 222.641 787.22 222.956 787.369 223.23C787.652 223.757 788.1 224.071 788.713 224.173C789.333 224.275 790.099 224.252 791.01 224.102V225.622ZM782.669 214.383V212.898H791.01V214.383H782.669ZM793.752 210.483V208.539H795.484V210.483H793.752ZM793.752 225.622V212.898H795.484V225.622H793.752ZM804.33 225.976C803.065 225.976 801.985 225.689 801.09 225.115C800.194 224.542 799.507 223.749 799.028 222.736C798.549 221.722 798.309 220.56 798.309 219.248C798.309 217.913 798.553 216.743 799.04 215.738C799.527 214.732 800.218 213.951 801.113 213.393C802.017 212.828 803.089 212.545 804.33 212.545C805.602 212.545 806.686 212.831 807.581 213.405C808.484 213.97 809.172 214.76 809.643 215.773C810.122 216.778 810.362 217.937 810.362 219.248C810.362 220.584 810.122 221.758 809.643 222.771C809.164 223.776 808.473 224.562 807.569 225.127C806.666 225.693 805.586 225.976 804.33 225.976ZM804.33 224.314C805.743 224.314 806.796 223.847 807.487 222.912C808.178 221.97 808.524 220.749 808.524 219.248C808.524 217.709 808.174 216.484 807.475 215.573C806.784 214.662 805.736 214.206 804.33 214.206C803.379 214.206 802.594 214.422 801.973 214.854C801.361 215.278 800.901 215.871 800.595 216.633C800.296 217.387 800.147 218.259 800.147 219.248C800.147 220.78 800.501 222.009 801.208 222.936C801.914 223.855 802.955 224.314 804.33 224.314ZM822.15 225.622V219.131C822.15 218.424 822.083 217.776 821.95 217.187C821.816 216.59 821.6 216.071 821.302 215.632C821.011 215.184 820.63 214.838 820.159 214.595C819.696 214.351 819.13 214.23 818.462 214.23C817.85 214.23 817.308 214.336 816.837 214.548C816.373 214.76 815.98 215.066 815.658 215.467C815.344 215.859 815.105 216.338 814.94 216.904C814.775 217.469 814.692 218.113 814.692 218.836L813.467 218.565C813.467 217.261 813.695 216.166 814.15 215.278C814.606 214.391 815.234 213.719 816.035 213.263C816.837 212.808 817.756 212.58 818.792 212.58C819.554 212.58 820.218 212.698 820.783 212.934C821.357 213.169 821.84 213.487 822.232 213.888C822.633 214.288 822.955 214.748 823.199 215.266C823.442 215.777 823.619 216.323 823.729 216.904C823.839 217.477 823.894 218.051 823.894 218.624V225.622H822.15ZM812.949 225.622V212.898H814.516V216.032H814.692V225.622H812.949Z" fill="#FCFCFC"/>
<path d="M1023.27 190.986C1021.58 190.986 1020.16 190.613 1018.99 189.867C1017.83 189.113 1016.95 188.072 1016.35 186.745C1015.76 185.418 1015.46 183.886 1015.46 182.15C1015.46 180.414 1015.76 178.883 1016.35 177.556C1016.95 176.228 1017.83 175.191 1018.99 174.445C1020.16 173.691 1021.58 173.314 1023.27 173.314C1024.97 173.314 1026.39 173.691 1027.55 174.445C1028.71 175.191 1029.59 176.228 1030.19 177.556C1030.79 178.883 1031.09 180.414 1031.09 182.15C1031.09 183.886 1030.79 185.418 1030.19 186.745C1029.59 188.072 1028.71 189.113 1027.55 189.867C1026.39 190.613 1024.97 190.986 1023.27 190.986ZM1023.27 189.325C1024.6 189.325 1025.7 189.023 1026.59 188.418C1027.48 187.813 1028.14 186.973 1028.58 185.897C1029.03 184.813 1029.25 183.564 1029.25 182.15C1029.25 180.737 1029.03 179.492 1028.58 178.416C1028.14 177.34 1027.48 176.499 1026.59 175.894C1025.7 175.29 1024.6 174.983 1023.27 174.975C1021.94 174.975 1020.84 175.278 1019.96 175.883C1019.08 176.487 1018.42 177.332 1017.97 178.416C1017.53 179.492 1017.3 180.737 1017.3 182.15C1017.29 183.564 1017.5 184.809 1017.94 185.885C1018.39 186.953 1019.06 187.794 1019.95 188.406C1020.83 189.011 1021.94 189.317 1023.27 189.325ZM1042.64 190.633V184.141C1042.64 183.434 1042.57 182.786 1042.44 182.197C1042.31 181.6 1042.09 181.082 1041.79 180.642C1041.5 180.195 1041.12 179.849 1040.65 179.605C1040.19 179.362 1039.62 179.24 1038.95 179.24C1038.34 179.24 1037.8 179.346 1037.33 179.558C1036.86 179.77 1036.47 180.077 1036.15 180.477C1035.84 180.87 1035.6 181.349 1035.43 181.915C1035.27 182.48 1035.18 183.124 1035.18 183.847L1033.96 183.576C1033.96 182.272 1034.19 181.176 1034.64 180.289C1035.1 179.401 1035.73 178.73 1036.53 178.274C1037.33 177.819 1038.25 177.591 1039.28 177.591C1040.05 177.591 1040.71 177.709 1041.27 177.944C1041.85 178.18 1042.33 178.498 1042.72 178.899C1043.12 179.299 1043.45 179.759 1043.69 180.277C1043.93 180.788 1044.11 181.333 1044.22 181.915C1044.33 182.488 1044.38 183.061 1044.38 183.635V190.633H1042.64ZM1033.44 190.633V177.909H1035.01V181.043H1035.18V190.633H1033.44ZM1053.16 190.986C1051.99 190.986 1051 190.692 1050.19 190.103C1049.38 189.506 1048.77 188.701 1048.35 187.687C1047.93 186.666 1047.72 185.524 1047.72 184.259C1047.72 182.971 1047.93 181.824 1048.35 180.819C1048.77 179.806 1049.39 179.009 1050.21 178.427C1051.03 177.846 1052.03 177.556 1053.23 177.556C1054.39 177.556 1055.39 177.85 1056.22 178.439C1057.05 179.028 1057.69 179.829 1058.13 180.843C1058.58 181.856 1058.8 182.995 1058.8 184.259C1058.8 185.532 1058.58 186.674 1058.13 187.687C1057.68 188.701 1057.04 189.506 1056.2 190.103C1055.36 190.692 1054.34 190.986 1053.16 190.986ZM1047.43 190.633V173.668H1049.17V181.055H1048.99V190.633H1047.43ZM1052.98 189.372C1053.87 189.372 1054.61 189.148 1055.19 188.701C1055.78 188.253 1056.22 187.644 1056.51 186.875C1056.81 186.097 1056.96 185.225 1056.96 184.259C1056.96 183.301 1056.82 182.437 1056.53 181.667C1056.23 180.898 1055.79 180.289 1055.19 179.841C1054.61 179.393 1053.86 179.17 1052.94 179.17C1052.06 179.17 1051.32 179.386 1050.73 179.818C1050.15 180.25 1049.71 180.85 1049.42 181.62C1049.13 182.382 1048.99 183.262 1048.99 184.259C1048.99 185.241 1049.13 186.121 1049.42 186.898C1049.71 187.668 1050.15 188.273 1050.74 188.712C1051.33 189.152 1052.08 189.372 1052.98 189.372ZM1066.7 190.986C1065.44 190.986 1064.36 190.7 1063.46 190.126C1062.56 189.553 1061.88 188.76 1061.4 187.746C1060.92 186.733 1060.68 185.571 1060.68 184.259C1060.68 182.924 1060.92 181.754 1061.41 180.748C1061.9 179.743 1062.59 178.961 1063.48 178.404C1064.39 177.838 1065.46 177.556 1066.7 177.556C1067.97 177.556 1069.06 177.842 1069.95 178.416C1070.85 178.981 1071.54 179.77 1072.01 180.784C1072.49 181.789 1072.73 182.947 1072.73 184.259C1072.73 185.594 1072.49 186.769 1072.01 187.782C1071.53 188.787 1070.84 189.572 1069.94 190.138C1069.04 190.704 1067.96 190.986 1066.7 190.986ZM1066.7 189.325C1068.11 189.325 1069.17 188.858 1069.86 187.923C1070.55 186.981 1070.89 185.759 1070.89 184.259C1070.89 182.72 1070.54 181.494 1069.85 180.583C1069.15 179.672 1068.11 179.217 1066.7 179.217C1065.75 179.217 1064.96 179.433 1064.34 179.865C1063.73 180.289 1063.27 180.882 1062.97 181.644C1062.67 182.398 1062.52 183.269 1062.52 184.259C1062.52 185.791 1062.87 187.02 1063.58 187.947C1064.28 188.866 1065.33 189.325 1066.7 189.325ZM1078.97 190.986C1078.01 190.986 1077.21 190.813 1076.56 190.468C1075.91 190.122 1075.43 189.663 1075.11 189.089C1074.78 188.516 1074.62 187.892 1074.62 187.216C1074.62 186.525 1074.76 185.936 1075.04 185.449C1075.32 184.954 1075.7 184.55 1076.18 184.236C1076.67 183.921 1077.23 183.682 1077.86 183.517C1078.51 183.36 1079.22 183.222 1080 183.105C1080.78 182.979 1081.55 182.873 1082.29 182.786C1083.05 182.692 1083.71 182.602 1084.27 182.515L1083.66 182.892C1083.68 181.636 1083.44 180.705 1082.93 180.1C1082.42 179.496 1081.53 179.193 1080.27 179.193C1079.4 179.193 1078.66 179.39 1078.05 179.782C1077.46 180.175 1077.04 180.795 1076.79 181.644L1075.11 181.149C1075.4 180.01 1075.98 179.126 1076.86 178.498C1077.74 177.87 1078.88 177.556 1080.29 177.556C1081.45 177.556 1082.44 177.775 1083.25 178.215C1084.06 178.647 1084.64 179.276 1084.98 180.1C1085.14 180.469 1085.24 180.882 1085.29 181.337C1085.33 181.793 1085.36 182.256 1085.36 182.728V190.633H1083.81V187.44L1084.26 187.629C1083.83 188.72 1083.16 189.553 1082.25 190.126C1081.34 190.7 1080.24 190.986 1078.97 190.986ZM1079.17 189.49C1079.98 189.49 1080.69 189.345 1081.29 189.054C1081.9 188.764 1082.38 188.367 1082.75 187.864C1083.12 187.354 1083.36 186.78 1083.47 186.144C1083.57 185.736 1083.62 185.288 1083.62 184.801C1083.63 184.306 1083.64 183.937 1083.64 183.694L1084.3 184.035C1083.71 184.114 1083.07 184.192 1082.38 184.271C1081.69 184.349 1081.02 184.44 1080.35 184.542C1079.69 184.644 1079.09 184.766 1078.56 184.907C1078.2 185.009 1077.85 185.154 1077.51 185.343C1077.17 185.524 1076.89 185.767 1076.67 186.073C1076.46 186.38 1076.36 186.761 1076.36 187.216C1076.36 187.585 1076.45 187.943 1076.63 188.288C1076.82 188.634 1077.11 188.921 1077.52 189.148C1077.94 189.376 1078.49 189.49 1079.17 189.49ZM1088.42 190.633V177.909H1089.98V180.972L1089.67 180.572C1089.81 180.195 1090 179.849 1090.23 179.535C1090.45 179.213 1090.7 178.95 1090.97 178.745C1091.3 178.455 1091.68 178.235 1092.12 178.086C1092.56 177.929 1093.01 177.838 1093.45 177.815C1093.9 177.783 1094.31 177.815 1094.68 177.909V179.535C1094.22 179.417 1093.71 179.39 1093.16 179.452C1092.61 179.515 1092.1 179.735 1091.64 180.112C1091.22 180.442 1090.9 180.839 1090.69 181.302C1090.47 181.758 1090.33 182.245 1090.26 182.763C1090.19 183.273 1090.16 183.78 1090.16 184.283V190.633H1088.42ZM1101.62 190.986C1100.43 190.986 1099.42 190.692 1098.58 190.103C1097.74 189.506 1097.1 188.701 1096.65 187.687C1096.2 186.674 1095.98 185.532 1095.98 184.259C1095.98 182.995 1096.2 181.856 1096.64 180.843C1097.08 179.829 1097.72 179.028 1098.56 178.439C1099.39 177.85 1100.39 177.556 1101.55 177.556C1102.74 177.556 1103.75 177.846 1104.57 178.427C1105.38 179.009 1106 179.806 1106.42 180.819C1106.84 181.824 1107.05 182.971 1107.05 184.259C1107.05 185.524 1106.84 186.666 1106.43 187.687C1106.01 188.701 1105.4 189.506 1104.59 190.103C1103.78 190.692 1102.79 190.986 1101.62 190.986ZM1101.8 189.372C1102.7 189.372 1103.45 189.152 1104.04 188.712C1104.62 188.273 1105.06 187.668 1105.36 186.898C1105.65 186.121 1105.79 185.241 1105.79 184.259C1105.79 183.262 1105.65 182.382 1105.36 181.62C1105.06 180.85 1104.62 180.25 1104.04 179.818C1103.45 179.386 1102.72 179.17 1101.83 179.17C1100.92 179.17 1100.17 179.393 1099.57 179.841C1098.97 180.289 1098.53 180.898 1098.24 181.667C1097.96 182.437 1097.82 183.301 1097.82 184.259C1097.82 185.225 1097.96 186.097 1098.25 186.875C1098.55 187.644 1098.99 188.253 1099.58 188.701C1100.17 189.148 1100.91 189.372 1101.8 189.372ZM1105.79 190.633V181.055H1105.6V173.668H1107.35V190.633H1105.79ZM1110.89 175.494V173.55H1112.62V175.494H1110.89ZM1110.89 190.633V177.909H1112.62V190.633H1110.89ZM1125.34 190.633V184.141C1125.34 183.434 1125.27 182.786 1125.14 182.197C1125.01 181.6 1124.79 181.082 1124.49 180.642C1124.2 180.195 1123.82 179.849 1123.35 179.605C1122.89 179.362 1122.32 179.24 1121.65 179.24C1121.04 179.24 1120.5 179.346 1120.03 179.558C1119.56 179.77 1119.17 180.077 1118.85 180.477C1118.53 180.87 1118.3 181.349 1118.13 181.915C1117.97 182.48 1117.88 183.124 1117.88 183.847L1116.66 183.576C1116.66 182.272 1116.89 181.176 1117.34 180.289C1117.8 179.401 1118.42 178.73 1119.23 178.274C1120.03 177.819 1120.95 177.591 1121.98 177.591C1122.74 177.591 1123.41 177.709 1123.97 177.944C1124.55 178.18 1125.03 178.498 1125.42 178.899C1125.82 179.299 1126.15 179.759 1126.39 180.277C1126.63 180.788 1126.81 181.333 1126.92 181.915C1127.03 182.488 1127.08 183.061 1127.08 183.635V190.633H1125.34ZM1116.14 190.633V177.909H1117.71V181.043H1117.88V190.633H1116.14ZM1135.2 196.641C1134.54 196.641 1133.9 196.543 1133.26 196.347C1132.64 196.158 1132.05 195.856 1131.52 195.44C1130.99 195.031 1130.54 194.497 1130.18 193.837L1131.74 192.966C1132.1 193.672 1132.59 194.179 1133.23 194.485C1133.87 194.799 1134.53 194.957 1135.2 194.957C1136.11 194.957 1136.86 194.784 1137.42 194.438C1138 194.1 1138.41 193.598 1138.67 192.93C1138.93 192.263 1139.06 191.43 1139.05 190.433V187.04H1139.25V177.909H1140.79V190.456C1140.79 190.817 1140.78 191.163 1140.76 191.493C1140.74 191.831 1140.71 192.16 1140.65 192.482C1140.5 193.433 1140.19 194.214 1139.72 194.827C1139.26 195.44 1138.64 195.895 1137.88 196.194C1137.13 196.492 1136.23 196.641 1135.2 196.641ZM1135.08 190.986C1133.89 190.986 1132.88 190.692 1132.04 190.103C1131.2 189.506 1130.55 188.701 1130.11 187.687C1129.66 186.674 1129.43 185.532 1129.43 184.259C1129.43 182.995 1129.65 181.856 1130.09 180.843C1130.54 179.829 1131.18 179.028 1132.01 178.439C1132.85 177.85 1133.84 177.556 1135.01 177.556C1136.2 177.556 1137.21 177.846 1138.02 178.427C1138.84 179.009 1139.46 179.806 1139.87 180.819C1140.3 181.824 1140.51 182.971 1140.51 184.259C1140.51 185.524 1140.3 186.666 1139.88 187.687C1139.47 188.701 1138.86 189.506 1138.05 190.103C1137.24 190.692 1136.25 190.986 1135.08 190.986ZM1135.25 189.372C1136.16 189.372 1136.9 189.152 1137.49 188.712C1138.08 188.273 1138.52 187.668 1138.81 186.898C1139.1 186.121 1139.25 185.241 1139.25 184.259C1139.25 183.262 1139.1 182.382 1138.81 181.62C1138.52 180.85 1138.08 180.25 1137.49 179.818C1136.91 179.386 1136.18 179.17 1135.29 179.17C1134.38 179.17 1133.62 179.393 1133.03 179.841C1132.43 180.289 1131.99 180.898 1131.7 181.667C1131.41 182.437 1131.27 183.301 1131.27 184.259C1131.27 185.225 1131.42 186.097 1131.71 186.875C1132.01 187.644 1132.45 188.253 1133.04 188.701C1133.63 189.148 1134.37 189.372 1135.25 189.372ZM1042.26 225.986C1041.09 225.986 1040.1 225.692 1039.29 225.103C1038.48 224.506 1037.87 223.701 1037.45 222.687C1037.04 221.666 1036.83 220.524 1036.83 219.259C1036.83 217.971 1037.04 216.824 1037.45 215.819C1037.88 214.806 1038.5 214.009 1039.32 213.427C1040.13 212.846 1041.14 212.556 1042.33 212.556C1043.49 212.556 1044.49 212.85 1045.32 213.439C1046.16 214.028 1046.79 214.829 1047.23 215.843C1047.68 216.856 1047.9 217.995 1047.9 219.259C1047.9 220.532 1047.68 221.674 1047.23 222.687C1046.78 223.701 1046.14 224.506 1045.3 225.103C1044.46 225.692 1043.45 225.986 1042.26 225.986ZM1036.53 231.288V212.909H1038.09V222.487H1038.28V231.288H1036.53ZM1042.08 224.372C1042.97 224.372 1043.71 224.148 1044.3 223.701C1044.89 223.253 1045.33 222.644 1045.62 221.875C1045.92 221.097 1046.07 220.225 1046.07 219.259C1046.07 218.301 1045.92 217.437 1045.63 216.667C1045.34 215.898 1044.9 215.289 1044.3 214.841C1043.71 214.393 1042.96 214.17 1042.05 214.17C1041.16 214.17 1040.42 214.386 1039.83 214.818C1039.25 215.25 1038.82 215.85 1038.53 216.62C1038.24 217.382 1038.09 218.262 1038.09 219.259C1038.09 220.241 1038.24 221.121 1038.53 221.898C1038.82 222.668 1039.26 223.273 1039.85 223.712C1040.43 224.152 1041.18 224.372 1042.08 224.372ZM1050.49 225.633V212.909H1052.05V215.972L1051.74 215.572C1051.88 215.195 1052.07 214.849 1052.29 214.535C1052.52 214.213 1052.77 213.95 1053.04 213.745C1053.37 213.455 1053.75 213.235 1054.19 213.086C1054.63 212.929 1055.07 212.838 1055.52 212.815C1055.97 212.783 1056.38 212.815 1056.75 212.909V214.535C1056.28 214.417 1055.78 214.39 1055.23 214.452C1054.68 214.515 1054.17 214.735 1053.71 215.112C1053.28 215.442 1052.97 215.839 1052.75 216.302C1052.54 216.758 1052.4 217.245 1052.33 217.763C1052.26 218.273 1052.22 218.78 1052.22 219.283V225.633H1050.49ZM1064.07 225.986C1062.8 225.986 1061.72 225.7 1060.83 225.126C1059.93 224.553 1059.24 223.76 1058.76 222.746C1058.28 221.733 1058.04 220.571 1058.04 219.259C1058.04 217.924 1058.29 216.754 1058.78 215.748C1059.26 214.743 1059.95 213.961 1060.85 213.404C1061.75 212.838 1062.82 212.556 1064.07 212.556C1065.34 212.556 1066.42 212.842 1067.32 213.416C1068.22 213.981 1068.91 214.77 1069.38 215.784C1069.86 216.789 1070.1 217.947 1070.1 219.259C1070.1 220.594 1069.86 221.769 1069.38 222.782C1068.9 223.787 1068.21 224.572 1067.3 225.138C1066.4 225.704 1065.32 225.986 1064.07 225.986ZM1064.07 224.325C1065.48 224.325 1066.53 223.858 1067.22 222.923C1067.91 221.981 1068.26 220.759 1068.26 219.259C1068.26 217.72 1067.91 216.494 1067.21 215.583C1066.52 214.672 1065.47 214.217 1064.07 214.217C1063.11 214.217 1062.33 214.433 1061.71 214.865C1061.1 215.289 1060.64 215.882 1060.33 216.644C1060.03 217.398 1059.88 218.269 1059.88 219.259C1059.88 220.791 1060.24 222.02 1060.94 222.947C1061.65 223.866 1062.69 224.325 1064.07 224.325ZM1077.97 225.986C1076.69 225.986 1075.61 225.7 1074.72 225.126C1073.83 224.553 1073.16 223.764 1072.7 222.758C1072.24 221.745 1072 220.583 1071.99 219.271C1072 217.936 1072.25 216.765 1072.72 215.76C1073.19 214.747 1073.87 213.961 1074.76 213.404C1075.65 212.838 1076.72 212.556 1077.99 212.556C1079.27 212.556 1080.39 212.87 1081.34 213.498C1082.3 214.126 1082.96 214.986 1083.31 216.078L1081.61 216.62C1081.32 215.858 1080.84 215.269 1080.19 214.853C1079.54 214.429 1078.81 214.217 1077.97 214.217C1077.04 214.217 1076.27 214.433 1075.65 214.865C1075.04 215.289 1074.58 215.882 1074.29 216.644C1073.99 217.406 1073.83 218.281 1073.83 219.271C1073.84 220.795 1074.2 222.02 1074.89 222.947C1075.58 223.866 1076.61 224.325 1077.97 224.325C1078.84 224.325 1079.57 224.129 1080.18 223.736C1080.79 223.335 1081.25 222.754 1081.57 221.992L1083.31 222.511C1082.84 223.642 1082.15 224.506 1081.24 225.103C1080.33 225.692 1079.24 225.986 1077.97 225.986ZM1090.78 225.986C1089.54 225.986 1088.46 225.711 1087.55 225.162C1086.65 224.612 1085.95 223.838 1085.44 222.841C1084.94 221.843 1084.69 220.673 1084.69 219.33C1084.69 217.94 1084.94 216.738 1085.43 215.725C1085.93 214.712 1086.62 213.93 1087.52 213.38C1088.42 212.83 1089.49 212.556 1090.71 212.556C1091.97 212.556 1093.04 212.846 1093.93 213.427C1094.81 214.001 1095.49 214.825 1095.94 215.901C1096.4 216.977 1096.61 218.262 1096.57 219.754H1094.8V219.141C1094.77 217.492 1094.41 216.247 1093.73 215.407C1093.05 214.566 1092.06 214.146 1090.76 214.146C1089.39 214.146 1088.34 214.59 1087.61 215.477C1086.89 216.365 1086.53 217.629 1086.53 219.271C1086.53 220.873 1086.89 222.118 1087.61 223.006C1088.34 223.885 1089.38 224.325 1090.71 224.325C1091.62 224.325 1092.42 224.117 1093.09 223.701C1093.77 223.277 1094.31 222.668 1094.7 221.875L1096.32 222.499C1095.82 223.606 1095.07 224.466 1094.09 225.079C1093.12 225.684 1092.01 225.986 1090.78 225.986ZM1085.92 219.754V218.305H1095.64V219.754H1085.92ZM1103.93 225.974C1102.44 225.974 1101.21 225.652 1100.24 225.008C1099.28 224.364 1098.69 223.469 1098.47 222.322L1100.24 222.028C1100.43 222.75 1100.86 223.328 1101.53 223.76C1102.2 224.184 1103.03 224.396 1104.02 224.396C1104.99 224.396 1105.75 224.195 1106.31 223.795C1106.87 223.387 1107.15 222.833 1107.15 222.134C1107.15 221.741 1107.05 221.423 1106.87 221.179C1106.7 220.928 1106.34 220.696 1105.8 220.484C1105.26 220.272 1104.45 220.021 1103.38 219.73C1102.22 219.416 1101.32 219.102 1100.67 218.788C1100.01 218.474 1099.55 218.112 1099.28 217.704C1099 217.288 1098.86 216.781 1098.86 216.184C1098.86 215.462 1099.07 214.829 1099.48 214.287C1099.88 213.738 1100.45 213.313 1101.17 213.015C1101.89 212.709 1102.73 212.556 1103.69 212.556C1104.65 212.556 1105.51 212.713 1106.26 213.027C1107.02 213.333 1107.64 213.765 1108.1 214.323C1108.56 214.88 1108.84 215.528 1108.92 216.267L1107.16 216.585C1107.04 215.839 1106.67 215.25 1106.04 214.818C1105.42 214.378 1104.63 214.15 1103.67 214.134C1102.77 214.111 1102.03 214.283 1101.47 214.653C1100.9 215.014 1100.62 215.497 1100.62 216.102C1100.62 216.439 1100.72 216.73 1100.92 216.974C1101.13 217.209 1101.5 217.433 1102.03 217.645C1102.57 217.857 1103.34 218.089 1104.34 218.34C1105.51 218.639 1106.43 218.953 1107.1 219.283C1107.77 219.613 1108.24 220.001 1108.52 220.449C1108.81 220.897 1108.95 221.45 1108.95 222.11C1108.95 223.312 1108.5 224.258 1107.6 224.949C1106.72 225.633 1105.49 225.974 1103.93 225.974ZM1116.31 225.974C1114.82 225.974 1113.59 225.652 1112.62 225.008C1111.66 224.364 1111.07 223.469 1110.85 222.322L1112.62 222.028C1112.81 222.75 1113.24 223.328 1113.9 223.76C1114.58 224.184 1115.41 224.396 1116.4 224.396C1117.37 224.396 1118.13 224.195 1118.69 223.795C1119.25 223.387 1119.52 222.833 1119.52 222.134C1119.52 221.741 1119.43 221.423 1119.25 221.179C1119.08 220.928 1118.72 220.696 1118.18 220.484C1117.64 220.272 1116.83 220.021 1115.75 219.73C1114.6 219.416 1113.7 219.102 1113.04 218.788C1112.39 218.474 1111.93 218.112 1111.65 217.704C1111.38 217.288 1111.24 216.781 1111.24 216.184C1111.24 215.462 1111.45 214.829 1111.86 214.287C1112.26 213.738 1112.83 213.313 1113.55 213.015C1114.27 212.709 1115.11 212.556 1116.07 212.556C1117.03 212.556 1117.89 212.713 1118.64 213.027C1119.4 213.333 1120.02 213.765 1120.48 214.323C1120.94 214.88 1121.22 215.528 1121.3 216.267L1119.54 216.585C1119.42 215.839 1119.05 215.25 1118.42 214.818C1117.8 214.378 1117.01 214.15 1116.05 214.134C1115.15 214.111 1114.41 214.283 1113.85 214.653C1113.28 215.014 1113 215.497 1113 216.102C1113 216.439 1113.1 216.73 1113.3 216.974C1113.51 217.209 1113.88 217.433 1114.41 217.645C1114.95 217.857 1115.72 218.089 1116.72 218.34C1117.89 218.639 1118.81 218.953 1119.48 219.283C1120.15 219.613 1120.62 220.001 1120.9 220.449C1121.19 220.897 1121.33 221.45 1121.33 222.11C1121.33 223.312 1120.88 224.258 1119.98 224.949C1119.1 225.633 1117.87 225.974 1116.31 225.974Z" fill="#FCFCFC"/>
<path d="M192.145 126.745V147.379C192.145 153.569 188.882 157.695 181.269 157.695H163.869C156.256 157.695 152.994 153.569 152.994 147.379V126.745C152.994 120.555 156.256 116.428 163.869 116.428H181.269C188.882 116.428 192.145 120.555 192.145 126.745Z" stroke="#ACC5F4" stroke-width="3.25214" stroke-miterlimit="10" stroke-linecap="round" stroke-linejoin="round"/>
<path d="M178.007 121.587V125.713C178.007 127.983 179.965 129.84 182.357 129.84H186.707" stroke="#ACC5F4" stroke-width="3.25214" stroke-miterlimit="10" stroke-linecap="round" stroke-linejoin="round"/>
<path d="M163.869 139.125H172.569" stroke="#ACC5F4" stroke-width="3.25214" stroke-miterlimit="10" stroke-linecap="round" stroke-linejoin="round"/>
<path d="M163.869 147.379H181.27" stroke="#ACC5F4" stroke-width="3.25214" stroke-miterlimit="10" stroke-linecap="round" stroke-linejoin="round"/>
<path d="M774.495 153.889C786.458 153.889 796.246 144.604 796.246 133.255C796.246 121.907 786.458 112.621 774.495 112.621C762.533 112.621 752.745 121.907 752.745 133.255C752.745 144.604 762.533 153.889 774.495 153.889Z" stroke="#ACC5F4" stroke-width="3.55894" stroke-linecap="round" stroke-linejoin="round"/>
<path d="M765.252 133.255L771.407 139.095L783.74 127.416" fill="#ACC5F4"/>
<path d="M765.252 133.255L771.407 139.095L783.74 127.416" stroke="#ACC5F4" stroke-width="3.55894" stroke-linecap="round" stroke-linejoin="round"/>
<path d="M1091.52 147.421H1089.87C1088.13 147.421 1086.47 148.06 1085.25 149.216L1081.54 152.703C1079.84 154.292 1077.08 154.292 1075.38 152.703L1071.66 149.216C1070.44 148.06 1068.77 147.421 1067.05 147.421H1065.42C1061.81 147.421 1058.89 144.677 1058.89 141.293V118.781C1058.89 115.397 1061.81 112.653 1065.42 112.653H1091.52C1095.13 112.653 1098.04 115.397 1098.04 118.781V141.293C1098.04 144.656 1095.13 147.421 1091.52 147.421Z" stroke="#ACC5F4" stroke-width="3.55894" stroke-miterlimit="10" stroke-linecap="round" stroke-linejoin="round"/>
<path d="M1078.47 129.139C1081.27 129.139 1083.54 126.987 1083.54 124.332C1083.54 121.676 1081.27 119.524 1078.47 119.524C1075.67 119.524 1073.4 121.676 1073.4 124.332C1073.4 126.987 1075.67 129.139 1078.47 129.139Z" fill="#ACC5F4" stroke="#ACC5F4" stroke-width="3.55894" stroke-linecap="round" stroke-linejoin="round"/>
<path d="M1087.17 140.818C1087.17 137.104 1083.27 134.092 1078.47 134.092C1073.66 134.092 1069.77 137.104 1069.77 140.818" fill="#ACC5F4"/>
<path d="M1087.17 140.818C1087.17 137.104 1083.27 134.092 1078.47 134.092C1073.66 134.092 1069.77 137.104 1069.77 140.818" stroke="#ACC5F4" stroke-width="3.55894" stroke-linecap="round" stroke-linejoin="round"/>
<path d="M460.904 137.062V127.199" stroke="#ACC5F4" stroke-width="3.55894" stroke-miterlimit="10" stroke-linecap="round" stroke-linejoin="round"/>
<path d="M460.904 157.696V151.506" stroke="#ACC5F4" stroke-width="3.55894" stroke-miterlimit="10" stroke-linecap="round" stroke-linejoin="round"/>
<path d="M476.129 157.696V127.199" stroke="#ACC5F4" stroke-width="3.55894" stroke-miterlimit="10" stroke-linecap="round" stroke-linejoin="round"/>
<path d="M464.384 123.237C464.384 124.248 463.949 125.197 463.231 125.858C462.535 126.538 461.556 126.951 460.469 126.951H455.575C456.184 126.188 456.554 125.197 456.554 124.166V122.308C456.554 121.277 456.184 120.286 455.575 119.523H460.469C462.622 119.523 464.384 121.194 464.384 123.237Z" fill="#ACC5F4" stroke="#ACC5F4" stroke-width="3.55894" stroke-miterlimit="10" stroke-linecap="round" stroke-linejoin="round"/>
<path d="M456.554 122.308V124.166C456.554 125.197 456.184 126.188 455.575 126.951C453.922 129.035 450.529 129.737 447.375 127.075C447.027 126.786 446.766 126.167 446.766 125.713V120.885C446.766 120.493 446.983 119.915 447.266 119.626C450.007 116.902 453.313 117.294 455.118 119.007C455.27 119.151 455.423 119.317 455.575 119.502C456.184 120.286 456.554 121.277 456.554 122.308Z" fill="#ACC5F4" stroke="#ACC5F4" stroke-width="3.55894" stroke-miterlimit="10" stroke-linecap="round" stroke-linejoin="round"/>
<path d="M472.649 123.237C472.649 124.248 473.084 125.197 473.802 125.858C474.498 126.538 475.477 126.951 476.564 126.951H481.458C480.849 126.188 480.479 125.197 480.479 124.166V122.308C480.479 121.277 480.849 120.286 481.458 119.523H476.564C474.411 119.523 472.649 121.194 472.649 123.237Z" fill="#ACC5F4" stroke="#ACC5F4" stroke-width="3.55894" stroke-miterlimit="10" stroke-linecap="round" stroke-linejoin="round"/>
<path d="M480.479 122.308V124.166C480.479 125.197 480.849 126.188 481.458 126.951C483.111 129.035 486.504 129.737 489.658 127.075C490.006 126.786 490.267 126.167 490.267 125.713V120.885C490.267 120.493 490.049 119.915 489.767 119.626C487.026 116.902 483.72 117.294 481.915 119.007C481.763 119.151 481.61 119.317 481.458 119.502C480.849 120.286 480.479 121.277 480.479 122.308Z" fill="#ACC5F4" stroke="#ACC5F4" stroke-width="3.55894" stroke-miterlimit="10" stroke-linecap="round" stroke-linejoin="round"/>
<path d="M464.166 140.157V148.411C464.166 150.123 462.709 151.506 460.903 151.506C459.098 151.506 457.641 150.123 457.641 148.411V140.157C457.641 138.444 459.098 137.062 460.903 137.062C462.709 137.062 464.166 138.444 464.166 140.157Z" fill="#ACC5F4" stroke="#ACC5F4" stroke-width="3.55894" stroke-miterlimit="10" stroke-linecap="round" stroke-linejoin="round"/>
</svg>
