<svg width="80" height="80" viewBox="0 0 80 80" fill="none" xmlns="http://www.w3.org/2000/svg">
<path d="M31.6667 45.8334C31.6667 49.0667 34.1668 51.6667 37.2335 51.6667H43.5C46.1667 51.6667 48.3334 49.4 48.3334 46.5667C48.3334 43.5334 47.0001 42.4334 45.0334 41.7334L35.0001 38.2334C33.0334 37.5334 31.7001 36.4667 31.7001 33.4C31.7001 30.6 33.8667 28.3 36.5334 28.3H42.8001C45.8667 28.3 48.3668 30.9 48.3668 34.1334" stroke="#008BA9" stroke-width="1.5" stroke-linecap="round" stroke-linejoin="round"/>
<path d="M40 25V55" stroke="#008BA9" stroke-width="1.5" stroke-linecap="round" stroke-linejoin="round"/>
<path d="M73.3334 40C73.3334 58.4 58.4001 73.3333 40.0001 73.3333C21.6001 73.3333 6.66675 58.4 6.66675 40C6.66675 21.6 21.6001 6.66663 40.0001 6.66663" stroke="#292D32" stroke-width="1.5" stroke-linecap="round" stroke-linejoin="round"/>
<path d="M56.6667 10V23.3333H70.0001" stroke="#292D32" stroke-width="1.5" stroke-linecap="round" stroke-linejoin="round"/>
<path d="M73.3334 6.66663L56.6667 23.3333" stroke="#292D32" stroke-width="1.5" stroke-linecap="round" stroke-linejoin="round"/>
</svg>
