<svg width="375" height="211" viewBox="0 0 375 211" fill="none" xmlns="http://www.w3.org/2000/svg">
<path d="M6.08256 177.71L9.38658 171.003L12.4125 177.146C12.2263 177.142 12.0398 177.141 11.8539 177.141C11.758 177.141 11.6614 177.141 11.5636 177.142L9.89482 173.754L9.38658 172.723L8.87804 173.754L7.01591 177.534C6.70104 177.587 6.38917 177.646 6.08256 177.71ZM9.38658 174.098L11.2272 177.835C11.4349 177.83 11.6438 177.828 11.8539 177.828C12.3925 177.828 12.9242 177.843 13.4473 177.87L9.38658 169.628L4.92456 178.685C5.6995 178.478 6.52145 178.304 7.38089 178.169L9.38658 174.098Z" fill="#6D6D6D"/>
<path d="M11.1696 179.642C11.6518 179.538 12.1368 179.787 12.3533 180.23C12.7117 180.963 12.1778 181.818 11.3616 181.818H9.39505C8.25991 181.818 7.95049 180.567 9.02963 180.215C9.70316 179.995 10.4188 179.803 11.1696 179.642ZM6.61542 190.314C4.31422 189.119 2.90792 187.52 2.90792 185.764C2.90792 185.4 2.96816 185.043 3.08417 184.695C3.21699 184.297 3.618 184.071 4.03792 184.071H14.6006C15.4465 184.071 15.9999 183.185 15.6285 182.425L14.7741 180.677C14.4238 179.96 14.8969 179.116 15.6941 179.084C16.0775 179.069 16.4653 179.061 16.8569 179.061C18.0718 179.061 19.2507 179.136 20.3741 179.276C20.4048 179.28 20.4149 179.239 20.3858 179.228C20.4549 179.253 20.5249 179.278 20.5929 179.304C20.5942 179.304 20.5955 179.305 20.5969 179.305C20.6187 179.308 20.6254 179.276 20.6043 179.27C20.4688 179.232 20.3319 179.194 20.1934 179.157C20.1932 179.157 20.1931 179.157 20.193 179.157C20.1929 179.157 20.1927 179.157 20.1926 179.157C18.2502 178.646 16.0154 178.353 13.6367 178.35C13.6227 178.349 13.6084 178.349 13.5943 178.349C13.0528 178.349 12.519 178.364 11.9943 178.394C11.8193 178.403 11.6453 178.415 11.4726 178.427C9.81522 178.55 8.25732 178.815 6.85549 179.195C6.73439 179.227 6.61445 179.261 6.49568 179.296C5.66459 179.537 4.89263 179.82 4.19244 180.138C1.60867 181.309 0 182.96 0 184.788C0 187.135 2.65212 189.189 6.61542 190.314Z" fill="#0652DD"/>
<path d="M360.249 17.391L363.553 10.6843L366.579 16.8271C366.393 16.8234 366.206 16.822 366.02 16.822C365.925 16.822 365.828 16.8226 365.73 16.8234L364.061 13.4354L363.553 12.4039L363.045 13.4354L361.182 17.2154C360.868 17.2686 360.556 17.3273 360.249 17.391ZM363.553 13.7793L365.394 17.5161C365.601 17.5115 365.81 17.5097 366.02 17.5097C366.559 17.5097 367.091 17.5239 367.614 17.5515L363.553 9.30886L359.091 18.3661C359.866 18.1589 360.688 17.9856 361.547 17.8504L363.553 13.7793Z" fill="#6D6D6D"/>
<path d="M365.336 19.3231C365.818 19.2196 366.303 19.468 366.52 19.9111C366.878 20.6444 366.344 21.4996 365.528 21.4996H363.562C362.426 21.4996 362.117 20.2484 363.196 19.8963C363.87 19.6765 364.585 19.4844 365.336 19.3231ZM360.782 29.9951C358.481 28.8004 357.074 27.2016 357.074 25.4451C357.074 25.0814 357.135 24.7246 357.251 24.3766C357.383 23.9782 357.785 23.7527 358.204 23.7527H368.767C369.613 23.7527 370.166 22.8663 369.795 22.1063L368.941 20.3582C368.59 19.6414 369.063 18.7969 369.861 18.7653C370.244 18.7501 370.632 18.7423 371.023 18.7423C372.238 18.7423 373.417 18.817 374.541 18.9575C374.571 18.9613 374.581 18.92 374.552 18.9094C374.621 18.9347 374.691 18.9593 374.759 18.9851C374.761 18.9856 374.762 18.986 374.763 18.9862C374.785 18.9891 374.792 18.9577 374.771 18.9517C374.635 18.9129 374.498 18.8754 374.36 18.8388C374.36 18.8388 374.36 18.8388 374.36 18.8387C374.359 18.8387 374.359 18.8387 374.359 18.8386C372.417 18.327 370.182 18.0341 367.803 18.031C367.789 18.0306 367.775 18.0306 367.761 18.0306C367.219 18.0306 366.685 18.0458 366.161 18.0749C365.986 18.0847 365.812 18.096 365.639 18.1089C363.982 18.2318 362.424 18.4964 361.022 18.8761C360.901 18.9089 360.781 18.9425 360.662 18.977C359.831 19.2184 359.059 19.5011 358.359 19.819C355.775 20.9906 354.167 22.641 354.167 24.4692C354.167 26.8163 356.819 28.8703 360.782 29.9951Z" fill="#0652DD"/>
<path d="M189.416 8.08228L192.72 1.37555L195.746 7.51841C195.56 7.51466 195.373 7.51329 195.187 7.51329C195.092 7.51329 194.995 7.51386 194.897 7.51466L193.228 4.12669L192.72 3.09514L192.212 4.12669L190.349 7.90666C190.035 7.95993 189.723 8.01854 189.416 8.08228ZM192.72 4.47054L194.561 8.20737C194.768 8.20282 194.977 8.20099 195.187 8.20099C195.726 8.20099 196.258 8.21522 196.781 8.24276L192.72 0.000148773L188.258 9.05737C189.033 8.85022 189.855 8.67688 190.714 8.54166L192.72 4.47054Z" fill="#6D6D6D"/>
<path d="M194.503 10.0143C194.985 9.91075 195.47 10.1591 195.687 10.6022C196.045 11.3356 195.511 12.1907 194.695 12.1907H192.729C191.593 12.1907 191.284 10.9396 192.363 10.5875C193.037 10.3677 193.752 10.1755 194.503 10.0143ZM189.949 20.6863C187.648 19.4916 186.241 17.8927 186.241 16.1363C186.241 15.7726 186.302 15.4157 186.418 15.0678C186.55 14.6694 186.951 14.4439 187.371 14.4439H197.934C198.78 14.4439 199.333 13.5575 198.962 12.7974L198.108 11.0493C197.757 10.3325 198.23 9.4881 199.028 9.45645C199.411 9.44123 199.799 9.43347 200.19 9.43347C201.405 9.43347 202.584 9.50812 203.708 9.64861C203.738 9.65246 203.748 9.61118 203.719 9.60052C203.788 9.62586 203.858 9.65042 203.926 9.6763C203.928 9.67679 203.929 9.67713 203.93 9.67731C203.952 9.68023 203.959 9.64887 203.938 9.64282C203.802 9.6041 203.665 9.56652 203.527 9.53001C203.527 9.52997 203.527 9.52995 203.527 9.5299C203.526 9.52984 203.526 9.52983 203.526 9.52979C201.584 9.01813 199.349 8.72525 196.97 8.72215C196.956 8.7218 196.942 8.7218 196.928 8.7218C196.386 8.7218 195.852 8.73695 195.328 8.76609C195.153 8.77584 194.979 8.7872 194.806 8.80005C193.149 8.92292 191.591 9.1876 190.189 9.56724C190.068 9.60005 189.948 9.63367 189.829 9.6682C188.998 9.90959 188.226 10.1923 187.526 10.5102C184.942 11.6818 183.333 13.3322 183.333 15.1604C183.333 17.5075 185.986 19.5615 189.949 20.6863Z" fill="#0652DD"/>
<path d="M30.0408 36.0087L33.3448 29.3019L36.3708 35.4448C36.1845 35.441 35.998 35.4397 35.8121 35.4397C35.7163 35.4397 35.6196 35.4403 35.5218 35.441L33.8531 32.0531L33.3448 31.0215L32.8363 32.0531L30.9742 35.833C30.6593 35.8863 30.3474 35.9449 30.0408 36.0087ZM33.3448 32.3969L35.1854 36.1338C35.3932 36.1292 35.6021 36.1274 35.8121 36.1274C36.3508 36.1274 36.8824 36.1416 37.4055 36.1692L33.3448 27.9265L28.8828 36.9838C29.6578 36.7766 30.4797 36.6033 31.3391 36.4681L33.3448 32.3969Z" fill="#6D6D6D"/>
<path d="M35.1278 37.9408C35.61 37.8373 36.0951 38.0856 36.3116 38.5287C36.67 39.2621 36.136 40.1173 35.3198 40.1173H33.3533C32.2182 40.1173 31.9087 38.8661 32.9879 38.514C33.6614 38.2942 34.3771 38.102 35.1278 37.9408ZM30.5737 48.6128C28.2725 47.4181 26.8662 45.8193 26.8662 44.0628C26.8662 43.6991 26.9264 43.3422 27.0424 42.9943C27.1752 42.5959 27.5762 42.3704 27.9962 42.3704H38.5588C39.4048 42.3704 39.9582 41.484 39.5867 40.724L38.7324 38.9759C38.382 38.259 38.8551 37.4146 39.6524 37.383C40.0358 37.3677 40.4236 37.36 40.8152 37.36C42.0301 37.36 43.2089 37.4346 44.3323 37.5751C44.363 37.579 44.3732 37.5377 44.3441 37.527C44.4132 37.5524 44.4832 37.5769 44.5511 37.6028C44.5524 37.6033 44.5538 37.6036 44.5551 37.6038C44.5769 37.6067 44.5837 37.5754 44.5625 37.5693C44.4271 37.5306 44.2902 37.493 44.1516 37.4565C44.1515 37.4565 44.1514 37.4565 44.1513 37.4564C44.1511 37.4564 44.151 37.4563 44.1508 37.4563C42.2084 36.9446 39.9736 36.6518 37.595 36.6487C37.5809 36.6483 37.5666 36.6483 37.5525 36.6483C37.011 36.6483 36.4772 36.6635 35.9525 36.6926C35.7775 36.7024 35.6036 36.7137 35.4308 36.7266C33.7735 36.8494 32.2156 37.1141 30.8137 37.4938C30.6926 37.5266 30.5727 37.5602 30.4539 37.5947C29.6228 37.8361 28.8509 38.1188 28.1507 38.4367C25.5669 39.6083 23.9583 41.2587 23.9583 43.0869C23.9583 45.434 26.6104 47.488 30.5737 48.6128Z" fill="#0652DD"/>
<path d="M307.124 160.126L310.428 153.42L313.454 159.562C313.268 159.559 313.082 159.557 312.896 159.557C312.8 159.557 312.703 159.558 312.605 159.559L310.937 156.171L310.428 155.139L309.92 156.171L308.058 159.951C307.743 160.004 307.431 160.063 307.124 160.126ZM310.428 156.515L312.269 160.251C312.477 160.247 312.686 160.245 312.896 160.245C313.434 160.245 313.966 160.259 314.489 160.287L310.428 152.044L305.966 161.101C306.741 160.894 307.563 160.721 308.423 160.586L310.428 156.515Z" fill="#6D6D6D"/>
<path d="M312.211 162.058C312.694 161.955 313.179 162.203 313.395 162.646C313.753 163.38 313.22 164.235 312.403 164.235H310.437C309.302 164.235 308.992 162.984 310.071 162.632C310.745 162.412 311.461 162.22 312.211 162.058ZM307.657 172.73C305.356 171.536 303.95 169.937 303.95 168.18C303.95 167.817 304.01 167.46 304.126 167.112C304.259 166.713 304.66 166.488 305.08 166.488H315.642C316.488 166.488 317.042 165.602 316.67 164.842L315.816 163.093C315.466 162.377 315.939 161.532 316.736 161.501C317.119 161.485 317.507 161.478 317.899 161.478C319.114 161.478 320.292 161.552 321.416 161.693C321.447 161.697 321.457 161.655 321.428 161.645C321.497 161.67 321.567 161.694 321.635 161.72C321.636 161.721 321.637 161.721 321.639 161.721C321.66 161.724 321.667 161.693 321.646 161.687C321.511 161.648 321.374 161.611 321.235 161.574C321.235 161.574 321.235 161.574 321.235 161.574C321.235 161.574 321.234 161.574 321.234 161.574C319.292 161.062 317.057 160.769 314.678 160.766C314.664 160.766 314.65 160.766 314.636 160.766C314.095 160.766 313.561 160.781 313.036 160.81C312.861 160.82 312.687 160.831 312.514 160.844C310.857 160.967 309.299 161.232 307.897 161.611C307.776 161.644 307.656 161.678 307.537 161.712C306.706 161.954 305.934 162.236 305.234 162.554C302.65 163.726 301.042 165.376 301.042 167.204C301.042 169.552 303.694 171.606 307.657 172.73Z" fill="#0652DD"/>
<path d="M167.541 198.396L170.845 191.689L173.871 197.832C173.685 197.828 173.498 197.827 173.312 197.827C173.216 197.827 173.12 197.828 173.022 197.828L171.353 194.44L170.845 193.409L170.336 194.44L168.474 198.22C168.159 198.274 167.847 198.332 167.541 198.396ZM170.845 194.784L172.685 198.521C172.893 198.517 173.102 198.515 173.312 198.515C173.851 198.515 174.382 198.529 174.906 198.556L170.845 190.314L166.383 199.371C167.158 199.164 167.98 198.991 168.839 198.855L170.845 194.784Z" fill="#6D6D6D"/>
<path d="M172.628 200.328C173.11 200.224 173.595 200.473 173.812 200.916C174.17 201.649 173.636 202.504 172.82 202.504H170.854C169.718 202.504 169.409 201.253 170.488 200.901C171.162 200.681 171.877 200.489 172.628 200.328ZM168.074 211C165.773 209.805 164.366 208.206 164.366 206.45C164.366 206.086 164.427 205.729 164.543 205.381C164.675 204.983 165.076 204.758 165.496 204.758H176.059C176.905 204.758 177.458 203.871 177.087 203.111L176.233 201.363C175.882 200.646 176.355 199.802 177.153 199.77C177.536 199.755 177.924 199.747 178.315 199.747C179.53 199.747 180.709 199.822 181.833 199.962C181.863 199.966 181.873 199.925 181.844 199.914C181.913 199.94 181.983 199.964 182.051 199.99C182.053 199.991 182.054 199.991 182.055 199.991C182.077 199.994 182.084 199.963 182.063 199.957C181.927 199.918 181.79 199.88 181.652 199.844C181.652 199.844 181.652 199.844 181.652 199.844C181.651 199.844 181.651 199.844 181.651 199.844C179.709 199.332 177.474 199.039 175.095 199.036C175.081 199.036 175.067 199.036 175.053 199.036C174.511 199.036 173.977 199.051 173.453 199.08C173.278 199.09 173.104 199.101 172.931 199.114C171.274 199.237 169.716 199.501 168.314 199.881C168.193 199.914 168.073 199.947 167.954 199.982C167.123 200.223 166.351 200.506 165.651 200.824C163.067 201.996 161.458 203.646 161.458 205.474C161.458 207.821 164.111 209.875 168.074 211Z" fill="#0652DD"/>
</svg>
