<svg width="80" height="80" viewBox="0 0 80 80" fill="none" xmlns="http://www.w3.org/2000/svg">
<path d="M47.4 32.6001L40 36.3001L47.4 32.6001ZM40 36.3001L32.6 32.6001L40 36.3001ZM40 36.3001V45.5667V36.3001ZM69.6334 21.4668L62.2334 25.1668L69.6334 21.4668ZM69.6334 21.4668L62.2334 17.7668L69.6334 21.4668ZM69.6334 21.4668V30.7334V21.4668ZM47.4 10.3668L40 6.66675L32.6 10.3668H47.4ZM10.3667 21.4668L17.7667 17.7668L10.3667 21.4668ZM10.3667 21.4668L17.7667 25.1668L10.3667 21.4668ZM10.3667 21.4668V30.7334V21.4668ZM40 73.3334L32.6 69.6334L40 73.3334ZM40 73.3334L47.4 69.6334L40 73.3334ZM40 73.3334V64.0668V73.3334ZM17.7667 62.2334L10.3667 58.5334V49.2667L17.7667 62.2334ZM62.2334 62.2334L69.6334 58.5334V49.2667" fill="#0FB56D"/>
<path d="M62.2334 62.2334L69.6334 58.5334V49.2667M47.4 32.6001L40 36.3001L47.4 32.6001ZM40 36.3001L32.6 32.6001L40 36.3001ZM40 36.3001V45.5667V36.3001ZM69.6334 21.4668L62.2334 25.1668L69.6334 21.4668ZM69.6334 21.4668L62.2334 17.7668L69.6334 21.4668ZM69.6334 21.4668V30.7334V21.4668ZM47.4 10.3668L40 6.66675L32.6 10.3668H47.4ZM10.3667 21.4668L17.7667 17.7668L10.3667 21.4668ZM10.3667 21.4668L17.7667 25.1668L10.3667 21.4668ZM10.3667 21.4668V30.7334V21.4668ZM40 73.3334L32.6 69.6334L40 73.3334ZM40 73.3334L47.4 69.6334L40 73.3334ZM40 73.3334V64.0668V73.3334ZM17.7667 62.2334L10.3667 58.5334V49.2667L17.7667 62.2334Z" stroke="#0FB56D" stroke-width="1.5" stroke-linecap="round" stroke-linejoin="round"/>
</svg>
