<svg width="80" height="80" viewBox="0 0 80 80" fill="none" xmlns="http://www.w3.org/2000/svg">
<path d="M57.6333 13.8001L57.4 26.4333C57.3666 28.1667 58.4668 30.4667 59.8668 31.5L68.1334 37.7666C73.4334 41.7666 72.5667 46.6667 66.2334 48.6667L55.4668 52.0333C53.6668 52.6 51.7668 54.5667 51.3001 56.4001L48.7334 66.2C46.7001 73.9333 41.6333 74.7 37.4333 67.9L31.5666 58.4C30.5 56.6666 27.9667 55.3667 25.9667 55.4667L14.8334 56.0333C6.86678 56.4333 4.60008 51.8334 9.80008 45.7667L16.4 38.1C17.6333 36.6667 18.2 34 17.6333 32.2L14.2668 21.4333C12.3002 15.1 15.8335 11.6 22.1335 13.6667L31.9668 16.9C33.6335 17.4334 36.1334 17.0667 37.5334 16.0333L47.8002 8.63333C53.3335 4.63333 57.7667 6.96673 57.6333 13.8001Z" stroke="#FFB800" stroke-width="1.5" stroke-linecap="round" stroke-linejoin="round"/>
<path d="M73.0332 73.3334L62.9333 63.2334" stroke="#FFB800" stroke-width="1.5" stroke-linecap="round" stroke-linejoin="round"/>
</svg>
