<svg width="18" height="16" viewBox="0 0 18 16" fill="none" xmlns="http://www.w3.org/2000/svg">
<path d="M13.1667 0.916656H4.83342C2.33341 0.916656 0.666748 2.16666 0.666748 5.08332V10.9167C0.666748 13.8333 2.33341 15.0833 4.83342 15.0833H13.1667C15.6667 15.0833 17.3334 13.8333 17.3334 10.9167V5.08332C17.3334 2.16666 15.6667 0.916656 13.1667 0.916656ZM13.5584 5.99166L10.9501 8.07499C10.4001 8.51666 9.70008 8.73332 9.00008 8.73332C8.30008 8.73332 7.59175 8.51666 7.05008 8.07499L4.44175 5.99166C4.17508 5.77499 4.13341 5.37499 4.34175 5.10832C4.55841 4.84166 4.95008 4.79166 5.21675 5.00832L7.82508 7.09166C8.45842 7.59999 9.53341 7.59999 10.1667 7.09166L12.7751 5.00832C13.0417 4.79166 13.4417 4.83332 13.6501 5.10832C13.8667 5.37499 13.8251 5.77499 13.5584 5.99166Z" fill="#BABABA"/>
</svg>
