<svg width="151" height="150" viewBox="0 0 151 150" fill="none" xmlns="http://www.w3.org/2000/svg">
<g clip-path="url(#clip0_3612_28816)">
<path d="M75.5 150C116.921 150 150.5 116.421 150.5 75C150.5 33.5786 116.921 0 75.5 0C34.0786 0 0.5 33.5786 0.5 75C0.5 116.421 34.0786 150 75.5 150Z" fill="#0FB56D"/>
<path d="M91.285 148.231C92.7233 147.952 94.1531 147.631 95.5725 147.268C97.9794 146.596 100.351 145.803 102.679 144.893C105.009 143.991 107.294 142.973 109.523 141.843C111.752 140.709 113.924 139.464 116.029 138.112C118.131 136.76 120.165 135.304 122.123 133.75C124.083 132.193 125.965 130.539 127.76 128.793C129.552 127.053 131.257 125.223 132.866 123.312C134.477 121.399 135.992 119.407 137.404 117.343C138.815 115.283 140.123 113.153 141.323 110.962C142.522 108.768 143.611 106.515 144.585 104.212C145.56 101.909 146.42 99.5578 147.16 97.1684C147.794 95.0764 148.336 92.9577 148.785 90.8184L104.223 46.2621C100.459 42.4822 95.9855 39.4837 91.059 37.4393C86.1324 35.3949 80.8502 34.3448 75.5163 34.3496C70.1775 34.3438 64.8903 35.3932 59.9585 37.4376C55.0267 39.482 50.5477 42.4809 46.7788 46.2621C43.0004 50.0322 40.0028 54.5105 37.9575 59.4406C35.9122 64.3707 34.8594 69.6558 34.8594 74.9934C34.8594 80.3309 35.9122 85.6161 37.9575 90.5462C40.0028 95.4763 43.0004 99.9546 46.7788 103.725L91.285 148.225V148.231Z" fill="#0FB56D"/>
<path d="M75.1256 34.4121C85.5131 34.4121 95.9006 38.3809 103.851 46.3246C107.629 50.0947 110.627 54.573 112.672 59.5031C114.717 64.4332 115.77 69.7183 115.77 75.0559C115.77 80.3934 114.717 85.6786 112.672 90.6087C110.627 95.5388 107.629 100.017 103.851 103.787C100.081 107.565 95.6023 110.563 90.6722 112.608C85.7421 114.654 80.4569 115.707 75.1194 115.707C69.7819 115.707 64.4967 114.654 59.5666 112.608C54.6365 110.563 50.1582 107.565 46.3881 103.787C42.6098 100.017 39.6121 95.5388 37.5668 90.6087C35.5215 85.6786 34.4688 80.3934 34.4688 75.0559C34.4688 69.7183 35.5215 64.4332 37.5668 59.5031C39.6121 54.573 42.6098 50.0947 46.3881 46.3246C50.157 42.5434 54.6361 39.5445 59.5679 37.5001C64.4997 35.4557 69.7869 34.4063 75.1256 34.4121ZM93.6256 62.5496C93.034 62.6063 92.4706 62.8295 92.0006 63.1934L69.1631 80.3184L58.5819 69.7434C56.2881 67.3559 51.7694 71.8684 54.1631 74.1621L66.6631 86.6621C67.205 87.1746 67.9075 87.4838 68.6513 87.5373C69.3952 87.5909 70.1347 87.3854 70.7444 86.9559L95.7444 68.2059C97.8444 66.6746 96.5506 62.5934 93.9506 62.5559C93.8445 62.5505 93.7381 62.5505 93.6319 62.5559L93.6256 62.5496Z" fill="white"/>
</g>
<defs>
<clipPath id="clip0_3612_28816">
<rect width="150" height="150" fill="white" transform="translate(0.5)"/>
</clipPath>
</defs>
</svg>
