<svg width="18" height="16" viewBox="0 0 18 16" fill="none" xmlns="http://www.w3.org/2000/svg">
<path d="M13.1666 0.916748H4.83329C2.33329 0.916748 0.666626 2.16675 0.666626 5.08342V10.9167C0.666626 13.8334 2.33329 15.0834 4.83329 15.0834H13.1666C15.6666 15.0834 17.3333 13.8334 17.3333 10.9167V5.08342C17.3333 2.16675 15.6666 0.916748 13.1666 0.916748ZM13.5583 5.99175L10.95 8.07508C10.4 8.51675 9.69996 8.73342 8.99996 8.73342C8.29996 8.73342 7.59163 8.51675 7.04996 8.07508L4.44163 5.99175C4.17496 5.77508 4.13329 5.37508 4.34163 5.10841C4.55829 4.84175 4.94996 4.79175 5.21663 5.00841L7.82496 7.09175C8.45829 7.60008 9.53329 7.60008 10.1666 7.09175L12.775 5.00841C13.0416 4.79175 13.4416 4.83341 13.65 5.10841C13.8666 5.37508 13.825 5.77508 13.5583 5.99175Z" fill="#434343"/>
</svg>
