<svg width="3425" height="684" viewBox="0 0 3425 684" fill="none" xmlns="http://www.w3.org/2000/svg">
<path d="M404.092 290.826H424.261C535.62 290.826 625.901 161.015 625.901 0.873047H202.453C91.1003 0.873047 0.806152 130.685 0.806152 290.826C0.806152 450.969 91.1003 580.78 202.453 580.78C313.812 580.78 404.092 450.969 404.092 290.826Z" fill="url(#paint0_linear_5964_185738)"/>
<path d="M787.21 580.785C787.21 420.642 696.929 290.832 585.57 290.832H424.261H404.092H202.453C127.839 290.832 62.7307 232.497 27.8547 145.855C10.6908 188.519 0.806152 238.057 0.806152 290.832C0.806152 450.975 91.1003 580.785 202.453 580.785H787.21Z" fill="#0B57E0"/>
<path d="M1145.51 525.675C1095.12 525.675 1052.19 514.711 1016.74 492.791C981.276 470.631 954.101 439.842 935.205 400.422C916.541 361.002 907.209 315.285 907.209 263.274C907.209 211.26 916.541 165.544 935.205 126.126C954.101 86.7074 981.276 56.0358 1016.74 34.1106C1052.19 11.952 1095.12 0.873047 1145.51 0.873047C1203.6 0.873047 1251.66 15.5672 1289.68 44.9562C1327.94 74.3451 1354.53 113.88 1369.46 163.562L1295.28 183.504C1285.48 148.284 1267.99 120.645 1242.79 100.586C1217.83 80.5263 1185.41 70.4966 1145.51 70.4966C1109.82 70.4966 1080.07 78.5437 1056.28 94.6378C1032.48 110.732 1014.52 133.24 1002.39 162.162C990.491 191.084 984.546 224.789 984.546 263.274C984.313 301.763 990.142 335.465 1002.04 364.386C1014.17 393.306 1032.14 415.82 1055.93 431.907C1079.96 448.001 1109.82 456.052 1145.51 456.052C1185.41 456.052 1217.83 446.023 1242.79 425.965C1267.99 405.668 1285.48 378.031 1295.28 343.045L1369.46 362.987C1354.53 412.668 1327.94 452.204 1289.68 481.595C1251.66 510.979 1203.6 525.675 1145.51 525.675ZM1610.54 525.675C1572.75 525.675 1539.97 517.16 1512.21 500.132C1484.45 483.11 1462.99 459.668 1447.82 429.813C1432.9 399.726 1425.43 365.088 1425.43 325.9C1425.43 286.482 1433.13 251.845 1448.52 221.99C1463.92 191.901 1485.5 168.577 1513.26 152.016C1541.02 135.222 1573.45 126.825 1610.54 126.825C1648.34 126.825 1681.11 135.339 1708.87 152.366C1736.63 169.393 1758.09 192.834 1773.26 222.689C1788.42 252.545 1796 286.948 1796 325.9C1796 365.32 1788.31 400.074 1772.91 430.161C1757.75 460.016 1736.28 483.458 1708.52 500.486C1680.76 517.276 1648.1 525.675 1610.54 525.675ZM1610.54 456.748C1646.7 456.748 1673.64 444.624 1691.38 420.364C1709.34 395.871 1718.32 364.386 1718.32 325.9C1718.32 286.482 1709.23 254.994 1691.03 231.436C1673.06 207.645 1646.24 195.75 1610.54 195.75C1586.04 195.75 1565.87 201.347 1550 212.543C1534.14 223.506 1522.36 238.783 1514.66 258.376C1506.96 277.735 1503.11 300.241 1503.11 325.9C1503.11 365.552 1512.21 397.277 1530.41 421.066C1548.61 444.856 1575.32 456.748 1610.54 456.748ZM1961.41 515.182L1824.24 137.322H1898.08L1998.5 423.516L2098.94 137.322H2172.77L2035.6 515.182H1961.41ZM2389.76 525.675C2352.2 525.675 2319.19 517.508 2290.73 501.182C2262.5 484.624 2240.45 461.646 2224.6 432.262C2208.96 402.639 2201.15 368.35 2201.15 329.4C2201.15 288.115 2208.85 252.312 2224.24 221.99C2239.87 191.668 2261.57 168.227 2289.33 151.666C2317.09 135.106 2349.4 126.825 2386.26 126.825C2424.75 126.825 2457.53 135.806 2484.59 153.766C2511.65 171.492 2531.83 196.799 2545.13 229.687C2558.66 262.575 2564.02 301.64 2561.22 346.893H2488.09V320.306C2487.62 276.453 2479.22 244.031 2462.89 223.039C2446.79 202.047 2422.18 191.551 2389.06 191.551C2352.44 191.551 2324.91 203.097 2306.47 226.188C2288.04 249.28 2278.83 282.633 2278.83 326.248C2278.83 367.77 2288.04 399.958 2306.47 422.813C2324.91 445.436 2351.5 456.748 2386.26 456.748C2409.12 456.748 2428.84 451.617 2445.4 441.356C2462.19 430.864 2475.26 415.936 2484.59 396.574L2556.33 419.313C2541.63 453.139 2519.35 479.378 2489.49 498.037C2459.63 516.464 2426.39 525.675 2389.76 525.675ZM2255.03 346.893V289.864H2524.83V346.893H2255.03ZM2639.74 515.182V137.322H2704.83V228.987L2695.73 217.092C2700.39 204.963 2706.46 193.884 2713.93 183.854C2721.39 173.591 2730.03 165.195 2739.82 158.664C2749.39 151.666 2760 146.301 2771.66 142.569C2783.56 138.604 2795.69 136.272 2808.06 135.572C2820.42 134.639 2832.32 135.222 2843.75 137.322V205.896C2831.39 202.63 2817.62 201.697 2802.46 203.097C2787.53 204.497 2773.76 209.278 2761.17 217.442C2749.27 225.139 2739.82 234.468 2732.82 245.431C2726.06 256.394 2721.16 268.639 2718.13 282.167C2715.09 295.459 2713.58 309.574 2713.58 324.502V515.182H2639.74ZM2917.39 515.182V0.873047H2990.52V515.182H2917.39ZM3146.69 683.116L3219.82 484.038L3220.88 542.82L3056.06 137.322H3132.34L3255.51 450.451H3233.12L3350.7 137.322H3424.88L3216.33 683.116H3146.69Z" fill="#434343"/>
<defs>
<linearGradient id="paint0_linear_5964_185738" x1="313.36" y1="0.873047" x2="313.36" y2="580.78" gradientUnits="userSpaceOnUse">
<stop stop-color="#0652DD"/>
<stop offset="0.473958" stop-color="#083587"/>
<stop offset="1" stop-color="#0176C3"/>
</linearGradient>
</defs>
</svg>
