<svg width="612" height="214" viewBox="0 0 612 214" fill="none" xmlns="http://www.w3.org/2000/svg">
<g clip-path="url(#clip0_30_2493)">
<path d="M612 0H0V214H612V0Z" fill="white"/>
<path d="M116.947 99.5H119.895C136.172 99.5 149.368 80.4728 149.368 57H87.474C71.198 57 58 76.0272 58 99.5C58 122.973 71.198 142 87.474 142C103.751 142 116.947 122.973 116.947 99.5Z" fill="url(#paint0_linear_30_2493)"/>
<path d="M172.946 142C172.946 118.527 159.75 99.5 143.473 99.5H119.895H116.947H87.474C76.568 99.5 67.0513 90.9496 61.9536 78.25C59.4448 84.5035 58 91.7646 58 99.5C58 122.973 71.198 142 87.474 142H172.946Z" fill="#0B57E0"/>
<path d="M220.832 133.923C213.466 133.923 207.192 132.316 202.009 129.103C196.826 125.855 192.854 121.342 190.092 115.564C187.364 109.786 186 103.085 186 95.4615C186 87.8376 187.364 81.1367 190.092 75.359C192.854 69.5812 196.826 65.0855 202.009 61.8718C207.192 58.6239 213.466 57 220.832 57C229.322 57 236.347 59.1538 241.905 63.4615C247.497 67.7692 251.384 73.5641 253.566 80.8462L242.723 83.7692C241.291 78.6068 238.734 74.5556 235.051 71.6154C231.402 68.6752 226.663 67.2051 220.832 67.2051C215.615 67.2051 211.267 68.3846 207.789 70.7436C204.311 73.1026 201.685 76.4017 199.912 80.641C198.173 84.8803 197.304 89.8205 197.304 95.4615C197.27 101.103 198.122 106.043 199.861 110.282C201.634 114.521 204.26 117.821 207.738 120.179C211.25 122.538 215.615 123.718 220.832 123.718C226.663 123.718 231.402 122.248 235.051 119.308C238.734 116.333 241.291 112.282 242.723 107.154L253.566 110.077C251.384 117.359 247.497 123.154 241.905 127.462C236.347 131.769 229.322 133.923 220.832 133.923ZM288.804 133.923C283.28 133.923 278.489 132.675 274.431 130.179C270.373 127.684 267.236 124.248 265.02 119.872C262.838 115.462 261.746 110.385 261.746 104.641C261.746 98.8632 262.872 93.7863 265.122 89.4103C267.373 85 270.527 81.5812 274.585 79.1538C278.642 76.6923 283.382 75.4615 288.804 75.4615C294.328 75.4615 299.119 76.7094 303.176 79.2051C307.234 81.7008 310.371 85.1367 312.588 89.5128C314.804 93.8889 315.912 98.9316 315.912 104.641C315.912 110.419 314.787 115.513 312.536 119.923C310.32 124.299 307.183 127.735 303.125 130.231C299.067 132.692 294.294 133.923 288.804 133.923ZM288.804 123.82C294.089 123.82 298.027 122.043 300.619 118.487C303.245 114.897 304.557 110.282 304.557 104.641C304.557 98.8632 303.228 94.2479 300.568 90.7949C297.942 87.3077 294.021 85.5641 288.804 85.5641C285.223 85.5641 282.274 86.3846 279.955 88.0256C277.636 89.6325 275.915 91.8718 274.789 94.7436C273.664 97.5812 273.101 100.88 273.101 104.641C273.101 110.453 274.431 115.103 277.091 118.59C279.751 122.077 283.655 123.82 288.804 123.82ZM340.089 132.385L320.039 77H330.832L345.511 118.949L360.191 77H370.983L350.933 132.385H340.089ZM402.699 133.923C397.21 133.923 392.385 132.726 388.225 130.333C384.099 127.906 380.876 124.538 378.558 120.231C376.273 115.889 375.131 110.863 375.131 105.154C375.131 99.1026 376.256 93.8547 378.506 89.4103C380.791 84.9658 383.962 81.5299 388.02 79.1026C392.078 76.6752 396.8 75.4615 402.188 75.4615C407.814 75.4615 412.605 76.7778 416.56 79.4103C420.516 82.0085 423.465 85.7179 425.409 90.5385C427.387 95.359 428.171 101.085 427.762 107.718H417.072V103.821C417.004 97.3932 415.776 92.641 413.389 89.5641C411.036 86.4872 407.439 84.9487 402.597 84.9487C397.244 84.9487 393.22 86.641 390.526 90.0256C387.832 93.4103 386.485 98.2991 386.485 104.692C386.485 110.778 387.832 115.496 390.526 118.846C393.22 122.162 397.107 123.82 402.188 123.82C405.53 123.82 408.411 123.068 410.832 121.564C413.287 120.026 415.197 117.838 416.56 115L427.046 118.333C424.898 123.291 421.641 127.137 417.277 129.872C412.912 132.573 408.053 133.923 402.699 133.923ZM383.007 107.718V99.359H422.443V107.718H383.007ZM439.239 132.385V77H448.752V90.4359L447.422 88.6923C448.104 86.9145 448.991 85.2906 450.082 83.8205C451.173 82.3162 452.435 81.0855 453.867 80.1282C455.265 79.1026 456.816 78.3162 458.521 77.7692C460.26 77.188 462.033 76.8462 463.841 76.7436C465.648 76.6068 467.387 76.6923 469.058 77V87.0513C467.251 86.5726 465.239 86.4359 463.022 86.641C460.84 86.8462 458.828 87.547 456.987 88.7436C455.248 89.8718 453.867 91.2393 452.844 92.8461C451.855 94.453 451.139 96.2479 450.696 98.2308C450.252 100.179 450.031 102.248 450.031 104.436V132.385H439.239ZM479.821 132.385V57H490.511V132.385H479.821ZM513.337 157L524.027 127.82L524.181 136.436L500.09 77H511.24L529.244 122.897H525.971L543.157 77H554L523.516 157H513.337Z" fill="#434343"/>
</g>
<defs>
<linearGradient id="paint0_linear_30_2493" x1="103.685" y1="57" x2="103.685" y2="142" gradientUnits="userSpaceOnUse">
<stop stop-color="#03296E"/>
<stop offset="0.660991" stop-color="#0652DD"/>
<stop offset="1" stop-color="#0176C3"/>
</linearGradient>
<clipPath id="clip0_30_2493">
<rect width="612" height="214" fill="white"/>
</clipPath>
</defs>
</svg>
