<svg width="161" height="54" viewBox="0 0 161 54" fill="none" xmlns="http://www.w3.org/2000/svg">
<path d="M23.1695 25.6036L29.1032 15.5222L34.5376 24.756C34.203 24.7504 33.8681 24.7483 33.5343 24.7483C33.3621 24.7483 33.1886 24.7492 33.0129 24.7504L30.016 19.6577L29.1032 18.1071L28.1899 19.6577L24.8457 25.3396C24.2802 25.4197 23.7202 25.5078 23.1695 25.6036ZM29.1032 20.1745L32.4087 25.7916C32.7818 25.7848 33.157 25.782 33.5343 25.782C34.5016 25.782 35.4564 25.8034 36.3959 25.8448L29.1032 13.4548L21.0898 27.0693C22.4816 26.758 23.9577 26.4974 25.5012 26.2941L29.1032 20.1745Z" fill="#6D6D6D"/>
<path d="M33.0084 28.3868C33.4703 28.3106 33.9293 28.5314 34.1653 28.9357L34.8209 30.0586C35.2662 30.8213 34.7161 31.7795 33.8329 31.7795H26.7098C25.5273 31.7795 25.2201 30.3994 26.3393 30.0182C28.3216 29.343 30.5685 28.7897 33.0084 28.3868ZM24.1268 44.5498C19.994 42.754 17.4684 40.3506 17.4684 37.7103C17.4684 37.024 17.639 36.3538 17.9641 35.706C18.1383 35.3592 18.5082 35.1664 18.8963 35.1664H39.7656C40.6488 35.1664 41.1989 34.2082 40.7536 33.4454L38.3958 29.4074C37.9712 28.6803 38.4512 27.7613 39.2921 27.7178C40.3487 27.6631 41.4259 27.6349 42.5196 27.6349C44.7036 27.6349 46.8228 27.7473 48.8422 27.9589C48.8893 27.9639 48.9025 27.8999 48.8572 27.886C48.946 27.9133 49.0356 27.9399 49.1242 27.9671C49.1963 27.9893 49.2703 28.0052 49.3452 28.0137C49.4507 28.0256 49.5557 28.0377 49.6608 28.0503C49.2844 27.956 48.9015 27.866 48.5115 27.78C48.5113 27.7799 48.5111 27.7799 48.5109 27.7798C48.5106 27.7798 48.5103 27.7797 48.5101 27.7797C45.0217 27.0106 41.0082 26.5703 36.7364 26.5656C36.7111 26.5651 36.6855 26.5651 36.6602 26.5651C35.6877 26.5651 34.729 26.5879 33.7867 26.6317C33.4724 26.6464 33.16 26.6634 32.8497 26.6827C29.8733 26.8674 27.0755 27.2653 24.5579 27.836C24.3404 27.8853 24.125 27.9358 23.9117 27.9877C22.4192 28.3506 21.0328 28.7755 19.7753 29.2534C15.1351 31.0145 12.2461 33.4953 12.2461 36.2434C12.2461 39.7715 17.0091 42.859 24.1268 44.5498Z" fill="#0652DD"/>
<path d="M50.2258 39.6562L56.468 19.857H61.3216L67.5639 39.6562H64.154L58.4892 21.8919H59.2317L53.6356 39.6562H50.2258ZM53.7044 35.3664V32.2728H64.099V35.3664H53.7044ZM77.1857 40.0687C75.7374 40.0687 74.5229 39.725 73.5421 39.0375C72.5613 38.35 71.8234 37.4151 71.3284 36.2326C70.8334 35.041 70.5859 33.7073 70.5859 32.2315C70.5859 30.7374 70.8334 29.3991 71.3284 28.2167C71.8234 27.0342 72.5475 26.1038 73.5008 25.4255C74.4633 24.7381 75.6503 24.3943 77.0619 24.3943C78.4644 24.3943 79.6789 24.7381 80.7056 25.4255C81.7414 26.1038 82.5434 27.0342 83.1117 28.2167C83.68 29.39 83.9642 30.7283 83.9642 32.2315C83.9642 33.7165 83.6846 35.0502 83.1255 36.2326C82.5663 37.4151 81.778 38.35 80.7606 39.0375C79.7431 39.725 78.5515 40.0687 77.1857 40.0687ZM70.0222 46.256V24.8068H72.9509V35.2289H73.3633V46.256H70.0222ZM76.677 37.0988C77.5386 37.0988 78.249 36.8834 78.8081 36.4526C79.3673 36.0218 79.7798 35.4397 80.0456 34.7064C80.3206 33.964 80.4581 33.139 80.4581 32.2315C80.4581 31.3332 80.3206 30.5174 80.0456 29.7841C79.7706 29.0417 79.3444 28.455 78.7669 28.0242C78.1894 27.5842 77.4561 27.3642 76.567 27.3642C75.7237 27.3642 75.0362 27.5705 74.5045 27.9829C73.9729 28.3863 73.5787 28.9546 73.3221 29.6879C73.0746 30.412 72.9509 31.2599 72.9509 32.2315C72.9509 33.194 73.0746 34.0419 73.3221 34.7752C73.5787 35.5085 73.9775 36.0814 74.5183 36.4939C75.0683 36.8972 75.7878 37.0988 76.677 37.0988ZM87.2699 39.6562V19.4445H90.5835V39.6562H87.2699ZM94.9771 22.5519V19.5133H98.2907V22.5519H94.9771ZM94.9771 39.6562V24.8068H98.2907V39.6562H94.9771ZM108.858 40.0687C107.327 40.0687 106.021 39.7296 104.939 39.0513C103.858 38.3638 103.028 37.4288 102.451 36.2464C101.882 35.0639 101.594 33.7256 101.584 32.2315C101.594 30.7099 101.891 29.3625 102.478 28.1892C103.074 27.0067 103.917 26.0809 105.008 25.4118C106.099 24.7335 107.396 24.3943 108.899 24.3943C110.586 24.3943 112.011 24.8206 113.175 25.673C114.348 26.5163 115.114 27.6713 115.471 29.1379L112.171 30.0316C111.915 29.2341 111.489 28.6154 110.893 28.1754C110.297 27.7263 109.619 27.5017 108.858 27.5017C107.996 27.5017 107.286 27.708 106.727 28.1204C106.168 28.5238 105.755 29.0829 105.489 29.7979C105.223 30.5128 105.09 31.3241 105.09 32.2315C105.09 33.6431 105.407 34.7844 106.039 35.6552C106.672 36.526 107.611 36.9614 108.858 36.9614C109.738 36.9614 110.43 36.7597 110.934 36.3564C111.447 35.9531 111.832 35.371 112.089 34.6102L115.471 35.3664C115.013 36.8789 114.211 38.043 113.065 38.8588C111.919 39.6654 110.517 40.0687 108.858 40.0687ZM122.137 40.0687C121.065 40.0687 120.157 39.8671 119.415 39.4638C118.672 39.0513 118.109 38.5059 117.724 37.8276C117.348 37.1493 117.16 36.4022 117.16 35.5864C117.16 34.8714 117.279 34.2298 117.517 33.6615C117.756 33.084 118.122 32.589 118.617 32.1765C119.112 31.7549 119.754 31.4111 120.542 31.1453C121.138 30.9528 121.835 30.7787 122.632 30.6228C123.439 30.467 124.31 30.3249 125.245 30.1966C126.189 30.0591 127.174 29.9125 128.201 29.7566L127.018 30.4303C127.027 29.4037 126.798 28.6475 126.331 28.1617C125.863 27.6759 125.075 27.433 123.966 27.433C123.297 27.433 122.651 27.5888 122.027 27.9004C121.404 28.2121 120.969 28.7483 120.721 29.5091L117.696 28.5604C118.063 27.3046 118.759 26.2963 119.786 25.5355C120.822 24.7747 122.215 24.3943 123.966 24.3943C125.286 24.3943 126.445 24.6097 127.445 25.0406C128.453 25.4714 129.2 26.1772 129.686 27.158C129.952 27.6805 130.112 28.2167 130.167 28.7667C130.222 29.3075 130.249 29.8987 130.249 30.5403V39.6562H127.348V36.4389L127.83 36.9614C127.16 38.0338 126.377 38.8221 125.478 39.3263C124.589 39.8212 123.476 40.0687 122.137 40.0687ZM122.797 37.4288C123.549 37.4288 124.191 37.2959 124.722 37.0301C125.254 36.7643 125.675 36.4389 125.987 36.0539C126.308 35.6689 126.523 35.3068 126.633 34.9677C126.807 34.546 126.904 34.0648 126.922 33.524C126.95 32.974 126.963 32.5294 126.963 32.1903L127.981 32.4928C126.982 32.6486 126.125 32.7861 125.41 32.9053C124.695 33.0244 124.081 33.139 123.567 33.249C123.054 33.3498 122.6 33.4644 122.206 33.5927C121.821 33.7302 121.496 33.8906 121.23 34.074C120.964 34.2573 120.758 34.4681 120.611 34.7064C120.474 34.9448 120.405 35.2243 120.405 35.5452C120.405 35.9118 120.496 36.2372 120.68 36.5214C120.863 36.7964 121.129 37.0163 121.477 37.1813C121.835 37.3463 122.275 37.4288 122.797 37.4288ZM133.829 39.6562V24.8068H136.758V28.4229L136.4 27.9554C136.584 27.4605 136.826 27.0113 137.129 26.608C137.441 26.1955 137.812 25.8564 138.243 25.5905C138.609 25.343 139.013 25.1505 139.453 25.0131C139.902 24.8664 140.36 24.7793 140.828 24.7518C141.295 24.7151 141.749 24.7335 142.189 24.8068V27.9004C141.749 27.7721 141.24 27.7309 140.663 27.7767C140.094 27.8225 139.581 27.9829 139.123 28.2579C138.664 28.5054 138.288 28.8217 137.995 29.2066C137.711 29.5916 137.5 30.0316 137.363 30.5266C137.225 31.0124 137.156 31.5395 137.156 32.1078V39.6562H133.829Z" fill="#6D6D6D"/>
</svg>
