<svg width="378" height="235" viewBox="0 0 378 235" fill="none" xmlns="http://www.w3.org/2000/svg">
<path d="M59.1949 15.2304C67.3117 8.00129 77.8229 3.26699 90.7286 1.02748C103.634 -1.21203 117.276 0.209419 131.655 5.29183C145.987 10.3742 159.095 19.5528 170.981 32.8274C182.031 45.1737 189.498 58.106 193.383 71.6243C197.258 84.1251 197.613 97.4531 194.409 110.143C191.365 121.905 184.886 132.492 175.798 140.55C169.331 146.617 161.442 150.957 152.857 153.169C145.191 155.08 137.279 155.808 129.394 155.327C121.822 154.84 108.684 153.546 89.9808 151.446C85.6021 150.969 81.2012 150.725 76.7967 150.715C73.7805 150.695 70.7729 151.04 67.8393 151.742C65.5121 152.336 63.2511 153.164 61.0907 154.214C59.0036 155.24 55.4728 157.138 50.4635 159.94C40.1668 166.241 31.2151 165.138 23.6085 156.633C21.7188 154.622 20.2462 152.256 19.2759 149.671C18.3057 147.087 17.857 144.336 17.9558 141.577C18.1529 135.973 21.0981 130.617 26.7915 125.512C38.3881 114.392 53.9209 108.332 69.9786 108.663C79.1197 108.969 88.2395 109.735 97.3033 110.961C106.939 112.127 114.053 112.858 118.645 113.102C123.203 113.362 127.776 112.981 132.229 111.97C136.671 110.985 140.778 108.855 144.143 105.791C147.436 102.931 150.073 99.3923 151.874 95.4181C153.675 91.4439 154.598 87.1276 154.579 82.7638C154.718 73.4809 151.239 64.8535 144.143 56.8818C135.759 47.5176 127.231 42.7427 118.558 42.5571C109.884 42.3714 99.5586 44.8662 87.5805 50.0414C75.3937 55.7621 65.6825 54.6017 58.447 46.5603C56.3879 44.3514 54.8123 41.7366 53.821 38.8833C52.8296 36.03 52.4444 33.0011 52.6899 29.9903C52.7422 27.2213 53.3442 24.4904 54.461 21.9565C55.5777 19.4226 57.1869 17.1362 59.1949 15.2304ZM-24.8835 202.67C-29.4285 197.729 -31.9655 191.267 -31.9973 184.551C-32.1017 177.682 -29.1391 171.538 -23.1094 166.119C-20.6281 163.822 -17.6976 162.066 -14.5032 160.96C-11.3088 159.855 -7.92003 159.424 -4.55097 159.696C-1.1386 159.903 2.1972 160.795 5.25728 162.32C8.31735 163.846 11.039 165.972 13.2596 168.573C15.543 171.047 17.3063 173.954 18.4448 177.123C19.5833 180.292 20.0738 183.658 19.8873 187.02C19.7007 190.383 18.8408 193.673 17.3587 196.697C15.8766 199.72 13.8024 202.414 11.2594 204.62C5.31094 209.946 -1.06655 212.22 -7.87306 211.443C-14.4489 210.78 -20.5284 207.645 -24.8835 202.67Z" fill="#ACC5F4"/>
<g opacity="0.4">
<path d="M214.724 131.935C217.166 126.128 221.216 121.14 226.395 117.558C232.482 113.218 239.589 110.532 247.023 109.76C255.684 108.828 264.439 110.109 272.469 113.485C280.055 116.293 286.906 120.786 292.506 126.626C297.359 131.68 300.729 137.972 302.246 144.815C303.645 151.21 303.1 157.878 300.681 163.961C299.04 168.423 296.3 172.398 292.715 175.518C289.505 178.279 285.892 180.533 282.001 182.202C278.267 183.792 271.663 186.333 262.19 189.825C259.975 190.639 257.808 191.58 255.702 192.645C254.253 193.357 252.898 194.245 251.667 195.291C250.689 196.128 249.803 197.068 249.023 198.093C248.276 199.085 247.041 200.843 245.319 203.315C241.84 208.815 237.289 210.439 231.665 208.188C230.277 207.679 229.003 206.9 227.916 205.897C226.83 204.893 225.952 203.684 225.334 202.34C224.713 200.767 224.427 199.081 224.493 197.391C224.559 195.701 224.975 194.043 225.717 192.523C228.6 184.413 234.58 177.778 242.344 174.073C246.789 172.002 251.334 170.155 255.963 168.539C260.851 166.798 264.434 165.423 266.695 164.448C268.938 163.474 271.034 162.191 272.922 160.636C274.812 159.092 276.268 157.083 277.148 154.806C278.039 152.646 278.452 150.319 278.359 147.984C278.266 145.65 277.669 143.363 276.609 141.281C274.281 136.7 270.274 133.195 265.425 131.5C259.164 129.028 253.946 128.79 249.771 130.786C244.703 133.485 240.267 137.236 236.761 141.786C232.285 147.46 227.346 149.201 221.942 147.008C220.427 146.441 219.046 145.564 217.888 144.435C216.729 143.305 215.817 141.947 215.211 140.446C214.57 139.131 214.197 137.701 214.113 136.239C214.03 134.778 214.237 133.315 214.724 131.935ZM219.472 241.938C216.112 240.663 213.346 238.181 211.715 234.975C210.88 233.29 210.428 231.44 210.392 229.56C210.356 227.679 210.736 225.813 211.506 224.097C212.133 222.394 213.108 220.842 214.369 219.538C215.63 218.234 217.149 217.208 218.829 216.526C220.514 215.806 222.328 215.435 224.16 215.435C225.992 215.435 227.806 215.806 229.491 216.526C231.178 217.161 232.72 218.129 234.026 219.372C235.332 220.615 236.375 222.108 237.093 223.762C237.812 225.416 238.191 227.198 238.209 229.002C238.227 230.805 237.882 232.594 237.196 234.262C236.595 236.049 235.607 237.681 234.302 239.041C232.997 240.401 231.407 241.455 229.647 242.129C226.353 243.353 222.718 243.285 219.472 241.938Z" fill="#ACC5F4"/>
</g>
<g opacity="0.1">
<path d="M331.71 121.682C330.137 119.205 329.299 116.332 329.293 113.397C329.235 109.92 330.086 106.488 331.763 103.441C333.698 99.8933 336.505 96.8979 339.92 94.7387C343 92.5688 346.533 91.1284 350.252 90.5265C353.473 90.0039 356.776 90.3772 359.8 91.6057C362.632 92.7533 365.055 94.7236 366.758 97.2625C368.035 99.0705 368.837 101.172 369.088 103.372C369.288 105.33 369.194 107.307 368.81 109.237C368.427 111.106 367.651 114.308 366.479 118.845C366.215 119.913 366.006 120.994 365.853 122.083C365.651 123.424 365.758 124.793 366.166 126.086C366.358 126.643 366.705 127.583 367.227 128.906C367.545 129.448 367.751 130.047 367.836 130.67C367.92 131.292 367.88 131.925 367.719 132.532C367.557 133.139 367.276 133.708 366.893 134.206C366.511 134.704 366.033 135.121 365.488 135.433C364.356 136.228 362.955 136.541 361.592 136.303C360.823 136.13 360.1 135.797 359.467 135.326C358.835 134.855 358.309 134.257 357.922 133.57C356.697 131.834 355.833 129.869 355.383 127.792C355.022 125.991 354.981 124.141 355.261 122.326C355.636 120.074 356.13 117.843 356.739 115.643C357.365 113.293 357.783 111.57 358.009 110.421C358.228 109.274 358.292 108.104 358.2 106.94C358.101 105.804 357.712 104.714 357.07 103.772C356.476 102.862 355.694 102.091 354.775 101.511C353.856 100.931 352.824 100.557 351.747 100.413C349.357 100.087 346.934 100.712 344.999 102.153C343.901 102.764 342.941 103.596 342.18 104.596C341.42 105.597 340.875 106.745 340.581 107.967C340.279 110.627 340.546 113.32 341.364 115.869C342.355 119.089 341.712 121.439 339.468 122.953C338.852 123.383 338.154 123.68 337.418 123.827C336.681 123.974 335.922 123.967 335.189 123.806C334.497 123.704 333.832 123.463 333.234 123.098C332.636 122.733 332.118 122.252 331.71 121.682ZM375.106 148.939C373.727 149.883 372.05 150.286 370.393 150.071C369.518 149.946 368.683 149.627 367.948 149.136C367.214 148.645 366.599 147.995 366.149 147.234C365.663 146.544 365.325 145.761 365.158 144.934C364.99 144.107 364.996 143.254 365.175 142.43C365.344 141.593 365.678 140.798 366.159 140.092C366.64 139.387 367.258 138.785 367.975 138.322C368.664 137.842 369.443 137.506 370.265 137.336C371.087 137.165 371.935 137.163 372.758 137.33C373.585 137.483 374.372 137.804 375.069 138.274C375.766 138.744 376.359 139.353 376.811 140.063C377.335 140.767 377.699 141.578 377.876 142.438C378.054 143.298 378.04 144.186 377.837 145.041C377.447 146.637 376.472 148.028 375.106 148.939Z" fill="#CDDCF8"/>
</g>
</svg>
