<svg width="378" height="235" viewBox="0 0 378 235" fill="none" xmlns="http://www.w3.org/2000/svg">
<path d="M318.805 15.2304C310.688 8.00129 300.177 3.26699 287.271 1.02748C274.366 -1.21203 260.724 0.209419 246.345 5.29183C232.013 10.3742 218.905 19.5528 207.019 32.8274C195.969 45.1737 188.502 58.106 184.617 71.6243C180.742 84.1251 180.387 97.4531 183.591 110.143C186.635 121.905 193.114 132.492 202.202 140.55C208.669 146.617 216.558 150.957 225.143 153.169C232.809 155.08 240.721 155.808 248.606 155.327C256.178 154.84 269.316 153.546 288.019 151.446C292.398 150.969 296.799 150.725 301.203 150.715C304.22 150.695 307.227 151.04 310.161 151.742C312.488 152.336 314.749 153.164 316.909 154.214C318.996 155.24 322.527 157.138 327.536 159.94C337.833 166.241 346.785 165.138 354.391 156.633C356.281 154.622 357.754 152.256 358.724 149.671C359.694 147.087 360.143 144.336 360.044 141.577C359.847 135.973 356.902 130.617 351.209 125.512C339.612 114.392 324.079 108.332 308.021 108.663C298.88 108.969 289.761 109.735 280.697 110.961C271.061 112.127 263.947 112.858 259.355 113.102C254.797 113.362 250.224 112.981 245.771 111.97C241.329 110.985 237.222 108.855 233.857 105.791C230.564 102.931 227.927 99.3923 226.126 95.4181C224.325 91.4439 223.402 87.1276 223.421 82.7638C223.282 73.4809 226.761 64.8535 233.857 56.8818C242.241 47.5176 250.769 42.7427 259.442 42.5571C268.116 42.3714 278.441 44.8662 290.42 50.0414C302.606 55.7621 312.317 54.6017 319.553 46.5603C321.612 44.3514 323.188 41.7366 324.179 38.8833C325.17 36.03 325.556 33.0011 325.31 29.9903C325.258 27.2213 324.656 24.4904 323.539 21.9565C322.422 19.4226 320.813 17.1362 318.805 15.2304ZM402.884 202.67C407.429 197.729 409.966 191.267 409.997 184.551C410.102 177.682 407.139 171.538 401.109 166.119C398.628 163.822 395.698 162.066 392.503 160.96C389.309 159.855 385.92 159.424 382.551 159.696C379.139 159.903 375.803 160.795 372.743 162.32C369.683 163.846 366.961 165.972 364.74 168.573C362.457 171.047 360.694 173.954 359.555 177.123C358.417 180.292 357.926 183.658 358.113 187.02C358.299 190.383 359.159 193.673 360.641 196.697C362.123 199.72 364.198 202.414 366.741 204.62C372.689 209.946 379.067 212.22 385.873 211.443C392.449 210.78 398.528 207.645 402.884 202.67Z" fill="#ACC5F4"/>
<g opacity="0.4">
<path d="M163.276 131.935C160.834 126.128 156.784 121.14 151.605 117.558C145.518 113.218 138.411 110.532 130.977 109.76C122.316 108.828 113.561 110.109 105.531 113.485C97.9449 116.293 91.0942 120.786 85.4937 126.626C80.6405 131.68 77.2708 137.972 75.7536 144.815C74.3548 151.21 74.9 157.878 77.319 163.961C78.9601 168.423 81.7001 172.398 85.285 175.518C88.4954 178.279 92.1085 180.533 95.9992 182.202C99.7329 183.792 106.337 186.333 115.81 189.825C118.025 190.639 120.192 191.58 122.298 192.645C123.747 193.357 125.102 194.245 126.333 195.291C127.311 196.128 128.197 197.068 128.977 198.093C129.724 199.085 130.959 200.843 132.681 203.315C136.16 208.815 140.711 210.439 146.335 208.188C147.723 207.679 148.997 206.9 150.084 205.897C151.17 204.893 152.048 203.684 152.666 202.34C153.287 200.767 153.573 199.081 153.507 197.391C153.441 195.701 153.025 194.043 152.283 192.523C149.4 184.413 143.42 177.778 135.656 174.073C131.211 172.002 126.666 170.155 122.037 168.539C117.149 166.798 113.566 165.423 111.305 164.448C109.062 163.474 106.966 162.191 105.078 160.636C103.188 159.092 101.732 157.083 100.852 154.806C99.9612 152.646 99.5481 150.319 99.6412 147.984C99.7342 145.65 100.331 143.363 101.391 141.281C103.719 136.7 107.726 133.195 112.575 131.5C118.836 129.028 124.054 128.79 128.229 130.786C133.297 133.485 137.733 137.236 141.239 141.786C145.715 147.46 150.654 149.201 156.058 147.008C157.573 146.441 158.954 145.564 160.112 144.435C161.271 143.305 162.183 141.947 162.789 140.446C163.43 139.131 163.803 137.701 163.887 136.239C163.97 134.778 163.763 133.315 163.276 131.935ZM158.528 241.938C161.888 240.663 164.654 238.181 166.285 234.975C167.12 233.29 167.572 231.44 167.608 229.56C167.644 227.679 167.264 225.813 166.494 224.097C165.867 222.394 164.892 220.842 163.631 219.538C162.37 218.234 160.851 217.208 159.171 216.526C157.486 215.806 155.672 215.435 153.84 215.435C152.008 215.435 150.194 215.806 148.509 216.526C146.822 217.161 145.28 218.129 143.974 219.372C142.668 220.615 141.625 222.108 140.907 223.762C140.188 225.416 139.809 227.198 139.791 229.002C139.773 230.805 140.118 232.594 140.804 234.262C141.405 236.049 142.393 237.681 143.698 239.041C145.003 240.401 146.593 241.455 148.353 242.129C151.647 243.353 155.282 243.285 158.528 241.938Z" fill="#ACC5F4"/>
</g>
<g opacity="0.1">
<path d="M46.2896 121.682C47.8626 119.205 48.7009 116.332 48.7072 113.397C48.7653 109.92 47.9138 106.488 46.2373 103.441C44.3023 99.8933 41.4946 96.8979 38.08 94.7387C34.9999 92.5688 31.4669 91.1284 27.7485 90.5265C24.5268 90.0039 21.2236 90.3772 18.1996 91.6057C15.3678 92.7533 12.9445 94.7236 11.2423 97.2625C9.96476 99.0705 9.16319 101.172 8.91166 103.372C8.71242 105.33 8.80622 107.307 9.18996 109.237C9.57261 111.106 10.3495 114.308 11.5206 118.845C11.7846 119.913 11.9937 120.994 12.1468 122.083C12.3494 123.424 12.2422 124.793 11.8337 126.086C11.6424 126.643 11.2945 127.583 10.7727 128.906C10.4554 129.448 10.2485 130.047 10.1642 130.67C10.0799 131.292 10.1197 131.925 10.2815 132.532C10.4432 133.139 10.7237 133.708 11.1066 134.206C11.4894 134.704 11.9671 135.121 12.5121 135.433C13.6441 136.228 15.0455 136.541 16.4081 136.303C17.1767 136.13 17.9005 135.797 18.5326 135.326C19.1647 134.855 19.6913 134.257 20.0781 133.57C21.303 131.834 22.1666 129.869 22.6175 127.792C22.9778 125.991 23.0191 124.141 22.7392 122.326C22.3635 120.074 21.87 117.843 21.2608 115.643C20.6346 113.293 20.2172 111.57 19.9911 110.421C19.7725 109.274 19.7082 108.104 19.7998 106.94C19.8991 105.804 20.2884 104.714 20.9303 103.772C21.5238 102.862 22.3065 102.091 23.225 101.511C24.1435 100.931 25.1762 100.557 26.2526 100.413C28.6431 100.087 31.0659 100.712 33.0012 102.153C34.0994 102.764 35.0591 103.596 35.8195 104.596C36.58 105.597 37.1246 106.745 37.419 107.967C37.7213 110.627 37.4544 113.32 36.6363 115.869C35.6449 119.089 36.2885 121.439 38.5322 122.953C39.148 123.383 39.8461 123.68 40.5824 123.827C41.3188 123.974 42.0775 123.967 42.8109 123.806C43.5034 123.704 44.1683 123.463 44.7659 123.098C45.3635 122.733 45.8817 122.252 46.2896 121.682ZM2.89365 148.939C4.27264 149.883 5.95047 150.286 7.60718 150.071C8.48177 149.946 9.31724 149.627 10.0518 149.136C10.7864 148.645 11.4013 147.995 11.8511 147.234C12.3371 146.544 12.6746 145.761 12.8423 144.934C13.0099 144.107 13.0041 143.254 12.8251 142.43C12.6565 141.593 12.3218 140.798 11.8408 140.092C11.3598 139.387 10.7423 138.785 10.0248 138.322C9.33602 137.842 8.55701 137.506 7.73489 137.336C6.91277 137.165 6.06461 137.163 5.24173 137.33C4.41494 137.483 3.62841 137.804 2.93118 138.274C2.23394 138.744 1.64091 139.353 1.1891 140.063C0.664711 140.767 0.301048 141.578 0.123741 142.438C-0.0535622 143.298 -0.0401917 144.186 0.162914 145.041C0.553295 146.637 1.52775 148.028 2.89365 148.939Z" fill="#CDDCF8"/>
</g>
</svg>
