<svg width="1440" height="216" viewBox="0 0 1440 216" fill="none" xmlns="http://www.w3.org/2000/svg">
<g clip-path="url(#clip0_6276_132787)">
<rect width="1440" height="216" fill="#03296F"/>
<path d="M898.422 99.8279L899.286 99.5063C904.051 97.7308 905.736 90.4375 903.049 83.2159L884.927 89.9675C880.161 91.7429 878.476 99.0364 881.163 106.258C883.851 113.48 889.894 117.894 894.659 116.118C899.425 114.343 901.11 107.049 898.422 99.8279Z" fill="url(#paint0_linear_6276_132787)"/>
<path d="M919.689 106.795C917.001 99.5733 910.959 95.159 906.193 96.9345L899.29 99.5065L898.427 99.828L889.797 103.043C886.604 104.233 882.839 102.64 879.892 99.2892C879.873 101.487 880.282 103.878 881.168 106.258C883.855 113.48 889.898 117.894 894.664 116.118L919.689 106.795Z" fill="#0B57E0"/>
<path d="M1398.42 182.828L1399.29 182.506C1404.05 180.731 1405.74 173.437 1403.05 166.216L1384.93 172.968C1380.16 174.743 1378.48 182.036 1381.16 189.258C1383.85 196.48 1389.89 200.894 1394.66 199.118C1399.43 197.343 1401.11 190.049 1398.42 182.828Z" fill="url(#paint1_linear_6276_132787)"/>
<path d="M1419.69 189.795C1417 182.573 1410.96 178.159 1406.19 179.934L1399.29 182.506L1398.43 182.828L1389.8 186.043C1386.6 187.233 1382.84 185.64 1379.89 182.289C1379.87 184.487 1380.28 186.878 1381.17 189.258C1383.86 196.48 1389.9 200.894 1394.66 199.118L1419.69 189.795Z" fill="#0B57E0"/>
<path d="M1065.42 59.8279L1066.29 59.5063C1071.05 57.7308 1072.74 50.4375 1070.05 43.2159L1051.93 49.9675C1047.16 51.7429 1045.48 59.0364 1048.16 66.258C1050.85 73.4796 1056.89 77.8937 1061.66 76.1183C1066.43 74.3427 1068.11 67.0495 1065.42 59.8279Z" fill="url(#paint2_linear_6276_132787)"/>
<path d="M1086.69 66.7949C1084 59.5733 1077.96 55.159 1073.19 56.9345L1066.29 59.5065L1065.43 59.828L1056.8 63.043C1053.6 64.2327 1049.84 62.6402 1046.89 59.2892C1046.87 61.4868 1047.28 63.8783 1048.17 66.2581C1050.86 73.4798 1056.9 77.8938 1061.66 76.1184L1086.69 66.7949Z" fill="#0B57E0"/>
<path d="M1045.42 135.828L1046.29 135.506C1051.05 133.731 1052.74 126.437 1050.05 119.216L1031.93 125.968C1027.16 127.743 1025.48 135.036 1028.16 142.258C1030.85 149.48 1036.89 153.894 1041.66 152.118C1046.43 150.343 1048.11 143.049 1045.42 135.828Z" fill="url(#paint3_linear_6276_132787)"/>
<path d="M1066.69 142.795C1064 135.573 1057.96 131.159 1053.19 132.934L1046.29 135.506L1045.43 135.828L1036.8 139.043C1033.6 140.233 1029.84 138.64 1026.89 135.289C1026.87 137.487 1027.28 139.878 1028.17 142.258C1030.86 149.48 1036.9 153.894 1041.66 152.118L1066.69 142.795Z" fill="#0B57E0"/>
<path d="M1327.42 47.8279L1328.29 47.5063C1333.05 45.7308 1334.74 38.4375 1332.05 31.2159L1313.93 37.9675C1309.16 39.7429 1307.48 47.0364 1310.16 54.258C1312.85 61.4796 1318.89 65.8937 1323.66 64.1183C1328.43 62.3427 1330.11 55.0495 1327.42 47.8279Z" fill="url(#paint4_linear_6276_132787)"/>
<path d="M1348.69 54.7949C1346 47.5733 1339.96 43.159 1335.19 44.9345L1328.29 47.5065L1327.43 47.828L1318.8 51.043C1315.6 52.2327 1311.84 50.6402 1308.89 47.2892C1308.87 49.4868 1309.28 51.8783 1310.17 54.2581C1312.86 61.4798 1318.9 65.8938 1323.66 64.1184L1348.69 54.7949Z" fill="#0B57E0"/>
<path d="M1236.42 154.828L1237.29 154.506C1242.05 152.731 1243.74 145.437 1241.05 138.216L1222.93 144.968C1218.16 146.743 1216.48 154.036 1219.16 161.258C1221.85 168.48 1227.89 172.894 1232.66 171.118C1237.43 169.343 1239.11 162.049 1236.42 154.828Z" fill="url(#paint5_linear_6276_132787)"/>
<path d="M1257.69 161.795C1255 154.573 1248.96 150.159 1244.19 151.934L1237.29 154.506L1236.43 154.828L1227.8 158.043C1224.6 159.233 1220.84 157.64 1217.89 154.289C1217.87 156.487 1218.28 158.878 1219.17 161.258C1221.86 168.48 1227.9 172.894 1232.66 171.118L1257.69 161.795Z" fill="#0B57E0"/>
<path d="M638.76 74.24C637.843 74.24 637.035 74.0533 636.336 73.68C635.643 73.3067 635.099 72.7813 634.704 72.104C634.315 71.4267 634.12 70.632 634.12 69.72V62.496L636.072 62.48V69.672C636.072 70.104 636.144 70.4907 636.288 70.832C636.437 71.1733 636.637 71.464 636.888 71.704C637.139 71.9387 637.427 72.1173 637.752 72.24C638.077 72.3627 638.413 72.424 638.76 72.424C639.117 72.424 639.456 72.3627 639.776 72.24C640.101 72.112 640.389 71.9307 640.64 71.696C640.891 71.456 641.088 71.1653 641.232 70.824C641.376 70.4827 641.448 70.0987 641.448 69.672V62.48H643.4V69.72C643.4 70.632 643.203 71.4267 642.808 72.104C642.419 72.7813 641.875 73.3067 641.176 73.68C640.483 74.0533 639.677 74.24 638.76 74.24ZM645.636 74V62.48H647.588L652.932 70.6V62.48H654.884V74H652.932L647.588 65.88V74H645.636ZM657.12 74V62.48H660.792C660.888 62.48 661.077 62.4827 661.36 62.488C661.648 62.4933 661.925 62.512 662.192 62.544C663.104 62.6613 663.875 62.9867 664.504 63.52C665.139 64.048 665.619 64.7227 665.944 65.544C666.269 66.3653 666.432 67.264 666.432 68.24C666.432 69.216 666.269 70.1147 665.944 70.936C665.619 71.7573 665.139 72.4347 664.504 72.968C663.875 73.496 663.104 73.8187 662.192 73.936C661.931 73.968 661.656 73.9867 661.368 73.992C661.08 73.9973 660.888 74 660.792 74H657.12ZM659.08 72.184H660.792C660.952 72.184 661.155 72.1787 661.4 72.168C661.651 72.1573 661.872 72.1333 662.064 72.096C662.608 71.9947 663.051 71.752 663.392 71.368C663.733 70.984 663.984 70.5173 664.144 69.968C664.309 69.4187 664.392 68.8427 664.392 68.24C664.392 67.616 664.309 67.0293 664.144 66.48C663.979 65.9307 663.723 65.4693 663.376 65.096C663.035 64.7227 662.597 64.4853 662.064 64.384C661.872 64.3413 661.651 64.3173 661.4 64.312C661.155 64.3013 660.952 64.296 660.792 64.296H659.08V72.184ZM668.323 74V62.48H675.763V64.288H670.251V67.128H674.803V68.936H670.251V72.192H675.763V74H668.323ZM677.683 74V62.48H682.443C682.555 62.48 682.699 62.4853 682.875 62.496C683.051 62.5013 683.213 62.5173 683.363 62.544C684.029 62.6453 684.579 62.8667 685.01 63.208C685.448 63.5493 685.771 63.9813 685.979 64.504C686.192 65.0213 686.299 65.5973 686.299 66.232C686.299 67.1707 686.061 67.9787 685.587 68.656C685.112 69.328 684.384 69.744 683.403 69.904L682.579 69.976H679.611V74H677.683ZM684.299 74L682.027 69.312L683.987 68.88L686.483 74H684.299ZM679.611 68.176H682.363C682.469 68.176 682.589 68.1707 682.723 68.16C682.856 68.1493 682.979 68.128 683.091 68.096C683.411 68.016 683.661 67.8747 683.843 67.672C684.029 67.4693 684.16 67.24 684.235 66.984C684.315 66.728 684.355 66.4773 684.355 66.232C684.355 65.9867 684.315 65.736 684.235 65.48C684.16 65.2187 684.029 64.9867 683.843 64.784C683.661 64.5813 683.411 64.44 683.091 64.36C682.979 64.328 682.856 64.3093 682.723 64.304C682.589 64.2933 682.469 64.288 682.363 64.288H679.611V68.176ZM692.509 74.24C691.666 74.24 690.906 74.0933 690.229 73.8C689.557 73.5067 689.002 73.088 688.565 72.544C688.133 71.9947 687.858 71.344 687.741 70.592L689.741 70.288C689.912 70.9707 690.261 71.4987 690.789 71.872C691.322 72.2453 691.936 72.432 692.629 72.432C693.04 72.432 693.426 72.368 693.789 72.24C694.152 72.112 694.445 71.9253 694.669 71.68C694.898 71.4347 695.013 71.1333 695.013 70.776C695.013 70.616 694.986 70.4693 694.933 70.336C694.88 70.1973 694.8 70.0747 694.693 69.968C694.592 69.8613 694.458 69.7653 694.293 69.68C694.133 69.5893 693.946 69.512 693.733 69.448L690.757 68.568C690.501 68.4933 690.224 68.3947 689.925 68.272C689.632 68.144 689.352 67.9707 689.085 67.752C688.824 67.528 688.608 67.2453 688.437 66.904C688.272 66.5573 688.189 66.1307 688.189 65.624C688.189 64.8827 688.376 64.2613 688.749 63.76C689.128 63.2533 689.634 62.8747 690.269 62.624C690.909 62.3733 691.618 62.2507 692.397 62.256C693.186 62.2613 693.89 62.3973 694.509 62.664C695.128 62.9253 695.645 63.3067 696.061 63.808C696.477 64.3093 696.77 64.9147 696.941 65.624L694.869 65.984C694.784 65.5787 694.618 65.2347 694.373 64.952C694.133 64.664 693.837 64.4453 693.485 64.296C693.138 64.1467 692.768 64.0667 692.373 64.056C691.989 64.0507 691.632 64.1093 691.301 64.232C690.976 64.3493 690.712 64.52 690.509 64.744C690.312 64.968 690.213 65.2293 690.213 65.528C690.213 65.8107 690.298 66.0427 690.469 66.224C690.64 66.4 690.85 66.5413 691.101 66.648C691.357 66.7493 691.616 66.8347 691.877 66.904L693.941 67.48C694.224 67.5547 694.541 67.656 694.893 67.784C695.245 67.912 695.584 68.0907 695.909 68.32C696.234 68.5493 696.501 68.8507 696.709 69.224C696.922 69.5973 697.029 70.072 697.029 70.648C697.029 71.2453 696.904 71.7707 696.653 72.224C696.408 72.672 696.074 73.0453 695.653 73.344C695.232 73.6427 694.749 73.8667 694.205 74.016C693.666 74.1653 693.101 74.24 692.509 74.24ZM701.529 74V64.288H697.801V62.48H707.185V64.288H703.457V74H701.529ZM707.351 74L710.983 62.48H713.807L717.439 74H715.455L712.159 63.664H712.591L709.335 74H707.351ZM709.375 71.504V69.704H715.423V71.504H709.375ZM718.886 74V62.48H720.838L726.182 70.6V62.48H728.134V74H726.182L720.838 65.88V74H718.886ZM730.37 74V62.48H734.042C734.138 62.48 734.327 62.4827 734.61 62.488C734.898 62.4933 735.175 62.512 735.442 62.544C736.354 62.6613 737.125 62.9867 737.754 63.52C738.389 64.048 738.869 64.7227 739.194 65.544C739.519 66.3653 739.682 67.264 739.682 68.24C739.682 69.216 739.519 70.1147 739.194 70.936C738.869 71.7573 738.389 72.4347 737.754 72.968C737.125 73.496 736.354 73.8187 735.442 73.936C735.181 73.968 734.906 73.9867 734.618 73.992C734.33 73.9973 734.138 74 734.042 74H730.37ZM732.33 72.184H734.042C734.202 72.184 734.405 72.1787 734.65 72.168C734.901 72.1573 735.122 72.1333 735.314 72.096C735.858 71.9947 736.301 71.752 736.642 71.368C736.983 70.984 737.234 70.5173 737.394 69.968C737.559 69.4187 737.642 68.8427 737.642 68.24C737.642 67.616 737.559 67.0293 737.394 66.48C737.229 65.9307 736.973 65.4693 736.626 65.096C736.285 64.7227 735.847 64.4853 735.314 64.384C735.122 64.3413 734.901 64.3173 734.65 64.312C734.405 64.3013 734.202 64.296 734.042 64.296H732.33V72.184ZM741.733 74V62.48H743.661V74H741.733ZM746.058 74V62.48H748.01L753.354 70.6V62.48H755.306V74H753.354L748.01 65.88V74H746.058ZM762.294 74.24C761.547 74.24 760.846 74.1093 760.19 73.848C759.539 73.5813 758.966 73.192 758.47 72.68C757.979 72.168 757.595 71.5413 757.318 70.8C757.041 70.0533 756.902 69.2 756.902 68.24C756.902 66.9813 757.137 65.9067 757.606 65.016C758.075 64.12 758.718 63.4347 759.534 62.96C760.35 62.48 761.27 62.24 762.294 62.24C763.713 62.24 764.835 62.5707 765.662 63.232C766.494 63.888 767.057 64.8107 767.35 66L765.382 66.312C765.163 65.6293 764.806 65.0853 764.31 64.68C763.814 64.2693 763.182 64.064 762.414 64.064C761.641 64.0533 760.998 64.2213 760.486 64.568C759.974 64.9147 759.587 65.4027 759.326 66.032C759.07 66.6613 758.942 67.3973 758.942 68.24C758.942 69.0827 759.07 69.816 759.326 70.44C759.582 71.0587 759.966 71.5413 760.478 71.888C760.995 72.2347 761.641 72.4133 762.414 72.424C762.995 72.4293 763.505 72.3253 763.942 72.112C764.379 71.8933 764.737 71.5653 765.014 71.128C765.291 70.6853 765.478 70.1333 765.574 69.472H763.542V67.96H767.622C767.633 68.0453 767.641 68.1707 767.646 68.336C767.651 68.5013 767.654 68.6 767.654 68.632C767.654 69.72 767.438 70.688 767.006 71.536C766.579 72.3787 765.966 73.04 765.166 73.52C764.366 74 763.409 74.24 762.294 74.24ZM777.336 74.24C776.184 74.24 775.197 73.9893 774.376 73.488C773.554 72.9813 772.922 72.2773 772.48 71.376C772.042 70.4747 771.824 69.4293 771.824 68.24C771.824 67.0507 772.042 66.0053 772.48 65.104C772.922 64.2027 773.554 63.5013 774.376 63C775.197 62.4933 776.184 62.24 777.336 62.24C778.488 62.24 779.474 62.4933 780.296 63C781.122 63.5013 781.754 64.2027 782.192 65.104C782.634 66.0053 782.856 67.0507 782.856 68.24C782.856 69.4293 782.634 70.4747 782.192 71.376C781.754 72.2773 781.122 72.9813 780.296 73.488C779.474 73.9893 778.488 74.24 777.336 74.24ZM777.336 72.424C778.109 72.4293 778.752 72.2587 779.264 71.912C779.781 71.5653 780.168 71.0773 780.424 70.448C780.685 69.8187 780.816 69.0827 780.816 68.24C780.816 67.3973 780.685 66.6667 780.424 66.048C780.168 65.424 779.781 64.9387 779.264 64.592C778.752 64.2453 778.109 64.0667 777.336 64.056C776.562 64.0507 775.92 64.2213 775.408 64.568C774.896 64.9147 774.509 65.4027 774.248 66.032C773.992 66.6613 773.864 67.3973 773.864 68.24C773.864 69.0827 773.992 69.816 774.248 70.44C774.504 71.0587 774.888 71.5413 775.4 71.888C775.917 72.2347 776.562 72.4133 777.336 72.424ZM789.088 74.24C788.171 74.24 787.363 74.0533 786.664 73.68C785.971 73.3067 785.427 72.7813 785.032 72.104C784.643 71.4267 784.448 70.632 784.448 69.72V62.496L786.4 62.48V69.672C786.4 70.104 786.472 70.4907 786.616 70.832C786.765 71.1733 786.965 71.464 787.216 71.704C787.467 71.9387 787.755 72.1173 788.08 72.24C788.405 72.3627 788.741 72.424 789.088 72.424C789.445 72.424 789.784 72.3627 790.104 72.24C790.429 72.112 790.717 71.9307 790.968 71.696C791.219 71.456 791.416 71.1653 791.56 70.824C791.704 70.4827 791.776 70.0987 791.776 69.672V62.48H793.728V69.72C793.728 70.632 793.531 71.4267 793.136 72.104C792.747 72.7813 792.203 73.3067 791.504 73.68C790.811 74.0533 790.005 74.24 789.088 74.24ZM795.964 74V62.48H800.724C800.836 62.48 800.98 62.4853 801.156 62.496C801.332 62.5013 801.494 62.5173 801.644 62.544C802.31 62.6453 802.86 62.8667 803.292 63.208C803.729 63.5493 804.052 63.9813 804.26 64.504C804.473 65.0213 804.58 65.5973 804.58 66.232C804.58 67.1707 804.342 67.9787 803.868 68.656C803.393 69.328 802.665 69.744 801.684 69.904L800.86 69.976H797.892V74H795.964ZM802.58 74L800.308 69.312L802.268 68.88L804.764 74H802.58ZM797.892 68.176H800.644C800.75 68.176 800.87 68.1707 801.004 68.16C801.137 68.1493 801.26 68.128 801.372 68.096C801.692 68.016 801.942 67.8747 802.124 67.672C802.31 67.4693 802.441 67.24 802.516 66.984C802.596 66.728 802.636 66.4773 802.636 66.232C802.636 65.9867 802.596 65.736 802.516 65.48C802.441 65.2187 802.31 64.9867 802.124 64.784C801.942 64.5813 801.692 64.44 801.372 64.36C801.26 64.328 801.137 64.3093 801.004 64.304C800.87 64.2933 800.75 64.288 800.644 64.288H797.892V68.176Z" fill="white"/>
<path d="M510.92 145V104.68H523.772C524.108 104.68 524.771 104.689 525.76 104.708C526.768 104.727 527.739 104.792 528.672 104.904C531.864 105.315 534.561 106.453 536.764 108.32C538.985 110.168 540.665 112.529 541.804 115.404C542.943 118.279 543.512 121.424 543.512 124.84C543.512 128.256 542.943 131.401 541.804 134.276C540.665 137.151 538.985 139.521 536.764 141.388C534.561 143.236 531.864 144.365 528.672 144.776C527.757 144.888 526.796 144.953 525.788 144.972C524.78 144.991 524.108 145 523.772 145H510.92ZM517.78 138.644H523.772C524.332 138.644 525.041 138.625 525.9 138.588C526.777 138.551 527.552 138.467 528.224 138.336C530.128 137.981 531.677 137.132 532.872 135.788C534.067 134.444 534.944 132.811 535.504 130.888C536.083 128.965 536.372 126.949 536.372 124.84C536.372 122.656 536.083 120.603 535.504 118.68C534.925 116.757 534.029 115.143 532.816 113.836C531.621 112.529 530.091 111.699 528.224 111.344C527.552 111.195 526.777 111.111 525.9 111.092C525.041 111.055 524.332 111.036 523.772 111.036H517.78V138.644ZM563.487 145.84C560.463 145.84 557.822 145.159 555.563 143.796C553.304 142.433 551.55 140.557 550.299 138.168C549.067 135.76 548.451 132.997 548.451 129.88C548.451 126.707 549.086 123.925 550.355 121.536C551.624 119.147 553.388 117.28 555.647 115.936C557.906 114.592 560.519 113.92 563.487 113.92C566.53 113.92 569.18 114.601 571.439 115.964C573.698 117.327 575.452 119.212 576.703 121.62C577.954 124.009 578.579 126.763 578.579 129.88C578.579 133.016 577.944 135.788 576.675 138.196C575.424 140.585 573.67 142.461 571.411 143.824C569.152 145.168 566.511 145.84 563.487 145.84ZM563.487 139.512C566.175 139.512 568.172 138.616 569.479 136.824C570.786 135.032 571.439 132.717 571.439 129.88C571.439 126.949 570.776 124.616 569.451 122.88C568.126 121.125 566.138 120.248 563.487 120.248C561.676 120.248 560.183 120.659 559.007 121.48C557.85 122.283 556.991 123.412 556.431 124.868C555.871 126.305 555.591 127.976 555.591 129.88C555.591 132.811 556.254 135.153 557.579 136.908C558.923 138.644 560.892 139.512 563.487 139.512ZM597.88 145.84C594.763 145.84 592.103 145.149 589.9 143.768C587.697 142.368 586.008 140.464 584.832 138.056C583.675 135.648 583.087 132.923 583.068 129.88C583.087 126.781 583.693 124.037 584.888 121.648C586.101 119.24 587.819 117.355 590.04 115.992C592.261 114.611 594.903 113.92 597.964 113.92C601.399 113.92 604.301 114.788 606.672 116.524C609.061 118.241 610.62 120.593 611.348 123.58L604.628 125.4C604.105 123.776 603.237 122.516 602.024 121.62C600.811 120.705 599.429 120.248 597.88 120.248C596.125 120.248 594.679 120.668 593.54 121.508C592.401 122.329 591.561 123.468 591.02 124.924C590.479 126.38 590.208 128.032 590.208 129.88C590.208 132.755 590.852 135.079 592.14 136.852C593.428 138.625 595.341 139.512 597.88 139.512C599.672 139.512 601.081 139.101 602.108 138.28C603.153 137.459 603.937 136.273 604.46 134.724L611.348 136.264C610.415 139.344 608.781 141.715 606.448 143.376C604.115 145.019 601.259 145.84 597.88 145.84ZM628.299 145.868C626.059 145.868 624.211 145.495 622.755 144.748C621.299 144.001 620.142 143.049 619.283 141.892C618.424 140.735 617.79 139.503 617.379 138.196C616.968 136.889 616.698 135.657 616.567 134.5C616.455 133.324 616.399 132.372 616.399 131.644V114.76H623.231V129.32C623.231 130.253 623.296 131.308 623.427 132.484C623.558 133.641 623.856 134.761 624.323 135.844C624.808 136.908 625.518 137.785 626.451 138.476C627.403 139.167 628.682 139.512 630.287 139.512C631.146 139.512 631.995 139.372 632.835 139.092C633.675 138.812 634.431 138.336 635.103 137.664C635.794 136.973 636.344 136.031 636.755 134.836C637.166 133.641 637.371 132.129 637.371 130.3L641.375 132.008C641.375 134.584 640.871 136.917 639.863 139.008C638.874 141.099 637.408 142.769 635.467 144.02C633.526 145.252 631.136 145.868 628.299 145.868ZM638.183 145V135.62H637.371V114.76H644.147V145H638.183ZM688.33 145V126.632C688.33 124.56 687.816 122.945 686.79 121.788C685.763 120.612 684.372 120.024 682.618 120.024C681.535 120.024 680.564 120.276 679.706 120.78C678.847 121.265 678.166 121.993 677.662 122.964C677.158 123.916 676.906 125.055 676.906 126.38L673.91 124.616C673.891 122.525 674.358 120.687 675.31 119.1C676.28 117.495 677.587 116.244 679.23 115.348C680.872 114.452 682.702 114.004 684.718 114.004C688.059 114.004 690.616 115.012 692.39 117.028C694.182 119.025 695.078 121.657 695.078 124.924V145H688.33ZM651.958 145V114.76H657.922V124.14H658.762V145H651.958ZM670.186 145V126.716C670.186 124.607 669.672 122.964 668.646 121.788C667.619 120.612 666.219 120.024 664.446 120.024C662.728 120.024 661.347 120.612 660.302 121.788C659.275 122.964 658.762 124.495 658.762 126.38L655.738 124.364C655.738 122.404 656.223 120.64 657.194 119.072C658.164 117.504 659.471 116.272 661.114 115.376C662.775 114.461 664.632 114.004 666.686 114.004C668.944 114.004 670.83 114.489 672.342 115.46C673.872 116.412 675.011 117.719 675.758 119.38C676.523 121.023 676.906 122.88 676.906 124.952V145H670.186ZM715.637 145.84C712.575 145.84 709.887 145.177 707.573 143.852C705.258 142.527 703.447 140.688 702.141 138.336C700.853 135.984 700.209 133.277 700.209 130.216C700.209 126.912 700.843 124.047 702.113 121.62C703.382 119.175 705.146 117.28 707.405 115.936C709.663 114.592 712.277 113.92 715.245 113.92C718.381 113.92 721.041 114.657 723.225 116.132C725.427 117.588 727.061 119.651 728.125 122.32C729.189 124.989 729.59 128.135 729.329 131.756H722.637V129.292C722.618 126.007 722.039 123.608 720.901 122.096C719.762 120.584 717.97 119.828 715.525 119.828C712.762 119.828 710.709 120.687 709.365 122.404C708.021 124.103 707.349 126.595 707.349 129.88C707.349 132.941 708.021 135.312 709.365 136.992C710.709 138.672 712.669 139.512 715.245 139.512C716.906 139.512 718.334 139.148 719.529 138.42C720.742 137.673 721.675 136.6 722.329 135.2L728.993 137.216C727.835 139.941 726.043 142.06 723.617 143.572C721.209 145.084 718.549 145.84 715.637 145.84ZM705.221 131.756V126.66H726.025V131.756H705.221ZM755.672 145V130.44C755.672 129.488 755.607 128.433 755.476 127.276C755.345 126.119 755.037 125.008 754.552 123.944C754.085 122.861 753.376 121.975 752.424 121.284C751.491 120.593 750.221 120.248 748.616 120.248C747.757 120.248 746.908 120.388 746.068 120.668C745.228 120.948 744.463 121.433 743.772 122.124C743.1 122.796 742.559 123.729 742.148 124.924C741.737 126.1 741.532 127.612 741.532 129.46L737.528 127.752C737.528 125.176 738.023 122.843 739.012 120.752C740.02 118.661 741.495 117 743.436 115.768C745.377 114.517 747.767 113.892 750.604 113.892C752.844 113.892 754.692 114.265 756.148 115.012C757.604 115.759 758.761 116.711 759.62 117.868C760.479 119.025 761.113 120.257 761.524 121.564C761.935 122.871 762.196 124.112 762.308 125.288C762.439 126.445 762.504 127.388 762.504 128.116V145H755.672ZM734.7 145V114.76H740.72V124.14H741.532V145H734.7ZM787.535 145C785.537 145.373 783.577 145.532 781.655 145.476C779.751 145.439 778.043 145.093 776.531 144.44C775.019 143.768 773.871 142.713 773.087 141.276C772.396 139.969 772.032 138.635 771.995 137.272C771.957 135.909 771.939 134.369 771.939 132.652V106.36H778.659V132.26C778.659 133.473 778.668 134.537 778.687 135.452C778.724 136.367 778.92 137.113 779.275 137.692C779.947 138.812 781.02 139.437 782.495 139.568C783.969 139.699 785.649 139.624 787.535 139.344V145ZM766.451 120.052V114.76H787.535V120.052H766.451ZM802.493 145.84C800.309 145.84 798.461 145.429 796.949 144.608C795.437 143.768 794.289 142.657 793.505 141.276C792.74 139.895 792.357 138.373 792.357 136.712C792.357 135.256 792.6 133.949 793.085 132.792C793.571 131.616 794.317 130.608 795.325 129.768C796.333 128.909 797.64 128.209 799.245 127.668C800.459 127.276 801.877 126.921 803.501 126.604C805.144 126.287 806.917 125.997 808.821 125.736C810.744 125.456 812.751 125.157 814.841 124.84L812.433 126.212C812.452 124.121 811.985 122.581 811.033 121.592C810.081 120.603 808.476 120.108 806.217 120.108C804.855 120.108 803.539 120.425 802.269 121.06C801 121.695 800.113 122.787 799.609 124.336L793.449 122.404C794.196 119.847 795.615 117.793 797.705 116.244C799.815 114.695 802.652 113.92 806.217 113.92C808.905 113.92 811.267 114.359 813.301 115.236C815.355 116.113 816.876 117.551 817.865 119.548C818.407 120.612 818.733 121.704 818.845 122.824C818.957 123.925 819.013 125.129 819.013 126.436V145H813.105V138.448L814.085 139.512C812.723 141.696 811.127 143.301 809.297 144.328C807.487 145.336 805.219 145.84 802.493 145.84ZM803.837 140.464C805.368 140.464 806.675 140.193 807.757 139.652C808.84 139.111 809.699 138.448 810.333 137.664C810.987 136.88 811.425 136.143 811.649 135.452C812.004 134.593 812.2 133.613 812.237 132.512C812.293 131.392 812.321 130.487 812.321 129.796L814.393 130.412C812.359 130.729 810.613 131.009 809.157 131.252C807.701 131.495 806.451 131.728 805.405 131.952C804.36 132.157 803.436 132.391 802.633 132.652C801.849 132.932 801.187 133.259 800.645 133.632C800.104 134.005 799.684 134.435 799.385 134.92C799.105 135.405 798.965 135.975 798.965 136.628C798.965 137.375 799.152 138.037 799.525 138.616C799.899 139.176 800.44 139.624 801.149 139.96C801.877 140.296 802.773 140.464 803.837 140.464ZM844.027 145C842.029 145.373 840.069 145.532 838.147 145.476C836.243 145.439 834.535 145.093 833.023 144.44C831.511 143.768 830.363 142.713 829.579 141.276C828.888 139.969 828.524 138.635 828.487 137.272C828.449 135.909 828.431 134.369 828.431 132.652V106.36H835.151V132.26C835.151 133.473 835.16 134.537 835.179 135.452C835.216 136.367 835.412 137.113 835.767 137.692C836.439 138.812 837.512 139.437 838.987 139.568C840.461 139.699 842.141 139.624 844.027 139.344V145ZM822.943 120.052V114.76H844.027V120.052H822.943ZM851.089 110.168V103.98H857.837V110.168H851.089ZM851.089 145V114.76H857.837V145H851.089ZM879.581 145.84C876.557 145.84 873.915 145.159 871.657 143.796C869.398 142.433 867.643 140.557 866.393 138.168C865.161 135.76 864.545 132.997 864.545 129.88C864.545 126.707 865.179 123.925 866.449 121.536C867.718 119.147 869.482 117.28 871.741 115.936C873.999 114.592 876.613 113.92 879.581 113.92C882.623 113.92 885.274 114.601 887.533 115.964C889.791 117.327 891.546 119.212 892.797 121.62C894.047 124.009 894.673 126.763 894.673 129.88C894.673 133.016 894.038 135.788 892.769 138.196C891.518 140.585 889.763 142.461 887.505 143.824C885.246 145.168 882.605 145.84 879.581 145.84ZM879.581 139.512C882.269 139.512 884.266 138.616 885.573 136.824C886.879 135.032 887.533 132.717 887.533 129.88C887.533 126.949 886.87 124.616 885.545 122.88C884.219 121.125 882.231 120.248 879.581 120.248C877.77 120.248 876.277 120.659 875.101 121.48C873.943 122.283 873.085 123.412 872.525 124.868C871.965 126.305 871.685 127.976 871.685 129.88C871.685 132.811 872.347 135.153 873.673 136.908C875.017 138.644 876.986 139.512 879.581 139.512ZM921.758 145V130.44C921.758 129.488 921.693 128.433 921.562 127.276C921.431 126.119 921.123 125.008 920.638 123.944C920.171 122.861 919.462 121.975 918.51 121.284C917.577 120.593 916.307 120.248 914.702 120.248C913.843 120.248 912.994 120.388 912.154 120.668C911.314 120.948 910.549 121.433 909.858 122.124C909.186 122.796 908.645 123.729 908.234 124.924C907.823 126.1 907.618 127.612 907.618 129.46L903.614 127.752C903.614 125.176 904.109 122.843 905.098 120.752C906.106 118.661 907.581 117 909.522 115.768C911.463 114.517 913.853 113.892 916.69 113.892C918.93 113.892 920.778 114.265 922.234 115.012C923.69 115.759 924.847 116.711 925.706 117.868C926.565 119.025 927.199 120.257 927.61 121.564C928.021 122.871 928.282 124.112 928.394 125.288C928.525 126.445 928.59 127.388 928.59 128.116V145H921.758ZM900.786 145V114.76H906.806V124.14H907.618V145H900.786Z" fill="white"/>
<path d="M481.539 101.014L480.618 101.017C475.533 101.035 471.429 107.295 471.452 115L490.791 114.935C495.876 114.917 499.981 108.657 499.957 100.952C499.934 93.2463 495.791 87.0142 490.706 87.0314C485.62 87.0487 481.516 93.3086 481.539 101.014Z" fill="url(#paint6_linear_6276_132787)"/>
<path d="M463.998 87.1216C464.021 94.8271 468.164 101.059 473.249 101.042L480.616 101.017L481.537 101.014L490.746 100.983C494.154 100.971 497.136 103.768 498.741 107.931C499.519 105.876 499.963 103.491 499.955 100.951C499.932 93.246 495.789 87.0139 490.704 87.0311L463.998 87.1216Z" fill="#0B57E0"/>
<path d="M11.5395 42.0142L10.6184 42.0173C5.53261 42.0345 1.42858 48.2946 1.45209 56L20.7909 55.9345C25.8763 55.9173 29.9809 49.6572 29.9574 41.9518C29.9339 34.2463 25.7912 28.0142 20.7057 28.0314C15.62 28.0487 11.5159 34.3086 11.5395 42.0142Z" fill="url(#paint7_linear_6276_132787)"/>
<path d="M-6.00214 28.1216C-5.97863 35.8271 -1.83649 42.0591 3.24925 42.0419L10.6162 42.017L11.5373 42.0139L20.7461 41.9827C24.1537 41.9711 27.1358 44.7679 28.7413 48.9314C29.5189 46.8759 29.963 44.4908 29.9553 41.9515C29.9318 34.246 25.789 28.0139 20.7036 28.0311L-6.00214 28.1216Z" fill="#0B57E0"/>
<path d="M348.539 151.014L347.618 151.017C342.533 151.035 338.429 157.295 338.452 165L357.791 164.935C362.876 164.917 366.981 158.657 366.957 150.952C366.934 143.246 362.791 137.014 357.706 137.031C352.62 137.049 348.516 143.309 348.539 151.014Z" fill="url(#paint8_linear_6276_132787)"/>
<path d="M330.998 137.122C331.021 144.827 335.164 151.059 340.249 151.042L347.616 151.017L348.537 151.014L357.746 150.983C361.154 150.971 364.136 153.768 365.741 157.931C366.519 155.876 366.963 153.491 366.955 150.951C366.932 143.246 362.789 137.014 357.704 137.031L330.998 137.122Z" fill="#0B57E0"/>
<path d="M365.539 75.0142L364.618 75.0173C359.533 75.0345 355.429 81.2946 355.452 89L374.791 88.9345C379.876 88.9173 383.981 82.6572 383.957 74.9518C383.934 67.2463 379.791 61.0142 374.706 61.0314C369.62 61.0487 365.516 67.3086 365.539 75.0142Z" fill="url(#paint9_linear_6276_132787)"/>
<path d="M347.998 61.1216C348.021 68.8271 352.164 75.0591 357.249 75.0419L364.616 75.017L365.537 75.0139L374.746 74.9827C378.154 74.9711 381.136 77.7679 382.741 81.9314C383.519 79.8759 383.963 77.4908 383.955 74.9515C383.932 67.246 379.789 61.0139 374.704 61.0311L347.998 61.1216Z" fill="#0B57E0"/>
<path d="M87.5395 174.014L86.6184 174.017C81.5326 174.035 77.4286 180.295 77.4521 188L96.7909 187.935C101.876 187.917 105.981 181.657 105.957 173.952C105.934 166.246 101.791 160.014 96.7057 160.031C91.62 160.049 87.5159 166.309 87.5395 174.014Z" fill="url(#paint10_linear_6276_132787)"/>
<path d="M69.9979 160.122C70.0214 167.827 74.1635 174.059 79.2493 174.042L86.6162 174.017L87.5373 174.014L96.7461 173.983C100.154 173.971 103.136 176.768 104.741 180.931C105.519 178.876 105.963 176.491 105.955 173.951C105.932 166.246 101.789 160.014 96.7036 160.031L69.9979 160.122Z" fill="#0B57E0"/>
<path d="M172.539 72.0142L171.618 72.0173C166.533 72.0345 162.429 78.2946 162.452 86L181.791 85.9345C186.876 85.9173 190.981 79.6572 190.957 71.9518C190.934 64.2463 186.791 58.0142 181.706 58.0314C176.62 58.0487 172.516 64.3086 172.539 72.0142Z" fill="url(#paint11_linear_6276_132787)"/>
<path d="M154.998 58.1216C155.021 65.8271 159.164 72.0591 164.249 72.0419L171.616 72.017L172.537 72.0139L181.746 71.9827C185.154 71.9711 188.136 74.7679 189.741 78.9314C190.519 76.8759 190.963 74.4908 190.955 71.9515C190.932 64.246 186.789 58.0139 181.704 58.0311L154.998 58.1216Z" fill="#0B57E0"/>
</g>
<defs>
<linearGradient id="paint0_linear_6276_132787" x1="889.673" y1="88.1992" x2="899.415" y2="114.347" gradientUnits="userSpaceOnUse">
<stop stop-color="#0652DD"/>
<stop offset="0.473958" stop-color="#083587"/>
<stop offset="1" stop-color="#0176C3"/>
</linearGradient>
<linearGradient id="paint1_linear_6276_132787" x1="1389.67" y1="171.199" x2="1399.41" y2="197.347" gradientUnits="userSpaceOnUse">
<stop stop-color="#0652DD"/>
<stop offset="0.473958" stop-color="#083587"/>
<stop offset="1" stop-color="#0176C3"/>
</linearGradient>
<linearGradient id="paint2_linear_6276_132787" x1="1056.67" y1="48.1992" x2="1066.41" y2="74.3466" gradientUnits="userSpaceOnUse">
<stop stop-color="#0652DD"/>
<stop offset="0.473958" stop-color="#083587"/>
<stop offset="1" stop-color="#0176C3"/>
</linearGradient>
<linearGradient id="paint3_linear_6276_132787" x1="1036.67" y1="124.199" x2="1046.41" y2="150.347" gradientUnits="userSpaceOnUse">
<stop stop-color="#0652DD"/>
<stop offset="0.473958" stop-color="#083587"/>
<stop offset="1" stop-color="#0176C3"/>
</linearGradient>
<linearGradient id="paint4_linear_6276_132787" x1="1318.67" y1="36.1992" x2="1328.41" y2="62.3466" gradientUnits="userSpaceOnUse">
<stop stop-color="#0652DD"/>
<stop offset="0.473958" stop-color="#083587"/>
<stop offset="1" stop-color="#0176C3"/>
</linearGradient>
<linearGradient id="paint5_linear_6276_132787" x1="1227.67" y1="143.199" x2="1237.41" y2="169.347" gradientUnits="userSpaceOnUse">
<stop stop-color="#0652DD"/>
<stop offset="0.473958" stop-color="#083587"/>
<stop offset="1" stop-color="#0176C3"/>
</linearGradient>
<linearGradient id="paint6_linear_6276_132787" x1="485.726" y1="114.952" x2="485.631" y2="87.0486" gradientUnits="userSpaceOnUse">
<stop stop-color="#0652DD"/>
<stop offset="0.473958" stop-color="#083587"/>
<stop offset="1" stop-color="#0176C3"/>
</linearGradient>
<linearGradient id="paint7_linear_6276_132787" x1="15.7257" y1="55.9517" x2="15.6312" y2="28.0486" gradientUnits="userSpaceOnUse">
<stop stop-color="#0652DD"/>
<stop offset="0.473958" stop-color="#083587"/>
<stop offset="1" stop-color="#0176C3"/>
</linearGradient>
<linearGradient id="paint8_linear_6276_132787" x1="352.726" y1="164.952" x2="352.631" y2="137.049" gradientUnits="userSpaceOnUse">
<stop stop-color="#0652DD"/>
<stop offset="0.473958" stop-color="#083587"/>
<stop offset="1" stop-color="#0176C3"/>
</linearGradient>
<linearGradient id="paint9_linear_6276_132787" x1="369.726" y1="88.9517" x2="369.631" y2="61.0486" gradientUnits="userSpaceOnUse">
<stop stop-color="#0652DD"/>
<stop offset="0.473958" stop-color="#083587"/>
<stop offset="1" stop-color="#0176C3"/>
</linearGradient>
<linearGradient id="paint10_linear_6276_132787" x1="91.7257" y1="187.952" x2="91.6312" y2="160.049" gradientUnits="userSpaceOnUse">
<stop stop-color="#0652DD"/>
<stop offset="0.473958" stop-color="#083587"/>
<stop offset="1" stop-color="#0176C3"/>
</linearGradient>
<linearGradient id="paint11_linear_6276_132787" x1="176.726" y1="85.9517" x2="176.631" y2="58.0486" gradientUnits="userSpaceOnUse">
<stop stop-color="#0652DD"/>
<stop offset="0.473958" stop-color="#083587"/>
<stop offset="1" stop-color="#0176C3"/>
</linearGradient>
<clipPath id="clip0_6276_132787">
<rect width="1440" height="216" fill="white"/>
</clipPath>
</defs>
</svg>
