<svg width="375" height="216" viewBox="0 0 375 216" fill="none" xmlns="http://www.w3.org/2000/svg">
<g clip-path="url(#clip0_6276_148805)">
<rect width="375" height="216" fill="#03296F"/>
<path d="M233.965 99.8279L234.19 99.5063C235.431 97.7308 235.87 90.4375 235.17 83.2159L230.45 89.9675C229.209 91.7429 228.77 99.0364 229.47 106.258C230.17 113.48 231.744 117.894 232.985 116.118C234.226 114.343 234.665 107.049 233.965 99.8279Z" fill="url(#paint0_linear_6276_148805)"/>
<path d="M239.501 106.795C238.801 99.5733 237.228 95.159 235.987 96.9345L234.189 99.5065L233.964 99.828L231.717 103.043C230.885 104.233 229.905 102.64 229.137 99.2892C229.133 101.487 229.239 103.878 229.47 106.258C230.17 113.48 231.743 117.894 232.984 116.118L239.501 106.795Z" fill="#0B57E0"/>
<path d="M364.176 182.828L364.401 182.506C365.642 180.731 366.081 173.437 365.381 166.216L360.661 172.968C359.42 174.743 358.981 182.036 359.681 189.258C360.381 196.48 361.955 200.894 363.196 199.118C364.437 197.343 364.876 190.049 364.176 182.828Z" fill="url(#paint1_linear_6276_148805)"/>
<path d="M369.712 189.795C369.012 182.573 367.439 178.159 366.198 179.934L364.4 182.506L364.175 182.828L361.928 186.043C361.096 187.233 360.116 185.64 359.348 182.289C359.344 184.487 359.45 186.878 359.681 189.258C360.38 196.48 361.954 200.894 363.195 199.118L369.712 189.795Z" fill="#0B57E0"/>
<path d="M277.457 59.8279L277.682 59.5063C278.923 57.7308 279.362 50.4375 278.662 43.2159L273.943 49.9675C272.702 51.7429 272.263 59.0364 272.963 66.258C273.663 73.4796 275.236 77.8937 276.477 76.1183C277.718 74.3427 278.157 67.0495 277.457 59.8279Z" fill="url(#paint2_linear_6276_148805)"/>
<path d="M282.993 66.7949C282.294 59.5733 280.72 55.159 279.479 56.9345L277.681 59.5065L277.456 59.828L275.209 63.043C274.378 64.2327 273.397 62.6402 272.63 59.2892C272.625 61.4868 272.731 63.8783 272.962 66.2581C273.662 73.4798 275.235 77.8938 276.476 76.1184L282.993 66.7949Z" fill="#0B57E0"/>
<path d="M272.246 135.828L272.471 135.506C273.712 133.731 274.151 126.437 273.451 119.216L268.732 125.968C267.491 127.743 267.052 135.036 267.752 142.258C268.452 149.48 270.025 153.894 271.266 152.118C272.507 150.343 272.946 143.049 272.246 135.828Z" fill="url(#paint3_linear_6276_148805)"/>
<path d="M277.783 142.795C277.083 135.573 275.509 131.159 274.268 132.934L272.47 135.506L272.245 135.828L269.998 139.043C269.167 140.233 268.186 138.64 267.419 135.289C267.414 137.487 267.52 139.878 267.751 142.258C268.451 149.48 270.024 153.894 271.265 152.118L277.783 142.795Z" fill="#0B57E0"/>
<path d="M345.684 47.8279L345.909 47.5063C347.15 45.7308 347.588 38.4375 346.888 31.2159L342.169 37.9675C340.928 39.7429 340.489 47.0364 341.189 54.258C341.889 61.4796 343.463 65.8937 344.704 64.1183C345.945 62.3427 346.384 55.0495 345.684 47.8279Z" fill="url(#paint4_linear_6276_148805)"/>
<path d="M351.22 54.7949C350.52 47.5733 348.947 43.159 347.705 44.9345L345.908 47.5065L345.683 47.828L343.436 51.043C342.604 52.2327 341.624 50.6402 340.856 47.2892C340.851 49.4868 340.958 51.8783 341.188 54.2581C341.888 61.4798 343.462 65.8938 344.703 64.1184L351.22 54.7949Z" fill="#0B57E0"/>
<path d="M321.988 154.828L322.213 154.506C323.454 152.731 323.893 145.437 323.193 138.216L318.474 144.968C317.233 146.743 316.794 154.036 317.494 161.258C318.194 168.48 319.767 172.894 321.008 171.118C322.25 169.343 322.688 162.049 321.988 154.828Z" fill="url(#paint5_linear_6276_148805)"/>
<path d="M327.525 161.795C326.825 154.573 325.251 150.159 324.01 151.934L322.212 154.506L321.988 154.828L319.74 158.043C318.909 159.233 317.928 157.64 317.161 154.289C317.156 156.487 317.262 158.878 317.493 161.258C318.193 168.48 319.767 172.894 321.008 171.118L327.525 161.795Z" fill="#0B57E0"/>
<path d="M106.76 90.24C105.843 90.24 105.035 90.0533 104.336 89.68C103.643 89.3067 103.099 88.7813 102.704 88.104C102.315 87.4267 102.12 86.632 102.12 85.72V78.496L104.072 78.48V85.672C104.072 86.104 104.144 86.4907 104.288 86.832C104.437 87.1733 104.637 87.464 104.888 87.704C105.139 87.9387 105.427 88.1173 105.752 88.24C106.077 88.3627 106.413 88.424 106.76 88.424C107.117 88.424 107.456 88.3627 107.776 88.24C108.101 88.112 108.389 87.9307 108.64 87.696C108.891 87.456 109.088 87.1653 109.232 86.824C109.376 86.4827 109.448 86.0987 109.448 85.672V78.48H111.4V85.72C111.4 86.632 111.203 87.4267 110.808 88.104C110.419 88.7813 109.875 89.3067 109.176 89.68C108.483 90.0533 107.677 90.24 106.76 90.24ZM113.636 90V78.48H115.588L120.932 86.6V78.48H122.884V90H120.932L115.588 81.88V90H113.636ZM125.12 90V78.48H128.792C128.888 78.48 129.077 78.4827 129.36 78.488C129.648 78.4933 129.925 78.512 130.192 78.544C131.104 78.6613 131.875 78.9867 132.504 79.52C133.139 80.048 133.619 80.7227 133.944 81.544C134.269 82.3653 134.432 83.264 134.432 84.24C134.432 85.216 134.269 86.1147 133.944 86.936C133.619 87.7573 133.139 88.4347 132.504 88.968C131.875 89.496 131.104 89.8187 130.192 89.936C129.931 89.968 129.656 89.9867 129.368 89.992C129.08 89.9973 128.888 90 128.792 90H125.12ZM127.08 88.184H128.792C128.952 88.184 129.155 88.1787 129.4 88.168C129.651 88.1573 129.872 88.1333 130.064 88.096C130.608 87.9947 131.051 87.752 131.392 87.368C131.733 86.984 131.984 86.5173 132.144 85.968C132.309 85.4187 132.392 84.8427 132.392 84.24C132.392 83.616 132.309 83.0293 132.144 82.48C131.979 81.9307 131.723 81.4693 131.376 81.096C131.035 80.7227 130.597 80.4853 130.064 80.384C129.872 80.3413 129.651 80.3173 129.4 80.312C129.155 80.3013 128.952 80.296 128.792 80.296H127.08V88.184ZM136.323 90V78.48H143.763V80.288H138.251V83.128H142.803V84.936H138.251V88.192H143.763V90H136.323ZM145.683 90V78.48H150.443C150.555 78.48 150.699 78.4853 150.875 78.496C151.051 78.5013 151.213 78.5173 151.363 78.544C152.029 78.6453 152.579 78.8667 153.01 79.208C153.448 79.5493 153.771 79.9813 153.979 80.504C154.192 81.0213 154.299 81.5973 154.299 82.232C154.299 83.1707 154.061 83.9787 153.587 84.656C153.112 85.328 152.384 85.744 151.403 85.904L150.579 85.976H147.611V90H145.683ZM152.299 90L150.027 85.312L151.987 84.88L154.483 90H152.299ZM147.611 84.176H150.363C150.469 84.176 150.589 84.1707 150.723 84.16C150.856 84.1493 150.979 84.128 151.091 84.096C151.411 84.016 151.661 83.8747 151.843 83.672C152.029 83.4693 152.16 83.24 152.235 82.984C152.315 82.728 152.355 82.4773 152.355 82.232C152.355 81.9867 152.315 81.736 152.235 81.48C152.16 81.2187 152.029 80.9867 151.843 80.784C151.661 80.5813 151.411 80.44 151.091 80.36C150.979 80.328 150.856 80.3093 150.723 80.304C150.589 80.2933 150.469 80.288 150.363 80.288H147.611V84.176ZM160.509 90.24C159.666 90.24 158.906 90.0933 158.229 89.8C157.557 89.5067 157.002 89.088 156.565 88.544C156.133 87.9947 155.858 87.344 155.741 86.592L157.741 86.288C157.912 86.9707 158.261 87.4987 158.789 87.872C159.322 88.2453 159.936 88.432 160.629 88.432C161.04 88.432 161.426 88.368 161.789 88.24C162.152 88.112 162.445 87.9253 162.669 87.68C162.898 87.4347 163.013 87.1333 163.013 86.776C163.013 86.616 162.986 86.4693 162.933 86.336C162.88 86.1973 162.8 86.0747 162.693 85.968C162.592 85.8613 162.458 85.7653 162.293 85.68C162.133 85.5893 161.946 85.512 161.733 85.448L158.757 84.568C158.501 84.4933 158.224 84.3947 157.925 84.272C157.632 84.144 157.352 83.9707 157.085 83.752C156.824 83.528 156.608 83.2453 156.437 82.904C156.272 82.5573 156.189 82.1307 156.189 81.624C156.189 80.8827 156.376 80.2613 156.749 79.76C157.128 79.2533 157.634 78.8747 158.269 78.624C158.909 78.3733 159.618 78.2507 160.397 78.256C161.186 78.2613 161.89 78.3973 162.509 78.664C163.128 78.9253 163.645 79.3067 164.061 79.808C164.477 80.3093 164.77 80.9147 164.941 81.624L162.869 81.984C162.784 81.5787 162.618 81.2347 162.373 80.952C162.133 80.664 161.837 80.4453 161.485 80.296C161.138 80.1467 160.768 80.0667 160.373 80.056C159.989 80.0507 159.632 80.1093 159.301 80.232C158.976 80.3493 158.712 80.52 158.509 80.744C158.312 80.968 158.213 81.2293 158.213 81.528C158.213 81.8107 158.298 82.0427 158.469 82.224C158.64 82.4 158.85 82.5413 159.101 82.648C159.357 82.7493 159.616 82.8347 159.877 82.904L161.941 83.48C162.224 83.5547 162.541 83.656 162.893 83.784C163.245 83.912 163.584 84.0907 163.909 84.32C164.234 84.5493 164.501 84.8507 164.709 85.224C164.922 85.5973 165.029 86.072 165.029 86.648C165.029 87.2453 164.904 87.7707 164.653 88.224C164.408 88.672 164.074 89.0453 163.653 89.344C163.232 89.6427 162.749 89.8667 162.205 90.016C161.666 90.1653 161.101 90.24 160.509 90.24ZM169.529 90V80.288H165.801V78.48H175.185V80.288H171.457V90H169.529ZM175.351 90L178.983 78.48H181.807L185.439 90H183.455L180.159 79.664H180.591L177.335 90H175.351ZM177.375 87.504V85.704H183.423V87.504H177.375ZM186.886 90V78.48H188.838L194.182 86.6V78.48H196.134V90H194.182L188.838 81.88V90H186.886ZM198.37 90V78.48H202.042C202.138 78.48 202.327 78.4827 202.61 78.488C202.898 78.4933 203.175 78.512 203.442 78.544C204.354 78.6613 205.125 78.9867 205.754 79.52C206.389 80.048 206.869 80.7227 207.194 81.544C207.519 82.3653 207.682 83.264 207.682 84.24C207.682 85.216 207.519 86.1147 207.194 86.936C206.869 87.7573 206.389 88.4347 205.754 88.968C205.125 89.496 204.354 89.8187 203.442 89.936C203.181 89.968 202.906 89.9867 202.618 89.992C202.33 89.9973 202.138 90 202.042 90H198.37ZM200.33 88.184H202.042C202.202 88.184 202.405 88.1787 202.65 88.168C202.901 88.1573 203.122 88.1333 203.314 88.096C203.858 87.9947 204.301 87.752 204.642 87.368C204.983 86.984 205.234 86.5173 205.394 85.968C205.559 85.4187 205.642 84.8427 205.642 84.24C205.642 83.616 205.559 83.0293 205.394 82.48C205.229 81.9307 204.973 81.4693 204.626 81.096C204.285 80.7227 203.847 80.4853 203.314 80.384C203.122 80.3413 202.901 80.3173 202.65 80.312C202.405 80.3013 202.202 80.296 202.042 80.296H200.33V88.184ZM209.733 90V78.48H211.661V90H209.733ZM214.058 90V78.48H216.01L221.354 86.6V78.48H223.306V90H221.354L216.01 81.88V90H214.058ZM230.294 90.24C229.547 90.24 228.846 90.1093 228.19 89.848C227.539 89.5813 226.966 89.192 226.47 88.68C225.979 88.168 225.595 87.5413 225.318 86.8C225.041 86.0533 224.902 85.2 224.902 84.24C224.902 82.9813 225.137 81.9067 225.606 81.016C226.075 80.12 226.718 79.4347 227.534 78.96C228.35 78.48 229.27 78.24 230.294 78.24C231.713 78.24 232.835 78.5707 233.662 79.232C234.494 79.888 235.057 80.8107 235.35 82L233.382 82.312C233.163 81.6293 232.806 81.0853 232.31 80.68C231.814 80.2693 231.182 80.064 230.414 80.064C229.641 80.0533 228.998 80.2213 228.486 80.568C227.974 80.9147 227.587 81.4027 227.326 82.032C227.07 82.6613 226.942 83.3973 226.942 84.24C226.942 85.0827 227.07 85.816 227.326 86.44C227.582 87.0587 227.966 87.5413 228.478 87.888C228.995 88.2347 229.641 88.4133 230.414 88.424C230.995 88.4293 231.505 88.3253 231.942 88.112C232.379 87.8933 232.737 87.5653 233.014 87.128C233.291 86.6853 233.478 86.1333 233.574 85.472H231.542V83.96H235.622C235.633 84.0453 235.641 84.1707 235.646 84.336C235.651 84.5013 235.654 84.6 235.654 84.632C235.654 85.72 235.438 86.688 235.006 87.536C234.579 88.3787 233.966 89.04 233.166 89.52C232.366 90 231.409 90.24 230.294 90.24ZM245.336 90.24C244.184 90.24 243.197 89.9893 242.376 89.488C241.554 88.9813 240.922 88.2773 240.48 87.376C240.042 86.4747 239.824 85.4293 239.824 84.24C239.824 83.0507 240.042 82.0053 240.48 81.104C240.922 80.2027 241.554 79.5013 242.376 79C243.197 78.4933 244.184 78.24 245.336 78.24C246.488 78.24 247.474 78.4933 248.296 79C249.122 79.5013 249.754 80.2027 250.192 81.104C250.634 82.0053 250.856 83.0507 250.856 84.24C250.856 85.4293 250.634 86.4747 250.192 87.376C249.754 88.2773 249.122 88.9813 248.296 89.488C247.474 89.9893 246.488 90.24 245.336 90.24ZM245.336 88.424C246.109 88.4293 246.752 88.2587 247.264 87.912C247.781 87.5653 248.168 87.0773 248.424 86.448C248.685 85.8187 248.816 85.0827 248.816 84.24C248.816 83.3973 248.685 82.6667 248.424 82.048C248.168 81.424 247.781 80.9387 247.264 80.592C246.752 80.2453 246.109 80.0667 245.336 80.056C244.562 80.0507 243.92 80.2213 243.408 80.568C242.896 80.9147 242.509 81.4027 242.248 82.032C241.992 82.6613 241.864 83.3973 241.864 84.24C241.864 85.0827 241.992 85.816 242.248 86.44C242.504 87.0587 242.888 87.5413 243.4 87.888C243.917 88.2347 244.562 88.4133 245.336 88.424ZM257.088 90.24C256.171 90.24 255.363 90.0533 254.664 89.68C253.971 89.3067 253.427 88.7813 253.032 88.104C252.643 87.4267 252.448 86.632 252.448 85.72V78.496L254.4 78.48V85.672C254.4 86.104 254.472 86.4907 254.616 86.832C254.765 87.1733 254.965 87.464 255.216 87.704C255.467 87.9387 255.755 88.1173 256.08 88.24C256.405 88.3627 256.741 88.424 257.088 88.424C257.445 88.424 257.784 88.3627 258.104 88.24C258.429 88.112 258.717 87.9307 258.968 87.696C259.219 87.456 259.416 87.1653 259.56 86.824C259.704 86.4827 259.776 86.0987 259.776 85.672V78.48H261.728V85.72C261.728 86.632 261.531 87.4267 261.136 88.104C260.747 88.7813 260.203 89.3067 259.504 89.68C258.811 90.0533 258.005 90.24 257.088 90.24ZM263.964 90V78.48H268.724C268.836 78.48 268.98 78.4853 269.156 78.496C269.332 78.5013 269.494 78.5173 269.644 78.544C270.31 78.6453 270.86 78.8667 271.292 79.208C271.729 79.5493 272.052 79.9813 272.26 80.504C272.473 81.0213 272.58 81.5973 272.58 82.232C272.58 83.1707 272.342 83.9787 271.868 84.656C271.393 85.328 270.665 85.744 269.684 85.904L268.86 85.976H265.892V90H263.964ZM270.58 90L268.308 85.312L270.268 84.88L272.764 90H270.58ZM265.892 84.176H268.644C268.75 84.176 268.87 84.1707 269.004 84.16C269.137 84.1493 269.26 84.128 269.372 84.096C269.692 84.016 269.942 83.8747 270.124 83.672C270.31 83.4693 270.441 83.24 270.516 82.984C270.596 82.728 270.636 82.4773 270.636 82.232C270.636 81.9867 270.596 81.736 270.516 81.48C270.441 81.2187 270.31 80.9867 270.124 80.784C269.942 80.5813 269.692 80.44 269.372 80.36C269.26 80.328 269.137 80.3093 269.004 80.304C268.87 80.2933 268.75 80.288 268.644 80.288H265.892V84.176Z" fill="white"/>
<path d="M68.24 136V112.96H75.584C75.776 112.96 76.1547 112.965 76.72 112.976C77.296 112.987 77.8507 113.024 78.384 113.088C80.208 113.323 81.7493 113.973 83.008 115.04C84.2773 116.096 85.2373 117.445 85.888 119.088C86.5387 120.731 86.864 122.528 86.864 124.48C86.864 126.432 86.5387 128.229 85.888 129.872C85.2373 131.515 84.2773 132.869 83.008 133.936C81.7493 134.992 80.208 135.637 78.384 135.872C77.8613 135.936 77.312 135.973 76.736 135.984C76.16 135.995 75.776 136 75.584 136H68.24ZM72.16 132.368H75.584C75.904 132.368 76.3093 132.357 76.8 132.336C77.3013 132.315 77.744 132.267 78.128 132.192C79.216 131.989 80.1013 131.504 80.784 130.736C81.4667 129.968 81.968 129.035 82.288 127.936C82.6187 126.837 82.784 125.685 82.784 124.48C82.784 123.232 82.6187 122.059 82.288 120.96C81.9573 119.861 81.4453 118.939 80.752 118.192C80.0693 117.445 79.1947 116.971 78.128 116.768C77.744 116.683 77.3013 116.635 76.8 116.624C76.3093 116.603 75.904 116.592 75.584 116.592H72.16V132.368ZM98.2783 136.48C96.5503 136.48 95.0409 136.091 93.7503 135.312C92.4596 134.533 91.4569 133.461 90.7423 132.096C90.0383 130.72 89.6863 129.141 89.6863 127.36C89.6863 125.547 90.0489 123.957 90.7743 122.592C91.4996 121.227 92.5076 120.16 93.7983 119.392C95.0889 118.624 96.5823 118.24 98.2783 118.24C100.017 118.24 101.532 118.629 102.822 119.408C104.113 120.187 105.116 121.264 105.83 122.64C106.545 124.005 106.902 125.579 106.902 127.36C106.902 129.152 106.54 130.736 105.814 132.112C105.1 133.477 104.097 134.549 102.806 135.328C101.516 136.096 100.006 136.48 98.2783 136.48ZM98.2783 132.864C99.8143 132.864 100.956 132.352 101.702 131.328C102.449 130.304 102.822 128.981 102.822 127.36C102.822 125.685 102.444 124.352 101.686 123.36C100.929 122.357 99.7929 121.856 98.2783 121.856C97.2436 121.856 96.3903 122.091 95.7183 122.56C95.0569 123.019 94.5663 123.664 94.2463 124.496C93.9263 125.317 93.7663 126.272 93.7663 127.36C93.7663 129.035 94.1449 130.373 94.9023 131.376C95.6703 132.368 96.7956 132.864 98.2783 132.864ZM117.932 136.48C116.15 136.48 114.63 136.085 113.372 135.296C112.113 134.496 111.148 133.408 110.476 132.032C109.814 130.656 109.478 129.099 109.468 127.36C109.478 125.589 109.825 124.021 110.508 122.656C111.201 121.28 112.182 120.203 113.452 119.424C114.721 118.635 116.23 118.24 117.98 118.24C119.942 118.24 121.601 118.736 122.956 119.728C124.321 120.709 125.212 122.053 125.628 123.76L121.788 124.8C121.489 123.872 120.993 123.152 120.3 122.64C119.606 122.117 118.817 121.856 117.932 121.856C116.929 121.856 116.102 122.096 115.452 122.576C114.801 123.045 114.321 123.696 114.012 124.528C113.702 125.36 113.548 126.304 113.548 127.36C113.548 129.003 113.916 130.331 114.652 131.344C115.388 132.357 116.481 132.864 117.932 132.864C118.956 132.864 119.761 132.629 120.348 132.16C120.945 131.691 121.393 131.013 121.692 130.128L125.628 131.008C125.094 132.768 124.161 134.123 122.828 135.072C121.494 136.011 119.862 136.48 117.932 136.48ZM135.314 136.496C134.034 136.496 132.978 136.283 132.146 135.856C131.314 135.429 130.652 134.885 130.162 134.224C129.671 133.563 129.308 132.859 129.074 132.112C128.839 131.365 128.684 130.661 128.61 130C128.546 129.328 128.514 128.784 128.514 128.368V118.72H132.418V127.04C132.418 127.573 132.455 128.176 132.53 128.848C132.604 129.509 132.775 130.149 133.042 130.768C133.319 131.376 133.724 131.877 134.258 132.272C134.802 132.667 135.532 132.864 136.45 132.864C136.94 132.864 137.426 132.784 137.906 132.624C138.386 132.464 138.818 132.192 139.202 131.808C139.596 131.413 139.911 130.875 140.146 130.192C140.38 129.509 140.498 128.645 140.498 127.6L142.786 128.576C142.786 130.048 142.498 131.381 141.922 132.576C141.356 133.771 140.519 134.725 139.41 135.44C138.3 136.144 136.935 136.496 135.314 136.496ZM140.962 136V130.64H140.498V118.72H144.37V136H140.962ZM169.617 136V125.504C169.617 124.32 169.324 123.397 168.737 122.736C168.15 122.064 167.356 121.728 166.353 121.728C165.734 121.728 165.18 121.872 164.689 122.16C164.198 122.437 163.809 122.853 163.521 123.408C163.233 123.952 163.089 124.603 163.089 125.36L161.377 124.352C161.366 123.157 161.633 122.107 162.177 121.2C162.732 120.283 163.478 119.568 164.417 119.056C165.356 118.544 166.401 118.288 167.553 118.288C169.462 118.288 170.924 118.864 171.937 120.016C172.961 121.157 173.473 122.661 173.473 124.528V136H169.617ZM148.833 136V118.72H152.241V124.08H152.721V136H148.833ZM159.249 136V125.552C159.249 124.347 158.956 123.408 158.369 122.736C157.782 122.064 156.982 121.728 155.969 121.728C154.988 121.728 154.198 122.064 153.601 122.736C153.014 123.408 152.721 124.283 152.721 125.36L150.993 124.208C150.993 123.088 151.27 122.08 151.825 121.184C152.38 120.288 153.126 119.584 154.065 119.072C155.014 118.549 156.076 118.288 157.249 118.288C158.54 118.288 159.617 118.565 160.481 119.12C161.356 119.664 162.006 120.411 162.433 121.36C162.87 122.299 163.089 123.36 163.089 124.544V136H159.249ZM185.221 136.48C183.472 136.48 181.936 136.101 180.613 135.344C179.29 134.587 178.256 133.536 177.509 132.192C176.773 130.848 176.405 129.301 176.405 127.552C176.405 125.664 176.768 124.027 177.493 122.64C178.218 121.243 179.226 120.16 180.517 119.392C181.808 118.624 183.301 118.24 184.997 118.24C186.789 118.24 188.309 118.661 189.557 119.504C190.816 120.336 191.749 121.515 192.357 123.04C192.965 124.565 193.194 126.363 193.045 128.432H189.221V127.024C189.21 125.147 188.88 123.776 188.229 122.912C187.578 122.048 186.554 121.616 185.157 121.616C183.578 121.616 182.405 122.107 181.637 123.088C180.869 124.059 180.485 125.483 180.485 127.36C180.485 129.109 180.869 130.464 181.637 131.424C182.405 132.384 183.525 132.864 184.997 132.864C185.946 132.864 186.762 132.656 187.445 132.24C188.138 131.813 188.672 131.2 189.045 130.4L192.853 131.552C192.192 133.109 191.168 134.32 189.781 135.184C188.405 136.048 186.885 136.48 185.221 136.48ZM179.269 128.432V125.52H191.157V128.432H179.269ZM208.098 136V127.68C208.098 127.136 208.061 126.533 207.986 125.872C207.912 125.211 207.736 124.576 207.458 123.968C207.192 123.349 206.786 122.843 206.242 122.448C205.709 122.053 204.984 121.856 204.066 121.856C203.576 121.856 203.09 121.936 202.61 122.096C202.13 122.256 201.693 122.533 201.298 122.928C200.914 123.312 200.605 123.845 200.37 124.528C200.136 125.2 200.018 126.064 200.018 127.12L197.73 126.144C197.73 124.672 198.013 123.339 198.578 122.144C199.154 120.949 199.997 120 201.106 119.296C202.216 118.581 203.581 118.224 205.202 118.224C206.482 118.224 207.538 118.437 208.37 118.864C209.202 119.291 209.864 119.835 210.354 120.496C210.845 121.157 211.208 121.861 211.442 122.608C211.677 123.355 211.826 124.064 211.89 124.736C211.965 125.397 212.002 125.936 212.002 126.352V136H208.098ZM196.114 136V118.72H199.554V124.08H200.018V136H196.114ZM226.306 136C225.164 136.213 224.044 136.304 222.946 136.272C221.858 136.251 220.882 136.053 220.018 135.68C219.154 135.296 218.498 134.693 218.049 133.872C217.655 133.125 217.447 132.363 217.426 131.584C217.404 130.805 217.394 129.925 217.394 128.944V113.92H221.234V128.72C221.234 129.413 221.239 130.021 221.25 130.544C221.271 131.067 221.383 131.493 221.586 131.824C221.97 132.464 222.583 132.821 223.426 132.896C224.268 132.971 225.228 132.928 226.306 132.768V136ZM214.258 121.744V118.72H226.306V121.744H214.258ZM234.853 136.48C233.605 136.48 232.549 136.245 231.685 135.776C230.821 135.296 230.165 134.661 229.717 133.872C229.28 133.083 229.061 132.213 229.061 131.264C229.061 130.432 229.2 129.685 229.477 129.024C229.755 128.352 230.181 127.776 230.757 127.296C231.333 126.805 232.08 126.405 232.997 126.096C233.691 125.872 234.501 125.669 235.429 125.488C236.368 125.307 237.381 125.141 238.469 124.992C239.568 124.832 240.715 124.661 241.909 124.48L240.533 125.264C240.544 124.069 240.277 123.189 239.733 122.624C239.189 122.059 238.272 121.776 236.981 121.776C236.203 121.776 235.451 121.957 234.725 122.32C234 122.683 233.493 123.307 233.205 124.192L229.685 123.088C230.112 121.627 230.923 120.453 232.117 119.568C233.323 118.683 234.944 118.24 236.981 118.24C238.517 118.24 239.867 118.491 241.029 118.992C242.203 119.493 243.072 120.315 243.637 121.456C243.947 122.064 244.133 122.688 244.197 123.328C244.261 123.957 244.293 124.645 244.293 125.392V136H240.917V132.256L241.477 132.864C240.699 134.112 239.787 135.029 238.741 135.616C237.707 136.192 236.411 136.48 234.853 136.48ZM235.621 133.408C236.496 133.408 237.243 133.253 237.861 132.944C238.48 132.635 238.971 132.256 239.333 131.808C239.707 131.36 239.957 130.939 240.085 130.544C240.288 130.053 240.4 129.493 240.421 128.864C240.453 128.224 240.469 127.707 240.469 127.312L241.653 127.664C240.491 127.845 239.493 128.005 238.661 128.144C237.829 128.283 237.115 128.416 236.517 128.544C235.92 128.661 235.392 128.795 234.933 128.944C234.485 129.104 234.107 129.291 233.797 129.504C233.488 129.717 233.248 129.963 233.077 130.24C232.917 130.517 232.837 130.843 232.837 131.216C232.837 131.643 232.944 132.021 233.157 132.352C233.371 132.672 233.68 132.928 234.085 133.12C234.501 133.312 235.013 133.408 235.621 133.408ZM258.587 136C257.445 136.213 256.325 136.304 255.227 136.272C254.139 136.251 253.163 136.053 252.299 135.68C251.435 135.296 250.779 134.693 250.331 133.872C249.936 133.125 249.728 132.363 249.707 131.584C249.685 130.805 249.675 129.925 249.675 128.944V113.92H253.515V128.72C253.515 129.413 253.52 130.021 253.531 130.544C253.552 131.067 253.664 131.493 253.867 131.824C254.251 132.464 254.864 132.821 255.707 132.896C256.549 132.971 257.509 132.928 258.587 132.768V136ZM246.539 121.744V118.72H258.587V121.744H246.539ZM262.623 116.096V112.56H266.479V116.096H262.623ZM262.623 136V118.72H266.479V136H262.623ZM278.903 136.48C277.175 136.48 275.666 136.091 274.375 135.312C273.085 134.533 272.082 133.461 271.367 132.096C270.663 130.72 270.311 129.141 270.311 127.36C270.311 125.547 270.674 123.957 271.399 122.592C272.125 121.227 273.133 120.16 274.423 119.392C275.714 118.624 277.207 118.24 278.903 118.24C280.642 118.24 282.157 118.629 283.447 119.408C284.738 120.187 285.741 121.264 286.455 122.64C287.17 124.005 287.527 125.579 287.527 127.36C287.527 129.152 287.165 130.736 286.439 132.112C285.725 133.477 284.722 134.549 283.431 135.328C282.141 136.096 280.631 136.48 278.903 136.48ZM278.903 132.864C280.439 132.864 281.581 132.352 282.327 131.328C283.074 130.304 283.447 128.981 283.447 127.36C283.447 125.685 283.069 124.352 282.311 123.36C281.554 122.357 280.418 121.856 278.903 121.856C277.869 121.856 277.015 122.091 276.343 122.56C275.682 123.019 275.191 123.664 274.871 124.496C274.551 125.317 274.391 126.272 274.391 127.36C274.391 129.035 274.77 130.373 275.527 131.376C276.295 132.368 277.421 132.864 278.903 132.864ZM303.005 136V127.68C303.005 127.136 302.967 126.533 302.893 125.872C302.818 125.211 302.642 124.576 302.365 123.968C302.098 123.349 301.693 122.843 301.149 122.448C300.615 122.053 299.89 121.856 298.973 121.856C298.482 121.856 297.997 121.936 297.517 122.096C297.037 122.256 296.599 122.533 296.205 122.928C295.821 123.312 295.511 123.845 295.277 124.528C295.042 125.2 294.925 126.064 294.925 127.12L292.637 126.144C292.637 124.672 292.919 123.339 293.485 122.144C294.061 120.949 294.903 120 296.013 119.296C297.122 118.581 298.487 118.224 300.109 118.224C301.389 118.224 302.445 118.437 303.277 118.864C304.109 119.291 304.77 119.835 305.26 120.496C305.751 121.157 306.114 121.861 306.349 122.608C306.583 123.355 306.733 124.064 306.797 124.736C306.871 125.397 306.909 125.936 306.909 126.352V136H303.005ZM291.021 136V118.72H294.461V124.08H294.925V136H291.021Z" fill="white"/>
<path d="M133.997 105.014L133.757 105.017C132.433 105.035 131.364 111.295 131.37 119L136.406 118.935C137.731 118.917 138.8 112.657 138.794 104.952C138.787 97.2463 137.709 91.0142 136.384 91.0314C135.06 91.0487 133.991 97.3086 133.997 105.014Z" fill="url(#paint6_linear_6276_148805)"/>
<path d="M129.427 91.1216C129.434 98.8271 130.512 105.059 131.837 105.042L133.755 105.017L133.995 105.014L136.393 104.983C137.281 104.971 138.057 107.768 138.475 111.931C138.678 109.876 138.793 107.491 138.791 104.951C138.785 97.246 137.706 91.0139 136.382 91.0311L129.427 91.1216Z" fill="#0B57E0"/>
<path d="M3.00507 42.0142L2.7652 42.0173C1.44078 42.0345 0.372025 48.2946 0.378147 56L5.41429 55.9345C6.73862 55.9173 7.80754 49.6572 7.80142 41.9518C7.79529 34.2463 6.71645 28.0142 5.39212 28.0314C4.0677 28.0487 2.99894 34.3086 3.00507 42.0142Z" fill="url(#paint7_linear_6276_148805)"/>
<path d="M-1.56477 28.1216C-1.55864 35.8271 -0.479962 42.0591 0.844451 42.0419L2.76293 42.017L3.0028 42.0139L5.40093 41.9827C6.28832 41.9711 7.0649 44.7679 7.48299 48.9314C7.6855 46.8759 7.80116 44.4908 7.79915 41.9515C7.79302 34.246 6.71418 28.0139 5.38985 28.0311L-1.56477 28.1216Z" fill="#0B57E0"/>
<path d="M90.7629 151.014L90.523 151.017C89.1986 151.035 88.1298 157.295 88.136 165L93.1721 164.935C94.4964 164.917 95.5653 158.657 95.5592 150.952C95.5531 143.246 94.4743 137.014 93.1499 137.031C91.8255 137.049 90.7568 143.309 90.7629 151.014Z" fill="url(#paint8_linear_6276_148805)"/>
<path d="M86.193 137.122C86.1992 144.827 87.2779 151.059 88.6023 151.042L90.5207 151.017L90.7606 151.014L93.1587 150.983C94.0461 150.971 94.8227 153.768 95.2408 157.931C95.4433 155.876 95.559 153.491 95.557 150.951C95.5508 143.246 94.472 137.014 93.1477 137.031L86.193 137.122Z" fill="#0B57E0"/>
<path d="M95.1926 75.0142L94.9527 75.0173C93.6283 75.0345 92.5595 81.2946 92.5656 89L97.6018 88.9345C98.9261 88.9173 99.995 82.6572 99.9889 74.9518C99.9828 67.2463 98.9039 61.0142 97.5796 61.0314C96.2552 61.0487 95.1864 67.3086 95.1926 75.0142Z" fill="url(#paint9_linear_6276_148805)"/>
<path d="M90.6227 61.1216C90.6289 68.8271 91.7075 75.0591 93.032 75.0419L94.9504 75.017L95.1903 75.0139L97.5884 74.9827C98.4758 74.9711 99.2524 77.7679 99.6705 81.9314C99.873 79.8759 99.9887 77.4908 99.9866 74.9515C99.9805 67.246 98.9017 61.0139 97.5773 61.0311L90.6227 61.1216Z" fill="#0B57E0"/>
<path d="M22.7941 174.014L22.5543 174.017C21.2298 174.035 20.1611 180.295 20.1672 188L25.2033 187.935C26.5277 187.917 27.5966 181.657 27.5905 173.952C27.5844 166.246 26.5055 160.014 25.1812 160.031C23.8568 160.049 22.788 166.309 22.7941 174.014Z" fill="url(#paint10_linear_6276_148805)"/>
<path d="M18.2243 160.122C18.2304 167.827 19.3091 174.059 20.6335 174.042L22.552 174.017L22.7919 174.014L25.19 173.983C26.0774 173.971 26.854 176.768 27.2721 180.931C27.4746 178.876 27.5902 176.491 27.5882 173.951C27.5821 166.246 26.5032 160.014 25.1789 160.031L18.2243 160.122Z" fill="#0B57E0"/>
<path d="M44.9348 72.0142L44.6949 72.0173C43.3705 72.0345 42.3017 78.2946 42.3078 86L47.344 85.9345C48.6683 85.9173 49.7372 79.6572 49.7311 71.9518C49.725 64.2463 48.6461 58.0142 47.3218 58.0314C45.9974 58.0487 44.9286 64.3086 44.9348 72.0142Z" fill="url(#paint11_linear_6276_148805)"/>
<path d="M40.3649 58.1216C40.371 65.8271 41.4497 72.0591 42.7741 72.0419L44.6926 72.017L44.9325 72.0139L47.3306 71.9827C48.218 71.9711 48.9946 74.7679 49.4127 78.9314C49.6152 76.8759 49.7309 74.4908 49.7288 71.9515C49.7227 64.246 48.6439 58.0139 47.3195 58.0311L40.3649 58.1216Z" fill="#0B57E0"/>
</g>
<defs>
<linearGradient id="paint0_linear_6276_148805" x1="231.687" y1="88.1992" x2="245.669" y2="97.9725" gradientUnits="userSpaceOnUse">
<stop stop-color="#0652DD"/>
<stop offset="0.473958" stop-color="#083587"/>
<stop offset="1" stop-color="#0176C3"/>
</linearGradient>
<linearGradient id="paint1_linear_6276_148805" x1="361.897" y1="171.199" x2="375.88" y2="180.973" gradientUnits="userSpaceOnUse">
<stop stop-color="#0652DD"/>
<stop offset="0.473958" stop-color="#083587"/>
<stop offset="1" stop-color="#0176C3"/>
</linearGradient>
<linearGradient id="paint2_linear_6276_148805" x1="275.179" y1="48.1992" x2="289.161" y2="57.9725" gradientUnits="userSpaceOnUse">
<stop stop-color="#0652DD"/>
<stop offset="0.473958" stop-color="#083587"/>
<stop offset="1" stop-color="#0176C3"/>
</linearGradient>
<linearGradient id="paint3_linear_6276_148805" x1="269.968" y1="124.199" x2="283.95" y2="133.973" gradientUnits="userSpaceOnUse">
<stop stop-color="#0652DD"/>
<stop offset="0.473958" stop-color="#083587"/>
<stop offset="1" stop-color="#0176C3"/>
</linearGradient>
<linearGradient id="paint4_linear_6276_148805" x1="343.405" y1="36.1992" x2="357.387" y2="45.9725" gradientUnits="userSpaceOnUse">
<stop stop-color="#0652DD"/>
<stop offset="0.473958" stop-color="#083587"/>
<stop offset="1" stop-color="#0176C3"/>
</linearGradient>
<linearGradient id="paint5_linear_6276_148805" x1="319.71" y1="143.199" x2="333.692" y2="152.973" gradientUnits="userSpaceOnUse">
<stop stop-color="#0652DD"/>
<stop offset="0.473958" stop-color="#083587"/>
<stop offset="1" stop-color="#0176C3"/>
</linearGradient>
<linearGradient id="paint6_linear_6276_148805" x1="135.087" y1="118.952" x2="134.725" y2="91.053" gradientUnits="userSpaceOnUse">
<stop stop-color="#0652DD"/>
<stop offset="0.473958" stop-color="#083587"/>
<stop offset="1" stop-color="#0176C3"/>
</linearGradient>
<linearGradient id="paint7_linear_6276_148805" x1="4.09524" y1="55.9517" x2="3.73243" y2="28.053" gradientUnits="userSpaceOnUse">
<stop stop-color="#0652DD"/>
<stop offset="0.473958" stop-color="#083587"/>
<stop offset="1" stop-color="#0176C3"/>
</linearGradient>
<linearGradient id="paint8_linear_6276_148805" x1="91.8531" y1="164.952" x2="91.4902" y2="137.053" gradientUnits="userSpaceOnUse">
<stop stop-color="#0652DD"/>
<stop offset="0.473958" stop-color="#083587"/>
<stop offset="1" stop-color="#0176C3"/>
</linearGradient>
<linearGradient id="paint9_linear_6276_148805" x1="96.2827" y1="88.9517" x2="95.9199" y2="61.053" gradientUnits="userSpaceOnUse">
<stop stop-color="#0652DD"/>
<stop offset="0.473958" stop-color="#083587"/>
<stop offset="1" stop-color="#0176C3"/>
</linearGradient>
<linearGradient id="paint10_linear_6276_148805" x1="23.8843" y1="187.952" x2="23.5215" y2="160.053" gradientUnits="userSpaceOnUse">
<stop stop-color="#0652DD"/>
<stop offset="0.473958" stop-color="#083587"/>
<stop offset="1" stop-color="#0176C3"/>
</linearGradient>
<linearGradient id="paint11_linear_6276_148805" x1="46.0249" y1="85.9517" x2="45.6621" y2="58.053" gradientUnits="userSpaceOnUse">
<stop stop-color="#0652DD"/>
<stop offset="0.473958" stop-color="#083587"/>
<stop offset="1" stop-color="#0176C3"/>
</linearGradient>
<clipPath id="clip0_6276_148805">
<rect width="375" height="216" fill="white"/>
</clipPath>
</defs>
</svg>
