<svg width="16" height="16" viewBox="0 0 16 16" fill="none" xmlns="http://www.w3.org/2000/svg">
<path d="M13.668 6.79301H11.7413C10.1613 6.79301 8.87464 5.50634 8.87464 3.92634V1.99967C8.87464 1.63301 8.57464 1.33301 8.20797 1.33301H5.3813C3.32797 1.33301 1.66797 2.66634 1.66797 5.04634V10.953C1.66797 13.333 3.32797 14.6663 5.3813 14.6663H10.6213C12.6746 14.6663 14.3346 13.333 14.3346 10.953V7.45967C14.3346 7.09301 14.0346 6.79301 13.668 6.79301ZM8.18797 10.5197L6.85463 11.853C6.80797 11.8997 6.74797 11.9397 6.68797 11.9597C6.62797 11.9863 6.56797 11.9997 6.5013 11.9997C6.43464 11.9997 6.37464 11.9863 6.31464 11.9597C6.2613 11.9397 6.20797 11.8997 6.16797 11.8597C6.1613 11.853 6.15463 11.853 6.15463 11.8463L4.8213 10.513C4.62797 10.3197 4.62797 9.99967 4.8213 9.80634C5.01464 9.61301 5.33464 9.61301 5.52797 9.80634L6.0013 10.293V7.49967C6.0013 7.22634 6.22797 6.99967 6.5013 6.99967C6.77464 6.99967 7.0013 7.22634 7.0013 7.49967V10.293L7.4813 9.81301C7.67464 9.61967 7.99464 9.61967 8.18797 9.81301C8.3813 10.0063 8.3813 10.3263 8.18797 10.5197Z" fill="#0652DD"/>
<path d="M11.6185 5.87365C12.2518 5.88032 13.1318 5.88032 13.8852 5.88032C14.2652 5.88032 14.4652 5.43365 14.1985 5.16699C13.2385 4.20032 11.5185 2.46032 10.5318 1.47365C10.2585 1.20032 9.78516 1.38699 9.78516 1.76699V4.09365C9.78516 5.06699 10.6118 5.87365 11.6185 5.87365Z" fill="#0652DD"/>
</svg>
