<svg width="21" height="20" viewBox="0 0 21 20" fill="none" xmlns="http://www.w3.org/2000/svg">
<path d="M18.225 7.64992C17.9833 7.26659 17.725 6.90825 17.4583 6.57492C17.15 6.18325 16.5667 6.14992 16.2167 6.49992L13.7167 8.99992C13.9 9.54992 13.9333 10.1833 13.7667 10.8416C13.475 12.0166 12.525 12.9666 11.35 13.2583C10.6917 13.4249 10.0583 13.3916 9.50834 13.2083C9.50834 13.2083 8.31667 14.3999 7.45834 15.2583C7.04167 15.6749 7.17501 16.4083 7.73334 16.6249C8.62501 16.9666 9.55001 17.1416 10.5 17.1416C11.9833 17.1416 13.425 16.7083 14.7417 15.8999C16.0833 15.0666 17.2917 13.8416 18.2667 12.2833C19.0583 11.0249 19.0167 8.90825 18.225 7.64992Z" fill="#292D32"/>
<path d="M12.1833 8.31621L8.81667 11.6829C8.39167 11.2495 8.11667 10.6495 8.11667 9.99954C8.11667 8.69121 9.18334 7.61621 10.5 7.61621C11.15 7.61621 11.75 7.89121 12.1833 8.31621Z" fill="#6D6D6D"/>
<path d="M15.7083 4.79173L12.8833 7.61673C12.275 7.00007 11.4333 6.6334 10.5 6.6334C8.63332 6.6334 7.13332 8.14173 7.13332 10.0001C7.13332 10.9334 7.50832 11.7751 8.11666 12.3834L5.29999 15.2084H5.29166C4.36666 14.4584 3.51666 13.5001 2.79166 12.3667C1.95832 11.0584 1.95832 8.9334 2.79166 7.62506C3.75832 6.1084 4.94166 4.91673 6.25832 4.10007C7.57499 3.30007 9.01666 2.8584 10.5 2.8584C12.3583 2.8584 14.1583 3.54173 15.7083 4.79173Z" fill="#6D6D6D"/>
<path d="M12.8833 10.0001C12.8833 11.3084 11.8167 12.3834 10.5 12.3834C10.45 12.3834 10.4083 12.3834 10.3583 12.3667L12.8667 9.8584C12.8833 9.9084 12.8833 9.95007 12.8833 10.0001Z" fill="#292D32"/>
<path d="M18.6417 1.8584C18.3917 1.6084 17.9833 1.6084 17.7333 1.8584L2.35834 17.2417C2.10834 17.4917 2.10834 17.9001 2.35834 18.1501C2.48334 18.2667 2.64167 18.3334 2.80834 18.3334C2.975 18.3334 3.13334 18.2667 3.25834 18.1417L18.6417 2.7584C18.9 2.5084 18.9 2.1084 18.6417 1.8584Z" fill="#292D32"/>
</svg>
