<svg width="488" height="533" viewBox="0 0 488 533" fill="none" xmlns="http://www.w3.org/2000/svg">
<rect width="488" height="533" rx="8" fill="#FEE3E3"/>
<path d="M69.4679 120.468L69.4679 411.532H302.532V120.468H69.4679Z" fill="white" stroke="#DCDCDC" stroke-width="0.935817"/>
<path d="M279.634 169.341H170.392C166.552 169.341 163.41 166.199 163.41 162.355C163.41 158.515 166.552 155.373 170.392 155.373H279.634C283.478 155.373 286.62 158.515 286.62 162.355C286.62 166.199 283.478 169.341 279.634 169.341Z" fill="#DCDCDC"/>
<path d="M279.64 189.79H197.588C193.743 189.79 190.602 186.643 190.602 182.804C190.602 178.964 193.743 175.822 197.588 175.822H279.64C283.48 175.822 286.622 178.964 286.622 182.804C286.622 186.643 283.48 189.79 279.64 189.79Z" fill="#DCDCDC"/>
<path d="M287.488 234.748H212.233C211.393 234.748 210.705 233.069 210.705 231.016C210.705 228.964 211.393 227.285 212.233 227.285H287.488C288.328 227.285 289.016 228.964 289.016 231.016C289.016 233.069 288.328 234.748 287.488 234.748Z" fill="#DCDCDC"/>
<path d="M158.836 234.748H83.5805C82.7402 234.748 82.0527 233.069 82.0527 231.016C82.0527 228.964 82.7402 227.285 83.5805 227.285H158.836C159.676 227.285 160.363 228.964 160.363 231.016C160.363 233.069 159.676 234.748 158.836 234.748Z" fill="#DCDCDC"/>
<path d="M215.77 256.574H84.6138C83.1494 256.574 81.9512 254.556 81.9512 252.088C81.9512 249.621 83.1494 247.602 84.6138 247.602H215.77C217.234 247.602 218.432 249.621 218.432 252.088C218.432 254.556 217.234 256.574 215.77 256.574Z" fill="#DCDCDC"/>
<path d="M287.779 256.205H226.858C226.178 256.205 225.621 254.315 225.621 252.007C225.621 249.698 226.178 247.808 226.858 247.808H287.779C288.459 247.808 289.016 249.698 289.016 252.007C289.016 254.315 288.459 256.205 287.779 256.205Z" fill="#DCDCDC"/>
<path d="M222.607 276.512H84.7498C83.2106 276.512 81.9512 274.942 81.9512 273.023C81.9512 271.104 83.2106 269.533 84.7498 269.533H222.607C224.146 269.533 225.405 271.104 225.405 273.023C225.405 274.942 224.146 276.512 222.607 276.512Z" fill="#DCDCDC"/>
<path d="M287.943 276.729H235.085C234.495 276.729 234.012 275.049 234.012 272.997C234.012 270.944 234.495 269.265 235.085 269.265H287.943C288.533 269.265 289.016 270.944 289.016 272.997C289.016 275.049 288.533 276.729 287.943 276.729Z" fill="#DCDCDC"/>
<path d="M235.306 298.443H85.0025C83.3243 298.443 81.9512 296.425 81.9512 293.957C81.9512 291.49 83.3243 289.471 85.0025 289.471H235.306C236.983 289.471 238.356 291.49 238.356 293.957C238.356 296.425 236.983 298.443 235.306 298.443Z" fill="#DCDCDC"/>
<path d="M288.216 298.186H248.796C248.356 298.186 247.996 296.296 247.996 293.987C247.996 291.679 248.356 289.789 248.796 289.789H288.216C288.656 289.789 289.016 291.679 289.016 293.987C289.016 296.296 288.656 298.186 288.216 298.186Z" fill="#DCDCDC"/>
<path d="M255.818 319.378H85.4106C83.5079 319.378 81.9512 317.584 81.9512 315.39C81.9512 313.197 83.5079 311.403 85.4106 311.403H255.818C257.72 311.403 259.277 313.197 259.277 315.39C259.277 317.584 257.72 319.378 255.818 319.378Z" fill="#DCDCDC"/>
<path d="M288.581 319.643H267.079C266.839 319.643 266.643 317.753 266.643 315.444C266.643 313.136 266.839 311.246 267.079 311.246H288.581C288.821 311.246 289.017 313.136 289.017 315.444C289.017 317.753 288.821 319.643 288.581 319.643Z" fill="#DCDCDC"/>
<path d="M112.231 361.248H82.5537C82.2223 361.248 81.9512 359.453 81.9512 357.26C81.9512 355.067 82.2223 353.272 82.5537 353.272H112.231C112.563 353.272 112.834 355.067 112.834 357.26C112.834 359.453 112.563 361.248 112.231 361.248Z" fill="#DCDCDC"/>
<path d="M136.898 382.147H83.144C82.5438 382.147 82.0527 380.254 82.0527 377.947C82.0527 375.639 82.5438 373.751 83.144 373.751H136.898C137.498 373.751 137.989 375.639 137.989 377.947C137.989 380.254 137.498 382.147 136.898 382.147Z" fill="#DCDCDC"/>
<path d="M319 249.542C319 237.677 319 231.745 321.346 227.23C323.322 223.425 326.425 220.322 330.23 218.346C334.745 216 340.677 216 352.542 216H385.458C397.323 216 403.255 216 407.77 218.346C411.575 220.322 414.678 223.425 416.654 227.23C419 231.745 419 237.677 419 249.542V282.458C419 294.323 419 300.255 416.654 304.77C414.678 308.575 411.575 311.678 407.77 313.654C403.255 316 397.323 316 385.458 316H352.542C340.677 316 334.745 316 330.23 313.654C326.425 311.678 323.322 308.575 321.346 304.77C319 300.255 319 294.323 319 282.458V249.542Z" fill="#1265BF"/>
<path d="M341.445 247.056C346.236 247.056 350.119 243.172 350.119 238.381C350.119 233.589 346.236 229.706 341.445 229.706C336.653 229.706 332.77 233.589 332.77 238.381C332.77 243.172 336.653 247.056 341.445 247.056Z" fill="white"/>
<path d="M358.064 253.467H372.442V260.053C372.442 260.053 376.343 252.25 386.958 252.25C396.428 252.25 404.272 256.915 404.272 271.133V301.117H389.373V274.767C389.373 266.379 384.895 265.456 381.483 265.456C374.401 265.456 373.189 271.565 373.189 275.861V301.117H358.064V253.467Z" fill="white"/>
<path d="M333.882 253.467H349.007V301.117H333.882V253.467Z" fill="white"/>
</svg>
