<svg width="488" height="533" viewBox="0 0 488 533" fill="none" xmlns="http://www.w3.org/2000/svg">
<rect width="488" height="533" rx="8" fill="#E3E4FE"/>
<path d="M236 258H95V81H236V258Z" fill="white"/>
<path d="M221.896 110.909H155.678C153.35 110.909 151.445 109.004 151.445 106.674C151.445 104.346 153.35 102.442 155.678 102.442H221.896C224.227 102.442 226.131 104.346 226.131 106.674C226.131 109.004 224.227 110.909 221.896 110.909Z" fill="#DCDCDC"/>
<path d="M221.899 123.304H172.162C169.831 123.304 167.927 121.397 167.927 119.069C167.927 116.742 169.831 114.837 172.162 114.837H221.899C224.227 114.837 226.131 116.742 226.131 119.069C226.131 121.397 224.227 123.304 221.899 123.304Z" fill="#DCDCDC"/>
<path d="M226.653 150.556H181.307C180.801 150.556 180.387 149.538 180.387 148.294C180.387 147.05 180.801 146.032 181.307 146.032H226.653C227.16 146.032 227.574 147.05 227.574 148.294C227.574 149.538 227.16 150.556 226.653 150.556Z" fill="#DCDCDC"/>
<path d="M149.132 150.556H103.785C103.279 150.556 102.865 149.538 102.865 148.294C102.865 147.05 103.279 146.032 103.785 146.032H149.132C149.638 146.032 150.052 147.05 150.052 148.294C150.052 149.538 149.638 150.556 149.132 150.556Z" fill="#DCDCDC"/>
<path d="M183.438 163.786H104.408C103.526 163.786 102.804 162.563 102.804 161.067C102.804 159.571 103.526 158.348 104.408 158.348H183.438C184.32 158.348 185.042 159.571 185.042 161.067C185.042 162.563 184.32 163.786 183.438 163.786Z" fill="#DCDCDC"/>
<path d="M226.829 163.562H190.12C189.71 163.562 189.375 162.417 189.375 161.018C189.375 159.618 189.71 158.473 190.12 158.473H226.829C227.239 158.473 227.574 159.618 227.574 161.018C227.574 162.417 227.239 163.562 226.829 163.562Z" fill="#DCDCDC"/>
<path d="M187.558 175.872H104.49C103.563 175.872 102.804 174.92 102.804 173.757C102.804 172.594 103.563 171.642 104.49 171.642H187.558C188.485 171.642 189.244 172.594 189.244 173.757C189.244 174.92 188.485 175.872 187.558 175.872Z" fill="#DCDCDC"/>
<path d="M226.927 176.003H195.077C194.721 176.003 194.43 174.985 194.43 173.741C194.43 172.497 194.721 171.479 195.077 171.479H226.927C227.283 171.479 227.574 172.497 227.574 173.741C227.574 174.985 227.283 176.003 226.927 176.003Z" fill="#DCDCDC"/>
<path d="M195.21 189.166H104.642C103.631 189.166 102.804 187.942 102.804 186.447C102.804 184.951 103.631 183.728 104.642 183.728H195.21C196.221 183.728 197.048 184.951 197.048 186.447C197.048 187.942 196.221 189.166 195.21 189.166Z" fill="#DCDCDC"/>
<path d="M227.091 189.01H203.338C203.073 189.01 202.856 187.864 202.856 186.465C202.856 185.065 203.073 183.92 203.338 183.92H227.091C227.356 183.92 227.573 185.065 227.573 186.465C227.573 187.864 227.356 189.01 227.091 189.01Z" fill="#DCDCDC"/>
<path d="M207.57 201.856H104.888C103.742 201.856 102.804 200.768 102.804 199.439C102.804 198.109 103.742 197.022 104.888 197.022H207.57C208.716 197.022 209.654 198.109 209.654 199.439C209.654 200.768 208.716 201.856 207.57 201.856Z" fill="#DCDCDC"/>
<path d="M227.311 202.016H214.355C214.21 202.016 214.092 200.871 214.092 199.471C214.092 198.072 214.21 196.927 214.355 196.927H227.311C227.456 196.927 227.574 198.072 227.574 199.471C227.574 200.871 227.456 202.016 227.311 202.016Z" fill="#DCDCDC"/>
<path d="M121.049 227.236H103.167C102.967 227.236 102.804 226.148 102.804 224.819C102.804 223.489 102.967 222.401 103.167 222.401H121.049C121.249 222.401 121.412 223.489 121.412 224.819C121.412 226.148 121.249 227.236 121.049 227.236Z" fill="#DCDCDC"/>
<path d="M135.912 239.904H103.522C103.161 239.904 102.865 238.757 102.865 237.358C102.865 235.959 103.161 234.815 103.522 234.815H135.912C136.274 234.815 136.57 235.959 136.57 237.358C136.57 238.757 136.274 239.904 135.912 239.904Z" fill="#DCDCDC"/>
<path d="M393 451H252V274H393V451Z" fill="white"/>
<path d="M378.896 303.909H312.678C310.35 303.909 308.445 302.004 308.445 299.674C308.445 297.346 310.35 295.442 312.678 295.442H378.896C381.227 295.442 383.131 297.346 383.131 299.674C383.131 302.004 381.227 303.909 378.896 303.909Z" fill="#DCDCDC"/>
<path d="M378.899 316.304H329.162C326.831 316.304 324.927 314.397 324.927 312.069C324.927 309.742 326.831 307.837 329.162 307.837H378.899C381.227 307.837 383.131 309.742 383.131 312.069C383.131 314.397 381.227 316.304 378.899 316.304Z" fill="#DCDCDC"/>
<path d="M383.653 343.556H338.307C337.801 343.556 337.387 342.538 337.387 341.294C337.387 340.05 337.801 339.032 338.307 339.032H383.653C384.16 339.032 384.574 340.05 384.574 341.294C384.574 342.538 384.16 343.556 383.653 343.556Z" fill="#DCDCDC"/>
<path d="M306.132 343.556H260.785C260.279 343.556 259.865 342.538 259.865 341.294C259.865 340.05 260.279 339.032 260.785 339.032H306.132C306.638 339.032 307.052 340.05 307.052 341.294C307.052 342.538 306.638 343.556 306.132 343.556Z" fill="#DCDCDC"/>
<path d="M340.438 356.786H261.408C260.526 356.786 259.804 355.563 259.804 354.067C259.804 352.571 260.526 351.348 261.408 351.348H340.438C341.32 351.348 342.042 352.571 342.042 354.067C342.042 355.563 341.32 356.786 340.438 356.786Z" fill="#DCDCDC"/>
<path d="M383.829 356.562H347.12C346.71 356.562 346.375 355.417 346.375 354.018C346.375 352.618 346.71 351.473 347.12 351.473H383.829C384.239 351.473 384.574 352.618 384.574 354.018C384.574 355.417 384.239 356.562 383.829 356.562Z" fill="#DCDCDC"/>
<path d="M344.558 368.872H261.49C260.563 368.872 259.804 367.92 259.804 366.757C259.804 365.594 260.563 364.642 261.49 364.642H344.558C345.485 364.642 346.244 365.594 346.244 366.757C346.244 367.92 345.485 368.872 344.558 368.872Z" fill="#DCDCDC"/>
<path d="M383.927 369.003H352.077C351.721 369.003 351.43 367.985 351.43 366.741C351.43 365.497 351.721 364.479 352.077 364.479H383.927C384.283 364.479 384.574 365.497 384.574 366.741C384.574 367.985 384.283 369.003 383.927 369.003Z" fill="#DCDCDC"/>
<path d="M352.21 382.166H261.642C260.631 382.166 259.804 380.942 259.804 379.447C259.804 377.951 260.631 376.728 261.642 376.728H352.21C353.221 376.728 354.048 377.951 354.048 379.447C354.048 380.942 353.221 382.166 352.21 382.166Z" fill="#DCDCDC"/>
<path d="M384.091 382.01H360.338C360.073 382.01 359.856 380.864 359.856 379.465C359.856 378.065 360.073 376.92 360.338 376.92H384.091C384.356 376.92 384.573 378.065 384.573 379.465C384.573 380.864 384.356 382.01 384.091 382.01Z" fill="#DCDCDC"/>
<path d="M364.57 394.856H261.888C260.742 394.856 259.804 393.768 259.804 392.439C259.804 391.109 260.742 390.022 261.888 390.022H364.57C365.716 390.022 366.654 391.109 366.654 392.439C366.654 393.768 365.716 394.856 364.57 394.856Z" fill="#DCDCDC"/>
<path d="M384.311 395.016H371.355C371.21 395.016 371.092 393.871 371.092 392.471C371.092 391.072 371.21 389.927 371.355 389.927H384.311C384.456 389.927 384.574 391.072 384.574 392.471C384.574 393.871 384.456 395.016 384.311 395.016Z" fill="#DCDCDC"/>
<path d="M278.049 420.236H260.167C259.967 420.236 259.804 419.148 259.804 417.819C259.804 416.489 259.967 415.401 260.167 415.401H278.049C278.249 415.401 278.412 416.489 278.412 417.819C278.412 419.148 278.249 420.236 278.049 420.236Z" fill="#DCDCDC"/>
<path d="M292.912 432.904H260.522C260.161 432.904 259.865 431.757 259.865 430.358C259.865 428.959 260.161 427.815 260.522 427.815H292.912C293.274 427.815 293.57 428.959 293.57 430.358C293.57 431.757 293.274 432.904 292.912 432.904Z" fill="#DCDCDC"/>
<path d="M393 258H252V81H393V258Z" fill="white"/>
<path d="M343.734 150.556H298.387C297.881 150.556 297.467 149.538 297.467 148.294C297.467 147.05 297.881 146.032 298.387 146.032H343.734C344.24 146.032 344.654 147.05 344.654 148.294C344.654 149.538 344.24 150.556 343.734 150.556Z" fill="#DCDCDC"/>
<path d="M306.132 150.556H260.786C260.279 150.556 259.865 149.538 259.865 148.294C259.865 147.05 260.279 146.032 260.786 146.032H306.132C306.638 146.032 307.052 147.05 307.052 148.294C307.052 149.538 306.638 150.556 306.132 150.556Z" fill="#DCDCDC"/>
<path d="M306.132 137.524H260.786C260.279 137.524 259.865 136.506 259.865 135.262C259.865 134.018 260.279 133 260.786 133H306.132C306.638 133 307.052 134.018 307.052 135.262C307.052 136.506 306.638 137.524 306.132 137.524Z" fill="#DCDCDC"/>
<path d="M306.132 124.524H260.786C260.279 124.524 259.865 123.506 259.865 122.262C259.865 121.018 260.279 120 260.786 120H306.132C306.638 120 307.052 121.018 307.052 122.262C307.052 123.506 306.638 124.524 306.132 124.524Z" fill="#DCDCDC"/>
<path d="M340.438 163.786H261.408C260.526 163.786 259.804 162.563 259.804 161.067C259.804 159.571 260.526 158.348 261.408 158.348H340.438C341.32 158.348 342.042 159.571 342.042 161.067C342.042 162.563 341.32 163.786 340.438 163.786Z" fill="#DCDCDC"/>
<path d="M343.909 163.563H307.2C306.79 163.563 306.455 162.417 306.455 161.018C306.455 159.618 306.79 158.473 307.2 158.473H343.909C344.319 158.473 344.654 159.618 344.654 161.018C344.654 162.417 344.319 163.563 343.909 163.563Z" fill="#DCDCDC"/>
<path d="M344.558 175.872H261.49C260.563 175.872 259.804 174.92 259.804 173.757C259.804 172.594 260.563 171.642 261.49 171.642H344.558C345.485 171.642 346.244 172.594 346.244 173.757C346.244 174.92 345.485 175.872 344.558 175.872Z" fill="#DCDCDC"/>
<path d="M344.007 176.003H312.156C311.801 176.003 311.51 174.986 311.51 173.741C311.51 172.497 311.801 171.479 312.156 171.479H344.007C344.362 171.479 344.653 172.497 344.653 173.741C344.653 174.986 344.362 176.003 344.007 176.003Z" fill="#DCDCDC"/>
<path d="M334.518 189H261.483C260.667 189 260 187.875 260 186.5C260 185.125 260.667 184 261.483 184H334.518C335.333 184 336 185.125 336 186.5C336 187.875 335.333 189 334.518 189Z" fill="#DCDCDC"/>
<path d="M344.171 189.01H320.418C320.153 189.01 319.936 187.865 319.936 186.465C319.936 185.065 320.153 183.92 320.418 183.92H344.171C344.436 183.92 344.653 185.065 344.653 186.465C344.653 187.865 344.436 189.01 344.171 189.01Z" fill="#DCDCDC"/>
<path d="M344.323 202H261.678C260.755 202 260 200.875 260 199.5C260 198.125 260.755 197 261.678 197H344.323C345.245 197 346 198.125 346 199.5C346 200.875 345.245 202 344.323 202Z" fill="#DCDCDC"/>
<path d="M344.391 202.016H331.435C331.29 202.016 331.172 200.871 331.172 199.471C331.172 198.072 331.29 196.927 331.435 196.927H344.391C344.536 196.927 344.654 198.072 344.654 199.471C344.654 200.871 344.536 202.016 344.391 202.016Z" fill="#DCDCDC"/>
<path d="M278.049 227.236H260.167C259.967 227.236 259.804 226.148 259.804 224.819C259.804 223.489 259.967 222.401 260.167 222.401H278.049C278.249 222.401 278.412 223.489 278.412 224.819C278.412 226.148 278.249 227.236 278.049 227.236Z" fill="#DCDCDC"/>
<path d="M292.912 239.904H260.522C260.161 239.904 259.865 238.757 259.865 237.358C259.865 235.959 260.161 234.815 260.522 234.815H292.912C293.274 234.815 293.57 235.959 293.57 237.358C293.57 238.757 293.274 239.904 292.912 239.904Z" fill="#DCDCDC"/>
<path d="M354 91H384V243H354V91Z" fill="#D9D9D9"/>
<path d="M378.944 105.534H359.125C358.428 105.534 357.858 104.964 357.858 104.267C357.858 103.57 358.428 103 359.125 103H378.944C379.642 103 380.212 103.57 380.212 104.267C380.212 104.964 379.642 105.534 378.944 105.534Z" fill="#434343"/>
<path d="M378.945 109.244H364.059C363.361 109.244 362.791 108.673 362.791 107.977C362.791 107.28 363.361 106.71 364.059 106.71H378.945C379.642 106.71 380.212 107.28 380.212 107.977C380.212 108.673 379.642 109.244 378.945 109.244Z" fill="#434343"/>
<path d="M236 451H95V274H236V451Z" fill="white"/>
<path d="M186.734 343.556H141.387C140.881 343.556 140.467 342.538 140.467 341.294C140.467 340.05 140.881 339.032 141.387 339.032H186.734C187.24 339.032 187.654 340.05 187.654 341.294C187.654 342.538 187.24 343.556 186.734 343.556Z" fill="#DCDCDC"/>
<path d="M149.132 343.556H103.786C103.279 343.556 102.865 342.538 102.865 341.294C102.865 340.05 103.279 339.032 103.786 339.032H149.132C149.638 339.032 150.052 340.05 150.052 341.294C150.052 342.538 149.638 343.556 149.132 343.556Z" fill="#DCDCDC"/>
<path d="M149.132 330.524H103.786C103.279 330.524 102.865 329.506 102.865 328.262C102.865 327.018 103.279 326 103.786 326H149.132C149.638 326 150.052 327.018 150.052 328.262C150.052 329.506 149.638 330.524 149.132 330.524Z" fill="#DCDCDC"/>
<path d="M149.132 317.524H103.786C103.279 317.524 102.865 316.506 102.865 315.262C102.865 314.018 103.279 313 103.786 313H149.132C149.638 313 150.052 314.018 150.052 315.262C150.052 316.506 149.638 317.524 149.132 317.524Z" fill="#DCDCDC"/>
<path d="M183.438 356.786H104.408C103.526 356.786 102.804 355.563 102.804 354.067C102.804 352.571 103.526 351.348 104.408 351.348H183.438C184.32 351.348 185.042 352.571 185.042 354.067C185.042 355.563 184.32 356.786 183.438 356.786Z" fill="#DCDCDC"/>
<path d="M186.909 356.563H150.2C149.79 356.563 149.455 355.417 149.455 354.018C149.455 352.618 149.79 351.473 150.2 351.473H186.909C187.319 351.473 187.654 352.618 187.654 354.018C187.654 355.417 187.319 356.563 186.909 356.563Z" fill="#DCDCDC"/>
<path d="M187.558 368.872H104.49C103.563 368.872 102.804 367.92 102.804 366.757C102.804 365.594 103.563 364.642 104.49 364.642H187.558C188.485 364.642 189.244 365.594 189.244 366.757C189.244 367.92 188.485 368.872 187.558 368.872Z" fill="#DCDCDC"/>
<path d="M187.007 369.003H155.156C154.801 369.003 154.51 367.986 154.51 366.741C154.51 365.497 154.801 364.479 155.156 364.479H187.007C187.362 364.479 187.653 365.497 187.653 366.741C187.653 367.986 187.362 369.003 187.007 369.003Z" fill="#DCDCDC"/>
<path d="M177.518 382H104.483C103.667 382 103 380.875 103 379.5C103 378.125 103.667 377 104.483 377H177.518C178.333 377 179 378.125 179 379.5C179 380.875 178.333 382 177.518 382Z" fill="#DCDCDC"/>
<path d="M187.171 382.01H163.418C163.153 382.01 162.936 380.865 162.936 379.465C162.936 378.065 163.153 376.92 163.418 376.92H187.171C187.436 376.92 187.653 378.065 187.653 379.465C187.653 380.865 187.436 382.01 187.171 382.01Z" fill="#DCDCDC"/>
<path d="M187.323 395H104.678C103.755 395 103 393.875 103 392.5C103 391.125 103.755 390 104.678 390H187.323C188.245 390 189 391.125 189 392.5C189 393.875 188.245 395 187.323 395Z" fill="#DCDCDC"/>
<path d="M187.391 395.016H174.435C174.29 395.016 174.172 393.871 174.172 392.471C174.172 391.072 174.29 389.927 174.435 389.927H187.391C187.536 389.927 187.654 391.072 187.654 392.471C187.654 393.871 187.536 395.016 187.391 395.016Z" fill="#DCDCDC"/>
<path d="M121.049 420.236H103.167C102.967 420.236 102.804 419.148 102.804 417.819C102.804 416.489 102.967 415.401 103.167 415.401H121.049C121.249 415.401 121.412 416.489 121.412 417.819C121.412 419.148 121.249 420.236 121.049 420.236Z" fill="#DCDCDC"/>
<path d="M135.912 432.904H103.522C103.161 432.904 102.865 431.757 102.865 430.358C102.865 428.959 103.161 427.815 103.522 427.815H135.912C136.274 427.815 136.57 428.959 136.57 430.358C136.57 431.757 136.274 432.904 135.912 432.904Z" fill="#DCDCDC"/>
<path d="M197 284H227V436H197V284Z" fill="#D9D9D9"/>
<path d="M221.944 298.534H202.125C201.428 298.534 200.858 297.964 200.858 297.267C200.858 296.57 201.428 296 202.125 296H221.944C222.642 296 223.212 296.57 223.212 297.267C223.212 297.964 222.642 298.534 221.944 298.534Z" fill="#434343"/>
<path d="M221.945 302.244H207.059C206.361 302.244 205.791 301.673 205.791 300.977C205.791 300.28 206.361 299.71 207.059 299.71H221.945C222.642 299.71 223.212 300.28 223.212 300.977C223.212 301.673 222.642 302.244 221.945 302.244Z" fill="#434343"/>
</svg>
