<svg width="488" height="533" viewBox="0 0 488 533" fill="none" xmlns="http://www.w3.org/2000/svg">
<rect width="488" height="533" rx="8" fill="#EAE3FE"/>
<rect width="69" height="214.173" transform="translate(371 47)" fill="white"/>
<rect x="371" y="47" width="69" height="21.4173" fill="#0652DD"/>
<rect x="379.562" y="52.709" width="29" height="10" rx="5" fill="#040C29"/>
<rect x="371.036" y="47.0357" width="68.9286" height="21.346" stroke="#ACC5F4" stroke-opacity="0.73" stroke-width="0.0713584"/>
<rect x="379.562" y="74.126" width="28" height="10" rx="5" fill="#D9D9D9"/>
<rect x="371.036" y="68.4527" width="68.9286" height="21.346" stroke="#ACC5F4" stroke-opacity="0.73" stroke-width="0.0713584"/>
<rect x="379.562" y="95.5439" width="28" height="10" rx="5" fill="#D9D9D9"/>
<rect x="371.036" y="89.8706" width="68.9286" height="21.346" stroke="#ACC5F4" stroke-opacity="0.73" stroke-width="0.0713584"/>
<rect x="379.562" y="116.961" width="28" height="10" rx="5" fill="#D9D9D9"/>
<rect x="371.036" y="111.288" width="68.9286" height="21.346" stroke="#ACC5F4" stroke-opacity="0.73" stroke-width="0.0713584"/>
<rect x="379.562" y="138.378" width="28" height="10" rx="5" fill="#D9D9D9"/>
<rect x="371.036" y="132.705" width="68.9286" height="21.346" stroke="#ACC5F4" stroke-opacity="0.73" stroke-width="0.0713584"/>
<rect x="379.562" y="159.796" width="28" height="10" rx="5" fill="#D9D9D9"/>
<rect x="371.036" y="154.123" width="68.9286" height="21.346" stroke="#ACC5F4" stroke-opacity="0.73" stroke-width="0.0713584"/>
<rect x="379.562" y="181.213" width="28" height="10" rx="5" fill="#D9D9D9"/>
<rect x="371.036" y="175.54" width="68.9286" height="21.346" stroke="#ACC5F4" stroke-opacity="0.73" stroke-width="0.0713584"/>
<rect x="379.562" y="202.631" width="28" height="10" rx="5" fill="#D9D9D9"/>
<rect x="371.036" y="196.958" width="68.9286" height="21.346" stroke="#ACC5F4" stroke-opacity="0.73" stroke-width="0.0713584"/>
<rect x="379.562" y="224.048" width="28" height="10" rx="5" fill="#D9D9D9"/>
<rect x="371.036" y="218.375" width="68.9286" height="21.346" stroke="#ACC5F4" stroke-opacity="0.73" stroke-width="0.0713584"/>
<rect x="379.562" y="245.464" width="28" height="10" rx="5" fill="#D9D9D9"/>
<rect x="371.036" y="239.792" width="68.9286" height="21.346" stroke="#ACC5F4" stroke-opacity="0.73" stroke-width="0.0713584"/>
<g filter="url(#filter0_d_1606_88250)">
<rect x="29" y="143" width="429" height="247" rx="3.4878" fill="#F2F2F7" shape-rendering="crispEdges"/>
<rect x="29" y="143" width="143" height="21.4173" fill="#0652DD"/>
<rect x="37.5625" y="148.709" width="92" height="10" rx="5" fill="#040C29"/>
<rect x="29.0357" y="143.036" width="142.929" height="21.346" stroke="#ACC5F4" stroke-opacity="0.73" stroke-width="0.0713584"/>
<rect x="37.5625" y="170.126" width="92" height="10" rx="5" fill="#D9D9D9"/>
<rect x="29.0357" y="164.453" width="142.929" height="21.346" stroke="#ACC5F4" stroke-opacity="0.73" stroke-width="0.0713584"/>
<rect x="37.5625" y="191.544" width="92" height="10" rx="5" fill="#D9D9D9"/>
<rect x="29.0357" y="185.871" width="142.929" height="21.346" stroke="#ACC5F4" stroke-opacity="0.73" stroke-width="0.0713584"/>
<rect x="37.5625" y="212.961" width="92" height="10" rx="5" fill="#D9D9D9"/>
<rect x="29.0357" y="207.288" width="142.929" height="21.346" stroke="#ACC5F4" stroke-opacity="0.73" stroke-width="0.0713584"/>
<rect x="37.5625" y="234.378" width="92" height="10" rx="5" fill="#D9D9D9"/>
<rect x="29.0357" y="228.705" width="142.929" height="21.346" stroke="#ACC5F4" stroke-opacity="0.73" stroke-width="0.0713584"/>
<rect x="37.5625" y="255.795" width="92" height="10" rx="5" fill="#D9D9D9"/>
<rect x="29.0357" y="250.123" width="142.929" height="21.346" stroke="#ACC5F4" stroke-opacity="0.73" stroke-width="0.0713584"/>
<rect x="37.5625" y="277.212" width="92" height="10" rx="5" fill="#D9D9D9"/>
<rect x="29.0357" y="271.54" width="142.929" height="21.346" stroke="#ACC5F4" stroke-opacity="0.73" stroke-width="0.0713584"/>
<rect x="37.5625" y="298.63" width="92" height="10" rx="5" fill="#D9D9D9"/>
<rect x="29.0357" y="292.957" width="142.929" height="21.346" stroke="#ACC5F4" stroke-opacity="0.73" stroke-width="0.0713584"/>
<rect x="37.5625" y="320.047" width="92" height="10" rx="5" fill="#D9D9D9"/>
<rect x="29.0357" y="314.375" width="142.929" height="21.346" stroke="#ACC5F4" stroke-opacity="0.73" stroke-width="0.0713584"/>
<rect x="37.5625" y="341.464" width="92" height="10" rx="5" fill="#D9D9D9"/>
<rect x="29.0357" y="335.792" width="142.929" height="21.346" stroke="#ACC5F4" stroke-opacity="0.73" stroke-width="0.0713584"/>
<rect x="172" y="143" width="143" height="21.4173" fill="#0652DD"/>
<rect x="180.562" y="148.709" width="56" height="10" rx="5" fill="#040C29"/>
<rect x="172.036" y="143.036" width="142.929" height="21.346" stroke="#ACC5F4" stroke-opacity="0.73" stroke-width="0.0713584"/>
<rect x="180.562" y="170.126" width="56" height="10" rx="5" fill="#D9D9D9"/>
<rect x="172.036" y="164.453" width="142.929" height="21.346" stroke="#ACC5F4" stroke-opacity="0.73" stroke-width="0.0713584"/>
<rect x="180.562" y="191.544" width="56" height="10" rx="5" fill="#D9D9D9"/>
<rect x="172.036" y="185.871" width="142.929" height="21.346" stroke="#ACC5F4" stroke-opacity="0.73" stroke-width="0.0713584"/>
<rect x="180.562" y="212.961" width="56" height="10" rx="5" fill="#D9D9D9"/>
<rect x="172.036" y="207.288" width="142.929" height="21.346" stroke="#ACC5F4" stroke-opacity="0.73" stroke-width="0.0713584"/>
<rect x="180.562" y="234.378" width="56" height="10" rx="5" fill="#D9D9D9"/>
<rect x="172.036" y="228.705" width="142.929" height="21.346" stroke="#ACC5F4" stroke-opacity="0.73" stroke-width="0.0713584"/>
<rect x="180.562" y="255.795" width="56" height="10" rx="5" fill="#D9D9D9"/>
<rect x="172.036" y="250.123" width="142.929" height="21.346" stroke="#ACC5F4" stroke-opacity="0.73" stroke-width="0.0713584"/>
<rect x="180.562" y="277.212" width="56" height="10" rx="5" fill="#D9D9D9"/>
<rect x="172.036" y="271.54" width="142.929" height="21.346" stroke="#ACC5F4" stroke-opacity="0.73" stroke-width="0.0713584"/>
<rect x="180.562" y="298.63" width="56" height="10" rx="5" fill="#D9D9D9"/>
<rect x="172.036" y="292.957" width="142.929" height="21.346" stroke="#ACC5F4" stroke-opacity="0.73" stroke-width="0.0713584"/>
<rect x="180.562" y="320.047" width="56" height="10" rx="5" fill="#D9D9D9"/>
<rect x="172.036" y="314.375" width="142.929" height="21.346" stroke="#ACC5F4" stroke-opacity="0.73" stroke-width="0.0713584"/>
<rect x="180.562" y="341.464" width="56" height="10" rx="5" fill="#D9D9D9"/>
<rect x="172.036" y="335.792" width="142.929" height="21.346" stroke="#ACC5F4" stroke-opacity="0.73" stroke-width="0.0713584"/>
<rect x="315" y="143" width="143" height="21.4173" fill="#0652DD"/>
<rect x="323.562" y="148.709" width="29" height="10" rx="5" fill="#040C29"/>
<rect x="315.036" y="143.036" width="142.929" height="21.346" stroke="#ACC5F4" stroke-opacity="0.73" stroke-width="0.0713584"/>
<rect x="323.562" y="170.126" width="28" height="10" rx="5" fill="#D9D9D9"/>
<rect x="315.036" y="164.453" width="142.929" height="21.346" stroke="#ACC5F4" stroke-opacity="0.73" stroke-width="0.0713584"/>
<rect x="323.562" y="191.544" width="28" height="10" rx="5" fill="#D9D9D9"/>
<rect x="315.036" y="185.871" width="142.929" height="21.346" stroke="#ACC5F4" stroke-opacity="0.73" stroke-width="0.0713584"/>
<rect x="323.562" y="212.961" width="28" height="10" rx="5" fill="#D9D9D9"/>
<rect x="315.036" y="207.288" width="142.929" height="21.346" stroke="#ACC5F4" stroke-opacity="0.73" stroke-width="0.0713584"/>
<rect x="323.562" y="234.378" width="28" height="10" rx="5" fill="#D9D9D9"/>
<rect x="315.036" y="228.705" width="142.929" height="21.346" stroke="#ACC5F4" stroke-opacity="0.73" stroke-width="0.0713584"/>
<rect x="323.562" y="255.795" width="28" height="10" rx="5" fill="#D9D9D9"/>
<rect x="315.036" y="250.123" width="142.929" height="21.346" stroke="#ACC5F4" stroke-opacity="0.73" stroke-width="0.0713584"/>
<rect x="323.562" y="277.212" width="28" height="10" rx="5" fill="#D9D9D9"/>
<rect x="315.036" y="271.54" width="142.929" height="21.346" stroke="#ACC5F4" stroke-opacity="0.73" stroke-width="0.0713584"/>
<rect x="323.562" y="298.63" width="28" height="10" rx="5" fill="#D9D9D9"/>
<rect x="315.036" y="292.957" width="142.929" height="21.346" stroke="#ACC5F4" stroke-opacity="0.73" stroke-width="0.0713584"/>
<rect x="323.562" y="320.047" width="28" height="10" rx="5" fill="#D9D9D9"/>
<rect x="315.036" y="314.375" width="142.929" height="21.346" stroke="#ACC5F4" stroke-opacity="0.73" stroke-width="0.0713584"/>
<rect x="323.562" y="341.464" width="28" height="10" rx="5" fill="#D9D9D9"/>
<rect x="315.036" y="335.792" width="142.929" height="21.346" stroke="#ACC5F4" stroke-opacity="0.73" stroke-width="0.0713584"/>
<rect x="29.1784" y="143.178" width="428.643" height="246.643" rx="3.30941" stroke="#ACC5F4" stroke-width="0.356792" shape-rendering="crispEdges"/>
</g>
<g filter="url(#filter1_d_1606_88250)">
<rect x="371" y="193.424" width="110.562" height="31.5761" fill="white" shape-rendering="crispEdges"/>
<path d="M381.829 214.999V205.048H388.048V206.023H382.845V209.464H387.219V210.438H382.845V214.025H388.048V214.999H381.829ZM392.606 215.206C391.91 215.206 391.316 215.034 390.823 214.688C390.33 214.338 389.952 213.866 389.69 213.271C389.427 212.677 389.296 212.007 389.296 211.261C389.296 210.519 389.425 209.851 389.683 209.257C389.946 208.662 390.321 208.193 390.809 207.847C391.298 207.502 391.883 207.329 392.564 207.329C393.265 207.329 393.854 207.499 394.333 207.84C394.813 208.181 395.174 208.649 395.418 209.243C395.667 209.833 395.791 210.505 395.791 211.261C395.791 212.002 395.669 212.673 395.425 213.271C395.181 213.866 394.822 214.338 394.347 214.688C393.873 215.034 393.292 215.206 392.606 215.206ZM392.71 214.26C393.239 214.26 393.677 214.131 394.022 213.873C394.368 213.615 394.626 213.26 394.796 212.809C394.967 212.352 395.052 211.837 395.052 211.261C395.052 210.676 394.967 210.16 394.796 209.713C394.626 209.261 394.368 208.909 394.022 208.656C393.682 208.402 393.251 208.275 392.73 208.275C392.196 208.275 391.754 208.407 391.404 208.669C391.053 208.932 390.793 209.289 390.623 209.74C390.457 210.192 390.374 210.699 390.374 211.261C390.374 211.827 390.459 212.339 390.63 212.795C390.805 213.246 391.065 213.603 391.41 213.866C391.756 214.128 392.189 214.26 392.71 214.26ZM395.052 214.999V209.381H394.942V205.048H395.964V214.999H395.052ZM398.041 206.12V204.979H399.057V206.12H398.041ZM398.041 214.999V207.536H399.057V214.999H398.041ZM405.192 214.999C404.772 215.087 404.358 215.121 403.948 215.103C403.542 215.084 403.178 214.997 402.856 214.84C402.538 214.683 402.296 214.439 402.13 214.108C401.997 213.831 401.923 213.553 401.909 213.271C401.9 212.986 401.895 212.661 401.895 212.297V205.463H402.904V212.256C402.904 212.569 402.907 212.832 402.911 213.043C402.92 213.251 402.969 213.435 403.056 213.596C403.222 213.905 403.485 214.089 403.844 214.149C404.208 214.209 404.657 214.195 405.192 214.108V214.999ZM400.299 208.407V207.536H405.192V208.407H400.299Z" fill="#6D6D6D"/>
<path d="M427.249 214.999V205.048H430.268C430.374 205.048 430.554 205.051 430.807 205.055C431.065 205.06 431.312 205.078 431.547 205.111C432.302 205.217 432.933 205.498 433.44 205.954C433.947 206.41 434.327 206.99 434.58 207.695C434.834 208.4 434.96 209.176 434.96 210.024C434.96 210.871 434.834 211.648 434.58 212.352C434.327 213.057 433.947 213.638 433.44 214.094C432.933 214.55 432.302 214.831 431.547 214.937C431.316 214.964 431.07 214.983 430.807 214.992C430.545 214.997 430.365 214.999 430.268 214.999H427.249ZM428.299 214.025H430.268C430.457 214.025 430.66 214.02 430.876 214.011C431.098 213.997 431.286 213.974 431.443 213.942C432.024 213.84 432.491 213.605 432.846 213.237C433.205 212.868 433.468 212.408 433.634 211.855C433.799 211.298 433.882 210.687 433.882 210.024C433.882 209.356 433.799 208.743 433.634 208.186C433.468 207.628 433.205 207.168 432.846 206.804C432.487 206.44 432.019 206.207 431.443 206.106C431.286 206.073 431.095 206.053 430.87 206.044C430.648 206.03 430.448 206.023 430.268 206.023H428.299V214.025ZM439.692 215.206C438.964 215.206 438.333 215.045 437.799 214.723C437.269 214.4 436.857 213.946 436.562 213.361C436.267 212.776 436.12 212.09 436.12 211.302C436.12 210.487 436.265 209.782 436.555 209.188C436.845 208.593 437.253 208.135 437.778 207.813C438.308 207.49 438.932 207.329 439.651 207.329C440.388 207.329 441.016 207.499 441.537 207.84C442.058 208.176 442.451 208.66 442.719 209.291C442.986 209.922 443.108 210.676 443.085 211.551H442.048V211.192C442.03 210.224 441.82 209.494 441.42 209.001C441.023 208.508 440.443 208.262 439.678 208.262C438.877 208.262 438.262 208.522 437.833 209.043C437.409 209.563 437.197 210.305 437.197 211.268C437.197 212.207 437.409 212.938 437.833 213.458C438.262 213.974 438.867 214.232 439.651 214.232C440.185 214.232 440.65 214.11 441.046 213.866C441.447 213.617 441.763 213.26 441.993 212.795L442.94 213.161C442.645 213.81 442.21 214.315 441.634 214.674C441.063 215.029 440.415 215.206 439.692 215.206ZM436.838 211.551V210.701H442.539V211.551H436.838ZM444.757 214.999V204.841H445.772V214.999H444.757ZM451.002 215.206C450.274 215.206 449.643 215.045 449.109 214.723C448.579 214.4 448.166 213.946 447.872 213.361C447.577 212.776 447.429 212.09 447.429 211.302C447.429 210.487 447.575 209.782 447.865 209.188C448.155 208.593 448.563 208.135 449.088 207.813C449.618 207.49 450.242 207.329 450.96 207.329C451.698 207.329 452.326 207.499 452.847 207.84C453.367 208.176 453.761 208.66 454.029 209.291C454.296 209.922 454.418 210.676 454.395 211.551H453.358V211.192C453.34 210.224 453.13 209.494 452.729 209.001C452.333 208.508 451.753 208.262 450.988 208.262C450.187 208.262 449.572 208.522 449.143 209.043C448.719 209.563 448.507 210.305 448.507 211.268C448.507 212.207 448.719 212.938 449.143 213.458C449.572 213.974 450.177 214.232 450.96 214.232C451.495 214.232 451.96 214.11 452.356 213.866C452.757 213.617 453.073 213.26 453.303 212.795L454.25 213.161C453.955 213.81 453.52 214.315 452.944 214.674C452.372 215.029 451.725 215.206 451.002 215.206ZM448.148 211.551V210.701H453.849V211.551H448.148ZM459.991 214.999C459.572 215.087 459.158 215.121 458.748 215.103C458.342 215.084 457.978 214.997 457.656 214.84C457.338 214.683 457.096 214.439 456.93 214.108C456.797 213.831 456.723 213.553 456.709 213.271C456.7 212.986 456.695 212.661 456.695 212.297V205.463H457.704V212.256C457.704 212.569 457.706 212.832 457.711 213.043C457.72 213.251 457.769 213.435 457.856 213.596C458.022 213.905 458.285 214.089 458.644 214.149C459.008 214.209 459.457 214.195 459.991 214.108V214.999ZM455.099 208.407V207.536H459.991V208.407H455.099ZM464.35 215.206C463.622 215.206 462.991 215.045 462.456 214.723C461.927 214.4 461.514 213.946 461.219 213.361C460.925 212.776 460.777 212.09 460.777 211.302C460.777 210.487 460.922 209.782 461.213 209.188C461.503 208.593 461.91 208.135 462.436 207.813C462.965 207.49 463.59 207.329 464.308 207.329C465.045 207.329 465.674 207.499 466.195 207.84C466.715 208.176 467.109 208.66 467.376 209.291C467.644 209.922 467.766 210.676 467.743 211.551H466.706V211.192C466.688 210.224 466.478 209.494 466.077 209.001C465.681 208.508 465.101 208.262 464.336 208.262C463.534 208.262 462.919 208.522 462.491 209.043C462.067 209.563 461.855 210.305 461.855 211.268C461.855 212.207 462.067 212.938 462.491 213.458C462.919 213.974 463.525 214.232 464.308 214.232C464.843 214.232 465.308 214.11 465.704 213.866C466.105 213.617 466.42 213.26 466.651 212.795L467.598 213.161C467.303 213.81 466.867 214.315 466.291 214.674C465.72 215.029 465.073 215.206 464.35 215.206ZM461.496 211.551V210.701H467.197V211.551H461.496Z" fill="#FF2635"/>
<rect x="371.041" y="193.465" width="110.479" height="31.4939" stroke="#ACC5F4" stroke-opacity="0.73" stroke-width="0.0821823" shape-rendering="crispEdges"/>
</g>
<defs>
<filter id="filter0_d_1606_88250" x="21" y="139" width="445" height="263" filterUnits="userSpaceOnUse" color-interpolation-filters="sRGB">
<feFlood flood-opacity="0" result="BackgroundImageFix"/>
<feColorMatrix in="SourceAlpha" type="matrix" values="0 0 0 0 0 0 0 0 0 0 0 0 0 0 0 0 0 0 127 0" result="hardAlpha"/>
<feOffset dy="4"/>
<feGaussianBlur stdDeviation="4"/>
<feComposite in2="hardAlpha" operator="out"/>
<feColorMatrix type="matrix" values="0 0 0 0 0.105882 0 0 0 0 0.105882 0 0 0 0 0.105882 0 0 0 0.1 0"/>
<feBlend mode="normal" in2="BackgroundImageFix" result="effect1_dropShadow_1606_88250"/>
<feBlend mode="normal" in="SourceGraphic" in2="effect1_dropShadow_1606_88250" result="shape"/>
</filter>
<filter id="filter1_d_1606_88250" x="365.125" y="190.487" width="122.312" height="43.3254" filterUnits="userSpaceOnUse" color-interpolation-filters="sRGB">
<feFlood flood-opacity="0" result="BackgroundImageFix"/>
<feColorMatrix in="SourceAlpha" type="matrix" values="0 0 0 0 0 0 0 0 0 0 0 0 0 0 0 0 0 0 127 0" result="hardAlpha"/>
<feOffset dy="2.93731"/>
<feGaussianBlur stdDeviation="2.93731"/>
<feComposite in2="hardAlpha" operator="out"/>
<feColorMatrix type="matrix" values="0 0 0 0 0.105882 0 0 0 0 0.105882 0 0 0 0 0.105882 0 0 0 0.1 0"/>
<feBlend mode="normal" in2="BackgroundImageFix" result="effect1_dropShadow_1606_88250"/>
<feBlend mode="normal" in="SourceGraphic" in2="effect1_dropShadow_1606_88250" result="shape"/>
</filter>
</defs>
</svg>
