<svg width="488" height="533" viewBox="0 0 488 533" fill="none" xmlns="http://www.w3.org/2000/svg">
<rect width="488" height="533" rx="8" fill="#C0FCCD"/>
<path d="M127.468 177.468L127.468 468.532H360.532V177.468H127.468Z" fill="white" stroke="#DCDCDC" stroke-width="0.935817"/>
<path d="M337.634 226.341H228.392C224.552 226.341 221.41 223.199 221.41 219.355C221.41 215.515 224.552 212.373 228.392 212.373H337.634C341.478 212.373 344.62 215.515 344.62 219.355C344.62 223.199 341.478 226.341 337.634 226.341Z" fill="#DCDCDC"/>
<path d="M337.64 246.79H255.588C251.743 246.79 248.602 243.643 248.602 239.804C248.602 235.964 251.743 232.822 255.588 232.822H337.64C341.48 232.822 344.622 235.964 344.622 239.804C344.622 243.643 341.48 246.79 337.64 246.79Z" fill="#DCDCDC"/>
<path d="M345.488 291.748H270.233C269.393 291.748 268.705 290.069 268.705 288.016C268.705 285.964 269.393 284.285 270.233 284.285H345.488C346.328 284.285 347.016 285.964 347.016 288.016C347.016 290.069 346.328 291.748 345.488 291.748Z" fill="#DCDCDC"/>
<path d="M216.836 291.748H141.58C140.74 291.748 140.053 290.069 140.053 288.016C140.053 285.964 140.74 284.285 141.58 284.285H216.836C217.676 284.285 218.363 285.964 218.363 288.016C218.363 290.069 217.676 291.748 216.836 291.748Z" fill="#DCDCDC"/>
<path d="M273.77 313.574H142.614C141.149 313.574 139.951 311.556 139.951 309.088C139.951 306.621 141.149 304.602 142.614 304.602H273.77C275.234 304.602 276.432 306.621 276.432 309.088C276.432 311.556 275.234 313.574 273.77 313.574Z" fill="#DCDCDC"/>
<path d="M345.779 313.205H284.858C284.178 313.205 283.621 311.315 283.621 309.007C283.621 306.698 284.178 304.808 284.858 304.808H345.779C346.459 304.808 347.016 306.698 347.016 309.007C347.016 311.315 346.459 313.205 345.779 313.205Z" fill="#DCDCDC"/>
<path d="M280.607 333.512H142.75C141.211 333.512 139.951 331.942 139.951 330.023C139.951 328.104 141.211 326.533 142.75 326.533H280.607C282.146 326.533 283.405 328.104 283.405 330.023C283.405 331.942 282.146 333.512 280.607 333.512Z" fill="#DCDCDC"/>
<path d="M345.943 333.729H293.085C292.495 333.729 292.012 332.049 292.012 329.997C292.012 327.944 292.495 326.265 293.085 326.265H345.943C346.533 326.265 347.016 327.944 347.016 329.997C347.016 332.049 346.533 333.729 345.943 333.729Z" fill="#DCDCDC"/>
<path d="M293.306 355.443H143.002C141.324 355.443 139.951 353.425 139.951 350.957C139.951 348.49 141.324 346.471 143.002 346.471H293.306C294.983 346.471 296.356 348.49 296.356 350.957C296.356 353.425 294.983 355.443 293.306 355.443Z" fill="#DCDCDC"/>
<path d="M346.216 355.186H306.796C306.356 355.186 305.996 353.296 305.996 350.987C305.996 348.679 306.356 346.789 306.796 346.789H346.216C346.656 346.789 347.016 348.679 347.016 350.987C347.016 353.296 346.656 355.186 346.216 355.186Z" fill="#DCDCDC"/>
<path d="M313.818 376.378H143.411C141.508 376.378 139.951 374.584 139.951 372.39C139.951 370.197 141.508 368.403 143.411 368.403H313.818C315.72 368.403 317.277 370.197 317.277 372.39C317.277 374.584 315.72 376.378 313.818 376.378Z" fill="#DCDCDC"/>
<path d="M346.581 376.643H325.079C324.839 376.643 324.643 374.753 324.643 372.444C324.643 370.136 324.839 368.246 325.079 368.246H346.581C346.821 368.246 347.017 370.136 347.017 372.444C347.017 374.753 346.821 376.643 346.581 376.643Z" fill="#DCDCDC"/>
<path d="M170.231 418.248H140.554C140.222 418.248 139.951 416.453 139.951 414.26C139.951 412.067 140.222 410.272 140.554 410.272H170.231C170.563 410.272 170.834 412.067 170.834 414.26C170.834 416.453 170.563 418.248 170.231 418.248Z" fill="#DCDCDC"/>
<path d="M194.898 439.147H141.144C140.544 439.147 140.053 437.254 140.053 434.947C140.053 432.639 140.544 430.751 141.144 430.751H194.898C195.498 430.751 195.989 432.639 195.989 434.947C195.989 437.254 195.498 439.147 194.898 439.147Z" fill="#DCDCDC"/>
<path d="M164 149C166.761 149 169 146.761 169 144C169 141.239 166.761 139 164 139C161.239 139 159 141.239 159 144C159 146.761 161.239 149 164 149Z" fill="#ACC5F4"/>
<path d="M164 151.5C158.99 151.5 154.91 154.86 154.91 159C154.91 159.28 155.13 159.5 155.41 159.5H172.59C172.87 159.5 173.09 159.28 173.09 159C173.09 154.86 169.01 151.5 164 151.5Z" fill="#ACC5F4"/>
<path d="M204 149C206.761 149 209 146.761 209 144C209 141.239 206.761 139 204 139C201.239 139 199 141.239 199 144C199 146.761 201.239 149 204 149Z" fill="#ACC5F4"/>
<path d="M204 151.5C198.99 151.5 194.91 154.86 194.91 159C194.91 159.28 195.13 159.5 195.41 159.5H212.59C212.87 159.5 213.09 159.28 213.09 159C213.09 154.86 209.01 151.5 204 151.5Z" fill="#ACC5F4"/>
<path d="M244 137C246.761 137 249 134.761 249 132C249 129.239 246.761 127 244 127C241.239 127 239 129.239 239 132C239 134.761 241.239 137 244 137Z" fill="#0652DD"/>
<path d="M244 139.5C238.99 139.5 234.91 142.86 234.91 147C234.91 147.28 235.13 147.5 235.41 147.5H252.59C252.87 147.5 253.09 147.28 253.09 147C253.09 142.86 249.01 139.5 244 139.5Z" fill="#0652DD"/>
<path d="M284 149C286.761 149 289 146.761 289 144C289 141.239 286.761 139 284 139C281.239 139 279 141.239 279 144C279 146.761 281.239 149 284 149Z" fill="#ACC5F4"/>
<path d="M284 151.5C278.99 151.5 274.91 154.86 274.91 159C274.91 159.28 275.13 159.5 275.41 159.5H292.59C292.87 159.5 293.09 159.28 293.09 159C293.09 154.86 289.01 151.5 284 151.5Z" fill="#ACC5F4"/>
<path d="M324 149C326.761 149 329 146.761 329 144C329 141.239 326.761 139 324 139C321.239 139 319 141.239 319 144C319 146.761 321.239 149 324 149Z" fill="#ACC5F4"/>
<path d="M324 151.5C318.99 151.5 314.91 154.86 314.91 159C314.91 159.28 315.13 159.5 315.41 159.5H332.59C332.87 159.5 333.09 159.28 333.09 159C333.09 154.86 329.01 151.5 324 151.5Z" fill="#ACC5F4"/>
</svg>
