<svg width="488" height="533" viewBox="0 0 488 533" fill="none" xmlns="http://www.w3.org/2000/svg">
<rect width="488" height="533" rx="8" fill="#FEE3E3"/>
<path d="M127.468 120.468V411.532H360.532V120.468H127.468Z" fill="white" stroke="#DCDCDC" stroke-width="0.935817"/>
<path d="M337.634 169.341H228.392C224.552 169.341 221.41 166.199 221.41 162.355C221.41 158.515 224.552 155.373 228.392 155.373H337.634C341.478 155.373 344.62 158.515 344.62 162.355C344.62 166.199 341.478 169.341 337.634 169.341Z" fill="#DCDCDC"/>
<path d="M337.64 189.79H255.588C251.743 189.79 248.602 186.644 248.602 182.804C248.602 178.964 251.743 175.822 255.588 175.822H337.64C341.48 175.822 344.622 178.964 344.622 182.804C344.622 186.644 341.48 189.79 337.64 189.79Z" fill="#DCDCDC"/>
<path d="M345.488 234.748H270.233C269.393 234.748 268.705 233.069 268.705 231.016C268.705 228.964 269.393 227.285 270.233 227.285H345.488C346.328 227.285 347.016 228.964 347.016 231.016C347.016 233.069 346.328 234.748 345.488 234.748Z" fill="#DCDCDC"/>
<path d="M216.836 234.748H141.58C140.74 234.748 140.053 233.069 140.053 231.016C140.053 228.964 140.74 227.285 141.58 227.285H216.836C217.676 227.285 218.363 228.964 218.363 231.016C218.363 233.069 217.676 234.748 216.836 234.748Z" fill="#DCDCDC"/>
<path d="M273.77 256.574H142.614C141.149 256.574 139.951 254.556 139.951 252.088C139.951 249.621 141.149 247.602 142.614 247.602H273.77C275.234 247.602 276.432 249.621 276.432 252.088C276.432 254.556 275.234 256.574 273.77 256.574Z" fill="#DCDCDC"/>
<path d="M345.779 256.204H284.858C284.178 256.204 283.621 254.315 283.621 252.006C283.621 249.697 284.178 247.808 284.858 247.808H345.779C346.459 247.808 347.016 249.697 347.016 252.006C347.016 254.315 346.459 256.204 345.779 256.204Z" fill="#DCDCDC"/>
<path d="M280.607 276.512H142.75C141.211 276.512 139.951 274.942 139.951 273.023C139.951 271.104 141.211 269.533 142.75 269.533H280.607C282.146 269.533 283.405 271.104 283.405 273.023C283.405 274.942 282.146 276.512 280.607 276.512Z" fill="#DCDCDC"/>
<path d="M345.943 276.729H293.085C292.495 276.729 292.012 275.049 292.012 272.997C292.012 270.944 292.495 269.265 293.085 269.265H345.943C346.533 269.265 347.016 270.944 347.016 272.997C347.016 275.049 346.533 276.729 345.943 276.729Z" fill="#DCDCDC"/>
<path d="M293.306 298.443H143.002C141.324 298.443 139.951 296.425 139.951 293.957C139.951 291.49 141.324 289.471 143.002 289.471H293.306C294.983 289.471 296.356 291.49 296.356 293.957C296.356 296.425 294.983 298.443 293.306 298.443Z" fill="#DCDCDC"/>
<path d="M346.216 298.186H306.796C306.356 298.186 305.996 296.296 305.996 293.987C305.996 291.679 306.356 289.789 306.796 289.789H346.216C346.656 289.789 347.016 291.679 347.016 293.987C347.016 296.296 346.656 298.186 346.216 298.186Z" fill="#DCDCDC"/>
<path d="M313.818 319.378H143.411C141.508 319.378 139.951 317.584 139.951 315.39C139.951 313.197 141.508 311.403 143.411 311.403H313.818C315.72 311.403 317.277 313.197 317.277 315.39C317.277 317.584 315.72 319.378 313.818 319.378Z" fill="#DCDCDC"/>
<path d="M346.581 319.643H325.079C324.839 319.643 324.643 317.753 324.643 315.444C324.643 313.136 324.839 311.246 325.079 311.246H346.581C346.821 311.246 347.017 313.136 347.017 315.444C347.017 317.753 346.821 319.643 346.581 319.643Z" fill="#DCDCDC"/>
<path d="M170.231 361.247H140.554C140.222 361.247 139.951 359.453 139.951 357.26C139.951 355.066 140.222 353.272 140.554 353.272H170.231C170.563 353.272 170.834 355.066 170.834 357.26C170.834 359.453 170.563 361.247 170.231 361.247Z" fill="#DCDCDC"/>
<path d="M194.898 382.147H141.144C140.544 382.147 140.053 380.255 140.053 377.947C140.053 375.639 140.544 373.751 141.144 373.751H194.898C195.498 373.751 195.989 375.639 195.989 377.947C195.989 380.255 195.498 382.147 194.898 382.147Z" fill="#DCDCDC"/>
<rect x="139.5" y="193.5" width="100" height="26" fill="#D9D9D9" stroke="#0652DD"/>
<rect x="136.5" y="190.5" width="7" height="7" fill="white" stroke="#0652DD"/>
<rect x="136.5" y="215.5" width="7" height="7" fill="white" stroke="#0652DD"/>
<rect x="235.5" y="215.5" width="7" height="7" fill="white" stroke="#0652DD"/>
<rect x="235.5" y="190.5" width="7" height="7" fill="white" stroke="#0652DD"/>
<path fill-rule="evenodd" clip-rule="evenodd" d="M256 218.422V202.407L267.591 214.026H260.81L260.399 214.15L256 218.422Z" fill="white"/>
<path fill-rule="evenodd" clip-rule="evenodd" d="M265.084 219.096L261.479 220.631L256.797 209.542L260.483 207.989L265.084 219.096Z" fill="white"/>
<path fill-rule="evenodd" clip-rule="evenodd" d="M263.751 218.416L261.907 219.19L258.807 211.816L260.648 211.041L263.751 218.416Z" fill="black"/>
<path fill-rule="evenodd" clip-rule="evenodd" d="M257 204.814V216.002L259.969 213.136L260.397 212.997H265.165L257 204.814Z" fill="black"/>
<circle cx="68" cy="101" r="44" fill="#03296F" fill-opacity="0.48"/>
<circle cx="343" cy="484" r="16" fill="#03296F" fill-opacity="0.48"/>
</svg>
