<svg width="117" height="42" viewBox="0 0 117 42" fill="none" xmlns="http://www.w3.org/2000/svg">
<path d="M11.6465 33.5419C11.6465 45.9152 54.3069 30.0853 40.4358 27.0127C27.7882 27.0127 0 45.9152 0 33.5419C0 21.1685 27.7882 0 40.4358 0C40.4358 0 11.6465 21.1685 11.6465 33.5419Z" fill="#0652DD"/>
<path d="M31.7431 34.903C30.0121 34.903 28.5001 34.5193 27.2071 33.7517C25.9142 32.9842 24.9097 31.9275 24.1938 30.5818C23.4886 29.2254 23.136 27.6694 23.136 25.9135C23.136 24.1261 23.4993 22.5595 24.2259 21.2137C24.9525 19.8679 25.9623 18.8165 27.2552 18.0595C28.5482 17.3025 30.0441 16.924 31.7431 16.924C33.4848 16.924 35.0022 17.3078 36.2951 18.0753C37.5881 18.8428 38.5925 19.9047 39.3084 21.261C40.0244 22.6068 40.3823 24.1577 40.3823 25.9135C40.3823 27.6799 40.019 29.2412 39.2924 30.5975C38.5765 31.9433 37.572 33 36.2791 33.7675C34.9862 34.5245 33.4742 34.903 31.7431 34.903ZM31.7431 31.3388C33.2818 31.3388 34.4252 30.8341 35.1732 29.8247C35.9211 28.8154 36.2951 27.5116 36.2951 25.9135C36.2951 24.2628 35.9158 22.9486 35.1571 21.9707C34.3985 20.9824 33.2605 20.4883 31.7431 20.4883C30.7066 20.4883 29.8518 20.7196 29.1786 21.1822C28.5161 21.6343 28.0246 22.2704 27.704 23.0905C27.3834 23.9001 27.2232 24.8411 27.2232 25.9135C27.2232 27.5642 27.6025 28.8837 28.3612 29.8721C29.1305 30.8499 30.2578 31.3388 31.7431 31.3388Z" fill="#434343"/>
<path d="M47.9679 34.4299L41.6849 17.3971H45.5477L49.9074 29.7459L54.251 17.3971H58.1298L51.8468 34.4299H47.9679Z" fill="#434343"/>
<path d="M68.2502 34.903C66.4977 34.903 64.959 34.5298 63.634 33.7833C62.309 33.0368 61.2725 32.0011 60.5246 30.6764C59.7873 29.3516 59.4186 27.8271 59.4186 26.1028C59.4186 24.2418 59.7819 22.6279 60.5085 21.261C61.2351 19.8837 62.2449 18.8165 63.5379 18.0595C64.8308 17.3025 66.3268 16.924 68.0258 16.924C69.8209 16.924 71.3436 17.3393 72.5938 18.1699C73.8547 18.99 74.7897 20.1518 75.3987 21.6553C76.0078 23.1588 76.2376 24.9304 76.088 26.9702H72.2572V25.5823C72.2465 23.7318 71.9153 22.3808 71.2635 21.5292C70.6116 20.6775 69.5858 20.2517 68.186 20.2517C66.6046 20.2517 65.4292 20.7353 64.6598 21.7026C63.8905 22.6594 63.5058 24.063 63.5058 25.9135C63.5058 27.6378 63.8905 28.9731 64.6598 29.9194C65.4292 30.8656 66.5512 31.3388 68.0258 31.3388C68.9768 31.3388 69.7942 31.1337 70.4781 30.7237C71.1726 30.3031 71.7069 29.6986 72.0809 28.91L75.8956 30.0455C75.2331 31.5806 74.2073 32.7739 72.8182 33.6256C71.4398 34.4772 69.9171 34.903 68.2502 34.903ZM62.2877 26.9702V24.0998H74.1966V26.9702H62.2877Z" fill="#434343"/>
<path d="M79.6643 34.4299V17.3971H83.0783V21.5449L82.6615 21.0087C82.8752 20.441 83.1584 19.9258 83.511 19.4631C83.8743 18.99 84.3071 18.601 84.8093 18.2961C85.2367 18.0122 85.7069 17.7914 86.2198 17.6337C86.7434 17.4655 87.2777 17.3656 87.8226 17.334C88.3676 17.292 88.8965 17.313 89.4094 17.3971V20.9456C88.8965 20.7984 88.3035 20.7511 87.6303 20.8037C86.9678 20.8563 86.3694 21.0403 85.8351 21.3557C85.3008 21.6396 84.8627 22.0023 84.5208 22.4439C84.1896 22.8855 83.9438 23.3901 83.7835 23.9579C83.6232 24.5151 83.5431 25.1197 83.5431 25.7716V34.4299H79.6643Z" fill="#434343"/>
<path d="M92.7886 34.4299V11.2464H96.6514V34.4299H92.7886Z" fill="#434343"/>
<path d="M103.729 42L107.062 32.9947L107.127 35.6443L99.5773 17.3971H103.6L108.954 30.8972H107.928L113.137 17.3971H117L107.351 42H103.729Z" fill="#434343"/>
</svg>
