<svg width="113" height="24" viewBox="0 0 113 24" fill="none" xmlns="http://www.w3.org/2000/svg">
<path d="M13.3703 10.3738H14.035C17.7053 10.3738 20.6809 6.09527 20.6809 0.817139H6.72441C3.05433 0.817139 0.0783081 5.09562 0.0783081 10.3738C0.0783081 15.6519 3.05433 19.9304 6.72441 19.9304C10.3947 19.9304 13.3703 15.6519 13.3703 10.3738Z" fill="url(#paint0_linear_6593_446)"/>
<path d="M25.9975 19.9306C25.9975 14.6524 23.0219 10.374 19.3516 10.374H14.035H13.3703H6.72441C4.26521 10.374 2.11929 8.45129 0.969807 5.59564C0.404097 7.00181 0.0783081 8.63456 0.0783081 10.374C0.0783081 15.6521 3.05433 19.9306 6.72441 19.9306H25.9975Z" fill="#0B57E0"/>
<path d="M37.8069 18.1142C36.146 18.1142 34.7312 17.7528 33.5625 17.0304C32.3938 16.3 31.4981 15.2852 30.8753 13.986C30.2602 12.6867 29.9526 11.1799 29.9526 9.46568C29.9526 7.75136 30.2602 6.24459 30.8753 4.9454C31.4981 3.6462 32.3938 2.63529 33.5625 1.91265C34.7312 1.18232 36.146 0.817169 37.8069 0.817169C39.7213 0.817169 41.3054 1.30148 42.5587 2.27011C43.8196 3.23875 44.6961 4.5418 45.1881 6.17926L42.7431 6.83653C42.4202 5.67571 41.8436 4.76475 41.0132 4.10361C40.1903 3.44247 39.1217 3.1119 37.8069 3.1119C36.6305 3.1119 35.6501 3.37713 34.8658 3.90758C34.0816 4.43802 33.4895 5.17987 33.0897 6.13312C32.6975 7.08638 32.5016 8.19724 32.5016 9.46568C32.4939 10.7342 32.686 11.8451 33.0782 12.7982C33.4779 13.7514 34.0701 14.4935 34.8543 15.0237C35.6463 15.5541 36.6305 15.8195 37.8069 15.8195C39.1217 15.8195 40.1903 15.4889 41.0132 14.8278C41.8436 14.1589 42.4202 13.248 42.7431 12.0949L45.1881 12.7521C44.6961 14.3896 43.8196 15.6927 42.5587 16.6614C41.3054 17.6298 39.7213 18.1142 37.8069 18.1142ZM53.1339 18.1142C51.8883 18.1142 50.808 17.8336 49.893 17.2723C48.9779 16.7113 48.2706 15.9387 47.7709 14.9547C47.2789 13.963 47.0326 12.8214 47.0326 11.5298C47.0326 10.2306 47.2865 9.08899 47.7939 8.105C48.3015 7.11329 49.0126 6.34454 49.9277 5.79871C50.8425 5.24521 51.9113 4.96845 53.1339 4.96845C54.3795 4.96845 55.4599 5.24906 56.3747 5.81024C57.2897 6.37143 57.9971 7.14403 58.497 8.12805C58.9967 9.11206 59.2465 10.246 59.2465 11.5298C59.2465 12.829 58.9928 13.9745 58.4853 14.9661C57.9856 15.9501 57.2782 16.7228 56.3632 17.284C55.4481 17.8374 54.3719 18.1142 53.1339 18.1142ZM53.1339 15.8424C54.3256 15.8424 55.2136 15.4428 55.7981 14.6432C56.3902 13.836 56.6861 12.7982 56.6861 11.5298C56.6861 10.2306 56.3864 9.19279 55.7866 8.41634C55.1945 7.63221 54.3103 7.24014 53.1339 7.24014C52.3264 7.24014 51.6615 7.42464 51.1386 7.79363C50.6157 8.15496 50.2276 8.6585 49.9737 9.30425C49.72 9.94232 49.5931 10.6841 49.5931 11.5298C49.5931 12.8367 49.893 13.8823 50.4928 14.6664C51.0926 15.4505 51.9729 15.8424 53.1339 15.8424ZM64.6982 17.7684L60.1771 5.3144H62.6108L65.9208 14.7471L69.231 5.3144H71.6645L67.1434 17.7684H64.6982ZM78.8161 18.1142C77.5784 18.1142 76.4904 17.845 75.5524 17.3069C74.622 16.7612 73.8953 16.0039 73.3726 15.0354C72.8573 14.059 72.5998 12.9289 72.5998 11.6452C72.5998 10.2844 72.8535 9.10437 73.3609 8.105C73.8761 7.1056 74.5911 6.333 75.5062 5.78719C76.4212 5.24137 77.486 4.96845 78.7009 4.96845C79.9695 4.96845 81.0498 5.26444 81.9417 5.85638C82.8337 6.44062 83.4987 7.27472 83.937 8.35869C84.383 9.44263 84.5598 10.7302 84.4676 12.2217H82.0571V11.3454C82.0418 9.90005 81.7649 8.83146 81.2266 8.13958C80.6961 7.44771 79.885 7.10176 78.7931 7.10176C77.5861 7.10176 76.6787 7.48229 76.0712 8.24336C75.4638 9.00444 75.16 10.1037 75.16 11.5413C75.16 12.9098 75.4638 13.9707 76.0712 14.724C76.6787 15.4696 77.5552 15.8424 78.7009 15.8424C79.4545 15.8424 80.1041 15.6733 80.65 15.3351C81.2036 14.9893 81.6343 14.4973 81.9417 13.8591L84.3061 14.6086C83.8218 15.7235 83.0874 16.5883 82.1033 17.2033C81.1191 17.8106 80.0234 18.1142 78.8161 18.1142ZM74.3758 12.2217V10.3421H83.2682V12.2217H74.3758ZM87.0556 17.7684V5.3144H89.2006V8.33562L88.9007 7.94355C89.0545 7.54379 89.2545 7.17864 89.5005 6.84807C89.7465 6.50981 90.0311 6.23307 90.354 6.01781C90.6693 5.78719 91.019 5.61036 91.4034 5.48736C91.7956 5.35667 92.1954 5.27982 92.6031 5.25675C93.0105 5.22598 93.4027 5.24521 93.7794 5.3144V7.57455C93.372 7.46691 92.9183 7.43617 92.4184 7.48229C91.9264 7.52843 91.4727 7.68601 91.0575 7.95508C90.6654 8.20877 90.354 8.51627 90.1233 8.87758C89.9003 9.23891 89.7389 9.64251 89.639 10.0884C89.5389 10.5265 89.489 10.9917 89.489 11.4837V17.7684H87.0556ZM96.2064 17.7684V0.817169H98.6169V17.7684H96.2064ZM103.764 23.3033L106.174 16.7419L106.209 18.6793L100.777 5.3144H103.291L107.351 15.6349H106.613L110.488 5.3144H112.933L106.059 23.3033H103.764Z" fill="#434343"/>
<defs>
<linearGradient id="paint0_linear_6593_446" x1="10.3798" y1="0.817139" x2="10.3798" y2="19.9304" gradientUnits="userSpaceOnUse">
<stop stop-color="#0652DD"/>
<stop offset="0.473958" stop-color="#083587"/>
<stop offset="1" stop-color="#0176C3"/>
</linearGradient>
</defs>
</svg>
