<svg width="48" height="38" viewBox="0 0 48 38" fill="none" xmlns="http://www.w3.org/2000/svg">
<path d="M13.8726 14.8465L21.4056 2.52674L28.3046 13.8107C27.8799 13.8038 27.4548 13.8013 27.0309 13.8013C26.8124 13.8013 26.5921 13.8024 26.3691 13.8038L22.5644 7.58039L21.4056 5.68551L20.2462 7.58039L16.0006 14.5239C15.2827 14.6218 14.5717 14.7294 13.8726 14.8465ZM21.4056 8.21202L25.602 15.0763C26.0757 15.0679 26.552 15.0646 27.0309 15.0646C28.259 15.0646 29.4712 15.0907 30.6638 15.1413L21.4056 0.000236511L11.2324 16.6377C12.9993 16.2572 14.8733 15.9388 16.8327 15.6904L21.4056 8.21202Z" fill="#6D6D6D"/>
<path d="M25.9836 18.3089C26.7988 18.1746 27.609 18.5596 28.0374 19.266C28.8701 20.6389 27.8817 22.3943 26.2761 22.3943H21.2945C19.07 22.3943 18.5844 19.9691 20.7375 19.4099C22.3838 18.9824 24.139 18.6129 25.9836 18.3089ZM15.0828 38C9.8362 35.8055 6.62991 32.8685 6.62991 29.6419C6.62991 28.92 6.7903 28.2127 7.09822 27.5249C7.38871 26.876 8.07881 26.5332 8.78973 26.5332H33.675C35.3389 26.5332 36.3631 24.714 35.5002 23.2913L33.8319 20.541C33.0075 19.182 33.9052 17.4377 35.4937 17.3813C36.4615 17.347 37.4419 17.3294 38.4329 17.3294C41.2062 17.3294 43.8969 17.4669 46.461 17.7255C46.5188 17.7314 46.5344 17.6527 46.4787 17.6363C46.5719 17.6638 46.6659 17.6909 46.7593 17.7183C46.8898 17.7565 47.0232 17.7841 47.1584 17.7989C47.2721 17.8113 47.3855 17.824 47.4989 17.8371C47.0211 17.7218 46.535 17.6119 46.0398 17.5067C46.0395 17.5067 46.0393 17.5066 46.039 17.5065C46.0387 17.5064 46.0383 17.5064 46.038 17.5063C41.6094 16.5665 36.5142 16.0285 31.0911 16.0228C31.059 16.0221 31.0264 16.0221 30.9943 16.0221C29.7597 16.0221 28.5426 16.05 27.3463 16.1035C26.9473 16.1214 26.5507 16.1423 26.1568 16.1659C22.3782 16.3916 18.8263 16.8778 15.6302 17.5751C15.3541 17.6354 15.0806 17.6972 14.8098 17.7606C12.915 18.204 11.1549 18.7233 9.55855 19.3073C3.66768 21.4594 0 24.491 0 27.8493C0 32.1608 6.0467 35.9338 15.0828 38Z" fill="#0652DD"/>
</svg>
