<svg width="60" height="48" viewBox="0 0 60 48" fill="none" xmlns="http://www.w3.org/2000/svg">
<path d="M17.5225 18.7531L27.0378 3.19127L35.7524 17.4447C35.2159 17.436 34.6789 17.4328 34.1435 17.4328C33.8675 17.4328 33.5891 17.4342 33.3075 17.436L28.5015 9.57482L27.0378 7.18129L25.5733 9.57482L20.2104 18.3456C19.3036 18.4692 18.4055 18.6052 17.5225 18.7531ZM27.0378 10.3727L32.3386 19.0433C32.9369 19.0328 33.5385 19.0285 34.1435 19.0285C35.6948 19.0285 37.2259 19.0615 38.7324 19.1255L27.0378 -0.000112534L14.1875 21.0156C16.4193 20.535 18.7865 20.1328 21.2616 19.819L27.0378 10.3727Z" fill="#6D6D6D"/>
<path d="M33.1272 23.0773C33.9725 22.9412 34.8114 23.3396 35.2554 24.0717L35.8462 25.0457C36.7091 26.4684 35.6848 28.2875 34.0209 28.2875H24.6421C22.4177 28.2875 21.8901 25.7606 24.0215 25.1237C26.7922 24.2958 29.85 23.6049 33.1272 23.0773ZM19.052 48C12.4247 45.228 8.37462 41.5181 8.37462 37.4424C8.37462 36.4355 8.62163 35.4512 9.09379 34.4976C9.40924 33.8604 10.0926 33.5156 10.8035 33.5156H43.5346C45.1986 33.5156 46.2228 31.6964 45.3598 30.2737L42.2621 25.167C41.4377 23.808 42.3352 22.0623 43.9231 21.9918C45.4403 21.9244 46.9831 21.8898 48.5469 21.8898C52.0499 21.8898 55.4488 22.0634 58.6876 22.3902C58.7606 22.3975 58.7803 22.2982 58.7099 22.2774C58.8449 22.3173 58.9812 22.3564 59.116 22.3961C59.2464 22.4346 59.3798 22.4622 59.515 22.477C59.6766 22.4946 59.8376 22.5125 59.9987 22.5311C59.395 22.3855 58.781 22.2466 58.1556 22.1138C58.1552 22.1137 58.1549 22.1137 58.1546 22.1135C58.1542 22.1134 58.1537 22.1134 58.1533 22.1133C52.5593 20.9261 46.1232 20.2465 39.2729 20.2393C39.2324 20.2385 39.1912 20.2385 39.1507 20.2385C37.5912 20.2385 36.0538 20.2736 34.5427 20.3412C34.0387 20.3639 33.5378 20.3902 33.0402 20.42C28.2672 20.7051 23.7806 21.3193 19.7434 22.2002C19.3946 22.2763 19.0492 22.3543 18.7071 22.4344C16.3136 22.9945 14.0905 23.6505 12.074 24.3881C4.63286 27.1066 0 30.9361 0 35.1781C0 40.6242 7.63794 45.3901 19.052 48Z" fill="#0652DD"/>
</svg>
