<svg width="64" height="23" viewBox="0 0 64 23" fill="none" xmlns="http://www.w3.org/2000/svg">
<path d="M6.37076 18.3682C6.37076 25.144 29.7064 16.4753 22.1187 14.7927C15.2004 14.7927 0 25.144 0 18.3682C0 11.5923 15.2004 0 22.1187 0C22.1187 0 6.37076 11.5923 6.37076 18.3682Z" fill="#0652DD"/>
<path d="M17.3638 19.1136C16.4169 19.1136 15.5898 18.9034 14.8825 18.4831C14.1753 18.0628 13.6258 17.4841 13.2342 16.7471C12.8485 16.0044 12.6556 15.1523 12.6556 14.1907C12.6556 13.2119 12.8543 12.354 13.2518 11.617C13.6492 10.8801 14.2016 10.3043 14.9088 9.88974C15.6161 9.47518 16.4344 9.26791 17.3638 9.26791C18.3165 9.26791 19.1465 9.47806 19.8537 9.89837C20.561 10.3187 21.1104 10.9002 21.502 11.643C21.8937 12.3799 22.0895 13.2292 22.0895 14.1907C22.0895 15.158 21.8907 16.013 21.4933 16.7558C21.1017 17.4928 20.5522 18.0714 19.845 18.4917C19.1377 18.9063 18.3107 19.1136 17.3638 19.1136ZM17.3638 17.1617C18.2054 17.1617 18.8309 16.8853 19.24 16.3326C19.6492 15.7799 19.8537 15.0659 19.8537 14.1907C19.8537 13.2868 19.6462 12.5671 19.2312 12.0316C18.8162 11.4904 18.1938 11.2198 17.3638 11.2198C16.7968 11.2198 16.3292 11.3464 15.9609 11.5998C15.5985 11.8474 15.3297 12.1957 15.1543 12.6448C14.979 13.0881 14.8913 13.6034 14.8913 14.1907C14.8913 15.0947 15.0988 15.8173 15.5138 16.3585C15.9346 16.894 16.5513 17.1617 17.3638 17.1617Z" fill="#434343"/>
<path d="M26.2389 18.8545L22.802 9.527H24.915L27.2997 16.2894L29.6758 9.527H31.7975L28.3606 18.8545H26.2389Z" fill="#434343"/>
<path d="M37.3334 19.1136C36.3748 19.1136 35.5331 18.9092 34.8084 18.5004C34.0836 18.0916 33.5166 17.5244 33.1074 16.799C32.7041 16.0735 32.5025 15.2386 32.5025 14.2944C32.5025 13.2753 32.7012 12.3915 33.0987 11.643C33.4961 10.8887 34.0485 10.3043 34.7557 9.88974C35.463 9.47518 36.2813 9.26791 37.2107 9.26791C38.1926 9.26791 39.0256 9.49534 39.7094 9.95019C40.3991 10.3993 40.9106 11.0355 41.2438 11.8589C41.5769 12.6822 41.7026 13.6524 41.6208 14.7694H39.5253V14.0094C39.5195 12.996 39.3383 12.2561 38.9817 11.7898C38.6252 11.3234 38.064 11.0902 37.2983 11.0902C36.4333 11.0902 35.7903 11.3551 35.3695 11.8848C34.9486 12.4087 34.7382 13.1774 34.7382 14.1907C34.7382 15.135 34.9486 15.8662 35.3695 16.3844C35.7903 16.9026 36.4041 17.1617 37.2107 17.1617C37.7309 17.1617 38.178 17.0494 38.5521 16.8249C38.932 16.5946 39.2243 16.2635 39.4289 15.8317L41.5155 16.4535C41.1532 17.2941 40.592 17.9476 39.8322 18.414C39.0782 18.8804 38.2452 19.1136 37.3334 19.1136ZM34.0719 14.7694V13.1975H40.5862V14.7694H34.0719Z" fill="#434343"/>
<path d="M43.577 18.8545V9.527H45.4445V11.7984L45.2166 11.5048C45.3335 11.1939 45.4884 10.9117 45.6812 10.6584C45.88 10.3993 46.1167 10.1863 46.3914 10.0193C46.6252 9.86383 46.8824 9.74292 47.163 9.65655C47.4494 9.56443 47.7416 9.50973 48.0397 9.49246C48.3378 9.46943 48.6272 9.48094 48.9077 9.527V11.4702C48.6272 11.3896 48.3028 11.3637 47.9345 11.3925C47.5721 11.4213 47.2448 11.522 46.9525 11.6948C46.6603 11.8502 46.4206 12.0489 46.2336 12.2907C46.0524 12.5325 45.918 12.8089 45.8303 13.1198C45.7426 13.425 45.6988 13.756 45.6988 14.113V18.8545H43.577Z" fill="#434343"/>
<path d="M50.7562 18.8545V6.15875H52.8691V18.8545H50.7562Z" fill="#434343"/>
<path d="M56.7404 23L58.5641 18.0685L58.5992 19.5195L54.4696 9.527H56.6703L59.5987 16.9199H59.0376L61.887 9.527H64L58.7219 23H56.7404Z" fill="#434343"/>
</svg>
