<svg width="16" height="16" viewBox="0 0 16 16" fill="none" xmlns="http://www.w3.org/2000/svg">
<path d="M8.00073 11.5669C8.60088 11.5669 9.0874 11.0804 9.0874 10.4802C9.0874 9.88007 8.60088 9.39355 8.00073 9.39355C7.40058 9.39355 6.91406 9.88007 6.91406 10.4802C6.91406 11.0804 7.40058 11.5669 8.00073 11.5669Z" fill="#0652DD"/>
<path d="M12.1854 6.35301V5.51967C12.1854 3.71967 11.752 1.33301 7.9987 1.33301C4.24536 1.33301 3.81203 3.71967 3.81203 5.51967V6.35301C1.94536 6.58634 1.33203 7.53301 1.33203 9.85967V11.0997C1.33203 13.833 2.16536 14.6663 4.8987 14.6663H11.0987C13.832 14.6663 14.6654 13.833 14.6654 11.0997V9.85967C14.6654 7.53301 14.052 6.58634 12.1854 6.35301ZM7.9987 12.493C6.88537 12.493 5.98536 11.5863 5.98536 10.4797C5.98536 9.36634 6.89203 8.46634 7.9987 8.46634C9.10536 8.46634 10.012 9.37301 10.012 10.4797C10.012 11.593 9.11203 12.493 7.9987 12.493ZM4.8987 6.29301C4.84536 6.29301 4.7987 6.29301 4.74536 6.29301V5.51967C4.74536 3.56634 5.2987 2.26634 7.9987 2.26634C10.6987 2.26634 11.252 3.56634 11.252 5.51967V6.29967C11.1987 6.29967 11.152 6.29967 11.0987 6.29967H4.8987V6.29301Z" fill="#0652DD"/>
</svg>
