<svg width="90" height="26" viewBox="0 0 90 26" fill="none" xmlns="http://www.w3.org/2000/svg">
<path d="M12.9707 11.238L16.214 6.01066L19.1843 10.7985C19.0014 10.7956 18.8184 10.7946 18.6359 10.7946C18.5418 10.7946 18.447 10.795 18.3509 10.7956L16.7129 8.15496L16.214 7.35095L15.7148 8.15496L13.8869 11.1012C13.5778 11.1427 13.2717 11.1884 12.9707 11.238ZM16.214 8.42296L18.0207 11.3355C18.2246 11.332 18.4297 11.3306 18.6359 11.3306C19.1647 11.3306 19.6865 11.3417 20.2 11.3631L16.214 4.93864L11.834 11.998C12.5947 11.8366 13.4015 11.7015 14.2452 11.5961L16.214 8.42296Z" fill="#6D6D6D"/>
<path d="M18.372 12.6775C18.6115 12.6402 18.8492 12.7522 18.9763 12.9586L19.3168 13.512C19.5666 13.9179 19.2746 14.4404 18.7981 14.4404H14.9551C14.3184 14.4404 14.162 13.6996 14.7686 13.5061C15.8424 13.1635 17.056 12.8825 18.372 12.6775ZM13.4938 21.062C11.2349 20.1309 9.85446 18.8847 9.85446 17.5156C9.85446 17.1581 9.94853 16.809 10.1279 16.4717C10.2224 16.2938 10.4152 16.1966 10.6166 16.1966H22.0408C22.5174 16.1966 22.8093 15.674 22.5595 15.2682L21.315 13.2462C21.0762 12.8583 21.3324 12.3564 21.7874 12.3341C22.3635 12.3059 22.9508 12.2913 23.547 12.2913C24.7411 12.2913 25.8996 12.3496 27.0036 12.4594C27.0282 12.4619 27.0347 12.4284 27.011 12.4215C27.0609 12.436 27.1113 12.4502 27.161 12.4648C27.1977 12.4755 27.2353 12.4832 27.2734 12.4873C27.3325 12.4936 27.3914 12.5 27.4503 12.5067C27.2445 12.4578 27.0353 12.4112 26.8221 12.3666C26.822 12.3665 26.8219 12.3665 26.8217 12.3665C26.8216 12.3664 26.8214 12.3664 26.8213 12.3664C24.9146 11.9676 22.7209 11.7393 20.386 11.7369C20.3722 11.7366 20.3582 11.7366 20.3444 11.7366C19.8128 11.7366 19.2888 11.7484 18.7737 11.7711C18.6019 11.7787 18.4312 11.7876 18.2616 11.7976C16.6348 11.8934 15.1055 12.0997 13.7294 12.3956C13.6106 12.4212 13.4928 12.4474 13.3763 12.4743C12.5604 12.6624 11.8027 12.8827 11.1154 13.1305C8.57909 14.0437 7 15.3301 7 16.755C7 18.5844 9.60336 20.1853 13.4938 21.062Z" fill="#0652DD"/>
<path d="M27.7702 19.5L31.4022 7.98H34.2262L37.8582 19.5H35.8742L32.5782 9.164H33.0102L29.7542 19.5H27.7702ZM29.7942 17.004V15.204H35.8422V17.004H29.7942ZM43.4566 19.74C42.6139 19.74 41.9072 19.54 41.3366 19.14C40.7659 18.74 40.3366 18.196 40.0486 17.508C39.7606 16.8147 39.6166 16.0387 39.6166 15.18C39.6166 14.3107 39.7606 13.532 40.0486 12.844C40.3366 12.156 40.7579 11.6147 41.3126 11.22C41.8726 10.82 42.5632 10.62 43.3846 10.62C44.2006 10.62 44.9072 10.82 45.5046 11.22C46.1072 11.6147 46.5739 12.156 46.9046 12.844C47.2352 13.5267 47.4006 14.3053 47.4006 15.18C47.4006 16.044 47.2379 16.82 46.9126 17.508C46.5872 18.196 46.1286 18.74 45.5366 19.14C44.9446 19.54 44.2512 19.74 43.4566 19.74ZM39.2886 23.34V10.86H40.9926V16.924H41.2326V23.34H39.2886ZM43.1606 18.012C43.6619 18.012 44.0752 17.8867 44.4006 17.636C44.7259 17.3853 44.9659 17.0467 45.1206 16.62C45.2806 16.188 45.3606 15.708 45.3606 15.18C45.3606 14.6573 45.2806 14.1827 45.1206 13.756C44.9606 13.324 44.7126 12.9827 44.3766 12.732C44.0406 12.476 43.6139 12.348 43.0966 12.348C42.6059 12.348 42.2059 12.468 41.8966 12.708C41.5872 12.9427 41.3579 13.2733 41.2086 13.7C41.0646 14.1213 40.9926 14.6147 40.9926 15.18C40.9926 15.74 41.0646 16.2333 41.2086 16.66C41.3579 17.0867 41.5899 17.42 41.9046 17.66C42.2246 17.8947 42.6432 18.012 43.1606 18.012ZM49.3239 19.5V7.74H51.2519V19.5H49.3239ZM53.8083 9.548V7.78H55.7363V9.548H53.8083ZM53.8083 19.5V10.86H55.7363V19.5H53.8083ZM61.8847 19.74C60.994 19.74 60.234 19.5427 59.6047 19.148C58.9754 18.748 58.4927 18.204 58.1567 17.516C57.826 16.828 57.658 16.0493 57.6527 15.18C57.658 14.2947 57.8314 13.5107 58.1727 12.828C58.5194 12.14 59.01 11.6013 59.6447 11.212C60.2794 10.8173 61.034 10.62 61.9087 10.62C62.89 10.62 63.7194 10.868 64.3967 11.364C65.0794 11.8547 65.5247 12.5267 65.7327 13.38L63.8127 13.9C63.6634 13.436 63.4154 13.076 63.0687 12.82C62.722 12.5587 62.3274 12.428 61.8847 12.428C61.3834 12.428 60.97 12.548 60.6447 12.788C60.3194 13.0227 60.0794 13.348 59.9247 13.764C59.77 14.18 59.6927 14.652 59.6927 15.18C59.6927 16.0013 59.8767 16.6653 60.2447 17.172C60.6127 17.6787 61.1594 17.932 61.8847 17.932C62.3967 17.932 62.7994 17.8147 63.0927 17.58C63.3914 17.3453 63.6154 17.0067 63.7647 16.564L65.7327 17.004C65.466 17.884 64.9994 18.5613 64.3327 19.036C63.666 19.5053 62.85 19.74 61.8847 19.74ZM69.6112 19.74C68.9872 19.74 68.4592 19.6227 68.0272 19.388C67.5952 19.148 67.2672 18.8307 67.0432 18.436C66.8245 18.0413 66.7152 17.6067 66.7152 17.132C66.7152 16.716 66.7845 16.3427 66.9232 16.012C67.0619 15.676 67.2752 15.388 67.5632 15.148C67.8512 14.9027 68.2245 14.7027 68.6832 14.548C69.0299 14.436 69.4352 14.3347 69.8992 14.244C70.3685 14.1533 70.8752 14.0707 71.4192 13.996C71.9685 13.916 72.5419 13.8307 73.1392 13.74L72.4512 14.132C72.4565 13.5347 72.3232 13.0947 72.0512 12.812C71.7792 12.5293 71.3205 12.388 70.6752 12.388C70.2859 12.388 69.9099 12.4787 69.5472 12.66C69.1845 12.8413 68.9312 13.1533 68.7872 13.596L67.0272 13.044C67.2405 12.3133 67.6459 11.7267 68.2432 11.284C68.8459 10.8413 69.6565 10.62 70.6752 10.62C71.4432 10.62 72.1179 10.7453 72.6992 10.996C73.2859 11.2467 73.7205 11.6573 74.0032 12.228C74.1579 12.532 74.2512 12.844 74.2832 13.164C74.3152 13.4787 74.3312 13.8227 74.3312 14.196V19.5H72.6432V17.628L72.9232 17.932C72.5339 18.556 72.0779 19.0147 71.5552 19.308C71.0379 19.596 70.3899 19.74 69.6112 19.74ZM69.9952 18.204C70.4325 18.204 70.8059 18.1267 71.1152 17.972C71.4245 17.8173 71.6699 17.628 71.8512 17.404C72.0379 17.18 72.1632 16.9693 72.2272 16.772C72.3285 16.5267 72.3845 16.2467 72.3952 15.932C72.4112 15.612 72.4192 15.3533 72.4192 15.156L73.0112 15.332C72.4299 15.4227 71.9312 15.5027 71.5152 15.572C71.0992 15.6413 70.7419 15.708 70.4432 15.772C70.1445 15.8307 69.8805 15.8973 69.6512 15.972C69.4272 16.052 69.2379 16.1453 69.0832 16.252C68.9285 16.3587 68.8085 16.4813 68.7232 16.62C68.6432 16.7587 68.6032 16.9213 68.6032 17.108C68.6032 17.3213 68.6565 17.5107 68.7632 17.676C68.8699 17.836 69.0245 17.964 69.2272 18.06C69.4352 18.156 69.6912 18.204 69.9952 18.204ZM76.4139 19.5V10.86H78.1179V12.964L77.9099 12.692C78.0166 12.404 78.1579 12.1427 78.3339 11.908C78.5153 11.668 78.7313 11.4707 78.9819 11.316C79.1953 11.172 79.4299 11.06 79.6859 10.98C79.9473 10.8947 80.2139 10.844 80.4859 10.828C80.7579 10.8067 81.0219 10.8173 81.2779 10.86V12.66C81.0219 12.5853 80.7259 12.5613 80.3899 12.588C80.0593 12.6147 79.7606 12.708 79.4939 12.868C79.2273 13.012 79.0086 13.196 78.8379 13.42C78.6726 13.644 78.5499 13.9 78.4699 14.188C78.3899 14.4707 78.3499 14.7773 78.3499 15.108V19.5H76.4139Z" fill="#434343"/>
</svg>
