<svg width="274" height="326" viewBox="0 0 274 326" fill="none" xmlns="http://www.w3.org/2000/svg">
<g opacity="0.3">
<path d="M186.5 28.0527H80.1089C73.4774 28.0527 68.1016 33.5475 68.1016 40.3257H198.507C198.507 33.5475 193.131 28.0527 186.5 28.0527Z" fill="#0652DD"/>
<path d="M68.1016 39.9902H198.507V141.506C198.507 146.02 196.753 150.348 193.631 153.54C190.508 156.731 186.273 158.524 181.857 158.524H84.7513C80.3355 158.524 76.1006 156.731 72.9782 153.54C69.8557 150.348 68.1016 146.02 68.1016 141.506V39.9902Z" fill="#ACC5F4"/>
<path d="M176.093 52.8125H90.5612C88.7799 52.8125 87.3359 54.2868 87.3359 56.1055C87.3359 57.9242 88.7799 59.3985 90.5612 59.3985H176.093C177.874 59.3985 179.318 57.9242 179.318 56.1055C179.318 54.2868 177.874 52.8125 176.093 52.8125Z" fill="#CDDCF8"/>
<path d="M176.093 80.7939H90.5612C88.7799 80.7939 87.3359 82.2683 87.3359 84.087C87.3359 85.9056 88.7799 87.38 90.5612 87.38H176.093C177.874 87.38 179.318 85.9056 179.318 84.087C179.318 82.2683 177.874 80.7939 176.093 80.7939Z" fill="#CDDCF8"/>
<path d="M176.093 108.775H90.5612C88.7799 108.775 87.3359 110.25 87.3359 112.068C87.3359 113.887 88.7799 115.361 90.5612 115.361H176.093C177.874 115.361 179.318 113.887 179.318 112.068C179.318 110.25 177.874 108.775 176.093 108.775Z" fill="#CDDCF8"/>
<path d="M176.093 136.757H90.5612C88.7799 136.757 87.3359 138.231 87.3359 140.05C87.3359 141.869 88.7799 143.343 90.5612 143.343H176.093C177.874 143.343 179.318 141.869 179.318 140.05C179.318 138.231 177.874 136.757 176.093 136.757Z" fill="#CDDCF8"/>
<g filter="url(#filter0_d_9082_126719)">
<path d="M89.9817 102.773H44.4375C40.7786 102.773 37.8125 105.805 37.8125 109.545V176.083C37.8125 179.823 40.7786 182.854 44.4375 182.854H89.9817C93.6406 182.854 96.6067 179.823 96.6067 176.083V109.545C96.6067 105.805 93.6406 102.773 89.9817 102.773Z" fill="#F1F6FF"/>
</g>
<path d="M84.8964 136.061H49.5165C48.3252 136.061 47.3594 137.048 47.3594 138.265V138.273C47.3594 139.49 48.3252 140.477 49.5165 140.477H84.8964C86.0877 140.477 87.0535 139.49 87.0535 138.273V138.265C87.0535 137.048 86.0877 136.061 84.8964 136.061Z" fill="#CDDCF8"/>
<path d="M84.9175 167.14H49.8417C48.6606 167.14 47.7031 168.096 47.7031 169.276V169.283C47.7031 170.462 48.6606 171.419 49.8417 171.419H84.9175C86.0986 171.419 87.0561 170.462 87.0561 169.283V169.276C87.0561 168.096 86.0986 167.14 84.9175 167.14Z" fill="#CDDCF8"/>
<path d="M84.9175 150.879H49.8417C48.6606 150.879 47.7031 151.835 47.7031 153.015V153.022C47.7031 154.202 48.6606 155.158 49.8417 155.158H84.9175C86.0986 155.158 87.0561 154.202 87.0561 153.022V153.015C87.0561 151.835 86.0986 150.879 84.9175 150.879Z" fill="#CDDCF8"/>
<path d="M62.4544 113.049H52.1155C49.8253 113.049 47.9688 114.946 47.9688 117.287V120.22C47.9688 122.561 49.8253 124.458 52.1155 124.458H62.4544C64.7446 124.458 66.6011 122.561 66.6011 120.22V117.287C66.6011 114.946 64.7446 113.049 62.4544 113.049Z" fill="#CDDCF8"/>
<path d="M171.089 116.158L183.585 103.357C184.755 102.09 185.397 100.407 185.373 98.6652C185.348 96.9231 184.661 95.2593 183.455 94.0273C182.25 92.7953 180.622 92.0923 178.918 92.0676C177.213 92.0429 175.567 92.6986 174.328 93.8951L161.804 106.696L149.308 93.8951C148.706 93.2447 147.984 92.7241 147.182 92.3641C146.38 92.0042 145.516 91.8122 144.641 91.7995C143.766 91.7868 142.896 91.9537 142.085 92.2903C141.274 92.6269 140.537 93.1264 139.918 93.7592C139.299 94.392 138.81 95.1452 138.481 95.9744C138.152 96.8036 137.988 97.6919 138.001 98.5867C138.013 99.4815 138.201 100.365 138.553 101.184C138.905 102.003 139.415 102.742 140.051 103.357L152.568 116.158L140.051 128.959C139.415 129.573 138.905 130.312 138.553 131.131C138.201 131.951 138.013 132.834 138.001 133.729C137.988 134.624 138.152 135.512 138.481 136.341C138.81 137.17 139.299 137.923 139.918 138.556C140.537 139.189 141.274 139.688 142.085 140.025C142.896 140.362 143.766 140.529 144.641 140.516C145.516 140.503 146.38 140.311 147.182 139.951C147.984 139.591 148.706 139.071 149.308 138.42L161.832 125.619L174.356 138.42C175.606 139.546 177.23 140.142 178.896 140.087C180.562 140.032 182.144 139.33 183.321 138.123C184.498 136.917 185.18 135.297 185.229 133.594C185.278 131.891 184.69 130.234 183.585 128.959L171.089 116.158Z" fill="#FF2635"/>
<g filter="url(#filter1_f_9082_126719)">
<ellipse cx="162.121" cy="140.553" rx="30.73" ry="4.63157" fill="#FFD8D6"/>
</g>
<path d="M128.311 164.088L128.325 181.03C128.326 181.653 128.655 182.229 129.192 182.546L143.552 191.022L129.204 182.587C128.652 182.263 127.969 182.263 127.417 182.587L113.069 191.022L127.43 182.546C127.966 182.229 128.296 181.653 128.296 181.03L128.311 164.088Z" fill="#ACC5F4"/>
<path d="M58.7872 0L58.8015 16.9417C58.8021 17.5648 59.1316 18.1413 59.6681 18.458L74.0289 26.934L59.6803 18.499C59.129 18.1749 58.4453 18.1749 57.894 18.499L43.5454 26.934L57.9062 18.458C58.4428 18.1413 58.7722 17.5648 58.7728 16.9417L58.7872 0Z" fill="#ACC5F4"/>
<path fill-rule="evenodd" clip-rule="evenodd" d="M130.922 8.22983C132.542 8.22983 133.856 6.88996 133.856 5.23716C133.856 3.58436 132.542 2.2445 130.922 2.2445C129.302 2.2445 127.989 3.58436 127.989 5.23716C127.989 6.88996 129.302 8.22983 130.922 8.22983ZM130.922 10.4743C133.757 10.4743 136.056 8.12957 136.056 5.23716C136.056 2.34476 133.757 0 130.922 0C128.087 0 125.789 2.34476 125.789 5.23716C125.789 8.12957 128.087 10.4743 130.922 10.4743Z" fill="#ACC5F4"/>
<path d="M222.128 90.6144C221.852 89.5078 222.853 88.5103 223.931 88.8193L231.31 90.9349C232.387 91.2438 232.733 92.6266 231.931 93.4242L226.446 98.8863C225.645 99.684 224.298 99.2984 224.022 98.1922L222.128 90.6144Z" fill="#ACC5F4"/>
<path d="M50.183 77.7803C51.2677 77.4997 52.243 78.5218 51.9389 79.6205L49.8556 87.1464C49.5514 88.2456 48.195 88.597 47.4144 87.779L42.0678 82.1754C41.2872 81.3573 41.668 79.9834 42.7532 79.7026L50.183 77.7803Z" fill="#ACC5F4"/>
<path d="M190.074 181.19C191.158 180.91 192.134 181.932 191.829 183.031L189.746 190.557C189.442 191.656 188.086 192.007 187.305 191.189L181.958 185.586C181.178 184.767 181.559 183.394 182.644 183.113L190.074 181.19Z" fill="#ACC5F4"/>
<path fill-rule="evenodd" clip-rule="evenodd" d="M228.93 51.8158C230.55 51.8158 231.863 50.4759 231.863 48.8231C231.863 47.1703 230.55 45.8304 228.93 45.8304C227.31 45.8304 225.997 47.1703 225.997 48.8231C225.997 50.4759 227.31 51.8158 228.93 51.8158ZM228.93 54.0603C231.765 54.0603 234.063 51.7155 234.063 48.8231C234.063 45.9307 231.765 43.5859 228.93 43.5859C226.095 43.5859 223.797 45.9307 223.797 48.8231C223.797 51.7155 226.095 54.0603 228.93 54.0603Z" fill="#ACC5F4"/>
</g>
<path d="M2.18 253V235.72H5.108L13.124 247.9V235.72H16.052V253H13.124L5.108 240.82V253H2.18ZM25.1306 253.36C23.8346 253.36 22.7026 253.068 21.7346 252.484C20.7666 251.9 20.0146 251.096 19.4786 250.072C18.9506 249.04 18.6866 247.856 18.6866 246.52C18.6866 245.16 18.9586 243.968 19.5026 242.944C20.0466 241.92 20.8026 241.12 21.7706 240.544C22.7386 239.968 23.8586 239.68 25.1306 239.68C26.4346 239.68 27.5706 239.972 28.5386 240.556C29.5066 241.14 30.2586 241.948 30.7946 242.98C31.3306 244.004 31.5986 245.184 31.5986 246.52C31.5986 247.864 31.3266 249.052 30.7826 250.084C30.2466 251.108 29.4946 251.912 28.5266 252.496C27.5586 253.072 26.4266 253.36 25.1306 253.36ZM25.1306 250.648C26.2826 250.648 27.1386 250.264 27.6986 249.496C28.2586 248.728 28.5386 247.736 28.5386 246.52C28.5386 245.264 28.2546 244.264 27.6866 243.52C27.1186 242.768 26.2666 242.392 25.1306 242.392C24.3546 242.392 23.7146 242.568 23.2106 242.92C22.7146 243.264 22.3466 243.748 22.1066 244.372C21.8666 244.988 21.7466 245.704 21.7466 246.52C21.7466 247.776 22.0306 248.78 22.5986 249.532C23.1746 250.276 24.0186 250.648 25.1306 250.648ZM39.2872 253V235.72H42.1792V250.288H49.8112V253H39.2872ZM57.7361 253.36C56.4241 253.36 55.2721 253.076 54.2801 252.508C53.2881 251.94 52.5121 251.152 51.9521 250.144C51.4001 249.136 51.1241 247.976 51.1241 246.664C51.1241 245.248 51.3961 244.02 51.9401 242.98C52.4841 241.932 53.2401 241.12 54.2081 240.544C55.1761 239.968 56.2961 239.68 57.5681 239.68C58.9121 239.68 60.0521 239.996 60.9881 240.628C61.9321 241.252 62.6321 242.136 63.0881 243.28C63.5441 244.424 63.7161 245.772 63.6041 247.324H60.7361V246.268C60.7281 244.86 60.4801 243.832 59.9921 243.184C59.5041 242.536 58.7361 242.212 57.6881 242.212C56.5041 242.212 55.6241 242.58 55.0481 243.316C54.4721 244.044 54.1841 245.112 54.1841 246.52C54.1841 247.832 54.4721 248.848 55.0481 249.568C55.6241 250.288 56.4641 250.648 57.5681 250.648C58.2801 250.648 58.8921 250.492 59.4041 250.18C59.9241 249.86 60.3241 249.4 60.6041 248.8L63.4601 249.664C62.9641 250.832 62.1961 251.74 61.1561 252.388C60.1241 253.036 58.9841 253.36 57.7361 253.36ZM53.2721 247.324V245.14H62.1881V247.324H53.2721ZM73.8776 253C73.0216 253.16 72.1816 253.228 71.3576 253.204C70.5416 253.188 69.8096 253.04 69.1616 252.76C68.5136 252.472 68.0216 252.02 67.6856 251.404C67.3896 250.844 67.2336 250.272 67.2176 249.688C67.2016 249.104 67.1936 248.444 67.1936 247.708V236.44H70.0736V247.54C70.0736 248.06 70.0776 248.516 70.0856 248.908C70.1016 249.3 70.1856 249.62 70.3376 249.868C70.6256 250.348 71.0856 250.616 71.7176 250.672C72.3496 250.728 73.0696 250.696 73.8776 250.576V253ZM64.8416 242.308V240.04H73.8776V242.308H64.8416ZM82.8296 253C81.9736 253.16 81.1336 253.228 80.3096 253.204C79.4936 253.188 78.7616 253.04 78.1136 252.76C77.4656 252.472 76.9736 252.02 76.6376 251.404C76.3416 250.844 76.1856 250.272 76.1696 249.688C76.1536 249.104 76.1456 248.444 76.1456 247.708V236.44H79.0256V247.54C79.0256 248.06 79.0296 248.516 79.0376 248.908C79.0536 249.3 79.1376 249.62 79.2896 249.868C79.5776 250.348 80.0376 250.616 80.6696 250.672C81.3016 250.728 82.0216 250.696 82.8296 250.576V253ZM73.7936 242.308V240.04H82.8296V242.308H73.7936ZM91.5329 253.36C90.2209 253.36 89.0689 253.076 88.0769 252.508C87.0849 251.94 86.3089 251.152 85.7489 250.144C85.1969 249.136 84.9209 247.976 84.9209 246.664C84.9209 245.248 85.1929 244.02 85.7369 242.98C86.2809 241.932 87.0369 241.12 88.0049 240.544C88.9729 239.968 90.0929 239.68 91.3649 239.68C92.7089 239.68 93.8489 239.996 94.7849 240.628C95.7289 241.252 96.4289 242.136 96.8849 243.28C97.3409 244.424 97.5129 245.772 97.4009 247.324H94.5329V246.268C94.5249 244.86 94.2769 243.832 93.7889 243.184C93.3009 242.536 92.5329 242.212 91.4849 242.212C90.3009 242.212 89.4209 242.58 88.8449 243.316C88.2689 244.044 87.9809 245.112 87.9809 246.52C87.9809 247.832 88.2689 248.848 88.8449 249.568C89.4209 250.288 90.2609 250.648 91.3649 250.648C92.0769 250.648 92.6889 250.492 93.2009 250.18C93.7209 249.86 94.1209 249.4 94.4009 248.8L97.2569 249.664C96.7609 250.832 95.9929 251.74 94.9529 252.388C93.9209 253.036 92.7809 253.36 91.5329 253.36ZM87.0689 247.324V245.14H95.9849V247.324H87.0689ZM100.078 253V240.04H102.634V243.196L102.322 242.788C102.482 242.356 102.694 241.964 102.958 241.612C103.23 241.252 103.554 240.956 103.93 240.724C104.25 240.508 104.602 240.34 104.986 240.22C105.378 240.092 105.778 240.016 106.186 239.992C106.594 239.96 106.99 239.976 107.374 240.04V242.74C106.99 242.628 106.546 242.592 106.042 242.632C105.546 242.672 105.098 242.812 104.698 243.052C104.298 243.268 103.97 243.544 103.714 243.88C103.466 244.216 103.282 244.6 103.162 245.032C103.042 245.456 102.982 245.916 102.982 246.412V253H100.078ZM114.469 253V235.72H117.361V242.992H125.545V235.72H128.425V253H125.545V245.704H117.361V253H114.469ZM132.029 238.072V235.42H134.921V238.072H132.029ZM132.029 253V240.04H134.921V253H132.029ZM143.52 253.36C141.92 253.36 140.62 253 139.62 252.28C138.62 251.56 138.012 250.548 137.796 249.244L140.748 248.788C140.9 249.428 141.236 249.932 141.756 250.3C142.276 250.668 142.932 250.852 143.724 250.852C144.42 250.852 144.956 250.716 145.332 250.444C145.716 250.164 145.908 249.784 145.908 249.304C145.908 249.008 145.836 248.772 145.692 248.596C145.556 248.412 145.252 248.236 144.78 248.068C144.308 247.9 143.584 247.688 142.608 247.432C141.52 247.144 140.656 246.836 140.016 246.508C139.376 246.172 138.916 245.776 138.636 245.32C138.356 244.864 138.216 244.312 138.216 243.664C138.216 242.856 138.428 242.152 138.852 241.552C139.276 240.952 139.868 240.492 140.628 240.172C141.388 239.844 142.284 239.68 143.316 239.68C144.324 239.68 145.216 239.836 145.992 240.148C146.776 240.46 147.408 240.904 147.888 241.48C148.368 242.056 148.664 242.732 148.776 243.508L145.824 244.036C145.752 243.484 145.5 243.048 145.068 242.728C144.644 242.408 144.076 242.228 143.364 242.188C142.684 242.148 142.136 242.252 141.72 242.5C141.304 242.74 141.096 243.08 141.096 243.52C141.096 243.768 141.18 243.98 141.348 244.156C141.516 244.332 141.852 244.508 142.356 244.684C142.868 244.86 143.628 245.076 144.636 245.332C145.668 245.596 146.492 245.9 147.108 246.244C147.732 246.58 148.18 246.984 148.452 247.456C148.732 247.928 148.872 248.5 148.872 249.172C148.872 250.476 148.396 251.5 147.444 252.244C146.5 252.988 145.192 253.36 143.52 253.36ZM159.096 253C158.24 253.16 157.4 253.228 156.576 253.204C155.76 253.188 155.028 253.04 154.38 252.76C153.732 252.472 153.24 252.02 152.904 251.404C152.608 250.844 152.452 250.272 152.436 249.688C152.42 249.104 152.412 248.444 152.412 247.708V236.44H155.292V247.54C155.292 248.06 155.296 248.516 155.304 248.908C155.32 249.3 155.404 249.62 155.556 249.868C155.844 250.348 156.304 250.616 156.936 250.672C157.568 250.728 158.288 250.696 159.096 250.576V253ZM150.06 242.308V240.04H159.096V242.308H150.06ZM166.951 253.36C165.655 253.36 164.523 253.068 163.555 252.484C162.587 251.9 161.835 251.096 161.299 250.072C160.771 249.04 160.507 247.856 160.507 246.52C160.507 245.16 160.779 243.968 161.323 242.944C161.867 241.92 162.623 241.12 163.591 240.544C164.559 239.968 165.679 239.68 166.951 239.68C168.255 239.68 169.391 239.972 170.359 240.556C171.327 241.14 172.079 241.948 172.615 242.98C173.151 244.004 173.419 245.184 173.419 246.52C173.419 247.864 173.147 249.052 172.603 250.084C172.067 251.108 171.315 251.912 170.347 252.496C169.379 253.072 168.247 253.36 166.951 253.36ZM166.951 250.648C168.103 250.648 168.959 250.264 169.519 249.496C170.079 248.728 170.359 247.736 170.359 246.52C170.359 245.264 170.075 244.264 169.507 243.52C168.939 242.768 168.087 242.392 166.951 242.392C166.175 242.392 165.535 242.568 165.031 242.92C164.535 243.264 164.167 243.748 163.927 244.372C163.687 244.988 163.567 245.704 163.567 246.52C163.567 247.776 163.851 248.78 164.419 249.532C164.995 250.276 165.839 250.648 166.951 250.648ZM176.063 253V240.04H178.619V243.196L178.307 242.788C178.467 242.356 178.679 241.964 178.943 241.612C179.215 241.252 179.539 240.956 179.915 240.724C180.235 240.508 180.587 240.34 180.971 240.22C181.363 240.092 181.763 240.016 182.171 239.992C182.579 239.96 182.975 239.976 183.359 240.04V242.74C182.975 242.628 182.531 242.592 182.027 242.632C181.531 242.672 181.083 242.812 180.683 243.052C180.283 243.268 179.955 243.544 179.699 243.88C179.451 244.216 179.267 244.6 179.147 245.032C179.027 245.456 178.967 245.916 178.967 246.412V253H176.063ZM186.954 258.76L189.45 251.908L189.498 253.924L183.846 240.04H186.858L190.866 250.312H190.098L193.998 240.04H196.89L189.666 258.76H186.954ZM203.485 253V235.72H213.889V238.612H206.377V242.92H212.449V245.8H206.377V253H203.485ZM221.42 253.36C220.124 253.36 218.992 253.068 218.024 252.484C217.056 251.9 216.304 251.096 215.768 250.072C215.24 249.04 214.976 247.856 214.976 246.52C214.976 245.16 215.248 243.968 215.792 242.944C216.336 241.92 217.092 241.12 218.06 240.544C219.028 239.968 220.148 239.68 221.42 239.68C222.724 239.68 223.86 239.972 224.828 240.556C225.796 241.14 226.548 241.948 227.084 242.98C227.62 244.004 227.888 245.184 227.888 246.52C227.888 247.864 227.616 249.052 227.072 250.084C226.536 251.108 225.784 251.912 224.816 252.496C223.848 253.072 222.716 253.36 221.42 253.36ZM221.42 250.648C222.572 250.648 223.428 250.264 223.988 249.496C224.548 248.728 224.828 247.736 224.828 246.52C224.828 245.264 224.544 244.264 223.976 243.52C223.408 242.768 222.556 242.392 221.42 242.392C220.644 242.392 220.004 242.568 219.5 242.92C219.004 243.264 218.636 243.748 218.396 244.372C218.156 244.988 218.036 245.704 218.036 246.52C218.036 247.776 218.32 248.78 218.888 249.532C219.464 250.276 220.308 250.648 221.42 250.648ZM235.392 253.372C234.432 253.372 233.64 253.212 233.016 252.892C232.392 252.572 231.896 252.164 231.528 251.668C231.16 251.172 230.888 250.644 230.712 250.084C230.536 249.524 230.42 248.996 230.364 248.5C230.316 247.996 230.292 247.588 230.292 247.276V240.04H233.22V246.28C233.22 246.68 233.248 247.132 233.304 247.636C233.36 248.132 233.488 248.612 233.688 249.076C233.896 249.532 234.2 249.908 234.6 250.204C235.008 250.5 235.556 250.648 236.244 250.648C236.612 250.648 236.976 250.588 237.336 250.468C237.696 250.348 238.02 250.144 238.308 249.856C238.604 249.56 238.84 249.156 239.016 248.644C239.192 248.132 239.28 247.484 239.28 246.7L240.996 247.432C240.996 248.536 240.78 249.536 240.348 250.432C239.924 251.328 239.296 252.044 238.464 252.58C237.632 253.108 236.608 253.372 235.392 253.372ZM239.628 253V248.98H239.28V240.04H242.184V253H239.628ZM254.519 253V246.76C254.519 246.352 254.491 245.9 254.435 245.404C254.379 244.908 254.247 244.432 254.039 243.976C253.839 243.512 253.535 243.132 253.127 242.836C252.727 242.54 252.183 242.392 251.495 242.392C251.127 242.392 250.763 242.452 250.403 242.572C250.043 242.692 249.715 242.9 249.419 243.196C249.131 243.484 248.899 243.884 248.723 244.396C248.547 244.9 248.459 245.548 248.459 246.34L246.743 245.608C246.743 244.504 246.955 243.504 247.379 242.608C247.811 241.712 248.443 241 249.275 240.472C250.107 239.936 251.131 239.668 252.347 239.668C253.307 239.668 254.099 239.828 254.723 240.148C255.347 240.468 255.843 240.876 256.211 241.372C256.579 241.868 256.851 242.396 257.027 242.956C257.203 243.516 257.315 244.048 257.363 244.552C257.419 245.048 257.447 245.452 257.447 245.764V253H254.519ZM245.531 253V240.04H248.111V244.06H248.459V253H245.531ZM265.564 253.36C264.372 253.36 263.332 253.06 262.444 252.46C261.556 251.86 260.868 251.044 260.38 250.012C259.892 248.98 259.648 247.816 259.648 246.52C259.648 245.208 259.892 244.04 260.38 243.016C260.876 241.984 261.576 241.172 262.48 240.58C263.384 239.98 264.448 239.68 265.672 239.68C266.904 239.68 267.936 239.98 268.768 240.58C269.608 241.172 270.244 241.984 270.676 243.016C271.108 244.048 271.324 245.216 271.324 246.52C271.324 247.808 271.108 248.972 270.676 250.012C270.244 251.044 269.6 251.86 268.744 252.46C267.888 253.06 266.828 253.36 265.564 253.36ZM266.008 250.768C266.784 250.768 267.408 250.592 267.88 250.24C268.36 249.88 268.708 249.38 268.924 248.74C269.148 248.1 269.26 247.36 269.26 246.52C269.26 245.672 269.148 244.932 268.924 244.3C268.708 243.66 268.368 243.164 267.904 242.812C267.44 242.452 266.84 242.272 266.104 242.272C265.328 242.272 264.688 242.464 264.184 242.848C263.68 243.224 263.308 243.736 263.068 244.384C262.828 245.024 262.708 245.736 262.708 246.52C262.708 247.312 262.824 248.032 263.056 248.68C263.296 249.32 263.66 249.828 264.148 250.204C264.636 250.58 265.256 250.768 266.008 250.768ZM269.26 253V243.904H268.9V235.72H271.816V253H269.26Z" fill="#101010"/>
<path d="M37.6843 288V283.176L33.8203 276.48H35.1803L38.2763 281.832L41.3563 276.48H42.7163L38.8683 283.176V288H37.6843ZM46.1577 288.24C45.299 288.24 44.5657 288.045 43.9577 287.656C43.3497 287.267 42.883 286.728 42.5577 286.04C42.2324 285.352 42.0697 284.563 42.0697 283.672C42.0697 282.765 42.235 281.971 42.5657 281.288C42.8964 280.605 43.3657 280.075 43.9737 279.696C44.587 279.312 45.315 279.12 46.1577 279.12C47.0217 279.12 47.7577 279.315 48.3657 279.704C48.979 280.088 49.4457 280.624 49.7657 281.312C50.091 281.995 50.2537 282.781 50.2537 283.672C50.2537 284.579 50.091 285.376 49.7657 286.064C49.4404 286.747 48.971 287.28 48.3577 287.664C47.7444 288.048 47.011 288.24 46.1577 288.24ZM46.1577 287.112C47.1177 287.112 47.8324 286.795 48.3017 286.16C48.771 285.52 49.0057 284.691 49.0057 283.672C49.0057 282.627 48.7684 281.795 48.2937 281.176C47.8244 280.557 47.1124 280.248 46.1577 280.248C45.5124 280.248 44.979 280.395 44.5577 280.688C44.1417 280.976 43.8297 281.379 43.6217 281.896C43.419 282.408 43.3177 283 43.3177 283.672C43.3177 284.712 43.5577 285.547 44.0377 286.176C44.5177 286.8 45.2244 287.112 46.1577 287.112ZM55.3224 288.216C54.8051 288.216 54.3518 288.136 53.9624 287.976C53.5784 287.816 53.2504 287.6 52.9784 287.328C52.7118 287.056 52.4958 286.747 52.3304 286.4C52.1651 286.048 52.0451 285.677 51.9704 285.288C51.8958 284.893 51.8584 284.501 51.8584 284.112V279.36H53.0424V283.768C53.0424 284.243 53.0878 284.683 53.1784 285.088C53.2691 285.493 53.4131 285.848 53.6104 286.152C53.8131 286.451 54.0718 286.683 54.3864 286.848C54.7064 287.013 55.0931 287.096 55.5464 287.096C55.9624 287.096 56.3278 287.024 56.6424 286.88C56.9624 286.736 57.2291 286.531 57.4424 286.264C57.6611 285.992 57.8264 285.664 57.9384 285.28C58.0504 284.891 58.1064 284.453 58.1064 283.968L58.9384 284.152C58.9384 285.037 58.7838 285.781 58.4744 286.384C58.1651 286.987 57.7384 287.443 57.1944 287.752C56.6504 288.061 56.0264 288.216 55.3224 288.216ZM58.2264 288V285.872H58.1064V279.36H59.2824V288H58.2264ZM70.9616 288V283.592C70.9616 283.112 70.9162 282.672 70.8256 282.272C70.7349 281.867 70.5882 281.515 70.3856 281.216C70.1882 280.912 69.9296 280.677 69.6096 280.512C69.2949 280.347 68.9109 280.264 68.4576 280.264C68.0416 280.264 67.6736 280.336 67.3536 280.48C67.0389 280.624 66.7722 280.832 66.5536 281.104C66.3402 281.371 66.1776 281.696 66.0656 282.08C65.9536 282.464 65.8976 282.901 65.8976 283.392L65.0656 283.208C65.0656 282.323 65.2202 281.579 65.5296 280.976C65.8389 280.373 66.2656 279.917 66.8096 279.608C67.3536 279.299 67.9776 279.144 68.6816 279.144C69.1989 279.144 69.6496 279.224 70.0336 279.384C70.4229 279.544 70.7509 279.76 71.0176 280.032C71.2896 280.304 71.5082 280.616 71.6736 280.968C71.8389 281.315 71.9589 281.685 72.0336 282.08C72.1082 282.469 72.1456 282.859 72.1456 283.248V288H70.9616ZM64.7136 288V276.48H65.7776V282.984H65.8976V288H64.7136ZM76.6936 288.24C76.0429 288.24 75.4962 288.123 75.0536 287.888C74.6162 287.653 74.2882 287.341 74.0696 286.952C73.8509 286.563 73.7416 286.139 73.7416 285.68C73.7416 285.211 73.8349 284.811 74.0216 284.48C74.2136 284.144 74.4722 283.869 74.7976 283.656C75.1282 283.443 75.5096 283.28 75.9416 283.168C76.3789 283.061 76.8616 282.968 77.3896 282.888C77.9229 282.803 78.4429 282.731 78.9496 282.672C79.4616 282.608 79.9096 282.547 80.2936 282.488L79.8776 282.744C79.8936 281.891 79.7282 281.259 79.3816 280.848C79.0349 280.437 78.4322 280.232 77.5736 280.232C76.9816 280.232 76.4802 280.365 76.0696 280.632C75.6642 280.899 75.3789 281.32 75.2136 281.896L74.0696 281.56C74.2669 280.787 74.6642 280.187 75.2616 279.76C75.8589 279.333 76.6349 279.12 77.5896 279.12C78.3789 279.12 79.0482 279.269 79.5976 279.568C80.1522 279.861 80.5442 280.288 80.7736 280.848C80.8802 281.099 80.9496 281.379 80.9816 281.688C81.0136 281.997 81.0296 282.312 81.0296 282.632V288H79.9816V285.832L80.2856 285.96C79.9922 286.701 79.5362 287.267 78.9176 287.656C78.2989 288.045 77.5576 288.24 76.6936 288.24ZM76.8296 287.224C77.3789 287.224 77.8589 287.125 78.2696 286.928C78.6802 286.731 79.0109 286.461 79.2616 286.12C79.5122 285.773 79.6749 285.384 79.7496 284.952C79.8136 284.675 79.8482 284.371 79.8536 284.04C79.8589 283.704 79.8616 283.453 79.8616 283.288L80.3096 283.52C79.9096 283.573 79.4749 283.627 79.0056 283.68C78.5416 283.733 78.0829 283.795 77.6296 283.864C77.1816 283.933 76.7762 284.016 76.4136 284.112C76.1682 284.181 75.9309 284.28 75.7016 284.408C75.4722 284.531 75.2829 284.696 75.1336 284.904C74.9896 285.112 74.9176 285.371 74.9176 285.68C74.9176 285.931 74.9789 286.173 75.1016 286.408C75.2296 286.643 75.4322 286.837 75.7096 286.992C75.9922 287.147 76.3656 287.224 76.8296 287.224ZM85.1357 288L81.9997 279.36H83.1917L85.7437 286.464L88.2797 279.36H89.4877L86.3517 288H85.1357ZM94.2682 288.24C93.4255 288.24 92.6949 288.053 92.0762 287.68C91.4629 287.307 90.9855 286.781 90.6442 286.104C90.3029 285.427 90.1322 284.632 90.1322 283.72C90.1322 282.776 90.3002 281.96 90.6362 281.272C90.9722 280.584 91.4442 280.053 92.0522 279.68C92.6655 279.307 93.3882 279.12 94.2202 279.12C95.0735 279.12 95.8015 279.317 96.4042 279.712C97.0069 280.101 97.4629 280.661 97.7722 281.392C98.0815 282.123 98.2229 282.995 98.1962 284.008H96.9962V283.592C96.9749 282.472 96.7322 281.627 96.2682 281.056C95.8095 280.485 95.1375 280.2 94.2522 280.2C93.3242 280.2 92.6122 280.501 92.1162 281.104C91.6255 281.707 91.3802 282.565 91.3802 283.68C91.3802 284.768 91.6255 285.613 92.1162 286.216C92.6122 286.813 93.3135 287.112 94.2202 287.112C94.8389 287.112 95.3775 286.971 95.8362 286.688C96.3002 286.4 96.6655 285.987 96.9322 285.448L98.0282 285.872C97.6869 286.624 97.1829 287.208 96.5162 287.624C95.8549 288.035 95.1055 288.24 94.2682 288.24ZM90.9642 284.008V283.024H97.5642V284.008H90.9642ZM109.415 288V283.592C109.415 283.112 109.369 282.672 109.279 282.272C109.188 281.867 109.041 281.515 108.839 281.216C108.641 280.912 108.383 280.677 108.063 280.512C107.748 280.347 107.364 280.264 106.911 280.264C106.495 280.264 106.127 280.336 105.807 280.48C105.492 280.624 105.225 280.832 105.007 281.104C104.793 281.371 104.631 281.696 104.519 282.08C104.407 282.464 104.351 282.901 104.351 283.392L103.519 283.208C103.519 282.323 103.673 281.579 103.983 280.976C104.292 280.373 104.719 279.917 105.263 279.608C105.807 279.299 106.431 279.144 107.135 279.144C107.652 279.144 108.103 279.224 108.487 279.384C108.876 279.544 109.204 279.76 109.471 280.032C109.743 280.304 109.961 280.616 110.127 280.968C110.292 281.315 110.412 281.685 110.487 282.08C110.561 282.469 110.599 282.859 110.599 283.248V288H109.415ZM103.167 288V279.36H104.231V281.488H104.351V288H103.167ZM116.236 288.24C115.377 288.24 114.644 288.045 114.036 287.656C113.428 287.267 112.961 286.728 112.636 286.04C112.31 285.352 112.148 284.563 112.148 283.672C112.148 282.765 112.313 281.971 112.644 281.288C112.974 280.605 113.444 280.075 114.052 279.696C114.665 279.312 115.393 279.12 116.236 279.12C117.1 279.12 117.836 279.315 118.444 279.704C119.057 280.088 119.524 280.624 119.844 281.312C120.169 281.995 120.332 282.781 120.332 283.672C120.332 284.579 120.169 285.376 119.844 286.064C119.518 286.747 119.049 287.28 118.436 287.664C117.822 288.048 117.089 288.24 116.236 288.24ZM116.236 287.112C117.196 287.112 117.91 286.795 118.38 286.16C118.849 285.52 119.084 284.691 119.084 283.672C119.084 282.627 118.846 281.795 118.372 281.176C117.902 280.557 117.19 280.248 116.236 280.248C115.59 280.248 115.057 280.395 114.636 280.688C114.22 280.976 113.908 281.379 113.7 281.896C113.497 282.408 113.396 283 113.396 283.672C113.396 284.712 113.636 285.547 114.116 286.176C114.596 286.8 115.302 287.112 116.236 287.112ZM126.801 288C126.315 288.101 125.835 288.141 125.361 288.12C124.891 288.099 124.47 287.997 124.097 287.816C123.729 287.635 123.449 287.352 123.257 286.968C123.102 286.648 123.017 286.325 123.001 286C122.99 285.669 122.985 285.293 122.985 284.872V276.96H124.153V284.824C124.153 285.187 124.155 285.491 124.161 285.736C124.171 285.976 124.227 286.189 124.329 286.376C124.521 286.733 124.825 286.947 125.241 287.016C125.662 287.085 126.182 287.069 126.801 286.968V288ZM121.137 280.368V279.36H126.801V280.368H121.137ZM135.138 292.08C134.695 292.08 134.258 292.013 133.826 291.88C133.399 291.752 133.005 291.547 132.642 291.264C132.279 290.987 131.975 290.624 131.73 290.176L132.794 289.584C133.034 290.064 133.37 290.408 133.802 290.616C134.239 290.829 134.685 290.936 135.138 290.936C135.762 290.936 136.266 290.819 136.65 290.584C137.039 290.355 137.322 290.013 137.498 289.56C137.674 289.107 137.759 288.541 137.754 287.864V285.56H137.89V279.36H138.938V287.88C138.938 288.125 138.93 288.36 138.914 288.584C138.903 288.813 138.879 289.037 138.842 289.256C138.741 289.901 138.53 290.432 138.21 290.848C137.895 291.264 137.479 291.573 136.962 291.776C136.45 291.979 135.842 292.08 135.138 292.08ZM135.058 288.24C134.253 288.24 133.565 288.04 132.994 287.64C132.423 287.235 131.986 286.688 131.682 286C131.378 285.312 131.226 284.536 131.226 283.672C131.226 282.813 131.375 282.04 131.674 281.352C131.978 280.664 132.413 280.12 132.978 279.72C133.543 279.32 134.221 279.12 135.01 279.12C135.821 279.12 136.503 279.317 137.058 279.712C137.613 280.107 138.031 280.648 138.314 281.336C138.602 282.019 138.746 282.797 138.746 283.672C138.746 284.531 138.605 285.307 138.322 286C138.039 286.688 137.623 287.235 137.074 287.64C136.525 288.04 135.853 288.24 135.058 288.24ZM135.178 287.144C135.791 287.144 136.298 286.995 136.698 286.696C137.098 286.397 137.397 285.987 137.594 285.464C137.791 284.936 137.89 284.339 137.89 283.672C137.89 282.995 137.791 282.397 137.594 281.88C137.397 281.357 137.098 280.949 136.698 280.656C136.303 280.363 135.805 280.216 135.202 280.216C134.583 280.216 134.071 280.368 133.666 280.672C133.261 280.976 132.959 281.389 132.762 281.912C132.57 282.435 132.474 283.021 132.474 283.672C132.474 284.328 132.573 284.92 132.77 285.448C132.973 285.971 133.274 286.384 133.674 286.688C134.074 286.992 134.575 287.144 135.178 287.144ZM144.831 288.24C143.988 288.24 143.257 288.053 142.639 287.68C142.025 287.307 141.548 286.781 141.207 286.104C140.865 285.427 140.695 284.632 140.695 283.72C140.695 282.776 140.863 281.96 141.199 281.272C141.535 280.584 142.007 280.053 142.615 279.68C143.228 279.307 143.951 279.12 144.783 279.12C145.636 279.12 146.364 279.317 146.967 279.712C147.569 280.101 148.025 280.661 148.335 281.392C148.644 282.123 148.785 282.995 148.759 284.008H147.559V283.592C147.537 282.472 147.295 281.627 146.831 281.056C146.372 280.485 145.7 280.2 144.815 280.2C143.887 280.2 143.175 280.501 142.679 281.104C142.188 281.707 141.943 282.565 141.943 283.68C141.943 284.768 142.188 285.613 142.679 286.216C143.175 286.813 143.876 287.112 144.783 287.112C145.401 287.112 145.94 286.971 146.399 286.688C146.863 286.4 147.228 285.987 147.495 285.448L148.591 285.872C148.249 286.624 147.745 287.208 147.079 287.624C146.417 288.035 145.668 288.24 144.831 288.24ZM141.527 284.008V283.024H148.127V284.008H141.527ZM156.54 288V283.592C156.54 283.112 156.494 282.672 156.404 282.272C156.313 281.867 156.166 281.515 155.964 281.216C155.766 280.912 155.508 280.677 155.188 280.512C154.873 280.347 154.489 280.264 154.036 280.264C153.62 280.264 153.252 280.336 152.932 280.48C152.617 280.624 152.35 280.832 152.132 281.104C151.918 281.371 151.756 281.696 151.644 282.08C151.532 282.464 151.476 282.901 151.476 283.392L150.644 283.208C150.644 282.323 150.798 281.579 151.108 280.976C151.417 280.373 151.844 279.917 152.388 279.608C152.932 279.299 153.556 279.144 154.26 279.144C154.777 279.144 155.228 279.224 155.612 279.384C156.001 279.544 156.329 279.76 156.596 280.032C156.868 280.304 157.086 280.616 157.252 280.968C157.417 281.315 157.537 281.685 157.612 282.08C157.686 282.469 157.724 282.859 157.724 283.248V288H156.54ZM150.292 288V279.36H151.356V281.488H151.476V288H150.292ZM163.409 288.24C162.566 288.24 161.835 288.053 161.217 287.68C160.603 287.307 160.126 286.781 159.785 286.104C159.443 285.427 159.273 284.632 159.273 283.72C159.273 282.776 159.441 281.96 159.777 281.272C160.113 280.584 160.585 280.053 161.193 279.68C161.806 279.307 162.529 279.12 163.361 279.12C164.214 279.12 164.942 279.317 165.545 279.712C166.147 280.101 166.603 280.661 166.913 281.392C167.222 282.123 167.363 282.995 167.337 284.008H166.137V283.592C166.115 282.472 165.873 281.627 165.409 281.056C164.95 280.485 164.278 280.2 163.393 280.2C162.465 280.2 161.753 280.501 161.257 281.104C160.766 281.707 160.521 282.565 160.521 283.68C160.521 284.768 160.766 285.613 161.257 286.216C161.753 286.813 162.454 287.112 163.361 287.112C163.979 287.112 164.518 286.971 164.977 286.688C165.441 286.4 165.806 285.987 166.073 285.448L167.169 285.872C166.827 286.624 166.323 287.208 165.657 287.624C164.995 288.035 164.246 288.24 163.409 288.24ZM160.105 284.008V283.024H166.705V284.008H160.105ZM169.112 288V279.36H170.168V281.44L169.96 281.168C170.056 280.912 170.182 280.677 170.336 280.464C170.491 280.245 170.659 280.067 170.84 279.928C171.064 279.731 171.326 279.581 171.624 279.48C171.923 279.373 172.224 279.312 172.528 279.296C172.832 279.275 173.11 279.296 173.36 279.36V280.464C173.046 280.384 172.702 280.365 172.328 280.408C171.955 280.451 171.611 280.6 171.296 280.856C171.008 281.08 170.792 281.349 170.648 281.664C170.504 281.973 170.408 282.304 170.36 282.656C170.312 283.003 170.288 283.347 170.288 283.688V288H169.112ZM177.022 288.24C176.371 288.24 175.824 288.123 175.382 287.888C174.944 287.653 174.616 287.341 174.398 286.952C174.179 286.563 174.07 286.139 174.07 285.68C174.07 285.211 174.163 284.811 174.35 284.48C174.542 284.144 174.8 283.869 175.126 283.656C175.456 283.443 175.838 283.28 176.27 283.168C176.707 283.061 177.19 282.968 177.718 282.888C178.251 282.803 178.771 282.731 179.278 282.672C179.79 282.608 180.238 282.547 180.622 282.488L180.206 282.744C180.222 281.891 180.056 281.259 179.71 280.848C179.363 280.437 178.76 280.232 177.902 280.232C177.31 280.232 176.808 280.365 176.398 280.632C175.992 280.899 175.707 281.32 175.542 281.896L174.398 281.56C174.595 280.787 174.992 280.187 175.59 279.76C176.187 279.333 176.963 279.12 177.918 279.12C178.707 279.12 179.376 279.269 179.926 279.568C180.48 279.861 180.872 280.288 181.102 280.848C181.208 281.099 181.278 281.379 181.31 281.688C181.342 281.997 181.358 282.312 181.358 282.632V288H180.31V285.832L180.614 285.96C180.32 286.701 179.864 287.267 179.246 287.656C178.627 288.045 177.886 288.24 177.022 288.24ZM177.158 287.224C177.707 287.224 178.187 287.125 178.598 286.928C179.008 286.731 179.339 286.461 179.59 286.12C179.84 285.773 180.003 285.384 180.078 284.952C180.142 284.675 180.176 284.371 180.182 284.04C180.187 283.704 180.19 283.453 180.19 283.288L180.638 283.52C180.238 283.573 179.803 283.627 179.334 283.68C178.87 283.733 178.411 283.795 177.958 283.864C177.51 283.933 177.104 284.016 176.742 284.112C176.496 284.181 176.259 284.28 176.03 284.408C175.8 284.531 175.611 284.696 175.462 284.904C175.318 285.112 175.246 285.371 175.246 285.68C175.246 285.931 175.307 286.173 175.43 286.408C175.558 286.643 175.76 286.837 176.038 286.992C176.32 287.147 176.694 287.224 177.158 287.224ZM188.144 288C187.659 288.101 187.179 288.141 186.704 288.12C186.235 288.099 185.814 287.997 185.44 287.816C185.072 287.635 184.792 287.352 184.6 286.968C184.446 286.648 184.36 286.325 184.344 286C184.334 285.669 184.328 285.293 184.328 284.872V276.96H185.496V284.824C185.496 285.187 185.499 285.491 185.504 285.736C185.515 285.976 185.571 286.189 185.672 286.376C185.864 286.733 186.168 286.947 186.584 287.016C187.006 287.085 187.526 287.069 188.144 286.968V288ZM182.48 280.368V279.36H188.144V280.368H182.48ZM193.19 288.24C192.347 288.24 191.617 288.053 190.998 287.68C190.385 287.307 189.907 286.781 189.566 286.104C189.225 285.427 189.054 284.632 189.054 283.72C189.054 282.776 189.222 281.96 189.558 281.272C189.894 280.584 190.366 280.053 190.974 279.68C191.587 279.307 192.31 279.12 193.142 279.12C193.995 279.12 194.723 279.317 195.326 279.712C195.929 280.101 196.385 280.661 196.694 281.392C197.003 282.123 197.145 282.995 197.118 284.008H195.918V283.592C195.897 282.472 195.654 281.627 195.19 281.056C194.731 280.485 194.059 280.2 193.174 280.2C192.246 280.2 191.534 280.501 191.038 281.104C190.547 281.707 190.302 282.565 190.302 283.68C190.302 284.768 190.547 285.613 191.038 286.216C191.534 286.813 192.235 287.112 193.142 287.112C193.761 287.112 194.299 286.971 194.758 286.688C195.222 286.4 195.587 285.987 195.854 285.448L196.95 285.872C196.609 286.624 196.105 287.208 195.438 287.624C194.777 288.035 194.027 288.24 193.19 288.24ZM189.886 284.008V283.024H196.486V284.008H189.886ZM202.245 288.24C201.44 288.24 200.752 288.04 200.181 287.64C199.611 287.235 199.173 286.688 198.869 286C198.565 285.312 198.413 284.536 198.413 283.672C198.413 282.813 198.563 282.04 198.861 281.352C199.165 280.664 199.6 280.12 200.165 279.72C200.731 279.32 201.408 279.12 202.197 279.12C203.008 279.12 203.691 279.317 204.245 279.712C204.8 280.107 205.219 280.648 205.501 281.336C205.789 282.019 205.933 282.797 205.933 283.672C205.933 284.531 205.792 285.307 205.509 286C205.227 286.688 204.811 287.235 204.261 287.64C203.712 288.04 203.04 288.24 202.245 288.24ZM202.365 287.144C202.979 287.144 203.485 286.995 203.885 286.696C204.285 286.397 204.584 285.987 204.781 285.464C204.979 284.936 205.077 284.339 205.077 283.672C205.077 282.995 204.979 282.397 204.781 281.88C204.584 281.357 204.285 280.949 203.885 280.656C203.491 280.363 202.992 280.216 202.389 280.216C201.771 280.216 201.259 280.368 200.853 280.672C200.448 280.976 200.147 281.389 199.949 281.912C199.757 282.435 199.661 283.021 199.661 283.672C199.661 284.328 199.76 284.92 199.957 285.448C200.16 285.971 200.461 286.384 200.861 286.688C201.261 286.992 201.763 287.144 202.365 287.144ZM205.077 288V281.496H204.949V276.48H206.133V288H205.077ZM214.053 288.24C213.402 288.24 212.856 288.123 212.413 287.888C211.976 287.653 211.648 287.341 211.429 286.952C211.21 286.563 211.101 286.139 211.101 285.68C211.101 285.211 211.194 284.811 211.381 284.48C211.573 284.144 211.832 283.869 212.157 283.656C212.488 283.443 212.869 283.28 213.301 283.168C213.738 283.061 214.221 282.968 214.749 282.888C215.282 282.803 215.802 282.731 216.309 282.672C216.821 282.608 217.269 282.547 217.653 282.488L217.237 282.744C217.253 281.891 217.088 281.259 216.741 280.848C216.394 280.437 215.792 280.232 214.933 280.232C214.341 280.232 213.84 280.365 213.429 280.632C213.024 280.899 212.738 281.32 212.573 281.896L211.429 281.56C211.626 280.787 212.024 280.187 212.621 279.76C213.218 279.333 213.994 279.12 214.949 279.12C215.738 279.12 216.408 279.269 216.957 279.568C217.512 279.861 217.904 280.288 218.133 280.848C218.24 281.099 218.309 281.379 218.341 281.688C218.373 281.997 218.389 282.312 218.389 282.632V288H217.341V285.832L217.645 285.96C217.352 286.701 216.896 287.267 216.277 287.656C215.658 288.045 214.917 288.24 214.053 288.24ZM214.189 287.224C214.738 287.224 215.218 287.125 215.629 286.928C216.04 286.731 216.37 286.461 216.621 286.12C216.872 285.773 217.034 285.384 217.109 284.952C217.173 284.675 217.208 284.371 217.213 284.04C217.218 283.704 217.221 283.453 217.221 283.288L217.669 283.52C217.269 283.573 216.834 283.627 216.365 283.68C215.901 283.733 215.442 283.795 214.989 283.864C214.541 283.933 214.136 284.016 213.773 284.112C213.528 284.181 213.29 284.28 213.061 284.408C212.832 284.531 212.642 284.696 212.493 284.904C212.349 285.112 212.277 285.371 212.277 285.68C212.277 285.931 212.338 286.173 212.461 286.408C212.589 286.643 212.792 286.837 213.069 286.992C213.352 287.147 213.725 287.224 214.189 287.224ZM226.712 288V283.592C226.712 283.112 226.666 282.672 226.576 282.272C226.485 281.867 226.338 281.515 226.136 281.216C225.938 280.912 225.68 280.677 225.36 280.512C225.045 280.347 224.661 280.264 224.208 280.264C223.792 280.264 223.424 280.336 223.104 280.48C222.789 280.624 222.522 280.832 222.304 281.104C222.09 281.371 221.928 281.696 221.816 282.08C221.704 282.464 221.648 282.901 221.648 283.392L220.816 283.208C220.816 282.323 220.97 281.579 221.28 280.976C221.589 280.373 222.016 279.917 222.56 279.608C223.104 279.299 223.728 279.144 224.432 279.144C224.949 279.144 225.4 279.224 225.784 279.384C226.173 279.544 226.501 279.76 226.768 280.032C227.04 280.304 227.258 280.616 227.424 280.968C227.589 281.315 227.709 281.685 227.784 282.08C227.858 282.469 227.896 282.859 227.896 283.248V288H226.712ZM220.464 288V279.36H221.528V281.488H221.648V288H220.464ZM230.891 291.84L232.563 287.304L232.587 288.648L228.803 279.36H230.051L233.155 287.128H232.643L235.507 279.36H236.707L232.067 291.84H230.891ZM95.6571 320.24C94.7878 320.24 94.0518 320.045 93.4491 319.656C92.8465 319.267 92.3878 318.731 92.0731 318.048C91.7638 317.36 91.6038 316.571 91.5931 315.68C91.6038 314.773 91.7691 313.979 92.0891 313.296C92.4091 312.608 92.8705 312.075 93.4731 311.696C94.0758 311.312 94.8065 311.12 95.6651 311.12C96.5398 311.12 97.2998 311.333 97.9451 311.76C98.5958 312.187 99.0411 312.771 99.2811 313.512L98.1291 313.88C97.9265 313.363 97.6038 312.963 97.1611 312.68C96.7238 312.392 96.2225 312.248 95.6571 312.248C95.0225 312.248 94.4971 312.395 94.0811 312.688C93.6651 312.976 93.3558 313.379 93.1531 313.896C92.9505 314.413 92.8465 315.008 92.8411 315.68C92.8518 316.715 93.0918 317.547 93.5611 318.176C94.0305 318.8 94.7291 319.112 95.6571 319.112C96.2438 319.112 96.7425 318.979 97.1531 318.712C97.5691 318.44 97.8838 318.045 98.0971 317.528L99.2811 317.88C98.9611 318.648 98.4918 319.235 97.8731 319.64C97.2545 320.04 96.5158 320.24 95.6571 320.24ZM104.306 320.24C103.447 320.24 102.714 320.045 102.106 319.656C101.498 319.267 101.031 318.728 100.706 318.04C100.381 317.352 100.218 316.563 100.218 315.672C100.218 314.765 100.383 313.971 100.714 313.288C101.045 312.605 101.514 312.075 102.122 311.696C102.735 311.312 103.463 311.12 104.306 311.12C105.17 311.12 105.906 311.315 106.514 311.704C107.127 312.088 107.594 312.624 107.914 313.312C108.239 313.995 108.402 314.781 108.402 315.672C108.402 316.579 108.239 317.376 107.914 318.064C107.589 318.747 107.119 319.28 106.506 319.664C105.893 320.048 105.159 320.24 104.306 320.24ZM104.306 319.112C105.266 319.112 105.981 318.795 106.45 318.16C106.919 317.52 107.154 316.691 107.154 315.672C107.154 314.627 106.917 313.795 106.442 313.176C105.973 312.557 105.261 312.248 104.306 312.248C103.661 312.248 103.127 312.395 102.706 312.688C102.29 312.976 101.978 313.379 101.77 313.896C101.567 314.408 101.466 315 101.466 315.672C101.466 316.712 101.706 317.547 102.186 318.176C102.666 318.8 103.373 319.112 104.306 319.112ZM112.19 320L109.054 311.36H110.246L112.798 318.464L115.334 311.36H116.542L113.406 320H112.19ZM121.323 320.24C120.48 320.24 119.75 320.053 119.131 319.68C118.518 319.307 118.04 318.781 117.699 318.104C117.358 317.427 117.187 316.632 117.187 315.72C117.187 314.776 117.355 313.96 117.691 313.272C118.027 312.584 118.499 312.053 119.107 311.68C119.72 311.307 120.443 311.12 121.275 311.12C122.128 311.12 122.856 311.317 123.459 311.712C124.062 312.101 124.518 312.661 124.827 313.392C125.136 314.123 125.278 314.995 125.251 316.008H124.051V315.592C124.03 314.472 123.787 313.627 123.323 313.056C122.864 312.485 122.192 312.2 121.307 312.2C120.379 312.2 119.667 312.501 119.171 313.104C118.68 313.707 118.435 314.565 118.435 315.68C118.435 316.768 118.68 317.613 119.171 318.216C119.667 318.813 120.368 319.112 121.275 319.112C121.894 319.112 122.432 318.971 122.891 318.688C123.355 318.4 123.72 317.987 123.987 317.448L125.083 317.872C124.742 318.624 124.238 319.208 123.571 319.624C122.91 320.035 122.16 320.24 121.323 320.24ZM118.019 316.008V315.024H124.619V316.008H118.019ZM127.026 320V311.36H128.082V313.44L127.874 313.168C127.97 312.912 128.096 312.677 128.25 312.464C128.405 312.245 128.573 312.067 128.754 311.928C128.978 311.731 129.24 311.581 129.538 311.48C129.837 311.373 130.138 311.312 130.442 311.296C130.746 311.275 131.024 311.296 131.274 311.36V312.464C130.96 312.384 130.616 312.365 130.242 312.408C129.869 312.451 129.525 312.6 129.21 312.856C128.922 313.08 128.706 313.349 128.562 313.664C128.418 313.973 128.322 314.304 128.274 314.656C128.226 315.003 128.202 315.347 128.202 315.688V320H127.026ZM136.155 320V308.24H137.331V320H136.155ZM143.385 320.24C142.543 320.24 141.812 320.053 141.193 319.68C140.58 319.307 140.103 318.781 139.761 318.104C139.42 317.427 139.249 316.632 139.249 315.72C139.249 314.776 139.417 313.96 139.753 313.272C140.089 312.584 140.561 312.053 141.169 311.68C141.783 311.307 142.505 311.12 143.337 311.12C144.191 311.12 144.919 311.317 145.521 311.712C146.124 312.101 146.58 312.661 146.889 313.392C147.199 314.123 147.34 314.995 147.313 316.008H146.113V315.592C146.092 314.472 145.849 313.627 145.385 313.056C144.927 312.485 144.255 312.2 143.369 312.2C142.441 312.2 141.729 312.501 141.233 313.104C140.743 313.707 140.497 314.565 140.497 315.68C140.497 316.768 140.743 317.613 141.233 318.216C141.729 318.813 142.431 319.112 143.337 319.112C143.956 319.112 144.495 318.971 144.953 318.688C145.417 318.4 145.783 317.987 146.049 317.448L147.145 317.872C146.804 318.624 146.3 319.208 145.633 319.624C144.972 320.035 144.223 320.24 143.385 320.24ZM140.081 316.008V315.024H146.681V316.008H140.081ZM153.793 320C153.307 320.101 152.827 320.141 152.353 320.12C151.883 320.099 151.462 319.997 151.089 319.816C150.721 319.635 150.441 319.352 150.249 318.968C150.094 318.648 150.009 318.325 149.993 318C149.982 317.669 149.977 317.293 149.977 316.872V308.96H151.145V316.824C151.145 317.187 151.147 317.491 151.153 317.736C151.163 317.976 151.219 318.189 151.321 318.376C151.513 318.733 151.817 318.947 152.233 319.016C152.654 319.085 153.174 319.069 153.793 318.968V320ZM148.129 312.368V311.36H153.793V312.368H148.129ZM159.241 320C158.755 320.101 158.275 320.141 157.801 320.12C157.331 320.099 156.91 319.997 156.537 319.816C156.169 319.635 155.889 319.352 155.697 318.968C155.542 318.648 155.457 318.325 155.441 318C155.43 317.669 155.425 317.293 155.425 316.872V308.96H156.593V316.824C156.593 317.187 156.595 317.491 156.601 317.736C156.611 317.976 156.667 318.189 156.769 318.376C156.961 318.733 157.265 318.947 157.681 319.016C158.102 319.085 158.622 319.069 159.241 318.968V320ZM153.577 312.368V311.36H159.241V312.368H153.577ZM164.604 320.24C163.761 320.24 163.031 320.053 162.412 319.68C161.799 319.307 161.321 318.781 160.98 318.104C160.639 317.427 160.468 316.632 160.468 315.72C160.468 314.776 160.636 313.96 160.972 313.272C161.308 312.584 161.78 312.053 162.388 311.68C163.001 311.307 163.724 311.12 164.556 311.12C165.409 311.12 166.137 311.317 166.74 311.712C167.343 312.101 167.799 312.661 168.108 313.392C168.417 314.123 168.559 314.995 168.532 316.008H167.332V315.592C167.311 314.472 167.068 313.627 166.604 313.056C166.145 312.485 165.473 312.2 164.588 312.2C163.66 312.2 162.948 312.501 162.452 313.104C161.961 313.707 161.716 314.565 161.716 315.68C161.716 316.768 161.961 317.613 162.452 318.216C162.948 318.813 163.649 319.112 164.556 319.112C165.175 319.112 165.713 318.971 166.172 318.688C166.636 318.4 167.001 317.987 167.268 317.448L168.364 317.872C168.023 318.624 167.519 319.208 166.852 319.624C166.191 320.035 165.441 320.24 164.604 320.24ZM161.3 316.008V315.024H167.9V316.008H161.3ZM170.308 320V311.36H171.364V313.44L171.156 313.168C171.252 312.912 171.377 312.677 171.532 312.464C171.686 312.245 171.854 312.067 172.036 311.928C172.26 311.731 172.521 311.581 172.82 311.48C173.118 311.373 173.42 311.312 173.724 311.296C174.028 311.275 174.305 311.296 174.556 311.36V312.464C174.241 312.384 173.897 312.365 173.524 312.408C173.15 312.451 172.806 312.6 172.492 312.856C172.204 313.08 171.988 313.349 171.844 313.664C171.7 313.973 171.604 314.304 171.556 314.656C171.508 315.003 171.484 315.347 171.484 315.688V320H170.308ZM178.985 320.232C177.971 320.232 177.137 320.013 176.481 319.576C175.83 319.139 175.43 318.531 175.281 317.752L176.481 317.552C176.609 318.043 176.899 318.435 177.353 318.728C177.811 319.016 178.377 319.16 179.049 319.16C179.705 319.16 180.222 319.024 180.601 318.752C180.979 318.475 181.169 318.099 181.169 317.624C181.169 317.357 181.107 317.141 180.985 316.976C180.867 316.805 180.625 316.648 180.257 316.504C179.889 316.36 179.339 316.189 178.609 315.992C177.825 315.779 177.211 315.565 176.769 315.352C176.326 315.139 176.011 314.893 175.825 314.616C175.638 314.333 175.545 313.989 175.545 313.584C175.545 313.093 175.683 312.664 175.961 312.296C176.238 311.923 176.622 311.635 177.113 311.432C177.603 311.224 178.174 311.12 178.825 311.12C179.475 311.12 180.057 311.227 180.569 311.44C181.086 311.648 181.502 311.941 181.817 312.32C182.131 312.699 182.318 313.139 182.377 313.64L181.177 313.856C181.097 313.349 180.843 312.949 180.417 312.656C179.995 312.357 179.459 312.203 178.809 312.192C178.195 312.176 177.697 312.293 177.313 312.544C176.929 312.789 176.737 313.117 176.737 313.528C176.737 313.757 176.806 313.955 176.945 314.12C177.083 314.28 177.334 314.432 177.697 314.576C178.065 314.72 178.587 314.877 179.265 315.048C180.059 315.251 180.683 315.464 181.137 315.688C181.59 315.912 181.913 316.176 182.105 316.48C182.297 316.784 182.393 317.16 182.393 317.608C182.393 318.424 182.089 319.067 181.481 319.536C180.878 320 180.046 320.232 178.985 320.232Z" fill="#6D6D6D"/>
<defs>
<filter id="filter0_d_9082_126719" x="27.7466" y="96.0628" width="83.9617" height="105.246" filterUnits="userSpaceOnUse" color-interpolation-filters="sRGB">
<feFlood flood-opacity="0" result="BackgroundImageFix"/>
<feColorMatrix in="SourceAlpha" type="matrix" values="0 0 0 0 0 0 0 0 0 0 0 0 0 0 0 0 0 0 127 0" result="hardAlpha"/>
<feOffset dx="2.51649" dy="5.8718"/>
<feGaussianBlur stdDeviation="6.29122"/>
<feComposite in2="hardAlpha" operator="out"/>
<feColorMatrix type="matrix" values="0 0 0 0 0.104618 0 0 0 0 0.465612 0 0 0 0 0.545833 0 0 0 0.15 0"/>
<feBlend mode="normal" in2="BackgroundImageFix" result="effect1_dropShadow_9082_126719"/>
<feBlend mode="normal" in="SourceGraphic" in2="effect1_dropShadow_9082_126719" result="shape"/>
</filter>
<filter id="filter1_f_9082_126719" x="113.906" y="118.437" width="96.4299" height="44.2317" filterUnits="userSpaceOnUse" color-interpolation-filters="sRGB">
<feFlood flood-opacity="0" result="BackgroundImageFix"/>
<feBlend mode="normal" in="SourceGraphic" in2="BackgroundImageFix" result="shape"/>
<feGaussianBlur stdDeviation="8.74224" result="effect1_foregroundBlur_9082_126719"/>
</filter>
</defs>
</svg>
