<svg width="210" height="202" viewBox="0 0 210 202" fill="none" xmlns="http://www.w3.org/2000/svg">
<g opacity="0.3">
<path d="M159.5 28.0527H53.1089C46.4774 28.0527 41.1016 33.5475 41.1016 40.3257H171.507C171.507 33.5475 166.131 28.0527 159.5 28.0527Z" fill="#0652DD"/>
<path d="M41.1016 39.9902H171.507V141.506C171.507 146.02 169.753 150.348 166.631 153.54C163.508 156.731 159.273 158.524 154.857 158.524H57.7513C53.3355 158.524 49.1006 156.731 45.9782 153.54C42.8557 150.348 41.1016 146.02 41.1016 141.506V39.9902Z" fill="#ACC5F4"/>
<path d="M149.093 52.8125H63.5612C61.7799 52.8125 60.3359 54.2868 60.3359 56.1055C60.3359 57.9242 61.7799 59.3985 63.5612 59.3985H149.093C150.874 59.3985 152.318 57.9242 152.318 56.1055C152.318 54.2868 150.874 52.8125 149.093 52.8125Z" fill="#CDDCF8"/>
<path d="M149.093 80.7939H63.5612C61.7799 80.7939 60.3359 82.2683 60.3359 84.087C60.3359 85.9056 61.7799 87.38 63.5612 87.38H149.093C150.874 87.38 152.318 85.9056 152.318 84.087C152.318 82.2683 150.874 80.7939 149.093 80.7939Z" fill="#CDDCF8"/>
<path d="M149.093 108.775H63.5612C61.7799 108.775 60.3359 110.25 60.3359 112.068C60.3359 113.887 61.7799 115.361 63.5612 115.361H149.093C150.874 115.361 152.318 113.887 152.318 112.068C152.318 110.25 150.874 108.775 149.093 108.775Z" fill="#CDDCF8"/>
<path d="M149.093 136.757H63.5612C61.7799 136.757 60.3359 138.231 60.3359 140.05C60.3359 141.869 61.7799 143.343 63.5612 143.343H149.093C150.874 143.343 152.318 141.869 152.318 140.05C152.318 138.231 150.874 136.757 149.093 136.757Z" fill="#CDDCF8"/>
<g filter="url(#filter0_d_9082_126665)">
<path d="M62.9817 102.773H17.4375C13.7786 102.773 10.8125 105.805 10.8125 109.545V176.083C10.8125 179.823 13.7786 182.854 17.4375 182.854H62.9817C66.6406 182.854 69.6067 179.823 69.6067 176.083V109.545C69.6067 105.805 66.6406 102.773 62.9817 102.773Z" fill="#F1F6FF"/>
</g>
<path d="M57.8964 136.061H22.5165C21.3252 136.061 20.3594 137.048 20.3594 138.265V138.273C20.3594 139.49 21.3252 140.477 22.5165 140.477H57.8964C59.0877 140.477 60.0535 139.49 60.0535 138.273V138.265C60.0535 137.048 59.0877 136.061 57.8964 136.061Z" fill="#CDDCF8"/>
<path d="M57.9175 167.14H22.8417C21.6606 167.14 20.7031 168.096 20.7031 169.276V169.283C20.7031 170.462 21.6606 171.419 22.8417 171.419H57.9175C59.0986 171.419 60.0561 170.462 60.0561 169.283V169.276C60.0561 168.096 59.0986 167.14 57.9175 167.14Z" fill="#CDDCF8"/>
<path d="M57.9175 150.879H22.8417C21.6606 150.879 20.7031 151.835 20.7031 153.015V153.022C20.7031 154.202 21.6606 155.158 22.8417 155.158H57.9175C59.0986 155.158 60.0561 154.202 60.0561 153.022V153.015C60.0561 151.835 59.0986 150.879 57.9175 150.879Z" fill="#CDDCF8"/>
<path d="M35.4544 113.049H25.1155C22.8253 113.049 20.9688 114.946 20.9688 117.287V120.22C20.9688 122.561 22.8253 124.458 25.1155 124.458H35.4544C37.7446 124.458 39.6011 122.561 39.6011 120.22V117.287C39.6011 114.946 37.7446 113.049 35.4544 113.049Z" fill="#CDDCF8"/>
<path d="M144.089 116.158L156.585 103.357C157.755 102.09 158.397 100.407 158.373 98.6652C158.348 96.9231 157.661 95.2593 156.455 94.0273C155.25 92.7953 153.622 92.0923 151.918 92.0676C150.213 92.0429 148.567 92.6986 147.328 93.8951L134.804 106.696L122.308 93.8951C121.706 93.2447 120.984 92.7241 120.182 92.3641C119.38 92.0042 118.516 91.8122 117.641 91.7995C116.766 91.7868 115.896 91.9537 115.085 92.2903C114.274 92.6269 113.537 93.1264 112.918 93.7592C112.299 94.392 111.81 95.1452 111.481 95.9744C111.152 96.8036 110.988 97.6919 111.001 98.5867C111.013 99.4815 111.201 100.365 111.553 101.184C111.905 102.003 112.415 102.742 113.051 103.357L125.568 116.158L113.051 128.959C112.415 129.573 111.905 130.312 111.553 131.131C111.201 131.951 111.013 132.834 111.001 133.729C110.988 134.624 111.152 135.512 111.481 136.341C111.81 137.17 112.299 137.923 112.918 138.556C113.537 139.189 114.274 139.688 115.085 140.025C115.896 140.362 116.766 140.529 117.641 140.516C118.516 140.503 119.38 140.311 120.182 139.951C120.984 139.591 121.706 139.071 122.308 138.42L134.832 125.619L147.356 138.42C148.606 139.546 150.23 140.142 151.896 140.087C153.562 140.032 155.144 139.33 156.321 138.123C157.498 136.917 158.18 135.297 158.229 133.594C158.278 131.891 157.69 130.234 156.585 128.959L144.089 116.158Z" fill="#FF2635"/>
<g filter="url(#filter1_f_9082_126665)">
<ellipse cx="135.121" cy="140.553" rx="30.73" ry="4.63157" fill="#FFD8D6"/>
</g>
<path d="M101.311 164.088L101.325 181.03C101.326 181.653 101.655 182.229 102.192 182.546L116.552 191.022L102.204 182.587C101.652 182.263 100.969 182.263 100.417 182.587L86.0688 191.022L100.43 182.546C100.966 182.229 101.296 181.653 101.296 181.03L101.311 164.088Z" fill="#ACC5F4"/>
<path d="M31.7872 0L31.8015 16.9417C31.8021 17.5648 32.1316 18.1413 32.6681 18.458L47.0289 26.934L32.6803 18.499C32.129 18.1749 31.4453 18.1749 30.894 18.499L16.5454 26.934L30.9062 18.458C31.4428 18.1413 31.7722 17.5648 31.7728 16.9417L31.7872 0Z" fill="#ACC5F4"/>
<path fill-rule="evenodd" clip-rule="evenodd" d="M103.922 8.22983C105.542 8.22983 106.856 6.88996 106.856 5.23716C106.856 3.58436 105.542 2.2445 103.922 2.2445C102.302 2.2445 100.989 3.58436 100.989 5.23716C100.989 6.88996 102.302 8.22983 103.922 8.22983ZM103.922 10.4743C106.757 10.4743 109.056 8.12957 109.056 5.23716C109.056 2.34476 106.757 0 103.922 0C101.087 0 98.7891 2.34476 98.7891 5.23716C98.7891 8.12957 101.087 10.4743 103.922 10.4743Z" fill="#ACC5F4"/>
<path d="M195.128 90.6144C194.852 89.5078 195.853 88.5103 196.931 88.8193L204.31 90.9349C205.387 91.2438 205.733 92.6266 204.931 93.4242L199.446 98.8863C198.645 99.684 197.298 99.2984 197.022 98.1922L195.128 90.6144Z" fill="#ACC5F4"/>
<path d="M23.183 77.7803C24.2677 77.4997 25.243 78.5218 24.9389 79.6205L22.8556 87.1464C22.5514 88.2456 21.195 88.597 20.4144 87.779L15.0678 82.1754C14.2872 81.3573 14.668 79.9834 15.7532 79.7026L23.183 77.7803Z" fill="#ACC5F4"/>
<path d="M163.074 181.19C164.158 180.91 165.134 181.932 164.829 183.031L162.746 190.557C162.442 191.656 161.086 192.007 160.305 191.189L154.958 185.586C154.178 184.767 154.559 183.394 155.644 183.113L163.074 181.19Z" fill="#ACC5F4"/>
<path fill-rule="evenodd" clip-rule="evenodd" d="M201.93 51.8158C203.55 51.8158 204.863 50.4759 204.863 48.8231C204.863 47.1703 203.55 45.8304 201.93 45.8304C200.31 45.8304 198.997 47.1703 198.997 48.8231C198.997 50.4759 200.31 51.8158 201.93 51.8158ZM201.93 54.0603C204.765 54.0603 207.063 51.7155 207.063 48.8231C207.063 45.9307 204.765 43.5859 201.93 43.5859C199.095 43.5859 196.797 45.9307 196.797 48.8231C196.797 51.7155 199.095 54.0603 201.93 54.0603Z" fill="#ACC5F4"/>
</g>
<defs>
<filter id="filter0_d_9082_126665" x="0.746555" y="96.0628" width="83.9617" height="105.246" filterUnits="userSpaceOnUse" color-interpolation-filters="sRGB">
<feFlood flood-opacity="0" result="BackgroundImageFix"/>
<feColorMatrix in="SourceAlpha" type="matrix" values="0 0 0 0 0 0 0 0 0 0 0 0 0 0 0 0 0 0 127 0" result="hardAlpha"/>
<feOffset dx="2.51649" dy="5.8718"/>
<feGaussianBlur stdDeviation="6.29122"/>
<feComposite in2="hardAlpha" operator="out"/>
<feColorMatrix type="matrix" values="0 0 0 0 0.104618 0 0 0 0 0.465612 0 0 0 0 0.545833 0 0 0 0.15 0"/>
<feBlend mode="normal" in2="BackgroundImageFix" result="effect1_dropShadow_9082_126665"/>
<feBlend mode="normal" in="SourceGraphic" in2="effect1_dropShadow_9082_126665" result="shape"/>
</filter>
<filter id="filter1_f_9082_126665" x="86.9061" y="118.437" width="96.4299" height="44.2317" filterUnits="userSpaceOnUse" color-interpolation-filters="sRGB">
<feFlood flood-opacity="0" result="BackgroundImageFix"/>
<feBlend mode="normal" in="SourceGraphic" in2="BackgroundImageFix" result="shape"/>
<feGaussianBlur stdDeviation="8.74224" result="effect1_foregroundBlur_9082_126665"/>
</filter>
</defs>
</svg>
