<svg
											width="17"
											height="16"
											viewBox="0 0 17 16"
											fill="none"
											xmlns="http://www.w3.org/2000/svg"
										>
											<path
												d="M10.4997 8.63379H5.83301C5.55967 8.63379 5.33301 8.40712 5.33301 8.13379C5.33301 7.86046 5.55967 7.63379 5.83301 7.63379H10.4997C10.773 7.63379 10.9997 7.86046 10.9997 8.13379C10.9997 8.40712 10.773 8.63379 10.4997 8.63379Z"
												fill="#101010"
											/>
											<path
												d="M8.75301 11.2998H5.83301C5.55967 11.2998 5.33301 11.0731 5.33301 10.7998C5.33301 10.5265 5.55967 10.2998 5.83301 10.2998H8.75301C9.02634 10.2998 9.25301 10.5265 9.25301 10.7998C9.25301 11.0731 9.02634 11.2998 8.75301 11.2998Z"
												fill="#101010"
											/>
											<path
												d="M9.83301 4.49967H7.16634C6.52634 4.49967 5.33301 4.49967 5.33301 2.66634C5.33301 0.833008 6.52634 0.833008 7.16634 0.833008H9.83301C10.473 0.833008 11.6663 0.833008 11.6663 2.66634C11.6663 3.30634 11.6663 4.49967 9.83301 4.49967ZM7.16634 1.83301C6.50634 1.83301 6.33301 1.83301 6.33301 2.66634C6.33301 3.49967 6.50634 3.49967 7.16634 3.49967H9.83301C10.6663 3.49967 10.6663 3.32634 10.6663 2.66634C10.6663 1.83301 10.493 1.83301 9.83301 1.83301H7.16634Z"
												fill="#101010"
											/>
											<path
												d="M10.5 15.1669H6.5C2.75333 15.1669 2 13.4469 2 10.6669V6.66695C2 3.62695 3.1 2.32695 5.80667 2.18695C6.07333 2.17361 6.32 2.38028 6.33333 2.66028C6.34667 2.94028 6.13333 3.16695 5.86 3.18028C3.96667 3.28695 3 3.85361 3 6.66695V10.6669C3 13.1336 3.48667 14.1669 6.5 14.1669H10.5C13.5133 14.1669 14 13.1336 14 10.6669V6.66695C14 3.85361 13.0333 3.28695 11.14 3.18028C10.8667 3.16695 10.6533 2.92695 10.6667 2.65361C10.68 2.38028 10.92 2.16695 11.1933 2.18028C13.9 2.32695 15 3.62695 15 6.66028V10.6603C15 13.4469 14.2467 15.1669 10.5 15.1669Z"
												fill="#101010"
											/>
										</svg>