<svg width="63" height="63" viewBox="0 0 63 63" fill="none" xmlns="http://www.w3.org/2000/svg">
<path d="M61.2811 25.5V40.5C61.2811 55.5 55.2436 61.5 40.1499 61.5H22.0374C6.94373 61.5 0.90625 55.5 0.90625 40.5V22.5C0.90625 7.5 6.94373 1.5 22.0374 1.5H37.1311" fill="#0652DD"/>
<path d="M61.2811 25.5V40.5C61.2811 55.5 55.2436 61.5 40.1499 61.5H22.0374C6.94373 61.5 0.90625 55.5 0.90625 40.5V22.5C0.90625 7.5 6.94373 1.5 22.0374 1.5H37.1311" stroke="#0652DD" stroke-width="1.5" stroke-linecap="round" stroke-linejoin="round"/>
<path d="M61.2827 25.5H49.2078C40.1516 25.5 37.1328 22.5 37.1328 13.5V1.5L61.2827 25.5Z" fill="#0544B8" stroke="#0544B8" stroke-width="1.5" stroke-linecap="round" stroke-linejoin="round"/>
<path d="M21.1153 52.127V43.487H24.6073C24.6913 43.487 24.7953 43.491 24.9193 43.499C25.0433 43.503 25.1613 43.515 25.2733 43.535C25.7533 43.611 26.1533 43.775 26.4733 44.027C26.7973 44.279 27.0393 44.597 27.1993 44.981C27.3593 45.365 27.4393 45.789 27.4393 46.253C27.4393 46.721 27.3593 47.147 27.1993 47.531C27.0393 47.915 26.7973 48.233 26.4733 48.485C26.1533 48.737 25.7533 48.901 25.2733 48.977C25.1613 48.993 25.0413 49.005 24.9133 49.013C24.7893 49.021 24.6873 49.025 24.6073 49.025H22.3693V52.127H21.1153ZM22.3693 47.837H24.5593C24.6393 47.837 24.7273 47.833 24.8233 47.825C24.9233 47.817 25.0173 47.803 25.1053 47.783C25.3613 47.723 25.5673 47.613 25.7233 47.453C25.8793 47.289 25.9913 47.101 26.0593 46.889C26.1273 46.677 26.1613 46.465 26.1613 46.253C26.1613 46.041 26.1273 45.831 26.0593 45.623C25.9913 45.411 25.8793 45.225 25.7233 45.065C25.5673 44.901 25.3613 44.789 25.1053 44.729C25.0173 44.705 24.9233 44.689 24.8233 44.681C24.7273 44.673 24.6393 44.669 24.5593 44.669H22.3693V47.837ZM28.6388 52.127V43.487H31.3448C31.4248 43.487 31.5728 43.489 31.7888 43.493C32.0088 43.497 32.2188 43.513 32.4188 43.541C33.0948 43.625 33.6628 43.867 34.1228 44.267C34.5868 44.667 34.9368 45.175 35.1728 45.791C35.4088 46.403 35.5268 47.075 35.5268 47.807C35.5268 48.543 35.4088 49.219 35.1728 49.835C34.9368 50.447 34.5868 50.953 34.1228 51.353C33.6628 51.749 33.0948 51.989 32.4188 52.073C32.2188 52.101 32.0088 52.117 31.7888 52.121C31.5728 52.125 31.4248 52.127 31.3448 52.127H28.6388ZM29.9228 50.933H31.3448C31.4808 50.933 31.6428 50.929 31.8308 50.921C32.0188 50.913 32.1848 50.897 32.3288 50.873C32.7688 50.789 33.1248 50.599 33.3968 50.303C33.6728 50.003 33.8748 49.635 34.0028 49.199C34.1308 48.763 34.1948 48.299 34.1948 47.807C34.1948 47.299 34.1288 46.829 33.9968 46.397C33.8648 45.961 33.6608 45.597 33.3848 45.305C33.1128 45.009 32.7608 44.821 32.3288 44.741C32.1848 44.713 32.0168 44.697 31.8248 44.693C31.6368 44.685 31.4768 44.681 31.3448 44.681H29.9228V50.933ZM36.9239 52.127V43.487H42.0419V44.741H38.1779V47.177H41.3219V48.437H38.1779V52.127H36.9239Z" fill="#FCFCFC"/>
</svg>
