<svg width="151" height="150" viewBox="0 0 151 150" fill="none" xmlns="http://www.w3.org/2000/svg">
<g clip-path="url(#clip0_3084_117107)">
<path d="M150.5 75.0019C150.5 33.577 116.921 0.000976563 75.5012 0.000976563C34.079 0.000976562 0.5 33.577 0.5 75.0019C0.5 116.42 34.079 149.999 75.5012 149.999C116.921 149.999 150.5 116.42 150.5 75.0019Z" fill="#FF2635"/>
<path d="M42.2852 52.4807C42.2852 48.2739 43.6356 44.0111 46.3372 39.6934C49.0378 35.3756 52.9801 31.7997 58.1613 28.9651C63.3429 26.1315 69.3878 24.7139 76.2962 24.7139C82.7169 24.7139 88.3861 25.8993 93.3019 28.2677C98.2176 30.6373 102.014 33.8591 104.694 37.9329C107.373 42.008 108.713 46.4358 108.713 51.2185C108.713 54.9831 107.949 58.2829 106.421 61.1163C104.893 63.9509 103.077 66.3976 100.974 68.4564C98.8701 70.5158 95.0949 73.9813 89.648 78.8527C88.1421 80.2258 86.9346 81.433 86.0277 82.4733C85.1195 83.5142 84.4438 84.4662 84.0015 85.3293C83.5583 86.1931 83.2146 87.0565 82.9718 87.9202C82.7278 88.7834 82.3626 90.301 81.8759 92.4705C81.0342 97.0767 78.3989 99.3792 73.971 99.3792C71.6679 99.3792 69.73 98.6267 68.1586 97.1205C66.5862 95.6153 65.8004 93.3787 65.8004 90.4114C65.8004 86.6913 66.3755 83.4694 67.5276 80.7461C68.6789 78.0222 70.2065 75.6308 72.1111 73.572C74.0146 71.5126 76.5837 69.0662 79.8167 66.2316C82.6504 63.7519 84.6993 61.8806 85.9615 60.6184C87.2237 59.3562 88.2863 57.951 89.1501 56.4C90.0135 54.8503 90.4455 53.1679 90.4455 51.3516C90.4455 47.8089 89.1274 44.8199 86.4929 42.3837C83.8576 39.9488 80.4583 38.7302 76.2962 38.7302C71.424 38.7302 67.8369 39.9591 65.5347 42.417C63.2316 44.8749 61.2834 48.4952 59.689 53.278C58.1831 58.2829 55.3265 60.7843 51.1196 60.7843C48.6388 60.7843 46.5464 59.9103 44.8422 58.1605C43.1374 56.4112 42.2852 54.5181 42.2852 52.4807ZM74.702 125.286C72.0002 125.286 69.6421 124.411 67.6274 122.662C65.6118 120.913 64.6048 118.467 64.6048 115.322C64.6048 112.532 65.5782 110.185 67.5276 108.28C69.4758 106.377 71.8672 105.424 74.7017 105.424C77.4919 105.424 79.8385 106.377 81.7431 108.28C83.6466 110.185 84.5995 112.532 84.5995 115.322C84.5995 118.422 83.603 120.858 81.6101 122.629C79.6172 124.4 77.3147 125.286 74.702 125.286Z" fill="white"/>
</g>
<defs>
<clipPath id="clip0_3084_117107">
<rect width="150" height="150" fill="white" transform="translate(0.5)"/>
</clipPath>
</defs>
</svg>
