<svg width="49" height="61" viewBox="0 0 49 61" fill="none" xmlns="http://www.w3.org/2000/svg">
<path d="M2.71045 31.6824C1.13738 29.2053 0.299054 26.3324 0.292828 23.3974C0.234695 19.92 1.08615 16.4879 2.76268 13.4414C4.69774 9.89331 7.50536 6.89793 10.92 4.73866C14.0001 2.56879 17.5331 1.12842 21.2515 0.526523C24.4732 0.00393704 27.7764 0.377231 30.8004 1.60566C33.6322 2.75325 36.0555 4.72356 37.7577 7.26245C39.0352 9.07055 39.8368 11.1717 40.0883 13.3718C40.2876 15.33 40.1938 17.307 39.81 19.2375C39.4274 21.1057 38.6505 24.3083 37.4794 28.8453C37.2154 29.913 37.0063 30.9936 36.8532 32.0827C36.6506 33.4236 36.7578 34.793 37.1663 36.086C37.3576 36.643 37.7055 37.5829 38.2273 38.9057C38.5446 39.4477 38.7515 40.0473 38.8358 40.6698C38.9201 41.2923 38.8803 41.9254 38.7185 42.5324C38.5568 43.1394 38.2763 43.7083 37.8934 44.2061C37.5106 44.7039 37.0329 45.1209 36.4879 45.4328C35.3559 46.2282 33.9545 46.5412 32.5919 46.303C31.8233 46.1296 31.0995 45.7968 30.4674 45.3261C29.8353 44.8554 29.3087 44.2573 28.9219 43.5704C27.697 41.834 26.8334 39.8688 26.3825 37.7917C26.0222 35.9912 25.9809 34.1412 26.2608 32.3264C26.6365 30.0742 27.13 27.8432 27.7392 25.6427C28.3654 23.2929 28.7828 21.5698 29.0089 20.421C29.2275 19.2744 29.2918 18.1036 29.2002 16.9399C29.1009 15.8045 28.7116 14.7136 28.0697 13.7721C27.4762 12.862 26.6935 12.0908 25.775 11.5111C24.8565 10.9313 23.8238 10.5567 22.7474 10.4129C20.3569 10.087 17.9341 10.7119 15.9988 12.1534C14.9006 12.7638 13.9409 13.5957 13.1805 14.5964C12.42 15.597 11.8754 16.7447 11.581 17.9669C11.2787 20.6266 11.5456 23.3203 12.3637 25.869C13.3551 29.089 12.7115 31.4387 10.4678 32.953C9.85195 33.3827 9.15391 33.6803 8.41757 33.8271C7.68123 33.9739 6.92248 33.9667 6.18907 33.8059C5.49655 33.7035 4.83172 33.4628 4.2341 33.098C3.63648 32.7332 3.11829 32.2518 2.71045 31.6824ZM46.1063 58.9395C44.7274 59.8831 43.0495 60.2859 41.3928 60.0708C40.5182 59.9463 39.6828 59.6266 38.9482 59.1356C38.2136 58.6445 37.5987 57.9945 37.1489 57.2337C36.6629 56.5441 36.3254 55.7611 36.1577 54.9341C35.9901 54.1072 35.9959 53.2544 36.1749 52.4298C36.3435 51.5925 36.6782 50.7976 37.1592 50.0921C37.6402 49.3865 38.2577 48.7847 38.9752 48.3221C39.664 47.8417 40.443 47.5061 41.2651 47.3356C42.0872 47.1651 42.9354 47.1631 43.7583 47.33C44.5851 47.4826 45.3716 47.804 46.0688 48.2742C46.7661 48.7443 47.3591 49.3531 47.8109 50.0626C48.3353 50.7668 48.699 51.5775 48.8763 52.4376C49.0536 53.2977 49.0402 54.1863 48.8371 55.0406C48.4467 56.6365 47.4723 58.0278 46.1063 58.9395Z" fill="#CDDCF8"/>
</svg>
