<svg width="197" height="212" viewBox="0 0 197 212" fill="none" xmlns="http://www.w3.org/2000/svg">
<path d="M59.1949 15.2304C67.3117 8.00129 77.8229 3.26699 90.7286 1.02748C103.634 -1.21203 117.276 0.209419 131.655 5.29183C145.987 10.3742 159.095 19.5528 170.981 32.8274C182.031 45.1737 189.498 58.106 193.383 71.6243C197.258 84.1251 197.613 97.4531 194.409 110.143C191.365 121.905 184.886 132.492 175.798 140.55C169.331 146.617 161.442 150.957 152.857 153.169C145.191 155.08 137.279 155.808 129.394 155.327C121.822 154.84 108.684 153.546 89.9808 151.446C85.6021 150.969 81.2012 150.725 76.7967 150.715C73.7805 150.695 70.7729 151.04 67.8393 151.742C65.5121 152.336 63.2511 153.164 61.0907 154.214C59.0036 155.24 55.4728 157.138 50.4635 159.94C40.1668 166.241 31.2151 165.138 23.6085 156.633C21.7188 154.622 20.2462 152.256 19.2759 149.671C18.3057 147.087 17.857 144.336 17.9558 141.577C18.1529 135.973 21.0981 130.617 26.7915 125.512C38.3881 114.392 53.9209 108.332 69.9786 108.663C79.1197 108.969 88.2395 109.735 97.3033 110.961C106.939 112.127 114.053 112.858 118.645 113.102C123.203 113.362 127.776 112.981 132.229 111.97C136.671 110.985 140.778 108.855 144.143 105.791C147.436 102.931 150.073 99.3923 151.874 95.4181C153.675 91.4439 154.598 87.1276 154.579 82.7638C154.718 73.4809 151.239 64.8535 144.143 56.8818C135.759 47.5176 127.231 42.7427 118.558 42.5571C109.884 42.3714 99.5586 44.8662 87.5805 50.0414C75.3937 55.7621 65.6825 54.6017 58.447 46.5603C56.3879 44.3514 54.8123 41.7366 53.821 38.8833C52.8296 36.03 52.4444 33.0011 52.6899 29.9903C52.7422 27.2213 53.3442 24.4904 54.461 21.9565C55.5777 19.4226 57.1869 17.1362 59.1949 15.2304ZM-24.8835 202.67C-29.4285 197.729 -31.9655 191.267 -31.9973 184.551C-32.1017 177.682 -29.1391 171.538 -23.1094 166.119C-20.6281 163.822 -17.6976 162.066 -14.5032 160.96C-11.3088 159.855 -7.92003 159.424 -4.55097 159.696C-1.1386 159.903 2.1972 160.795 5.25728 162.32C8.31735 163.846 11.039 165.972 13.2596 168.573C15.543 171.047 17.3063 173.954 18.4448 177.123C19.5833 180.292 20.0738 183.658 19.8873 187.02C19.7007 190.383 18.8408 193.673 17.3587 196.697C15.8766 199.72 13.8024 202.414 11.2594 204.62C5.31094 209.946 -1.06655 212.22 -7.87306 211.443C-14.4489 210.78 -20.5284 207.645 -24.8835 202.67Z" fill="#ACC5F4"/>
</svg>
