<svg width="94" height="126" viewBox="0 0 94 126" fill="none" xmlns="http://www.w3.org/2000/svg">
<path d="M4.72414 22.9347C7.16646 17.1277 11.2156 12.1397 16.3949 8.55771C22.482 4.21812 29.5893 1.53154 37.0232 0.760041C45.6836 -0.17246 54.4387 1.10911 62.4693 4.48482C70.0551 7.29325 76.9058 11.7863 82.5063 17.626C87.3595 22.6796 90.7292 28.9722 92.2464 35.8148C93.6452 42.2101 93.1 48.878 90.681 54.9608C89.0399 59.4227 86.2999 63.3979 82.715 66.5181C79.5046 69.2791 75.8915 71.5331 72.0008 73.2018C68.2671 74.7915 61.6635 77.3327 52.19 80.8255C49.9747 81.6387 47.8085 82.5802 45.7024 83.6451C44.2531 84.3566 42.8977 85.2453 41.6672 86.2908C40.689 87.1284 39.8028 88.0678 39.0234 89.0931C38.2755 90.0852 37.0406 91.8432 35.3187 94.3147C31.84 99.8149 27.2888 101.439 21.665 99.1883C20.2767 98.6791 19.0026 97.9003 17.9161 96.8966C16.8296 95.893 15.9521 94.6843 15.334 93.34C14.7134 91.7668 14.4268 90.0815 14.4927 88.3914C14.5586 86.7013 14.9754 85.0434 15.7166 83.5233C18.6001 75.4131 24.5797 68.7782 32.3445 65.0734C36.7888 63.0019 41.3341 61.1546 45.9633 59.5385C50.8507 57.798 54.4337 56.4229 56.6949 55.4482C58.9378 54.4742 61.0337 53.1912 62.9216 51.6364C64.8118 50.0924 66.2683 48.083 67.1481 45.8055C68.0388 43.6459 68.4519 41.3189 68.3588 38.9844C68.2658 36.6499 67.6688 34.3632 66.6089 32.2814C64.281 27.6996 60.2741 24.1949 55.4251 22.4996C49.1636 20.028 43.9457 19.7901 39.7713 21.7859C34.7025 24.4855 30.2672 28.2356 26.7612 32.7862C22.2854 38.4604 17.3458 40.201 11.9423 38.0079C10.4271 37.4407 9.04634 36.5645 7.88758 35.4348C6.72882 34.3052 5.8174 32.9469 5.21115 31.446C4.56999 30.1305 4.19675 28.7005 4.11314 27.2393C4.02953 25.7781 4.23723 24.3148 4.72414 22.9347ZM9.47244 132.938C6.11157 131.663 3.34592 129.181 1.71511 125.975C0.87993 124.29 0.428082 122.44 0.391995 120.56C0.355908 118.679 0.736485 116.813 1.5064 115.097C2.13326 113.394 3.10831 111.842 4.3692 110.538C5.63009 109.234 7.14906 108.208 8.8289 107.526C10.5142 106.806 12.3276 106.435 14.1599 106.435C15.9922 106.435 17.8056 106.806 19.4909 107.526C21.1777 108.161 22.7198 109.129 24.0257 110.372C25.3316 111.615 26.3748 113.108 27.0934 114.762C27.812 116.416 28.1914 118.198 28.209 120.002C28.2267 121.805 27.8822 123.594 27.1961 125.262C26.5949 127.049 25.6065 128.681 24.3016 130.041C22.9966 131.401 21.4073 132.455 19.6474 133.129C16.3533 134.353 12.7183 134.285 9.47244 132.938Z" fill="#ACC5F4"/>
</svg>
