<svg width="189" height="122" viewBox="0 0 189 122" fill="none" xmlns="http://www.w3.org/2000/svg">
<path d="M29.5974 7.61519C33.6558 4.00065 38.9115 1.63349 45.3643 0.513739C51.8172 -0.606017 58.6382 0.104709 65.8273 2.64592C72.9933 5.18712 79.5477 9.77638 85.4903 16.4137C91.0155 22.5868 94.7492 29.053 96.6915 35.8121C98.6289 42.0625 98.8064 48.7265 97.2046 55.0714C95.6826 60.9525 92.4428 66.2459 87.8992 70.2751C84.6657 73.3087 80.7208 75.4786 76.4285 76.5846C72.5956 77.5399 68.6394 77.9038 64.6968 77.6637C60.9109 77.4201 54.3421 76.7731 44.9904 75.723C42.801 75.4846 40.6006 75.3626 38.3984 75.3575C36.8902 75.3475 35.3864 75.5199 33.9196 75.871C32.7561 76.1678 31.6256 76.5819 30.5454 77.1068C29.5018 77.6202 27.7364 78.5688 25.2318 79.97C20.0834 83.1204 15.6076 82.5692 11.8043 78.3164C10.8594 77.3108 10.1231 76.1278 9.63796 74.8357C9.15283 73.5435 8.92848 72.168 8.97788 70.7885C9.07644 67.9863 10.5491 65.3087 13.3957 62.7559C19.194 57.1958 26.9604 54.1659 34.9893 54.3316C39.5598 54.4843 44.1197 54.8677 48.6516 55.4804C53.4695 56.0635 57.0264 56.429 59.3223 56.5508C61.6016 56.6811 63.8879 56.4907 66.1143 55.9851C68.3353 55.4927 70.3889 54.4277 72.0715 52.8957C73.7179 51.4653 75.0365 49.6962 75.937 47.7091C76.8376 45.722 77.2989 43.5638 77.2894 41.3819C77.359 36.7404 75.6197 32.4268 72.0715 28.4409C67.8797 23.7588 63.6155 21.3714 59.2788 21.2785C54.9421 21.1857 49.7793 22.4331 43.7902 25.0207C37.6968 27.881 32.8413 27.3008 29.2235 23.2802C28.194 22.1757 27.4062 20.8683 26.9105 19.4417C26.4148 18.015 26.2222 16.5005 26.3449 14.9951C26.3711 13.6107 26.6721 12.2452 27.2305 10.9783C27.7889 9.71128 28.5934 8.56809 29.5974 7.61519ZM-12.4418 101.335C-14.7143 98.8645 -15.9828 95.6336 -15.9987 92.2757C-16.0508 88.841 -14.5695 85.7689 -11.5547 83.0594C-10.314 81.9111 -8.8488 81.0328 -7.25161 80.48C-5.65442 79.9273 -3.96001 79.7121 -2.27548 79.8481C-0.5693 79.9514 1.0986 80.3976 2.62864 81.1602C4.15868 81.9228 5.51949 82.986 6.62981 84.2865C7.77148 85.5234 8.65313 86.9772 9.22239 88.5617C9.79166 90.1462 10.0369 91.829 9.94364 93.5102C9.85035 95.1914 9.42041 96.8366 8.67935 98.3483C7.93828 99.86 6.90119 101.207 5.6297 102.31C2.65547 104.973 -0.533274 106.11 -3.93653 105.721C-7.22444 105.39 -10.2642 103.823 -12.4418 101.335Z" fill="#ACC5F4"/>
<g opacity="0.4">
<path d="M107.362 65.9676C108.583 63.0641 110.608 60.5701 113.197 58.7791C116.241 56.6093 119.795 55.266 123.512 54.8803C127.842 54.414 132.219 55.0548 136.235 56.7427C140.028 58.1469 143.453 60.3934 146.253 63.3132C148.68 65.84 150.365 68.9864 151.123 72.4076C151.823 75.6053 151.55 78.9393 150.341 81.9807C149.52 84.2116 148.15 86.1992 146.357 87.7593C144.752 89.1398 142.946 90.2668 141 91.1012C139.134 91.896 135.832 93.1666 131.095 94.913C129.987 95.3196 128.904 95.7904 127.851 96.3228C127.127 96.6786 126.449 97.1229 125.834 97.6456C125.345 98.0644 124.901 98.5341 124.512 99.0468C124.138 99.5428 123.52 100.422 122.659 101.658C120.92 104.408 118.644 105.22 115.833 104.094C115.138 103.84 114.501 103.45 113.958 102.949C113.415 102.447 112.976 101.842 112.667 101.17C112.357 100.384 112.213 99.541 112.246 98.6959C112.279 97.8509 112.488 97.0219 112.858 96.2619C114.3 92.2068 117.29 88.8893 121.172 87.037C123.394 86.0012 125.667 85.0776 127.982 84.2695C130.425 83.3992 132.217 82.7117 133.347 82.2243C134.469 81.7374 135.517 81.0958 136.461 80.3184C137.406 79.5464 138.134 78.5417 138.574 77.403C139.019 76.3232 139.226 75.1597 139.179 73.9924C139.133 72.8252 138.834 71.6818 138.304 70.641C137.141 68.35 135.137 66.5977 132.713 65.75C129.582 64.5142 126.973 64.3953 124.886 65.3932C122.351 66.743 120.134 68.6181 118.381 70.8934C116.143 73.7305 113.673 74.6007 110.971 73.5042C110.214 73.2206 109.523 72.7825 108.944 72.2177C108.364 71.6529 107.909 70.9737 107.606 70.2232C107.285 69.5655 107.098 68.8505 107.057 68.1199C107.015 67.3893 107.119 66.6577 107.362 65.9676ZM109.736 120.969C108.056 120.332 106.673 119.091 105.858 117.488C105.44 116.645 105.214 115.72 105.196 114.78C105.178 113.84 105.368 112.907 105.753 112.049C106.067 111.197 106.554 110.421 107.185 109.769C107.815 109.117 108.575 108.604 109.414 108.263C110.257 107.903 111.164 107.718 112.08 107.718C112.996 107.718 113.903 107.903 114.745 108.263C115.589 108.581 116.36 109.065 117.013 109.686C117.666 110.308 118.187 111.054 118.547 111.881C118.906 112.708 119.096 113.599 119.105 114.501C119.113 115.403 118.941 116.297 118.598 117.131C118.297 118.025 117.803 118.841 117.151 119.521C116.498 120.201 115.704 120.728 114.824 121.065C113.177 121.677 111.359 121.643 109.736 120.969Z" fill="#ACC5F4"/>
</g>
<g opacity="0.1">
<path d="M165.855 60.8412C165.069 59.6027 164.65 58.1662 164.646 56.6987C164.617 54.96 165.043 53.2439 165.881 51.7207C166.849 49.9467 168.253 48.449 169.96 47.3693C171.5 46.2844 173.267 45.5642 175.126 45.2633C176.737 45.002 178.388 45.1886 179.9 45.8028C181.316 46.3766 182.528 47.3618 183.379 48.6312C184.018 49.5353 184.418 50.5859 184.544 51.6859C184.644 52.665 184.597 53.6535 184.405 54.6187C184.214 55.5528 183.825 57.1541 183.24 59.4227C183.108 59.9565 183.003 60.4968 182.927 61.0414C182.825 61.7118 182.879 62.3965 183.083 63.043C183.179 63.3215 183.353 63.7914 183.614 64.4528C183.772 64.7239 183.876 65.0237 183.918 65.3349C183.96 65.6462 183.94 65.9627 183.859 66.2662C183.778 66.5697 183.638 66.8541 183.447 67.103C183.255 67.352 183.016 67.5604 182.744 67.7164C182.178 68.1141 181.477 68.2706 180.796 68.1515C180.412 68.0648 180.05 67.8984 179.734 67.6631C179.418 67.4277 179.154 67.1287 178.961 66.7852C178.348 65.917 177.917 64.9344 177.691 63.8959C177.511 62.9956 177.49 62.0706 177.63 61.1632C177.818 60.0371 178.065 58.9216 178.37 57.8213C178.683 56.6465 178.891 55.7849 179.004 55.2105C179.114 54.6372 179.146 54.0518 179.1 53.47C179.05 52.9022 178.856 52.3568 178.535 51.8861C178.238 51.431 177.847 51.0454 177.387 50.7555C176.928 50.4657 176.412 50.2784 175.874 50.2064C174.678 50.0435 173.467 50.3559 172.499 51.0767C171.95 51.3819 171.47 51.7978 171.09 52.2982C170.71 52.7985 170.438 53.3724 170.29 53.9834C170.139 55.3133 170.273 56.6602 170.682 57.9345C171.178 59.5445 170.856 60.7194 169.734 61.4765C169.426 61.6914 169.077 61.8402 168.709 61.9136C168.341 61.9869 167.961 61.9833 167.595 61.9029C167.248 61.8518 166.916 61.7314 166.617 61.549C166.318 61.3666 166.059 61.1259 165.855 60.8412ZM187.553 74.4697C186.864 74.9416 186.025 75.1429 185.196 75.0354C184.759 74.9731 184.341 74.8133 183.974 74.5678C183.607 74.3223 183.299 73.9973 183.074 73.6169C182.831 73.2721 182.663 72.8805 182.579 72.4671C182.495 72.0536 182.498 71.6272 182.587 71.2149C182.672 70.7963 182.839 70.3988 183.08 70.046C183.32 69.6933 183.629 69.3923 183.988 69.161C184.332 68.9209 184.721 68.7531 185.133 68.6678C185.544 68.5825 185.968 68.5816 186.379 68.665C186.793 68.7413 187.186 68.902 187.534 69.1371C187.883 69.3721 188.18 69.6766 188.405 70.0313C188.668 70.3834 188.849 70.7888 188.938 71.2188C189.027 71.6489 189.02 72.0931 188.919 72.5203C188.723 73.3183 188.236 74.0139 187.553 74.4697Z" fill="#CDDCF8"/>
</g>
</svg>
