<svg width="189" height="122" viewBox="0 0 189 122" fill="none" xmlns="http://www.w3.org/2000/svg">
<path d="M159.403 7.61519C155.344 4.00065 150.089 1.63349 143.636 0.513739C137.183 -0.606017 130.362 0.104709 123.173 2.64592C116.007 5.18712 109.452 9.77638 103.51 16.4137C97.9845 22.5868 94.2508 29.053 92.3085 35.8121C90.3711 42.0625 90.1936 48.7265 91.7954 55.0714C93.3174 60.9525 96.5572 66.2459 101.101 70.2751C104.334 73.3087 108.279 75.4786 112.572 76.5846C116.404 77.5399 120.361 77.9038 124.303 77.6637C128.089 77.4201 134.658 76.7731 144.01 75.723C146.199 75.4846 148.399 75.3626 150.602 75.3575C152.11 75.3475 153.614 75.5199 155.08 75.871C156.244 76.1678 157.374 76.5819 158.455 77.1068C159.498 77.6202 161.264 78.5688 163.768 79.97C168.917 83.1204 173.392 82.5692 177.196 78.3164C178.141 77.3108 178.877 76.1278 179.362 74.8357C179.847 73.5435 180.072 72.168 180.022 70.7885C179.924 67.9863 178.451 65.3087 175.604 62.7559C169.806 57.1958 162.04 54.1659 154.011 54.3316C149.44 54.4843 144.88 54.8677 140.348 55.4804C135.53 56.0635 131.974 56.429 129.678 56.5508C127.398 56.6811 125.112 56.4907 122.886 55.9851C120.665 55.4927 118.611 54.4277 116.929 52.8957C115.282 51.4653 113.964 49.6962 113.063 47.7091C112.162 45.722 111.701 43.5638 111.711 41.3819C111.641 36.7404 113.38 32.4268 116.929 28.4409C121.12 23.7588 125.384 21.3714 129.721 21.2785C134.058 21.1857 139.221 22.4331 145.21 25.0207C151.303 27.881 156.159 27.3008 159.777 23.2802C160.806 22.1757 161.594 20.8683 162.09 19.4417C162.585 18.015 162.778 16.5005 162.655 14.9951C162.629 13.6107 162.328 12.2452 161.77 10.9783C161.211 9.71128 160.407 8.56809 159.403 7.61519ZM201.442 101.335C203.714 98.8645 204.983 95.6336 204.999 92.2757C205.051 88.841 203.57 85.7689 200.555 83.0594C199.314 81.9111 197.849 81.0328 196.252 80.48C194.654 79.9273 192.96 79.7121 191.275 79.8481C189.569 79.9514 187.901 80.3976 186.371 81.1602C184.841 81.9228 183.481 82.986 182.37 84.2865C181.229 85.5234 180.347 86.9772 179.778 88.5617C179.208 90.1462 178.963 91.829 179.056 93.5102C179.15 95.1914 179.58 96.8366 180.321 98.3483C181.062 99.86 182.099 101.207 183.37 102.31C186.345 104.973 189.533 106.11 192.937 105.721C196.224 105.39 199.264 103.823 201.442 101.335Z" fill="#ACC5F4"/>
<g opacity="0.4">
<path d="M81.6379 65.9676C80.4168 63.0641 78.3922 60.5701 75.8025 58.7791C72.759 56.6093 69.2054 55.266 65.4884 54.8803C61.1582 54.414 56.7806 55.0548 52.7653 56.7427C48.9725 58.1469 45.5471 60.3934 42.7469 63.3132C40.3203 65.84 38.6354 68.9864 37.8768 72.4076C37.1774 75.6053 37.45 78.9393 38.6595 81.9807C39.4801 84.2116 40.85 86.1992 42.6425 87.7593C44.2477 89.1398 46.0542 90.2668 47.9996 91.1012C49.8665 91.896 53.1683 93.1666 57.905 94.913C59.0126 95.3196 60.0958 95.7904 61.1488 96.3228C61.8734 96.6786 62.5511 97.1229 63.1664 97.6456C63.6555 98.0644 64.0986 98.5341 64.4883 99.0468C64.8622 99.5428 65.4797 100.422 66.3407 101.658C68.08 104.408 70.3556 105.22 73.1675 104.094C73.8617 103.84 74.4987 103.45 75.042 102.949C75.5852 102.447 76.024 101.842 76.333 101.17C76.6433 100.384 76.7866 99.541 76.7536 98.6959C76.7207 97.8509 76.5123 97.0219 76.1417 96.2619C74.7 92.2068 71.7101 88.8893 67.8278 87.037C65.6056 86.0012 63.333 85.0776 61.0184 84.2695C58.5746 83.3992 56.7831 82.7117 55.6526 82.2243C54.5311 81.7374 53.4832 81.0958 52.5392 80.3184C51.5941 79.5464 50.8659 78.5417 50.426 77.403C49.9806 76.3232 49.774 75.1597 49.8206 73.9924C49.8671 72.8252 50.1656 71.6818 50.6955 70.641C51.8595 68.35 53.8629 66.5977 56.2874 65.75C59.4182 64.5142 62.0272 64.3953 64.1143 65.3932C66.6487 66.743 68.8664 68.6181 70.6194 70.8934C72.8573 73.7305 75.3271 74.6007 78.0289 73.5042C78.7864 73.2206 79.4768 72.7825 80.0562 72.2177C80.6356 71.6529 81.0913 70.9737 81.3944 70.2232C81.715 69.5655 81.9016 68.8505 81.9434 68.1199C81.9852 67.3893 81.8814 66.6577 81.6379 65.9676ZM79.2638 120.969C80.9442 120.332 82.327 119.091 83.1424 117.488C83.56 116.645 83.786 115.72 83.804 114.78C83.822 113.84 83.6318 112.907 83.2468 112.049C82.9334 111.197 82.4458 110.421 81.8154 109.769C81.185 109.117 80.4255 108.604 79.5856 108.263C78.7429 107.903 77.8362 107.718 76.92 107.718C76.0039 107.718 75.0972 107.903 74.2545 108.263C73.4112 108.581 72.6401 109.065 71.9871 109.686C71.3342 110.308 70.8126 111.054 70.4533 111.881C70.094 112.708 69.9043 113.599 69.8955 114.501C69.8867 115.403 70.0589 116.297 70.402 117.131C70.7025 118.025 71.1967 118.841 71.8492 119.521C72.5017 120.201 73.2964 120.728 74.1763 121.065C75.8234 121.677 77.6409 121.643 79.2638 120.969Z" fill="#ACC5F4"/>
</g>
<g opacity="0.1">
<path d="M23.1448 60.8412C23.9313 59.6027 24.3505 58.1662 24.3536 56.6987C24.3827 54.96 23.9569 53.2439 23.1187 51.7207C22.1511 49.9467 20.7473 48.449 19.04 47.3693C17.4999 46.2844 15.7335 45.5642 13.8742 45.2633C12.2634 45.002 10.6118 45.1886 9.0998 45.8028C7.6839 46.3766 6.47226 47.3618 5.62117 48.6312C4.98238 49.5353 4.58159 50.5859 4.45583 51.6859C4.35621 52.665 4.40311 53.6535 4.59498 54.6187C4.7863 55.5528 5.17475 57.1541 5.76032 59.4227C5.89232 59.9565 5.99683 60.4968 6.07341 61.0414C6.17469 61.7118 6.12112 62.3965 5.91685 63.043C5.82119 63.3215 5.64727 63.7914 5.38637 64.4528C5.22768 64.7239 5.12425 65.0237 5.08209 65.3349C5.03993 65.6462 5.05987 65.9627 5.14074 66.2662C5.22162 66.5697 5.36185 66.8541 5.55328 67.103C5.74471 67.352 5.98356 67.5604 6.25603 67.7164C6.82207 68.1141 7.52274 68.2706 8.20405 68.1515C8.58837 68.0648 8.95024 67.8984 9.26631 67.6631C9.58237 67.4277 9.84563 67.1287 10.039 66.7852C10.6515 65.917 11.0833 64.9344 11.3087 63.8959C11.4889 62.9956 11.5095 62.0706 11.3696 61.1632C11.1818 60.0371 10.935 58.9216 10.6304 57.8213C10.3173 56.6465 10.1086 55.7849 9.99554 55.2105C9.88624 54.6372 9.85408 54.0518 9.89989 53.47C9.94954 52.9022 10.1442 52.3568 10.4652 51.8861C10.7619 51.431 11.1532 51.0454 11.6125 50.7555C12.0718 50.4657 12.5881 50.2784 13.1263 50.2064C14.3215 50.0435 15.533 50.3559 16.5006 51.0767C17.0497 51.3819 17.5295 51.7978 17.9098 52.2982C18.29 52.7985 18.5623 53.3724 18.7095 53.9834C18.8606 55.3133 18.7272 56.6602 18.3182 57.9345C17.8225 59.5445 18.1442 60.7194 19.2661 61.4765C19.574 61.6914 19.923 61.8402 20.2912 61.9136C20.6594 61.9869 21.0388 61.9833 21.4055 61.9029C21.7517 61.8518 22.0841 61.7314 22.383 61.549C22.6818 61.3666 22.9409 61.1259 23.1448 60.8412ZM1.44683 74.4697C2.13632 74.9416 2.97523 75.1429 3.80359 75.0354C4.24088 74.9731 4.65862 74.8133 5.02591 74.5678C5.39319 74.3223 5.70064 73.9973 5.92555 73.6169C6.16854 73.2721 6.3373 72.8805 6.42113 72.4671C6.50496 72.0536 6.50204 71.6272 6.41256 71.2149C6.32824 70.7963 6.1609 70.3988 5.9204 70.046C5.67991 69.6933 5.37116 69.3923 5.01242 69.161C4.66801 68.9209 4.2785 68.7531 3.86744 68.6678C3.45638 68.5825 3.03231 68.5816 2.62087 68.665C2.20747 68.7413 1.81421 68.902 1.46559 69.1371C1.11697 69.3721 0.820456 69.6766 0.594551 70.0313C0.332355 70.3834 0.150524 70.7888 0.0618706 71.2188C-0.0267811 71.6489 -0.0200958 72.0931 0.0814571 72.5203C0.276648 73.3183 0.763874 74.0139 1.44683 74.4697Z" fill="#CDDCF8"/>
</g>
</svg>
