<svg width="80" height="80" viewBox="0 0 80 80" fill="none" xmlns="http://www.w3.org/2000/svg">
<path d="M11.6668 68.3334C14.4335 71.1 18.9001 71.1 21.6668 68.3334L65.0001 25C67.7668 22.2334 67.7668 17.7667 65.0001 15C62.2335 12.2334 57.7668 12.2334 55.0001 15L11.6668 58.3334C8.90013 61.1 8.90013 65.5667 11.6668 68.3334Z" stroke="#008BA9" stroke-width="1.5" stroke-linecap="round" stroke-linejoin="round"/>
<path d="M60.0332 29.9667L50.0332 19.9667" stroke="#008BA9" stroke-width="1.5" stroke-linecap="round" stroke-linejoin="round"/>
<path d="M28.334 8.13329L33.334 6.66663L31.8673 11.6666L33.334 16.6666L28.334 15.2L23.334 16.6666L24.8007 11.6666L23.334 6.66663L28.334 8.13329Z" stroke="#008BA9" stroke-linecap="round" stroke-linejoin="round"/>
<path d="M15 28.1333L20 26.6666L18.5333 31.6666L20 36.6666L15 35.2L10 36.6666L11.4667 31.6666L10 26.6666L15 28.1333Z" stroke="#FF2635" stroke-linecap="round" stroke-linejoin="round"/>
<path d="M65 44.8L70 43.3334L68.5333 48.3334L70 53.3334L65 51.8667L60 53.3334L61.4667 48.3334L60 43.3334L65 44.8Z" stroke="#FF2635" stroke-linecap="round" stroke-linejoin="round"/>
</svg>
