<svg width="80" height="80" viewBox="0 0 80 80" fill="none" xmlns="http://www.w3.org/2000/svg">
<path d="M18.3327 33.3333C24.776 33.3333 29.9993 28.11 29.9993 21.6667C29.9993 15.2233 24.776 10 18.3327 10C11.8894 10 6.66602 15.2233 6.66602 21.6667C6.66602 28.11 11.8894 33.3333 18.3327 33.3333Z" fill="#0FB56D"/>
<path d="M18.3327 70C24.776 70 29.9993 64.7767 29.9993 58.3334C29.9993 51.89 24.776 46.6667 18.3327 46.6667C11.8894 46.6667 6.66602 51.89 6.66602 58.3334C6.66602 64.7767 11.8894 70 18.3327 70Z" fill="#0FB56D"/>
<path d="M50.8329 39.9333L74.8329 22C75.9329 21.1667 76.1663 19.6 75.3329 18.5C74.4996 17.4 72.9329 17.1667 71.8329 18L46.6663 36.8333L28.1663 22.9667C27.0663 22.1667 25.4996 22.3667 24.6663 23.4667C23.8329 24.5667 24.0663 26.1333 25.1663 26.9667L42.4996 39.9333L22.8329 54.6667C21.7329 55.5 21.4996 57.0667 22.3329 58.1667C22.8329 58.8333 23.5663 59.1667 24.3329 59.1667C24.8663 59.1667 25.3663 59 25.8329 58.6667L46.6663 43.0667L71.8329 61.9C72.2663 62.2333 72.7996 62.4 73.3329 62.4C74.0996 62.4 74.8329 62.0667 75.3329 61.4C76.1663 60.3 75.9329 58.7333 74.8329 57.9L50.8329 39.9333Z" fill="#0FB56D"/>
</svg>
