<svg width="67" height="69" viewBox="0 0 67 69" fill="none" xmlns="http://www.w3.org/2000/svg">
<path d="M51.6328 8.80006L51.3995 21.4333C51.3662 23.1667 52.4663 25.4667 53.8663 26.5L62.1329 32.7666C67.4329 36.7666 66.5662 41.6667 60.2329 43.6667L49.4663 47.0333C47.6663 47.6 45.7663 49.5667 45.2996 51.4001L42.7329 61.2C40.6996 68.9333 35.6329 69.7 31.4329 62.9L25.5662 53.4C24.4995 51.6666 21.9662 50.3667 19.9662 50.4667L8.83296 51.0333C0.866289 51.4333 -1.40041 46.8334 3.79959 40.7667L10.3995 33.1C11.6329 31.6667 12.1995 29 11.6328 27.2L8.26635 16.4333C6.29968 10.1 9.83296 6.60003 16.133 8.6667L25.9663 11.9C27.633 12.4334 30.1329 12.0667 31.5329 11.0333L41.7997 3.63333C47.333 -0.366667 51.7662 1.96673 51.6328 8.80006Z" stroke="#FFB800" stroke-width="1.5" stroke-linecap="round" stroke-linejoin="round"/>
</svg>
