<svg width="80" height="80" viewBox="0 0 80 80" fill="none" xmlns="http://www.w3.org/2000/svg">
<path d="M56.666 44.6667V54.6667C56.666 68 51.3327 73.3334 37.9993 73.3334H25.3327C11.9993 73.3334 6.66602 68 6.66602 54.6667V42C6.66602 28.6667 11.9993 23.3334 25.3327 23.3334H35.3327" stroke="#434343" stroke-width="1.5" stroke-linecap="round" stroke-linejoin="round"/>
<path d="M56.6673 44.6667H46.0007C38.0007 44.6667 35.334 42 35.334 34V23.3334L56.6673 44.6667Z" stroke="#434343" stroke-width="1.5" stroke-linecap="round" stroke-linejoin="round"/>
<path d="M38.666 6.66663H51.9993" stroke="#434343" stroke-width="1.5" stroke-linecap="round" stroke-linejoin="round"/>
<path d="M23.334 16.6666C23.334 11.1333 27.8007 6.66663 33.334 6.66663H42.0673" stroke="#434343" stroke-width="1.5" stroke-linecap="round" stroke-linejoin="round"/>
<path d="M73.3335 26.6666V47.3C73.3335 52.4666 69.1335 56.6666 63.9668 56.6666" stroke="#292D32" stroke-width="1.5" stroke-linecap="round" stroke-linejoin="round"/>
<path d="M73.334 26.6666H63.334C55.834 26.6666 53.334 24.1666 53.334 16.6666V6.66663L73.334 26.6666Z" stroke="#292D32" stroke-width="1.5" stroke-linecap="round" stroke-linejoin="round"/>
</svg>
